<svg width="32" height="43" xmlns="http://www.w3.org/2000/svg" xmlns:xlink="http://www.w3.org/1999/xlink"><defs><path id="a" d="M31.45 42.883V.903H.94v41.98z"/></defs><g fill="none" fill-rule="evenodd" opacity=".905"><mask id="b" fill="#fff"><use xlink:href="#a"/></mask><path fill="#65B1FC" mask="url(#b)" d="M31.381.903l.07 24.327L1.009 42.883.94 18.557z"/><path d="M21.235 22.24l3.674-6.335c.049.18.076.388.076.624L25 23.083c0 .144-.008.29-.027.44l-3.738-1.284zm-8.341 4.59l-4.046 6.116a2.621 2.621 0 0 1-.008-.4l.324-6.493c.013-.234.048-.472.11-.714l3.62 1.49zm3.299.7c.244.067.522.018.8-.136.28-.154.557-.411.8-.747l2.237-3.123L25 24.902c-.376.757-.97 1.441-1.646 1.814l-12.708 7.015c-.672.371-.328.345-.705.003l4.944-6.851 1.308.646zm.355-2.151a.284.284 0 0 1-.235.039L9 23.148c.36-.674.872-1.266 1.44-1.605l12.172-7.263c.571-.34 1.085-.36 1.447-.117l-7.276 10.974a.775.775 0 0 1-.235.242" fill="#FFF"/></g></svg>