<svg width="629" height="201" xmlns="http://www.w3.org/2000/svg"><defs><linearGradient x1="1.78%" y1="16.038%" x2="92.432%" y2="36.013%" id="a"><stop stop-color="#8CD9FF" offset="0%"/><stop stop-color="#39F" offset="100%"/></linearGradient><linearGradient x1="50%" y1="1.513%" x2="50%" y2="96.763%" id="b"><stop stop-color="#3C9FFF" offset="0%"/><stop stop-color="#2575C5" offset="100%"/></linearGradient></defs><g fill="none" fill-rule="evenodd"><path d="M368.98 123.961c-1.95-.522-3.076-2.64-2.516-4.729s2.594-3.36 4.543-2.837c1.95.522 3.076 2.64 2.516 4.73-.56 2.088-2.594 3.359-4.543 2.836zm-14.356-.727c-1.95-.522-3.076-2.64-2.516-4.73.56-2.089 2.594-3.359 4.543-2.836 1.95.522 3.076 2.64 2.516 4.729s-2.594 3.36-4.543 2.837zm-13.264-4.802c-1.95-.522-3.076-2.64-2.516-4.729.56-2.09 2.594-3.36 4.543-2.837 1.95.522 3.076 2.64 2.516 4.729-.56 2.09-2.594 3.36-4.543 2.837zm-13.028-7.857c-1.95-.523-3.076-2.64-2.516-4.73.56-2.089 2.594-3.36 4.544-2.837 1.95.523 3.076 2.64 2.516 4.73-.56 2.089-2.594 3.36-4.544 2.837zm-14.43-2.62c-1.95-.522-3.077-2.639-2.517-4.728.56-2.09 2.594-3.36 4.544-2.838 1.949.522 3.075 2.64 2.516 4.73-.56 2.089-2.594 3.359-4.544 2.837zm-12.89 4.657c-1.949-.523-3.075-2.64-2.515-4.73.56-2.089 2.594-3.359 4.543-2.837 1.95.523 3.076 2.64 2.516 4.73-.56 2.089-2.594 3.36-4.543 2.837zm-8.468 7.712c-1.95-.523-3.076-2.64-2.516-4.73.56-2.089 2.594-3.359 4.543-2.837 1.95.523 3.076 2.64 2.517 4.73-.56 2.089-2.594 3.36-4.544 2.837zm-4.361 11.931c-1.95-.522-3.076-2.64-2.516-4.729s2.594-3.36 4.543-2.837c1.95.522 3.076 2.64 2.516 4.729-.56 2.09-2.594 3.36-4.543 2.837zm-2.888 12.95c-1.95-.522-3.076-2.639-2.516-4.728.56-2.09 2.594-3.36 4.543-2.838 1.95.523 3.076 2.64 2.516 4.73-.56 2.089-2.594 3.359-4.543 2.837zm-5.447 11.641c-1.95-.522-3.076-2.64-2.516-4.729.56-2.09 2.594-3.36 4.543-2.837 1.95.522 3.076 2.64 2.516 4.729-.56 2.09-2.594 3.36-4.543 2.837zm-8.007 10.331c-1.95-.522-3.076-2.64-2.516-4.729.56-2.09 2.594-3.36 4.544-2.837 1.95.522 3.076 2.64 2.516 4.729-.56 2.09-2.594 3.36-4.544 2.837zm-12.27 6.694c-1.95-.523-3.076-2.64-2.516-4.73.56-2.089 2.594-3.36 4.544-2.837 1.949.523 3.075 2.64 2.516 4.73-.56 2.089-2.594 3.359-4.544 2.837zm-14.05 2.473c-1.949-.522-3.075-2.64-2.516-4.729.56-2.09 2.595-3.36 4.544-2.837 1.95.522 3.076 2.64 2.516 4.729-.56 2.09-2.594 3.36-4.543 2.837zm-12.801-2.182c-1.95-.523-3.076-2.64-2.516-4.73.56-2.089 2.594-3.36 4.543-2.837 1.95.523 3.076 2.64 2.516 4.73-.56 2.089-2.594 3.359-4.543 2.837zm-11.867-5.675c-1.949-.522-3.076-2.64-2.516-4.73.56-2.089 2.594-3.359 4.544-2.837 1.95.523 3.076 2.64 2.516 4.73-.56 2.089-2.594 3.36-4.544 2.837zm-8.989-9.895c-1.95-.522-3.076-2.64-2.516-4.729.56-2.09 2.594-3.36 4.543-2.837 1.95.522 3.076 2.64 2.516 4.729-.56 2.09-2.594 3.36-4.543 2.837zm-5.806-10.913c-1.95-.522-3.076-2.64-2.516-4.729.56-2.09 2.594-3.36 4.543-2.837 1.95.522 3.076 2.64 2.516 4.729-.56 2.09-2.594 3.36-4.543 2.837zm-6.038-12.222c-1.95-.523-3.076-2.64-2.516-4.73.56-2.089 2.594-3.36 4.544-2.837 1.949.522 3.076 2.64 2.516 4.73-.56 2.089-2.594 3.359-4.544 2.837zm-8.29-10.332c-1.95-.522-3.076-2.64-2.516-4.729s2.594-3.36 4.543-2.837c1.95.522 3.076 2.64 2.516 4.729-.56 2.09-2.594 3.36-4.543 2.837zm-9.07-7.42c-1.95-.523-3.076-2.64-2.517-4.73.56-2.089 2.595-3.36 4.544-2.837 1.95.522 3.076 2.64 2.516 4.73-.56 2.089-2.594 3.359-4.543 2.837zm-10.78-5.384c-1.95-.523-3.076-2.64-2.517-4.73.56-2.089 2.594-3.359 4.544-2.837 1.95.523 3.076 2.64 2.516 4.73-.56 2.089-2.594 3.36-4.544 2.837zm-11.404-3.056c-1.95-.522-3.076-2.64-2.517-4.729.56-2.09 2.594-3.36 4.544-2.837 1.95.522 3.076 2.64 2.516 4.729-.56 2.09-2.594 3.36-4.543 2.837zm-12.34.437c-1.95-.523-3.076-2.64-2.516-4.73.56-2.089 2.594-3.36 4.543-2.837 1.95.523 3.076 2.64 2.516 4.73-.56 2.089-2.594 3.359-4.543 2.837zm-12.034 3.637c-1.949-.522-3.075-2.64-2.516-4.729.56-2.09 2.594-3.36 4.544-2.837 1.95.522 3.076 2.64 2.516 4.729-.56 2.09-2.594 3.36-4.544 2.837z" fill="#888"/><path fill="#EEDDFE" d="M512.717 69.028l-171.89 23.4 21.428 19.3 14.182 32.734 12.47-7.39 17.39 16.146z"/><path fill="#CF9EFF" d="M362.983 111.892l14.212 32.7 12.45-7.356z"/><path fill="#E0C3FC" d="M512.6 69.691l-150.361 42.7 14.184 32.726 6.1-13.442z"/><path d="M539.157 104.342c-.772 0-1.399-.666-1.399-1.489 0-.822.627-1.489 1.4-1.489.772 0 1.399.667 1.399 1.49 0 .822-.627 1.488-1.4 1.488zm-1.12 5.36c-.772 0-1.399-.666-1.399-1.489 0-.822.627-1.489 1.4-1.489.773 0 1.4.667 1.4 1.49 0 .822-.627 1.488-1.4 1.488zm.56 5.36c-.772 0-1.399-.666-1.399-1.489 0-.822.627-1.489 1.4-1.489.773 0 1.4.667 1.4 1.49 0 .822-.627 1.488-1.4 1.488zm2.24 4.765c-.773 0-1.4-.667-1.4-1.49 0-.822.627-1.488 1.4-1.488.773 0 1.4.666 1.4 1.489 0 .822-.627 1.489-1.4 1.489zm2.799 4.764c-.773 0-1.4-.666-1.4-1.489 0-.822.627-1.489 1.4-1.489.772 0 1.399.667 1.399 1.49 0 .822-.627 1.488-1.4 1.488zm1.12 4.765c-.774 0-1.4-.667-1.4-1.49 0-.822.626-1.488 1.4-1.488.772 0 1.399.666 1.399 1.489 0 .822-.627 1.489-1.4 1.489zm0 4.764c-.774 0-1.4-.667-1.4-1.489 0-.822.626-1.489 1.4-1.489.772 0 1.399.667 1.399 1.49 0 .821-.627 1.488-1.4 1.488zm-1.12 4.764c-.773 0-1.4-.666-1.4-1.488 0-.823.627-1.49 1.4-1.49.772 0 1.399.667 1.399 1.49 0 .822-.627 1.488-1.4 1.488zm-2.8 4.765c-.772 0-1.399-.667-1.399-1.489 0-.822.627-1.489 1.4-1.489.773 0 1.4.667 1.4 1.489 0 .822-.627 1.489-1.4 1.489zm-3.358 2.978c-.773 0-1.4-.667-1.4-1.49 0-.822.627-1.488 1.4-1.488.773 0 1.4.666 1.4 1.489 0 .822-.627 1.489-1.4 1.489zM533 148.413c-.773 0-1.4-.666-1.4-1.489 0-.822.627-1.488 1.4-1.488.773 0 1.4.666 1.4 1.488 0 .823-.627 1.49-1.4 1.49zm-5.038.596c-.773 0-1.4-.667-1.4-1.489 0-.822.627-1.489 1.4-1.489.773 0 1.4.667 1.4 1.489 0 .822-.627 1.489-1.4 1.489zm-4.478-.596c-.773 0-1.4-.666-1.4-1.489 0-.822.627-1.488 1.4-1.488.773 0 1.4.666 1.4 1.488 0 .823-.627 1.49-1.4 1.49zm-3.918-1.786c-.773 0-1.4-.667-1.4-1.49 0-.822.627-1.488 1.4-1.488.772 0 1.399.666 1.399 1.489 0 .822-.627 1.489-1.4 1.489zm-3.919-2.978c-.773 0-1.4-.667-1.4-1.489 0-.822.627-1.489 1.4-1.489.773 0 1.4.667 1.4 1.489 0 .822-.627 1.489-1.4 1.489zm-2.799-4.169c-.772 0-1.399-.667-1.399-1.489 0-.822.627-1.489 1.4-1.489.772 0 1.399.667 1.399 1.49 0 .821-.627 1.488-1.4 1.488zm38.065-20.249c-.773 0-1.4-.666-1.4-1.489 0-.822.627-1.489 1.4-1.489.772 0 1.399.667 1.399 1.49 0 .822-.627 1.488-1.4 1.488zm34.145-23.227c-.773 0-1.4-.666-1.4-1.488 0-.823.627-1.49 1.4-1.49.773 0 1.4.667 1.4 1.49 0 .822-.627 1.488-1.4 1.488zm-1.12 4.765c-.772 0-1.399-.667-1.399-1.489 0-.822.627-1.489 1.4-1.489.773 0 1.4.667 1.4 1.489 0 .822-.627 1.489-1.4 1.489zm-3.358 2.978c-.773 0-1.4-.667-1.4-1.49 0-.822.627-1.488 1.4-1.488.773 0 1.4.666 1.4 1.489 0 .822-.627 1.489-1.4 1.489zm-4.478 1.786c-.773 0-1.4-.666-1.4-1.489 0-.822.627-1.488 1.4-1.488.773 0 1.4.666 1.4 1.488 0 .823-.627 1.49-1.4 1.49zm-5.038 0c-.773 0-1.4-.666-1.4-1.489 0-.822.627-1.488 1.4-1.488.773 0 1.4.666 1.4 1.488 0 .823-.627 1.49-1.4 1.49zm-4.478 0c-.773 0-1.4-.666-1.4-1.489 0-.822.627-1.488 1.4-1.488.773 0 1.4.666 1.4 1.488 0 .823-.627 1.49-1.4 1.49zm-10.076 0c-.773 0-1.4-.666-1.4-1.489 0-.822.627-1.488 1.4-1.488.773 0 1.4.666 1.4 1.488 0 .823-.627 1.49-1.4 1.49zm-5.038 2.383c-.773 0-1.4-.667-1.4-1.49 0-.822.627-1.488 1.4-1.488.773 0 1.4.666 1.4 1.489 0 .822-.627 1.489-1.4 1.489zm-2.799 5.36c-.772 0-1.399-.667-1.399-1.49 0-.822.627-1.488 1.4-1.488.772 0 1.399.666 1.399 1.489 0 .822-.627 1.489-1.4 1.489zm6.718 7.742c-.773 0-1.4-.667-1.4-1.49 0-.821.627-1.488 1.4-1.488.773 0 1.4.667 1.4 1.489 0 .822-.627 1.489-1.4 1.489zm4.478-1.787c-.773 0-1.4-.666-1.4-1.489 0-.822.627-1.489 1.4-1.489.773 0 1.4.667 1.4 1.49 0 .822-.627 1.488-1.4 1.488zm2.239-4.169c-.773 0-1.4-.666-1.4-1.489 0-.822.627-1.489 1.4-1.489.773 0 1.4.667 1.4 1.49 0 .822-.627 1.488-1.4 1.488zm.56-4.764c-.773 0-1.4-.667-1.4-1.49 0-.821.627-1.488 1.4-1.488.773 0 1.4.667 1.4 1.489 0 .822-.627 1.489-1.4 1.489zm-.56-4.765c-.773 0-1.4-.666-1.4-1.489 0-.822.627-1.488 1.4-1.488.773 0 1.4.666 1.4 1.488 0 .823-.627 1.49-1.4 1.49zm-2.799-4.169c-.773 0-1.4-.666-1.4-1.488 0-.823.627-1.49 1.4-1.49.773 0 1.4.667 1.4 1.49 0 .822-.627 1.488-1.4 1.488zm-3.359-2.977c-.772 0-1.399-.667-1.399-1.49 0-.822.627-1.488 1.4-1.488.772 0 1.399.666 1.399 1.489 0 .822-.627 1.489-1.4 1.489zm-5.037-1.191c-.773 0-1.4-.667-1.4-1.49 0-.822.627-1.488 1.4-1.488.772 0 1.399.666 1.399 1.489 0 .822-.627 1.489-1.4 1.489zm-4.479.595c-.772 0-1.399-.666-1.399-1.489 0-.822.627-1.489 1.4-1.489.772 0 1.399.667 1.399 1.49 0 .822-.627 1.488-1.4 1.488zm-4.478 2.382c-.773 0-1.4-.666-1.4-1.489 0-.822.627-1.488 1.4-1.488.773 0 1.4.666 1.4 1.488 0 .823-.627 1.49-1.4 1.49zm-58.215 69.085c-.773 0-1.4-.667-1.4-1.49 0-.821.627-1.488 1.4-1.488.772 0 1.399.667 1.399 1.489 0 .822-.627 1.489-1.4 1.489zm1.12-5.36c-.774 0-1.4-.667-1.4-1.49 0-.821.626-1.488 1.4-1.488.772 0 1.398.667 1.398 1.489 0 .822-.626 1.489-1.399 1.489zm-.56-5.36c-.774 0-1.4-.667-1.4-1.49 0-.821.626-1.488 1.4-1.488.772 0 1.399.667 1.399 1.489 0 .822-.627 1.489-1.4 1.489zm-2.24-4.765c-.773 0-1.4-.666-1.4-1.489 0-.822.627-1.488 1.4-1.488.773 0 1.4.666 1.4 1.488 0 .823-.627 1.49-1.4 1.49zm-2.799-4.764c-.772 0-1.399-.667-1.399-1.489 0-.822.627-1.489 1.4-1.489.772 0 1.399.667 1.399 1.489 0 .822-.627 1.489-1.4 1.489zm-1.12-4.765c-.772 0-1.399-.666-1.399-1.488 0-.823.627-1.49 1.4-1.49.773 0 1.4.667 1.4 1.49 0 .822-.627 1.488-1.4 1.488zm0-4.764c-.772 0-1.399-.667-1.399-1.489 0-.822.627-1.489 1.4-1.489.773 0 1.4.667 1.4 1.49 0 .821-.627 1.488-1.4 1.488zm1.12-4.764c-.772 0-1.399-.667-1.399-1.49 0-.822.627-1.488 1.4-1.488.772 0 1.399.666 1.399 1.489 0 .822-.627 1.489-1.4 1.489zm2.8-4.765c-.774 0-1.4-.666-1.4-1.489 0-.822.626-1.489 1.4-1.489.772 0 1.399.667 1.399 1.49 0 .822-.627 1.488-1.4 1.488zm3.358-2.978c-.773 0-1.4-.666-1.4-1.489 0-.822.627-1.488 1.4-1.488.773 0 1.4.666 1.4 1.488 0 .823-.627 1.49-1.4 1.49zm4.478-1.786c-.773 0-1.4-.667-1.4-1.49 0-.822.627-1.488 1.4-1.488.773 0 1.4.666 1.4 1.489 0 .822-.627 1.489-1.4 1.489zm5.038-.596c-.773 0-1.4-.666-1.4-1.489 0-.822.627-1.489 1.4-1.489.773 0 1.4.667 1.4 1.49 0 .822-.627 1.488-1.4 1.488zm4.478.596c-.773 0-1.4-.667-1.4-1.49 0-.822.627-1.488 1.4-1.488.773 0 1.4.666 1.4 1.489 0 .822-.627 1.489-1.4 1.489zm3.918 1.786c-.773 0-1.4-.666-1.4-1.489 0-.822.627-1.488 1.4-1.488.773 0 1.4.666 1.4 1.488 0 .823-.627 1.49-1.4 1.49zm3.919 2.978c-.773 0-1.4-.666-1.4-1.489 0-.822.627-1.489 1.4-1.489.773 0 1.4.667 1.4 1.49 0 .822-.627 1.488-1.4 1.488zm2.799 4.169c-.773 0-1.4-.667-1.4-1.489 0-.822.627-1.489 1.4-1.489.772 0 1.399.667 1.399 1.49 0 .821-.627 1.488-1.4 1.488zM438.4 177c-.773 0-1.4-.667-1.4-1.489 0-.822.627-1.489 1.4-1.489.772 0 1.399.667 1.399 1.49 0 .821-.627 1.488-1.4 1.488zm2.798-4.169c-.773 0-1.4-.666-1.4-1.489 0-.822.627-1.489 1.4-1.489.773 0 1.4.667 1.4 1.49 0 .822-.627 1.488-1.4 1.488zm3.359-2.978c-.773 0-1.4-.666-1.4-1.489 0-.822.627-1.488 1.4-1.488.773 0 1.4.666 1.4 1.488 0 .823-.627 1.49-1.4 1.49zm4.478-1.786c-.773 0-1.4-.667-1.4-1.49 0-.822.627-1.488 1.4-1.488.773 0 1.4.666 1.4 1.489 0 .822-.627 1.489-1.4 1.489zm5.038 0c-.773 0-1.4-.667-1.4-1.49 0-.822.627-1.488 1.4-1.488.773 0 1.4.666 1.4 1.489 0 .822-.627 1.489-1.4 1.489zm5.038 1.786c-.773 0-1.4-.666-1.4-1.489 0-.822.627-1.488 1.4-1.488.773 0 1.4.666 1.4 1.488 0 .823-.627 1.49-1.4 1.49zm3.918 2.978c-.773 0-1.4-.666-1.4-1.489 0-.822.627-1.489 1.4-1.489.773 0 1.4.667 1.4 1.49 0 .822-.627 1.488-1.4 1.488zm3.919 2.382c-.773 0-1.4-.666-1.4-1.489 0-.822.627-1.488 1.4-1.488.772 0 1.399.666 1.399 1.488 0 .823-.627 1.49-1.4 1.49zm5.037 1.191c-.772 0-1.399-.666-1.399-1.488 0-.823.627-1.49 1.4-1.49.772 0 1.399.667 1.399 1.49 0 .822-.627 1.488-1.4 1.488zm4.479-.595c-.773 0-1.4-.667-1.4-1.489 0-.822.627-1.489 1.4-1.489.772 0 1.399.667 1.399 1.489 0 .822-.627 1.489-1.4 1.489zm4.478-2.382c-.773 0-1.4-.667-1.4-1.49 0-.822.627-1.488 1.4-1.488.773 0 1.4.666 1.4 1.489 0 .822-.627 1.489-1.4 1.489z" fill="#45CBFC"/><path fill="#009AFB" d="M629.111 65.787l-56.684 7.57 7.087 6.399 4.71 10.833 4.107-2.43 5.752 5.353z"/><path fill="#4990E2" d="M580.634 79.806l4.72 10.822 4.1-2.42z"/><path fill="#3B7ECC" d="M629.072 65.986l-49.563 13.97 4.711 10.83 2-4.437z"/><path d="M347.738 25.78c-.622 0-1.126-.54-1.126-1.206 0-.666.504-1.206 1.126-1.206.622 0 1.126.54 1.126 1.206 0 .666-.504 1.205-1.126 1.205zm-1.126 5.426c-.622 0-1.127-.54-1.127-1.206 0-.666.505-1.206 1.127-1.206s1.126.54 1.126 1.206c0 .666-.504 1.206-1.126 1.206zm.563 5.426c-.622 0-1.126-.54-1.126-1.206 0-.666.504-1.205 1.126-1.205.622 0 1.126.54 1.126 1.205 0 .666-.504 1.206-1.126 1.206zm2.252 4.824c-.622 0-1.126-.54-1.126-1.206 0-.666.504-1.206 1.126-1.206.622 0 1.126.54 1.126 1.206 0 .666-.504 1.206-1.126 1.206zm2.816 4.823c-.622 0-1.126-.54-1.126-1.205 0-.666.504-1.206 1.126-1.206.622 0 1.126.54 1.126 1.206 0 .666-.504 1.205-1.126 1.205zm1.126 4.824c-.622 0-1.126-.54-1.126-1.206 0-.666.504-1.206 1.126-1.206.622 0 1.126.54 1.126 1.206 0 .666-.504 1.206-1.126 1.206zm0 4.823c-.622 0-1.126-.54-1.126-1.205 0-.666.504-1.206 1.126-1.206.622 0 1.126.54 1.126 1.206 0 .666-.504 1.205-1.126 1.205zm-1.126 4.824c-.622 0-1.126-.54-1.126-1.206 0-.666.504-1.206 1.126-1.206.622 0 1.126.54 1.126 1.206 0 .666-.504 1.206-1.126 1.206zm-2.816 4.824c-.622 0-1.126-.54-1.126-1.206 0-.666.504-1.206 1.126-1.206.622 0 1.126.54 1.126 1.206 0 .666-.504 1.206-1.126 1.206zm-3.378 3.014c-.622 0-1.127-.54-1.127-1.206 0-.666.505-1.206 1.127-1.206s1.126.54 1.126 1.206c0 .666-.504 1.206-1.126 1.206zm-4.505 1.81c-.622 0-1.127-.54-1.127-1.207 0-.666.505-1.206 1.127-1.206s1.126.54 1.126 1.206c0 .666-.504 1.206-1.126 1.206zm-5.068.602c-.622 0-1.126-.54-1.126-1.206 0-.666.504-1.206 1.126-1.206.622 0 1.126.54 1.126 1.206 0 .666-.504 1.206-1.126 1.206zm-4.505-.603c-.622 0-1.126-.54-1.126-1.206 0-.666.504-1.206 1.126-1.206.622 0 1.126.54 1.126 1.206 0 .666-.504 1.206-1.126 1.206zm-3.942-1.809c-.622 0-1.126-.54-1.126-1.206 0-.666.504-1.206 1.126-1.206.622 0 1.126.54 1.126 1.206 0 .666-.504 1.206-1.126 1.206zm-3.942-3.014c-.622 0-1.126-.54-1.126-1.206 0-.666.504-1.206 1.126-1.206.622 0 1.127.54 1.127 1.206 0 .666-.505 1.206-1.127 1.206zm-2.815-4.221c-.622 0-1.126-.54-1.126-1.206 0-.666.504-1.206 1.126-1.206.622 0 1.126.54 1.126 1.206 0 .666-.504 1.206-1.126 1.206zm38.291-20.5c-.622 0-1.126-.54-1.126-1.206 0-.666.504-1.206 1.126-1.206.622 0 1.126.54 1.126 1.206 0 .666-.504 1.206-1.126 1.206zm34.35-23.515c-.622 0-1.127-.54-1.127-1.206 0-.666.505-1.206 1.127-1.206s1.126.54 1.126 1.206c0 .666-.504 1.206-1.126 1.206zm-1.127 4.824c-.622 0-1.126-.54-1.126-1.206 0-.666.504-1.206 1.126-1.206.622 0 1.127.54 1.127 1.206 0 .666-.505 1.206-1.127 1.206zm-3.378 3.014c-.622 0-1.126-.54-1.126-1.205 0-.666.504-1.206 1.126-1.206.622 0 1.126.54 1.126 1.206 0 .666-.504 1.205-1.126 1.205zm-4.505 1.81c-.622 0-1.126-.54-1.126-1.207 0-.666.504-1.205 1.126-1.205.622 0 1.126.54 1.126 1.205 0 .666-.504 1.206-1.126 1.206zm-5.068 0c-.622 0-1.126-.54-1.126-1.207 0-.666.504-1.205 1.126-1.205.622 0 1.126.54 1.126 1.205 0 .666-.504 1.206-1.126 1.206zm-4.505 0c-.622 0-1.126-.54-1.126-1.207 0-.666.504-1.205 1.126-1.205.622 0 1.126.54 1.126 1.205 0 .666-.504 1.206-1.126 1.206zm-10.136 0c-.622 0-1.126-.54-1.126-1.207 0-.666.504-1.205 1.126-1.205.622 0 1.126.54 1.126 1.205 0 .666-.504 1.206-1.126 1.206zm-5.068 2.411c-.622 0-1.126-.54-1.126-1.206 0-.666.504-1.206 1.126-1.206.622 0 1.126.54 1.126 1.206 0 .666-.504 1.206-1.126 1.206zm-2.815 5.427c-.622 0-1.127-.54-1.127-1.206 0-.666.505-1.206 1.127-1.206s1.126.54 1.126 1.206c0 .666-.504 1.206-1.126 1.206zm6.757 7.838c-.622 0-1.126-.54-1.126-1.206 0-.666.504-1.206 1.126-1.206.622 0 1.126.54 1.126 1.206 0 .666-.504 1.206-1.126 1.206zm4.505-1.81c-.622 0-1.126-.539-1.126-1.205s.504-1.206 1.126-1.206c.622 0 1.126.54 1.126 1.206 0 .666-.504 1.206-1.126 1.206zm2.252-4.22c-.622 0-1.126-.54-1.126-1.206 0-.666.504-1.205 1.126-1.205.622 0 1.126.54 1.126 1.205 0 .666-.504 1.206-1.126 1.206zm.563-4.823c-.622 0-1.126-.54-1.126-1.206 0-.666.504-1.206 1.126-1.206.622 0 1.127.54 1.127 1.206 0 .666-.505 1.206-1.127 1.206zm-.563-4.824c-.622 0-1.126-.54-1.126-1.206 0-.666.504-1.205 1.126-1.205.622 0 1.126.54 1.126 1.205 0 .666-.504 1.206-1.126 1.206zm-2.815-4.22c-.622 0-1.127-.54-1.127-1.206 0-.666.505-1.206 1.127-1.206s1.126.54 1.126 1.206c0 .666-.504 1.206-1.126 1.206zm-3.379-3.015c-.622 0-1.126-.54-1.126-1.206 0-.666.504-1.206 1.126-1.206.622 0 1.126.54 1.126 1.206 0 .666-.504 1.206-1.126 1.206zm-5.068-1.206c-.622 0-1.126-.54-1.126-1.206 0-.666.504-1.206 1.126-1.206.622 0 1.126.54 1.126 1.206 0 .666-.504 1.206-1.126 1.206zm-4.505.603c-.622 0-1.126-.54-1.126-1.206 0-.666.504-1.206 1.126-1.206.622 0 1.126.54 1.126 1.206 0 .666-.504 1.206-1.126 1.206zm-4.505 2.412c-.622 0-1.126-.54-1.126-1.206 0-.666.504-1.206 1.126-1.206.622 0 1.127.54 1.127 1.206 0 .666-.505 1.206-1.127 1.206zm-48.427 47.03c-.622 0-1.126-.54-1.126-1.207 0-.666.504-1.206 1.126-1.206.622 0 1.126.54 1.126 1.206 0 .666-.504 1.206-1.126 1.206zm1.126-4.824c-.622 0-1.126-.54-1.126-1.206 0-.666.504-1.206 1.126-1.206.622 0 1.127.54 1.127 1.206 0 .666-.505 1.206-1.127 1.206zm3.38-3.015c-.623 0-1.127-.54-1.127-1.206 0-.666.504-1.206 1.126-1.206.622 0 1.126.54 1.126 1.206 0 .666-.504 1.206-1.126 1.206zm4.504-1.809c-.622 0-1.126-.54-1.126-1.206 0-.666.504-1.206 1.126-1.206.622 0 1.126.54 1.126 1.206 0 .666-.504 1.206-1.126 1.206zm5.068 0c-.622 0-1.126-.54-1.126-1.206 0-.666.504-1.206 1.126-1.206.622 0 1.126.54 1.126 1.206 0 .666-.504 1.206-1.126 1.206z" fill="#9013FE"/><path fill="#9F6DFA" d="M417.122.502L388.48 4.404l3.57 3.215 2.362 5.454 2.078-1.232 2.898 2.69z"/><path fill="#6A12B7" d="M392.673 7.647l2.368 5.448 2.074-1.226z"/><path fill="#9013FE" d="M417.102.613L392.047 7.73l2.363 5.453 1.017-2.24z"/><path d="M518.594 53.453c-.312 0-.564.27-.564.604 0 .333.252.603.564.603.312 0 .564-.27.564-.603 0-.334-.252-.604-.564-.604zm34.99 6.038c-.312 0-.564.27-.564.603 0 .334.252.604.564.604.312 0 .565-.27.565-.604 0-.333-.253-.603-.565-.603zm-1.693 3.622c-.312 0-.564.27-.564.604 0 .333.252.604.564.604.312 0 .564-.27.564-.604 0-.333-.252-.604-.564-.604zm-3.386 3.02c-.312 0-.564.27-.564.603 0 .333.252.604.564.604.312 0 .564-.27.564-.604 0-.334-.252-.604-.564-.604zm-4.515 1.207c-.312 0-.564.27-.564.603 0 .334.252.604.564.604.312 0 .564-.27.564-.604 0-.333-.252-.603-.564-.603zm-5.08 0c-.31 0-.563.27-.563.603 0 .334.252.604.564.604.312 0 .564-.27.564-.604 0-.333-.252-.603-.564-.603zm-4.514 0c-.312 0-.564.27-.564.603 0 .334.252.604.564.604.312 0 .564-.27.564-.604 0-.333-.252-.603-.564-.603zm-10.158 0c-.312 0-.565.27-.565.603 0 .334.253.604.565.604.311 0 .564-.27.564-.604 0-.333-.253-.603-.564-.603zm-5.08-2.415c-.311 0-.564.27-.564.603 0 .334.253.604.564.604.312 0 .565-.27.565-.604 0-.333-.253-.603-.565-.603zm-2.821-5.434c-.312 0-.565.27-.565.603 0 .334.253.604.565.604.311 0 .564-.27.564-.604 0-.333-.253-.603-.564-.603zm6.772-7.85c-.312 0-.564.27-.564.604 0 .334.252.604.564.604.312 0 .564-.27.564-.604 0-.333-.252-.603-.564-.603zm4.515 1.812c-.312 0-.565.27-.565.604 0 .333.253.603.565.603.311 0 .564-.27.564-.603 0-.334-.253-.604-.564-.604zm2.257 4.226c-.311 0-.564.27-.564.604 0 .333.253.604.564.604.312 0 .565-.27.565-.604 0-.333-.253-.604-.565-.604zm.565 4.83c-.312 0-.565.27-.565.604 0 .334.253.604.565.604.311 0 .564-.27.564-.604 0-.333-.253-.604-.564-.604zm-.565 4.83c-.311 0-.564.27-.564.604 0 .334.253.604.564.604.312 0 .565-.27.565-.604 0-.333-.253-.603-.565-.603zm-2.822 4.227c-.311 0-.564.27-.564.604 0 .333.253.604.564.604.312 0 .565-.27.565-.604 0-.334-.253-.604-.565-.604zm-3.386 3.019c-.311 0-.564.27-.564.604 0 .333.253.603.564.603.312 0 .565-.27.565-.603 0-.334-.253-.604-.565-.604zm-5.079 1.207c-.312 0-.564.27-.564.604 0 .334.252.604.564.604.312 0 .564-.27.564-.604 0-.333-.252-.604-.564-.604zm-4.515-.603c-.311 0-.564.27-.564.603 0 .334.253.604.564.604.312 0 .565-.27.565-.604 0-.333-.253-.603-.565-.603zm-4.515-2.415c-.311 0-.564.27-.564.603 0 .334.253.604.564.604.312 0 .565-.27.565-.604 0-.333-.253-.603-.565-.603z" fill="#AF8BC6"/><path fill="#DFBCEE" d="M566.007 52.315l-18.298 2.704 2.25 2.004 1.462 3.429 1.335-.796 1.825 1.677z"/><path fill="#815096" d="M550.513 57.046l1.465 3.426 1.333-.793z"/><path fill="#AE89C5" opacity=".99" d="M565.995 52.413l-16.038 4.707 1.462 3.429.667-1.425z"/><path d="M105.711 26.99l-.055-.256a9.982 9.982 0 0 1-.09-.517c-.201-1.333-.202-2.757.122-4.056.563-2.253 1.992-3.725 4.694-4.224 3.467-.64 5.466.747 6.639 3.672.286.716.504 1.486.673 2.315.064.314.118.622.171.96l.11.722a108076.802 108076.802 0 0 1 3.57 22.58l.119.752.042.266.033.18c.02.115.04.249.058.398.11.876.127 1.8-.008 2.635-.24 1.48-.868 2.32-2.06 2.525-3.145.54-4.249-.603-4.728-4.423-.192-1.532-.709-5.018-1.457-9.884l-.066-.432a2704.373 2704.373 0 0 0-1.562-10.022l-.036-.227a1.213 1.213 0 1 0-2.396.38l.035.228a2070.02 2070.02 0 0 1 .464 2.947 2702.756 2702.756 0 0 1 1.164 7.497c.744 4.84 1.259 8.316 1.447 9.817.633 5.051 2.831 7.326 7.545 6.517 2.368-.406 3.655-2.127 4.044-4.533.178-1.1.158-2.243.02-3.332a9.68 9.68 0 0 0-.112-.709c.004.011.004.011-.031-.209l-.119-.752a121727.77 121727.77 0 0 0-3.571-22.586c-.013-.076-.083-.551-.108-.712a23.486 23.486 0 0 0-.191-1.07 15.755 15.755 0 0 0-.8-2.736c-1.57-3.917-4.613-6.027-9.329-5.156-3.68.68-5.823 2.885-6.607 6.025-.414 1.657-.413 3.386-.168 5.01.061.411.125.721.171.906l3.561 21.619a1.213 1.213 0 1 0 2.393-.397l-3.58-21.718z" fill="#C8CFD4"/><path d="M129.004 126.75l-.754 65.376c0 6.618-5.606 9.752-12.517 7.002L13.517 158.44C6.604 155.688 1 148.09 1 141.473V75.544c0-6.619 5.606-9.753 12.517-7.002l102.216 40.688c2.239.891 7.439 1.362 9.257 3.071 3.796 3.57 4.014 9.974 4.014 14.449z" fill="#6CF"/><path d="M39.905 31.997l1.69-.57 3.036.099 2.732.416s70.715 14.58 99.77 21.207c1.305.297 1.926.31 3.567.789.646.187 1.792 1.032 1.792 1.032l2.444 2.28-32.105 58.815-88.47-.507s1.726-45.865 2.715-73.42c.013-.346 1.327-5.391 1.327-5.391l.739-2.688.763-2.062z" fill="url(#a)" transform="rotate(47 79.099 59.998)"/><path d="M58.833 21.048l4.864-4.12s4.51 7.535 5.167 8.531c19.744 29.94 54.56 92.514 54.56 92.514l-59.727 14.731L3.5 69.23l55.333-48.182z" fill="#44CAFC"/><path d="M114.5 168.494s-32.809-29.837-50.75-36.244c-15.892-5.675-50.75 0-50.75 0v-88l101.5 36.244v88z" fill="#FFF"/><path d="M112.25 80.25h2.25V87s-.263.094-.383 0c-.63-.496-1.867-1.77-1.867-1.77v-4.98z" fill="#D8D8D8"/><path fill="#96F" d="M106 99.492L22 69.25v-7l84 30.242z"/><path d="M13.25 50.812c-5.44-2.325 0-6.812 0-6.812l101.258 36.333s-1.753 2.81-1.753 4.111c0 .97 1.753 2.858 1.753 2.858S18.69 53.137 13.25 50.812z" fill="#ECEBEA"/><path fill="#494949" d="M22 83.776V82.25l84 30.147v1.527zm0 8V90.25l84 30.147v1.527zm0 8.5V98.75l84 30.147v1.527zm0 8v-1.526l84 30.147v1.527z"/><path d="M63.702 132.793l59.951-14.7s1.239 2.755 1.239 4.003c0 20.134-.326 56.234-.519 68.856-.042 2.802-.72 4.316-.72 4.316l-59.95-62.475z" fill="#8CD9FF"/><path d="M64.096 132.87L2.325 147.233s-1.23-1.67-1.278-4.035c-.237-11.885-.282-47.495 0-68.2.009-.625.447-2.766 1.278-4.165a4.891 4.891 0 0 1 1.551-1.604l60.22 63.64z" fill="#8CD9FF"/><path d="M136.905 108.157l7.984-2.023 2.734-.99s-.065-.326.169.515c.02.071 0 1.828 0 1.828v2.715s-.011 2.822 0 4.007c.134 13.903.461 48.04 0 67.833-.013.574-.915 4.224-2.903 6.593-2.06 2.454-5.208 3.62-5.208 3.62l-3.987.94s1.604-1.639 2.61-3.98c.986-2.297 1.373-5.293 1.377-5.563.317-20.852.216-56.548 0-68.465-.016-.877-.495-2.782-1.01-3.818a11.072 11.072 0 0 0-.53-.965c-.371-.57-.49-.802-.49-.802l-.746-1.445z" fill="url(#b)" transform="translate(-15 7)"/><g stroke="#96F" stroke-width="1.231"><path d="M294.4 88.415c-4.511-3.606-9.187-7.837-10.5-12.443-.465-1.637.47-3.346 2.093-3.817 1.62-.47 3.313.473 3.78 2.113.878 3.087 6.006 7.392 8.336 9.254"/><path d="M300.582 76.795s-4.773-3.987-4.946-4.282c-1.45-4.817-6.483-7.59-11.296-6.204a9.122 9.122 0 0 0-5.49 4.415c-1.184 2.163-1.497 4.577-.82 6.953 1.147 4.028-1.309 6.406-3.412 7.069"/><path d="M299.345 80.464c-5.8-4.636-6.36-6.074-6.638-7.049-.932-3.275-4.317-5.162-7.559-4.225-3.243.942-4.907 4.307-4.182 7.634 1.543 7.1-.057 9.775-3.875 10.98m19.782-1.835c-1.4-1.414-8.573-5.709-10.037-10.85m5.091 15.743c-.78-.788-2.323-3.67-4.327-3.67s-1.855 4.893-1.855 4.893m-2.472-9.785c.732 2.312-.64 7.758-3.091 8.562"/><path d="M300.582 72.513c-3.532-1.157-3.628-9.785-13.746-9.785-6.748 0-12.218 5.524-12.218 12.338m0 3.564c0 .77.618 1.834.618 1.834"/><path d="M275.345 63.685c.811-1.35 4.344-4.627 10.691-4.627 6.348 0 10.644 3.278 11.455 4.627M279.2 58.154c1.846-.835 2.164-1.543 6.873-1.543 5.01 0 6.364.836 8.4 1.543m4.582 7.712s1.144 1.773 1.526 2.978"/></g><path d="M210.191 61.81l-.302 26.186c0 2.651-2.246 3.906-5.014 2.804l-40.95-16.296c-2.77-1.103-5.015-4.146-5.015-6.796V41.3c0-2.651 2.246-3.906 5.014-2.804l40.95 16.296c.897.357 2.98.546 3.709 1.23 1.52 1.43 1.608 3.996 1.608 5.788z" fill="#39F"/><path d="M184.093 64l25.116 26.547s-.556.395-1.375.632c-.642.186-1.447.274-2.273-.003-8.23-2.757-31.181-12.184-43.808-17.33-.975-.398-2.503-3.611-2.503-3.611L184.093 64z" fill="#39F"/><path d="M184.033 64.23l24.013-5.89s.496 1.104.496 1.604c0 8.066-.132 22.528-.21 27.585-.016 1.122-.288 1.729-.288 1.729L184.033 64.23z" fill="#51A8FF"/><path d="M184.184 64.263l-24.837 6.144s-.12-.151-.201-.43c-.115-.397-.204-1.02-.215-1.575-.095-4.762-.113-19.028.001-27.322.004-.25.18-1.109.512-1.67.255-.429.621-.641.621-.641l24.12 25.494z" fill="#51A8FF"/><path d="M181.81 70.298c8.664-1.3 26.511-12.042 26.511-12.042l-48.335-19.501s13.995 24.76 21.824 31.543z" fill="#79BAFC"/><path d="M353.526 181.003l-1.1-.454C357.96 174.207 361 166.06 361 157.5c0-7.004-2.056-13.743-5.802-19.408a1.08 1.08 0 0 0-.167-.247 34.26 34.26 0 0 0-5.837-6.634 1.037 1.037 0 0 0-1.491.124 1.112 1.112 0 0 0 .12 1.535 32.076 32.076 0 0 1 4.788 5.243c-2.239.901-4.927 1.665-7.927 2.268-.829-2.542-1.847-4.912-3.044-7.05-1.613-2.882-3.468-5.202-5.49-6.91a30.796 30.796 0 0 1 8.896 4.277 1.04 1.04 0 0 0 1.469-.293 1.11 1.11 0 0 0-.284-1.512C340.69 125.038 334.213 123 327.5 123c-8.948 0-17.36 3.589-23.688 10.105-6.327 6.516-9.812 15.18-9.812 24.395 0 8.572 3.043 16.719 8.588 23.063l-1.087.439c-.4.148-3.804 1.547-3.804 6.004v3.903c0 .602.473 1.091 1.057 1.091h15.572c.05 0 .1-.005.15-.012.049.007.099.012.15.012h4.304c.585 0 1.058-.488 1.058-1.09 0-.601-.473-1.089-1.058-1.089h-3.246v-3.794c0-4.003 3.053-5.155 3.176-5.2a.975.975 0 0 0 .049-.018l5.152-2.078a.39.39 0 0 0 .033.038l2.738 2.746c.198.198.463.309.738.309h.017c.281-.005.55-.125.745-.334l2.628-2.809 5.145 2.125a.686.686 0 0 0 .05.02c.13.046 3.184 1.198 3.184 5.2v3.795h-17.102c-.585 0-1.058.488-1.058 1.09 0 .601.473 1.089 1.058 1.089h34.031c.584 0 1.058-.495 1.058-1.097v-3.897c0-4.44-3.378-5.845-3.8-6.003zm-3.2-1.322l-1.043-.43v-.62a5.667 5.667 0 0 0 2.459-3.141c1.539-.125 2.755-1.452 2.755-3.069 0-.961-.43-1.82-1.103-2.386v-1.937c0-3.733-2.72-6.822-6.226-7.28.04-.74.068-1.483.08-2.229h11.617c-.255 7.887-3.263 15.335-8.54 21.092zm-3.82-2.452h-.965c-1.869 0-3.39-1.566-3.39-3.491v-2.883c1.378-.154 3.82-.65 5.7-2.267.421.744 1.073 1.548 2.045 2.018v3.132c0 1.925-1.52 3.49-3.39 3.49zm.661 2.136v.604l-1.179 1.26-1.107-1.111v-.753c.217.027.437.042.66.042h.965c.224 0 .444-.015.661-.042zm-6.07-10.618h-.004a.977.977 0 0 0-.108.006c-.01 0-.022.003-.033.005-.024.003-.048.006-.071.011-.016.003-.032.008-.047.012l-.055.015-.033.013v-.71c0-2.848 2.249-5.164 5.013-5.164h.506c2.765 0 5.013 2.316 5.013 5.164v.7l-.06-.016-.03-.009c-1.474-.345-1.956-2.372-1.96-2.388a1.073 1.073 0 0 0-.82-.826 1.043 1.043 0 0 0-1.069.428c-1.916 2.728-6.186 2.759-6.242 2.759zm10.915 4.408v-1.468a.91.91 0 0 1 .369.734c0 .303-.146.57-.37.734zm1.84-33.208a32.944 32.944 0 0 1 5.012 16.463h-11.616c-.085-4.904-.75-9.633-1.937-13.94 3.252-.666 6.152-1.517 8.542-2.523zm-8.72 16.464h-10.83c-1.444-1.643-3.472-2.729-5.744-2.91v-9.368c5.191-.054 10.2-.498 14.664-1.27 1.168 4.165 1.824 8.765 1.91 13.548zm-9.332 11.376c0 .641-.42 1.181-.991 1.348v-2.695c.571.166.991.707.991 1.347zm-7.242-42.548c4.21.463 8.17 3.68 11.25 9.18 1.08 1.93 2.007 4.063 2.772 6.35-4.265.72-9.052 1.133-14.022 1.184V125.24zm-.671 30.412c3.603 0 6.535 3.02 6.535 6.73v1.332l-.022-.017a.952.952 0 0 0-.047-.036l-.038-.025a.934.934 0 0 0-.048-.03c-.015-.01-.03-.017-.046-.025l-.045-.022a.548.548 0 0 0-.056-.023l-.04-.015-.065-.019-.03-.008c-2.009-.471-2.646-3.17-2.651-3.193a1.073 1.073 0 0 0-.82-.826 1.042 1.042 0 0 0-1.069.428c-2.477 3.527-7.95 3.564-8.022 3.564h-.004a.976.976 0 0 0-.108.005l-.033.005-.072.012-.044.011-.057.015-.05.02a.443.443 0 0 0-.047.017c-.019.008-.037.018-.056.027l-.036.018c-.019.01-.037.023-.055.035l-.032.02-.05.038-.032.024-.028.026v-1.358c0-3.71 2.932-6.73 6.535-6.73h.633zm-18.02.76c.087-4.784.743-9.385 1.911-13.551 4.47.774 9.485 1.22 14.664 1.273v9.38c-2.218.214-4.194 1.292-5.608 2.905a1.052 1.052 0 0 0-.118-.007h-10.848zm10.494 10.017v2.718a1.395 1.395 0 0 1-1.034-1.359c0-.656.441-1.207 1.034-1.359zm6.081-41.189v16.714c-4.958-.051-9.749-.467-14.02-1.188.764-2.285 1.691-4.416 2.77-6.346 3.08-5.5 7.04-8.717 11.25-9.18zm-7.603 1.192c-2.018 1.707-3.87 4.024-5.48 6.9-1.196 2.138-2.214 4.506-3.042 7.047-2.997-.602-5.68-1.364-7.915-2.261 4.051-5.55 9.796-9.72 16.437-11.686zm-17.682 13.52c2.383 1.004 5.284 1.85 8.533 2.515-1.187 4.309-1.852 9.04-1.939 13.945h-11.615a32.792 32.792 0 0 1 5.02-16.46zm6.817 39.414c.216.027.437.043.66.043h.965c.224 0 .444-.016.66-.043v.604l-1.178 1.26-1.107-1.111v-.753zm1.625-2.136h-.965c-1.869 0-3.39-1.566-3.39-3.491v-2.882c1.378-.153 3.818-.65 5.7-2.268.421.744 1.073 1.549 2.045 2.018v3.132c0 1.925-1.52 3.49-3.39 3.49zm2.722-10.843a1.073 1.073 0 0 0-.82-.826 1.042 1.042 0 0 0-1.068.428c-1.918 2.73-6.191 2.76-6.243 2.76h-.004a.947.947 0 0 0-.107.005l-.033.005c-.024.003-.049.006-.072.011l-.045.012-.056.015-.034.013v-.71c0-2.848 2.25-5.164 5.014-5.164h.506c2.764 0 5.013 2.316 5.013 5.164v.7l-.062-.017-.028-.008c-1.475-.345-1.957-2.373-1.96-2.388zm-16.186-7.797h11.616c.013.75.042 1.5.082 2.244-3.45.51-6.11 3.573-6.11 7.265v1.928a3.11 3.11 0 0 0-1.114 2.395c0 1.629 1.235 2.963 2.79 3.07a5.666 5.666 0 0 0 2.459 3.14v.613l-1.156.466c-5.295-5.761-8.312-13.217-8.567-21.12zm6.993 13.074v1.516a.908.908 0 0 1-.403-.758c0-.318.161-.597.403-.758zm10.44 14.364v3.794h-13.756v-2.815c0-3.038 2.306-3.918 2.396-3.95a.929.929 0 0 0 .049-.02l3.99-1.608 2.12 2.126c.197.198.462.31.738.31h.017c.281-.005.55-.125.744-.334l2.003-2.14 2.476 1.022c-.47.989-.777 2.187-.777 3.615zm10.206-9.52l-5.614 2.264c-.715.254-1.705.838-2.583 1.802l-3.202-1.322v-.62a5.667 5.667 0 0 0 2.46-3.141c1.539-.125 2.755-1.452 2.755-3.069 0-.961-.43-1.82-1.103-2.386v-1.937c0-3.843-2.883-7.004-6.538-7.315-.04-.726-.068-1.46-.082-2.194h9.561a9.074 9.074 0 0 0-.825 3.792v2.542a3.613 3.613 0 0 0-1.392 2.864c0 1.956 1.53 3.55 3.422 3.58a6.813 6.813 0 0 0 3.141 4.029v1.11zm-8.67-3.352v-1.468a.91.91 0 0 1 .37.734.91.91 0 0 1-.37.734zm14.176 4.112v.07l-1.734 1.853-1.656-1.662v-1.37c.355.06.72.094 1.092.094h1.207c.371 0 .736-.034 1.09-.094v1.11zm-1.091-3.194h-1.207c-2.484 0-4.505-2.081-4.505-4.64v-3.846c1.688-.16 5.027-.764 7.465-3.019.515 1.003 1.378 2.168 2.751 2.772v4.094c0 2.558-2.02 4.639-4.504 4.639zm11.263 6.507c-.878-.966-1.868-1.552-2.585-1.807l-5.472-2.26v-1.117a6.812 6.812 0 0 0 3.141-4.03c1.872-.054 3.38-1.638 3.38-3.579a3.614 3.614 0 0 0-1.379-2.852v-2.554c0-1.355-.296-2.64-.825-3.792h9.42a59.318 59.318 0 0 1-.082 2.204c-3.6.368-6.42 3.504-6.42 7.305v1.928a3.11 3.11 0 0 0-1.114 2.395c0 1.629 1.235 2.963 2.79 3.07a5.666 5.666 0 0 0 2.459 3.14v.613l-3.313 1.336zm.584-8.917v1.516a.908.908 0 0 1-.404-.758.91.91 0 0 1 .404-.758zm15.174 18.158h-13.755v-3.794c0-1.422-.305-2.616-.771-3.603l2.47-.996 2.12 2.126c.197.198.462.31.738.31h.017c.281-.005.55-.125.745-.334l2.002-2.14 3.982 1.644a.716.716 0 0 0 .048.018c.098.036 2.405.916 2.405 3.954v2.815z" fill="#C8CFD4"/></g></svg>