<svg width="33" height="35" xmlns="http://www.w3.org/2000/svg"><g fill="none" fill-rule="evenodd"><path d="M8.79 18.285c0-4.566 3.816-8.238 8.426-7.99 4.079.22 7.391 3.602 7.54 7.691a7.966 7.966 0 0 1-2.15 5.757c-1.152 1.232-2.126 2.62-2.778 4.176l-.43 1.024v1.517h-5.244v-1.517l-.286-.683c-.718-1.714-1.78-3.248-3.023-4.627a7.963 7.963 0 0 1-2.054-5.348z" fill="#FFF"/><path fill="#5252CA" d="M13.962 32.934h5.628v-3.94h-5.628z"/><path fill="#5252CA" d="M15.809 30.78h1.599l2.897-13.536-.625-.134-2.788 13.03h-.553l-2.466-13.29-.627.116zm-.284 2.244a1.252 1.252 0 0 0 2.501 0c0-.693-.56-1.254-1.25-1.254-.691 0-1.25.561-1.25 1.254"/><path fill="#FFF" d="M16.498 7.306h.46V.755h-.46zM.695 17.05h6.538v-.46H.695zm25.528 0h6.538v-.46h-6.538zm-2.197-6.32l4.92-4.314-.301-.346-4.921 4.313zm-13.722-.92l.346-.303-4.305-4.93L6 4.878z"/></g></svg>