<svg width="182" height="93" xmlns="http://www.w3.org/2000/svg" xmlns:xlink="http://www.w3.org/1999/xlink"><defs><linearGradient x1="50%" y1="0%" x2="50%" y2="100%" id="a"><stop stop-color="#FFF" offset="0%"/><stop offset="100%"/></linearGradient><path id="b" d="M.027 24.265v47.284l30.87-17.985 9.71-16.971V.623z"/></defs><g fill="none" fill-rule="evenodd"><path d="M3.47 83.252c0 5.091 3.625 7.172 8.053 4.627L57.4 61.511c4.427-2.545 8.05-8.792 8.05-13.882V10.033c0-5.091-3.623-7.174-8.05-4.63L11.523 31.772C7.095 34.318 3.47 40.566 3.47 45.657v37.595z" fill="#002179"/><path d="M64.323 10.68l2.255-1.296c.888-.51 1.623-1.766 1.491-2.702-.35-2.482-1.45-4.255-3.046-5.172a.04.04 0 0 0-.004-.003c-1.597-.914-3.684-.975-6.015-.035-.881.354-1.605 1.615-1.605 2.637V6.7c0 .55.212.914.542 1.104.284.163.651.198 1.043.114.825-.177 1.565-.08 2.163.262l.006.003c.601.346 1.058.935 1.318 1.738.124.38.337.68.62.842.33.19.753.193 1.232-.082M59.004 63.6c4.667-3.487 8.366-9.866 9.065-15.633.067-.56-.093-.938-.386-1.107-.276-.16-.671-.13-1.104.12l-2.256 1.296c-.889.51-1.586 1.758-1.851 2.886-.52 2.204-1.83 4.465-3.486 6.013-.85.793-1.587 2.018-1.587 3.04v2.593c0 .497.17.854.448 1.012.293.168.705.117 1.157-.22M11.523 89.176v-2.593c0-.55-.213-.914-.543-1.103-.282-.162-.651-.198-1.042-.114-.83.177-1.571.078-2.17-.267-.6-.344-1.058-.934-1.318-1.738-.123-.38-.336-.678-.619-.841-.33-.19-.753-.192-1.233.083L2.343 83.9c-.888.51-1.623 1.764-1.49 2.7.348 2.482 1.448 4.255 3.044 5.172l.007.004c1.595.913 3.684.974 6.015.035.88-.354 1.604-1.614 1.604-2.635m-9.18-42.872l2.255-1.296c.89-.512 1.586-1.76 1.853-2.888.518-2.203 1.83-4.462 3.487-6.012.849-.793 1.585-2.018 1.585-3.04v-2.592c0-.497-.172-.853-.448-1.013-.293-.168-.705-.117-1.156.22C5.251 33.17 1.55 39.55.853 45.317c-.068.559.093.938.385 1.107.278.16.673.13 1.105-.12" fill="#A34FCF"/><path d="M35.865 46.944c0 .267-.125.586-.326.836l-9.333 11.585c1.979 2.372 5.378 2.554 9.015.443 5.934-3.444 10.764-11.85 10.764-18.738 0-6.638-4.483-9.483-10.12-6.597v12.47zM24.758 60.308c-.085-.124-.11-.313-.063-.53.046-.217.154-.442.301-.625l9.586-11.898V34.452c0-.412.287-.91.64-1.116 6.643-3.856 12.046-.72 12.046 6.989 0 7.71-5.403 17.117-12.047 20.972-4.312 2.503-8.323 2.124-10.463-.99z" fill="#FFF"/><path d="M32.048 34.675c-5.64 3.659-10.121 11.707-10.121 18.345 0 1.916.38 3.59 1.109 4.879l9.012-11.185V34.675zm-9.825 25.09c-1.034-1.5-1.578-3.578-1.578-6.002 0-7.708 5.402-17.115 12.044-20.97.354-.206.639-.038.639.373v13.237c0 .267-.122.585-.324.835l-9.908 12.3a1.159 1.159 0 0 1-.316.28c-.223.13-.44.12-.557-.052z" fill="#FFF"/><path d="M25.613 45.997c.651.378 1.707-.236 2.36-1.37.65-1.134.65-2.361 0-2.74-.653-.378-1.709.235-2.36 1.37-.653 1.135-.653 2.362 0 2.74m16.687.957c-.652-.377-1.71.237-2.361 1.37-.653 1.136-.653 2.363 0 2.741.651.378 1.71-.236 2.36-1.371.651-1.134.651-2.36 0-2.74" fill="#FFF"/><path fill="#FFF" d="M26.454 44.534l.68-1.184-5.649-3.279-9.358 5.432v1.116l8.96-5.2zm19.973 8.346l9.106-5.285V46.48l-8.707 5.052-5.367-3.114-.679 1.184zm7.493-1.695l.998-.579v-1.484l-.998.579zm-1.678.975l.995-.578v-1.485l-.995.578zm-1.679.974l.996-.579v-1.484l-.996.579zm-1.682.976l.998-.58v-1.484l-.998.579zm-1.677.973l.996-.578v-1.484l-.996.578zM19.51 40.174l.997-.58v-1.483l-.997.58zm-1.68.974l.998-.579v-1.483l-.997.58zm-1.678.975l.997-.579v-1.483l-.997.579zm-1.68.975l.998-.58v-1.483l-.998.58zm-1.679.974l.998-.579V42.01l-.998.579zm37.305-22.127l8.028-4.657v-.745L50.098 21.2zm0 2.013l8.028-4.658v-.745l-8.028 4.658zm0 2.012l8.028-4.658v-.744l-8.028 4.658zm0 2.013l8.028-4.658v-.744l-8.028 4.658zm0 2.013l8.028-4.658v-.745l-8.028 4.658zm0 2.012l8.028-4.659v-.744l-8.028 4.658zm2.178.749l5.85-3.395v-.744l-5.85 3.394zM10.974 70.18l10.205-5.922v-.745l-10.205 5.923zm0 2.013l10.205-5.923v-.744l-10.205 5.922zm0 2.013l10.205-5.923v-.745l-10.205 5.923zm0 2.012l10.205-5.922v-.745l-10.205 5.922zm0 2.012l10.205-5.922v-.744l-10.205 5.923zm2.246.709l7.958-4.617v-.745l-7.957 4.618z"/><path d="M63.56 10.636V48.4l3.21-1.858V8.778zm-52.153 75.41v3.718l45.73-26.485v-3.72zM1.775 46.422v37.765l3.211-1.861V44.563zm9.632-16.737v3.719l45.73-26.487V3.2z" fill="#BFABFF"/><path fill="#5252CA" d="M127.85 13.092L79.47 41.17v48.46l48.38-28.078z"/><path fill="#FFD1D4" d="M112.674 70.36l8.348-4.844V52.901l-8.348 4.845zm-13.186 7.653l8.346-4.844V56.696l-8.346 4.845zM86.3 85.666l8.35-4.845V52.616l-8.35 4.845z"/><path d="M119.64 46.46c.499-.29.95-.87 1.18-1.518.165-.472.191-.906.082-1.234-.113-.326-.35-.507-.668-.507-2.594-.026-5.34.41-7.997.828-3.268.515-6.616 1.043-9.666.716-1.743-.186-3.38-.609-4.96-1.016-2.927-.753-5.95-1.534-9.812-.96l-.163.025-.3.147c-.557.324-1.056 1.02-1.245 1.733-.122.446-.109.858.039 1.147.146.288.41.418.739.37 3.529-.523 6.405.216 9.186.934 1.553.4 3.31.854 5.164 1.051 3.268.353 6.741-.197 10.099-.727 2.587-.41 5.257-.831 7.722-.808l.204.003.396-.184z" fill="#FA8DA6"/><g transform="translate(141.143 19.53)"><use fill="url(#a)" xlink:href="#b"/><use fill="#FFD1D4" xlink:href="#b"/></g><path fill="#AF8184" d="M181.423 56.812l-10.224 17.87V62.77zm-40.253-1.03l40.58-23.642V20.154l-40.58 23.641z"/><path d="M171.581 56.68c-1.232 1.194-2.276 1.573-3.03.832-.247.514-.55.998-.788 1.53-.175.394-.464.487-.611.283-.827-1.181-2.63.164-3.926 1.14-1.516 1.148-3.039 2.538-4.58 3.266-.795.378-1.563.61-2.363 1.043-.718.39-1.436.835-2.15 1.146-1.478.636-2.487.075-3.243-1.074-.238-.365.406-1.117.639-.756.42.642.943 1.13 1.693 1.13.621-.003 1.331-.39 2-.755.792-.436 1.58-.899 2.371-1.254.835-.368 1.581-.614 2.426-1.2 2.23-1.536 5.724-5.303 7.48-3.77.272-.495.572-.995.71-1.499.121-.45.497-.664.65-.412.61 1.013 1.51.58 2.597-.474.434-.422.553.41.125.824m.67-9.813c-.394.906-.88 1.648-1.451 2.387-.215.276-.45.193-.5-.044-.183-.804-.825-1.058-1.322-1.48-.386.839-.93 1.644-1.075 2.518-.046.282-.285.492-.454.53-.988.222-1.906.213-2.873.355-1.054.153-2.205 1.059-3.283 1.791-1.875 1.278-3.86 2.505-5.005 1.122-.535 1.271-1.186 2.488-2.083 3.397-1.02 1.036-2.123 1.317-3.101 1.414-.428.042-.184-.954.243-.991.869-.089 1.805-.31 2.71-1.227.882-.895 1.476-2.294 1.954-3.54.147-.38.496-.51.61-.282 1.135 2.228 3.982-.387 5.997-1.699 1.734-1.126 3.132-.97 4.732-1.265.309-.988.998-1.869 1.262-2.852.126-.464.493-.65.651-.413.446.67 1.178.849 1.556 1.582.327-.46.607-.929.852-1.492.27-.625.852-.44.58.19m-5.59 20.67c-.577.436-1.085.663-1.589.558-.516-.108-.85-.645-1.317-.864-.807-.382-1.836.419-2.791 1.139-.546.407-1.59 1.433-2.052 1.116-.31-.214-.722-1.324-1.258-.412-.435.737-.56 1.73-1.127 2.373-1.423 1.606-2.545-.357-3.934 1.5-.393.526-.692-.126-.305-.645 1.412-1.889 2.378-.8 3.751-1.338.433-.169.953-1.974 1.256-2.49.441-.753 1-.876 1.404-.654.194.108.339.299.483.49.297.39.668-.04 1.16-.397.867-.623 1.933-1.62 2.796-1.743.66-.098 1.165.1 1.633.476.535.428.923.705 1.767.067.448-.34.575.482.123.824" fill="#00333E"/></g></svg>