<svg width="14" height="14" xmlns="http://www.w3.org/2000/svg"><path d="M4.567 7.189A2.736 2.736 0 0 1 7.3 4.45a2.735 2.735 0 0 1 2.732 2.739A2.735 2.735 0 0 1 7.3 9.926a2.735 2.735 0 0 1-2.732-2.737m-3.8-.576v1.152c0 .395.284.732.674.797l.918.154c.092.306.218.604.368.89l-.54.761a.81.81 0 0 0 .087 1.042l.813.815a.8.8 0 0 0 1.04.087l.756-.54c.284.15.58.273.889.368l.156.919a.807.807 0 0 0 .797.676h1.152c.395 0 .73-.285.796-.676l.153-.919c.297-.092.587-.21.862-.356l.767.547a.797.797 0 0 0 1.037-.087l.814-.814a.81.81 0 0 0 .087-1.043l-.538-.749c.153-.284.279-.582.375-.888l.927-.159a.809.809 0 0 0 .674-.799v-1.15a.808.808 0 0 0-.674-.8l-.906-.153a5.148 5.148 0 0 0-.363-.894l.546-.768a.81.81 0 0 0-.088-1.042l-.815-.814a.805.805 0 0 0-1.04-.088l-.751.541a4.99 4.99 0 0 0-.887-.374l-.158-.93A.807.807 0 0 0 7.9.643H6.75a.809.809 0 0 0-.797.676l-.152.907c-.32.096-.628.225-.923.38l-.758-.54a.8.8 0 0 0-1.037.087l-.813.814a.806.806 0 0 0-.09 1.043l.54.757c-.15.285-.272.582-.368.891l-.917.156a.798.798 0 0 0-.668.799" fill="#FFF" fill-rule="evenodd"/></svg>