<svg width="11" height="12" xmlns="http://www.w3.org/2000/svg"><path d="M3.394 5.861a2.237 2.237 0 0 1 2.236-2.24 2.238 2.238 0 0 1 2.235 2.24c0 1.237-1 2.24-2.235 2.24a2.238 2.238 0 0 1-2.236-2.24M.285 5.39v.942c0 .325.232.6.552.654l.75.125c.076.25.179.494.301.73l-.442.622a.664.664 0 0 0 .072.852l.665.667a.657.657 0 0 0 .851.071l.618-.443c.233.123.476.224.729.302l.127.752a.66.66 0 0 0 .652.553h.942a.66.66 0 0 0 .653-.553l.125-.752a4.2 4.2 0 0 0 .705-.29l.628.447a.656.656 0 0 0 .848-.072l.666-.666a.66.66 0 0 0 .071-.853l-.44-.613c.126-.233.228-.477.307-.727l.759-.13a.66.66 0 0 0 .55-.654v-.942a.66.66 0 0 0-.55-.653l-.742-.125a4.12 4.12 0 0 0-.297-.732l.447-.63a.663.663 0 0 0-.071-.852l-.668-.666a.652.652 0 0 0-.85-.072l-.616.443a4.074 4.074 0 0 0-.725-.306l-.13-.76a.66.66 0 0 0-.651-.553H5.18a.66.66 0 0 0-.652.552l-.125.743a4.145 4.145 0 0 0-.754.311l-.622-.444a.657.657 0 0 0-.848.072l-.666.667a.662.662 0 0 0-.07.853l.441.62a4.239 4.239 0 0 0-.301.729l-.75.128a.652.652 0 0 0-.548.653" fill="#FFF" fill-rule="evenodd"/></svg>