<svg xmlns="http://www.w3.org/2000/svg" xmlns:xlink="http://www.w3.org/1999/xlink" width="1920" height="470" viewBox="0 0 1920 470"><defs><path id="1og3a" d="M1250 290c0-11.046 8.954-20 20-20s20 8.954 20 20-8.954 20-20 20-20-8.954-20-20z"/><path id="1og3b" d="M1076 325c0-8.284 6.716-15 15-15 8.284 0 15 6.716 15 15 0 8.284-6.716 15-15 15-8.284 0-15-6.716-15-15z"/><path id="1og3c" d="M0 470V0h1920v470z"/><path id="1og3f" d="M0 470h1920V0H0z"/><path id="1og3g" d="M591.38 472c5.505-8.742 10.504-15.905 13.917-20.833 3.117-4.5 11.916-5.5 11.916-5.5L637.747 461l14.667-10h23.466c9.9 0 19.8-21.333 19.8-21.333 3.741 0 8.33-.494 10.311.738a3283.32 3283.32 0 0 0 18.289 11.262s8.754-18.334 13.75-18.334c5.377 0 11.214-.133 13.2-1.333 3.06-1.848 5.837-6.05 10.283-6.05 7.334 0 14.1 11.717 14.1 11.717l18.272-.764c3.637 0 17.662-29.903 17.662-29.903s9.268 3.233 12.283 5.833c7.15 6.167 19.617 29.667 19.617 29.667l13.2-11h23.65c8.25 0 22-24 25.85-21 3.85 3 15.4 16.5 15.4 16.5l8.096-7.5h14.215l15-16.5c13.501 8.5 28.175 11.646 28.175 11.646s7.867-14.846 14.826-18.896c8.375-4.875 27.5-4.75 27.5-4.75l14-32.5h29s11.806-22.667 18.889-22.667c7.25 0 6.417 3.834 10.083 5 3.136.998 9.101-.218 13.101 3.282S1128.359 353 1128.359 353h27.125c6.375 0 14.875 2.125 14.875 2.125l15.5-22.625s9.25 2.625 12.75 2.625 12.842-.437 16.75-5.125c4.375-5.25 15.25-25.125 22.5-27.5 6.602-2.163 12.75-1.75 18.5-4 4.906-1.92 13.5-9 13.5-9s9.625 37.5 15 40.5c5.226 2.917 20.5 3.5 26 7s14.5 18 14.5 18 10.375-13 14.166-13.667c3.698-.65 6.461.433 9.167.167 3.092-.305 5-5.5 10.333-3.667 5.624 1.934 7.857 8.352 10.334 13.167 4.835 9.404 12 33.5 12 33.5s9.7-25.208 15.825-33.083c5.819-7.482 24.3-13.792 28.175-24.417 6.998-19.19 26.083-86.5 29-92 2.845-5.367 13-11.5 13-11.5l14 33s13.5-1.167 15-5.5c3.645-10.533 13.5-44 13.5-44s10.416 5.5 13.75 5.5c2.083 0 13-16 13-16l15.25.083s9.583-13.666 14.5-13.583c2.875 17.375 13.5 52 13.5 52l13-16h15.5c3.5-4.667 11.25-28.083 13.416-39.25l16.209-.125s10.875-32.625 12.375-36.125 4 .5 7-1.5 4.02-3.5 7.5-3.5c5.024 0 11 10.5 15 10.5s6.008-.664 12.419-5.151c7.5-5.25 29.081-36.849 29.081-36.849s10.75 18.5 14.5 30c4.245 13.021 8.75 42.5 14.5 52 10 0 26.5-16.5 26.5-16.5s7.535 11.5 14.5 11.5c3.75 0 9.75-56.5 14.5-84.888 5.75 1.888 13.25 3.388 22.042 0 10.445-4.023 19.458-28.498 19.458-28.498 5.639 0 4.994 3.909 6.66 3.909 1.667 0 3.154-8.235 7.354-8.898 3.958-.625 6.765-4.791 12.958-3.792 5.167.834 10.167 12.675 12.682 12.675 2.805 0 9.36-1.633 14.985-9.883 7.578-11.114 20-43.125 20-43.125V472z"/><path id="1og3j" d="M592.232 472.535l-1.692-1.065c5.195-8.251 9.896-15.033 13.327-19.985l.614-.886c3.336-4.817 12.248-5.881 12.626-5.924l.393-.045 20.279 15.144 14.332-9.772h23.775c9.149 0 18.797-20.547 18.893-20.754l.269-.579h.638c.819 0 1.678-.024 2.543-.048 3.341-.093 6.499-.18 8.296.937a3193.42 3193.42 0 0 0 17.343 10.683c2.266-4.602 9.245-17.905 14.168-17.905 3.206 0 10.714 0 12.683-1.19.889-.537 1.783-1.316 2.728-2.14 2.181-1.9 4.651-4.054 8.072-4.054 6.978 0 13.189 9.328 14.651 11.693l17.679-.739c2.162-.554 10.241-15.348 16.799-29.329l.382-.816.852.297c.386.135 9.483 3.327 12.607 6.02 6.405 5.524 16.69 24.115 19.265 28.872l12.537-10.448h24.012c3.92 0 9.904-6.817 14.711-12.295 5.341-6.086 9.197-10.48 11.753-8.494 3.384 2.637 12.31 12.887 14.867 15.85l7.622-7.061h14.165l15.267-16.792.709.446c11.502 7.242 24.024 10.588 27.127 11.345 1.662-3.017 8.5-14.924 14.837-18.613 7.72-4.494 23.82-4.859 27.345-4.885l14-32.501h29.055c2.135-4.019 12.422-22.666 19.493-22.666 4.976 0 6.616 1.793 7.935 3.234.745.814 1.333 1.457 2.452 1.813.921.293 2.238.379 3.632.469 3.071.2 6.892.448 9.823 3.013 3.713 3.248 12.095 16.001 13.811 18.637h26.582c5.449 0 12.277 1.487 14.44 1.992l15.516-22.65.693.196c.091.026 9.155 2.587 12.476 2.587 3.612 0 12.398-.464 15.982-4.765 1.213-1.454 2.98-4.129 5.028-7.225 5.531-8.367 12.415-18.779 17.929-20.585 3.251-1.065 6.359-1.516 9.364-1.953 3.189-.462 6.199-.899 9.083-2.028 4.7-1.84 13.144-8.771 13.229-8.841l1.213-.999.391 1.523c3.68 14.338 10.876 37.842 14.519 39.875 2.311 1.29 7.065 2.16 11.662 3.001 5.558 1.017 11.307 2.069 14.387 4.029 4.747 3.02 11.759 13.548 14.062 17.131 2.902-3.548 10.387-12.322 13.894-12.939 2.278-.4 4.217-.186 5.927.005 1.171.131 2.277.254 3.316.151.859-.084 1.705-.765 2.683-1.554 1.878-1.51 4.214-3.39 8.073-2.063 5.148 1.77 7.6 6.86 9.764 11.352.381.791.754 1.566 1.134 2.303 3.901 7.587 9.195 24.286 11.232 30.914 2.693-6.752 9.897-24.203 14.914-30.654 2.458-3.161 6.957-6.042 11.718-9.093 6.616-4.238 14.114-9.041 16.307-15.052 3.453-9.469 9.742-30.308 15.825-50.46 6.284-20.82 11.712-38.802 13.231-41.666 2.941-5.547 12.942-11.631 13.367-11.888l.987-.596 14.163 33.387c5.007-.523 12.528-2.182 13.421-4.762 3.597-10.39 13.388-43.621 13.486-43.955l.345-1.173 1.081.571c2.807 1.482 10.585 5.302 13.201 5.383 1.448-.638 7.454-8.525 12.256-15.562l.3-.44 15.262.084c1.882-2.629 10.026-13.581 14.975-13.581h.056l.834.014.136.823c2.458 14.852 10.717 42.743 12.924 50.071l12.114-14.908h15.455c3.52-5.361 10.903-27.865 12.955-38.44l.155-.803 16.313-.126c1.609-4.822 10.782-32.266 12.178-35.525 1.155-2.694 3.116-2.157 4.414-1.804 1.047.286 1.952.533 2.951-.134.66-.44 1.221-.855 1.735-1.234 1.84-1.36 3.293-2.434 6.319-2.434 3.071 0 6.105 3.047 9.039 5.992 2.105 2.113 4.491 4.508 5.961 4.508 3.792 0 5.581-.585 11.847-4.97 7.267-5.087 28.612-36.279 28.827-36.594l.895-1.309.796 1.371c.441.759 10.846 18.723 14.586 30.192 1.608 4.931 3.239 12.143 4.966 19.779 2.703 11.948 5.756 25.447 9.148 31.513 9.534-.604 25.069-16.03 25.228-16.189l.869-.869.674 1.028c.073.109 7.16 10.805 13.451 11.044 2.241-2.574 5.912-29.242 8.87-50.728 1.635-11.887 3.328-24.178 4.857-33.32l.192-1.149 1.106.363c5.385 1.767 12.679 3.367 21.372.017 9.902-3.814 18.789-27.67 18.878-27.911l.241-.654h.697c4.211 0 5.478 2.047 6.236 3.271.113.183.257.416.366.551.332-.398.847-1.449 1.236-2.245 1.254-2.563 2.971-6.072 6.021-6.554 1.301-.205 2.541-.888 3.852-1.61 2.437-1.342 5.193-2.862 9.421-2.181 3.382.545 6.343 4.723 8.954 8.409 1.165 1.644 2.926 4.128 3.59 4.255.769-.001 7.877-.267 14.138-9.448 7.427-10.892 19.77-42.604 19.893-42.924l1.866.724c-.509 1.312-12.551 32.245-20.107 43.327-6.697 9.822-14.346 10.32-15.811 10.32-1.517 0-2.827-1.748-5.201-5.098-2.266-3.198-5.086-7.178-7.64-7.59-3.547-.57-5.88.714-8.137 1.957-1.47.81-2.858 1.575-4.506 1.835-2.023.319-3.475 3.289-4.536 5.457-.981 2.005-1.69 3.454-2.975 3.454-1.143 0-1.688-.88-2.125-1.587-.622-1.004-1.32-2.132-3.852-2.301-1.576 4.09-9.907 24.606-19.78 28.41-8.693 3.35-16.029 2.081-21.605.369-1.475 8.983-3.094 20.74-4.66 32.125-5.939 43.145-7.828 52.46-10.638 52.46-6.226 0-12.578-8.073-14.648-10.958-3.574 3.426-17.27 15.958-26.352 15.958h-.563l-.292-.482c-3.676-6.073-6.728-19.563-9.679-32.608-1.716-7.589-3.338-14.757-4.917-19.6-3.087-9.468-11.086-23.939-13.627-28.43-4.226 6.12-21.661 31.051-28.429 35.788-6.617 4.633-8.828 5.332-12.993 5.332-2.301 0-4.654-2.362-7.378-5.096-2.522-2.533-5.381-5.404-7.622-5.404-2.367 0-3.349.725-5.132 2.042a44.04 44.04 0 0 1-1.813 1.29c-1.757 1.172-3.392.726-4.586.4-1.309-.356-1.582-.431-2.05.662-1.467 3.423-12.236 35.722-12.345 36.048l-.226.678-16.111.124c-2.374 11.492-9.906 34.148-13.437 38.856l-.3.4h-15.524l-13.882 17.086-.55-1.792c-.104-.341-10.294-33.634-13.366-51.165-3.435 1.052-9.55 8.309-12.859 13.029l-.3.429-15.243-.084c-5.069 7.404-11.409 15.997-13.526 15.997-2.936 0-10.26-3.587-13.133-5.054-1.777 6.008-9.946 33.56-13.171 42.881-1.665 4.809-14.411 6.044-15.86 6.169l-.722.063-13.825-32.585c-2.573 1.663-9.477 6.387-11.655 10.495-1.429 2.692-7.09 21.449-13.083 41.307-6.091 20.179-12.389 41.045-15.861 50.567-2.424 6.646-10.225 11.643-17.107 16.051-4.613 2.955-8.97 5.747-11.218 8.637-5.965 7.669-15.585 32.578-15.681 32.829l-1.055 2.74-.838-2.815c-.071-.24-7.192-24.114-11.93-33.327-.387-.753-.768-1.543-1.157-2.35-2.09-4.341-4.253-8.83-8.613-10.328-2.814-.969-4.444.341-6.168 1.729-1.125.906-2.289 1.843-3.742 1.986-1.245.123-2.454-.011-3.731-.153-1.654-.184-3.365-.374-5.361-.023-2.49.438-9.638 8.393-13.557 13.305l-.884 1.108-.747-1.204c-.089-.143-8.943-14.347-14.188-17.684-2.75-1.75-8.303-2.766-13.674-3.748-4.975-.911-9.675-1.771-12.276-3.223-5.137-2.867-13.069-31.934-15.091-39.624-2.574 2.036-8.625 6.643-12.557 8.182-3.098 1.213-6.219 1.666-9.524 2.145-2.922.425-5.943.863-9.029 1.874-4.852 1.59-12.093 12.541-16.884 19.788-2.08 3.146-3.877 5.863-5.159 7.402-4.126 4.951-13.626 5.485-17.519 5.485-3.065 0-10.081-1.854-12.329-2.47l-15.489 22.609-.674-.169c-.084-.02-8.458-2.095-14.633-2.095h-27.67l-.295-.458c-.098-.152-9.896-15.306-13.745-18.675-2.421-2.117-5.722-2.332-8.635-2.521-1.52-.099-2.955-.192-4.11-.559-1.628-.518-2.527-1.502-3.321-2.369-1.216-1.329-2.364-2.584-6.459-2.584-5.313 0-14.797 15.973-18.003 22.128l-.28.538h-28.948l-14.002 32.505-.664-.005c-.173 0-18.948-.067-26.99 4.615-6.635 3.861-14.367 18.354-14.444 18.5l-.355.668-.739-.158c-.145-.031-14.486-3.17-27.785-11.336l-14.738 16.211h-14.265l-8.572 7.941-.676-.79c-.115-.135-11.528-13.458-15.255-16.362-1.066-.833-6.241 5.068-9.021 8.235-5.338 6.083-11.388 12.976-16.214 12.976h-23.289l-13.867 11.557-.578-1.088c-.124-.233-12.46-23.405-19.386-29.378-2.321-2.001-8.786-4.486-11.113-5.341-4.507 9.554-14.435 29.653-18.179 29.653l-18.834.788-.304-.524c-.064-.112-6.565-11.217-13.234-11.217-2.671 0-4.748 1.811-6.758 3.562-1.013.883-1.97 1.717-3.008 2.344-2.03 1.226-6.952 1.478-13.717 1.478-3.011 0-9.325 10.387-12.847 17.763l-.478 1.001-.946-.578c-.105-.064-10.542-6.442-18.297-11.265-1.287-.801-4.421-.716-7.184-.637-.663.019-1.323.037-1.965.044-1.715 3.531-10.843 21.338-20.433 21.338h-23.158l-15.002 10.229-20.777-15.516c-1.673.251-8.354 1.457-10.824 5.023l-.614.886c-3.421 4.937-8.107 11.698-13.279 19.911"/><path id="1og3d" d="M591.382 472c5.505-8.742 10.504-15.905 13.917-20.833 3.117-4.5 11.916-5.5 11.916-5.5L637.749 461l14.667-10h23.466c9.9 0 19.8-21.333 19.8-21.333 3.741 0 8.33-.494 10.311.738a3283.32 3283.32 0 0 0 18.289 11.262s8.754-18.334 13.75-18.334c5.377 0 11.214-.133 13.2-1.333 3.06-1.848 5.837-6.05 10.283-6.05 7.334 0 14.1 11.717 14.1 11.717l18.272-.764c3.637 0 17.662-29.903 17.662-29.903s9.268 3.233 12.283 5.833c7.15 6.167 19.617 29.667 19.617 29.667l13.2-11h23.65c8.25 0 22-24 25.85-21 3.85 3 15.4 16.5 15.4 16.5l8.096-7.5h14.215l15-16.5c13.501 8.5 28.175 11.646 28.175 11.646s7.867-14.846 14.826-18.896c8.375-4.875 27.5-4.75 27.5-4.75l14-32.5h29s11.806-22.667 18.889-22.667c7.25 0 6.417 3.834 10.083 5 3.136.998 9.101-.218 13.101 3.282S1128.361 353 1128.361 353h27.125c6.375 0 14.875 2.125 14.875 2.125l15.5-22.625s9.25 2.625 12.75 2.625 12.842-.437 16.75-5.125c4.375-5.25 15.25-25.125 22.5-27.5 6.602-2.163 12.75-1.75 18.5-4 4.906-1.92 13.5-9 13.5-9s9.625 37.5 15 40.5c5.226 2.917 20.5 3.5 26 7s14.5 18 14.5 18 10.375-13 14.166-13.667c3.698-.65 6.461.433 9.167.167 3.092-.305 5-5.5 10.333-3.667 5.624 1.934 7.857 8.352 10.334 13.167 4.835 9.404 12 33.5 12 33.5s9.7-25.208 15.825-33.083c5.819-7.482 24.3-13.792 28.175-24.417 6.998-19.19 26.083-86.5 29-92 2.845-5.367 13-11.5 13-11.5l14 33s13.5-1.167 15-5.5c3.645-10.533 13.5-44 13.5-44s10.416 5.5 13.75 5.5c2.083 0 13-16 13-16l15.25.083s9.583-13.666 14.5-13.583c2.875 17.375 13.5 52 13.5 52l13-16h15.5c3.5-4.667 11.25-28.083 13.416-39.25l16.209-.125s10.875-32.625 12.375-36.125 4 .5 7-1.5 4.02-3.5 7.5-3.5c5.024 0 11 10.5 15 10.5s6.008-.664 12.419-5.151c7.5-5.25 29.081-36.849 29.081-36.849s10.75 18.5 14.5 30c4.245 13.021 8.75 42.5 14.5 52 10 0 26.5-16.5 26.5-16.5s7.535 11.5 14.5 11.5c3.75 0 9.75-56.5 14.5-84.888 5.75 1.888 13.25 3.388 22.042 0 10.445-4.023 19.458-28.498 19.458-28.498 5.639 0 4.994 3.909 6.66 3.909 1.667 0 3.154-8.235 7.354-8.898 3.958-.625 6.765-4.791 12.958-3.792 5.167.834 10.167 12.675 12.682 12.675 2.805 0 9.36-1.633 14.985-9.883 7.578-11.114 20-43.125 20-43.125V-2H-2v474z"/><path id="1og3m" d="M987 404v-78m5-5a5 5 0 1 1-10 0 5 5 0 0 1 10 0z"/><path id="1og3n" d="M1393 360V204m5-5a5 5 0 1 1-10 0 5 5 0 0 1 10 0z"/><path id="1og3o" d="M591.38 472c5.505-8.742 10.504-15.905 13.917-20.833 3.117-4.5 11.916-5.5 11.916-5.5L637.747 461l14.667-10h23.466c9.9 0 19.8-21.333 19.8-21.333 3.741 0 8.33-.494 10.311.738a3283.32 3283.32 0 0 0 18.289 11.262s8.754-18.334 13.75-18.334c5.377 0 11.214-.133 13.2-1.333 3.06-1.848 5.837-6.05 10.283-6.05 7.334 0 14.1 11.717 14.1 11.717l18.272-.764c3.637 0 17.662-29.903 17.662-29.903s9.268 3.233 12.283 5.833c7.15 6.167 19.617 29.667 19.617 29.667l13.2-11h23.65c8.25 0 22-24 25.85-21 3.85 3 15.4 16.5 15.4 16.5l8.096-7.5h14.215l15-16.5c13.501 8.5 28.175 11.646 28.175 11.646s7.867-14.846 14.826-18.896c8.375-4.875 27.5-4.75 27.5-4.75l14-32.5h29s11.806-22.667 18.889-22.667c7.25 0 6.417 3.834 10.083 5 3.136.998 9.101-.218 13.101 3.282S1128.359 353 1128.359 353h27.125c6.375 0 14.875 2.125 14.875 2.125l15.5-22.625s9.25 2.625 12.75 2.625 12.842-.437 16.75-5.125c4.375-5.25 15.25-25.125 22.5-27.5 6.602-2.163 12.75-1.75 18.5-4 4.906-1.92 13.5-9 13.5-9s9.625 37.5 15 40.5c5.226 2.917 20.5 3.5 26 7s14.5 18 14.5 18 10.375-13 14.166-13.667c3.698-.65 6.461.433 9.167.167 3.092-.305 5-5.5 10.333-3.667 5.624 1.934 7.857 8.352 10.334 13.167 4.835 9.404 12 33.5 12 33.5s9.7-25.208 15.825-33.083c5.819-7.482 24.3-13.792 28.175-24.417 6.998-19.19 26.083-86.5 29-92 2.845-5.367 13-11.5 13-11.5l14 33s13.5-1.167 15-5.5c3.645-10.533 13.5-44 13.5-44s10.416 5.5 13.75 5.5c2.083 0 13-16 13-16l15.25.083s9.583-13.666 14.5-13.583c2.875 17.375 13.5 52 13.5 52l13-16h15.5c3.5-4.667 11.25-28.083 13.416-39.25l16.209-.125s10.875-32.625 12.375-36.125 4 .5 7-1.5 4.02-3.5 7.5-3.5c5.024 0 11 10.5 15 10.5s6.008-.664 12.419-5.151c7.5-5.25 29.081-36.849 29.081-36.849s10.75 18.5 14.5 30c4.245 13.021 8.75 42.5 14.5 52 10 0 26.5-16.5 26.5-16.5s7.535 11.5 14.5 11.5c3.75 0 9.75-56.5 14.5-84.888 5.75 1.888 13.25 3.388 22.042 0 10.445-4.023 19.458-28.498 19.458-28.498 5.639 0 4.994 3.909 6.66 3.909 1.667 0 3.154-8.235 7.354-8.898 3.958-.625 6.765-4.791 12.958-3.792 5.167.834 10.167 12.675 12.682 12.675 2.805 0 9.36-1.633 14.985-9.883 7.578-11.114 20-43.125 20-43.125"/><path id="1og3p" d="M1685 107c0-19.882 16.118-36 36-36s36 16.118 36 36-16.118 36-36 36-36-16.118-36-36z"/><path id="1og3r" d="M1702 107c0-10.493 8.507-19 19-19s19 8.507 19 19-8.507 19-19 19-19-8.507-19-19z"/><path id="1og3t" d="M1724 107a3 3 0 1 0-6 0 3 3 0 0 0 6 0z"/><path id="1og3u" d="M1537 183c0-15.464 12.536-28 28-28s28 12.536 28 28-12.536 28-28 28-28-12.536-28-28z"/><path id="1og3w" d="M1552 183c0-7.18 5.82-13 13-13s13 5.82 13 13-5.82 13-13 13-13-5.82-13-13z"/><path id="1og3y" d="M1568 183a3 3 0 1 0-6 0 3 3 0 0 0 6 0z"/><path id="1og3A" d="M1267 290a3 3 0 1 1 6 0 3 3 0 0 1-6 0z"/><path id="1og3C" d="M1094 325a3 3 0 1 0-6 0 3 3 0 0 0 6 0z"/><linearGradient id="1og3h" x1="1695.34" x2="1767.23" y1="77.19" y2="472" gradientUnits="userSpaceOnUse"><stop offset="0" stop-color="#005267"/><stop offset="1" stop-color="#112c33"/></linearGradient><filter id="1og3i" width="148%" height="156%" x="-14%" y="-18%" filterUnits="objectBoundingBox"><feGaussianBlur in="SourceGraphic" result="FeGaussianBlur1037Out" stdDeviation="20 20"/></filter><filter id="1og3k" width="140%" height="144%" x="-10%" y="-12%" filterUnits="objectBoundingBox"><feGaussianBlur in="SourceGraphic" result="FeGaussianBlur1044Out" stdDeviation="5 5"/></filter><linearGradient id="1og3q" x1="1721" x2="1721" y1="143" y2="71" gradientUnits="userSpaceOnUse"><stop offset="0" stop-color="#0cf" stop-opacity="0"/><stop offset="1" stop-color="#0cf" stop-opacity=".8"/></linearGradient><linearGradient id="1og3s" x1="1721" x2="1721" y1="126" y2="88" gradientUnits="userSpaceOnUse"><stop offset="0" stop-color="#0cf" stop-opacity="0"/><stop offset="1" stop-color="#0cf" stop-opacity=".8"/></linearGradient><linearGradient id="1og3v" x1="1565" x2="1565" y1="211" y2="155" gradientUnits="userSpaceOnUse"><stop offset="0" stop-color="#0cf" stop-opacity="0"/><stop offset="1" stop-color="#0cf" stop-opacity=".8"/></linearGradient><linearGradient id="1og3x" x1="1565" x2="1565" y1="196" y2="170" gradientUnits="userSpaceOnUse"><stop offset="0" stop-color="#0cf" stop-opacity="0"/><stop offset="1" stop-color="#0cf" stop-opacity=".8"/></linearGradient><clipPath id="1og3z"><use fill="#fff" xlink:href="#1og3a"/></clipPath><clipPath id="1og3B"><use fill="#fff" xlink:href="#1og3b"/></clipPath><radialGradient id="1og3D" cx="620.5" cy="219.99" r="1337.17" gradientUnits="userSpaceOnUse"><stop offset="0" stop-color="#fff" stop-opacity="0"/><stop offset="1" stop-opacity=".33"/></radialGradient><clipPath id="1og3e"><use xlink:href="#1og3c"/></clipPath><clipPath id="1og3l"><use xlink:href="#1og3d"/></clipPath></defs><g><g><g><g/><g clip-path="url(#1og3e)"><use fill="#163942" xlink:href="#1og3f"/></g><g clip-path="url(#1og3e)"><use fill="url(#1og3h)" xlink:href="#1og3g"/></g><g clip-path="url(#1og3e)" filter="url(#1og3i)"><use fill="#0cf" xlink:href="#1og3j"/></g><g clip-path="url(#1og3e)" filter="url(#1og3k)"><use fill="#0cf" fill-opacity=".6" xlink:href="#1og3j"/></g><g clip-path="url(#1og3e)"><use fill="#163942" xlink:href="#1og3d"/></g><g clip-path="url(#1og3e)"><g/><g clip-path="url(#1og3l)"><use fill="#fff" fill-opacity="0" stroke="#fff" stroke-miterlimit="50" stroke-opacity=".1" stroke-width="2" xlink:href="#1og3m"/></g><g clip-path="url(#1og3l)"><use fill="#fff" fill-opacity="0" stroke="#fff" stroke-miterlimit="50" stroke-opacity=".1" stroke-width="2" xlink:href="#1og3n"/></g></g><g clip-path="url(#1og3e)"><use fill="#fff" fill-opacity="0" stroke="#10829e" stroke-miterlimit="50" stroke-width="2" xlink:href="#1og3o"/></g><g clip-path="url(#1og3e)"><g><g><g opacity=".22"><use fill="url(#1og3q)" xlink:href="#1og3p"/></g><g opacity=".24"><use fill="url(#1og3s)" xlink:href="#1og3r"/></g><g><use fill="#0c8dac" xlink:href="#1og3t"/></g></g><g><g opacity=".22"><use fill="url(#1og3v)" xlink:href="#1og3u"/></g><g opacity=".24"><use fill="url(#1og3x)" xlink:href="#1og3w"/></g><g><use fill="#0d8cab" xlink:href="#1og3y"/></g></g><g><g opacity=".33"><use fill="#fff" fill-opacity="0" stroke="#000" stroke-miterlimit="50" stroke-width="20" clip-path="url(&quot;#1og3z&quot;)" xlink:href="#1og3a"/></g><g><use fill="#10829e" xlink:href="#1og3A"/></g></g><g><g opacity=".33"><use fill="#fff" fill-opacity="0" stroke="#000" stroke-miterlimit="50" stroke-width="12" clip-path="url(&quot;#1og3B&quot;)" xlink:href="#1og3b"/></g><g><use fill="#10829e" xlink:href="#1og3C"/></g></g></g></g><g clip-path="url(#1og3e)" opacity=".79"><use fill="url(#1og3D)" xlink:href="#1og3c"/></g></g></g></g></svg>