<svg xmlns="http://www.w3.org/2000/svg" xmlns:xlink="http://www.w3.org/1999/xlink" width="96" height="96" viewBox="0 0 96 96"><defs><path id="gnqta" d="M1188 738c0-26.51 21.49-48 48-48s48 21.49 48 48-21.49 48-48 48-48-21.49-48-48z"/><path id="gnqtb" d="M1261 752h-50v-30a2 2 0 0 1 2-2h46a2 2 0 0 1 2 2z"/><path id="gnqtc" d="M1263 756h-54a1 1 0 0 1-1-1v-2a1 1 0 0 1 1-1h54a1 1 0 0 1 1 1v2a1 1 0 0 1-1 1"/><path id="gnqtd" d="M1220.937 743.958l-.914-1.942a.025.025 0 0 0-.035-.013.025.025 0 0 0-.012.013l-.919 1.942-2.034.297a.029.029 0 0 0-.023.03.035.035 0 0 0 .008.017l1.477 1.513-.35 2.154c-.004.014.006.028.021.03.006.002.011 0 .016-.002l1.828-1.018 1.833 1.018a.026.026 0 0 0 .036-.012c.003-.005.004-.01.003-.016l-.358-2.154 1.48-1.513c.01-.011.01-.03 0-.04a.028.028 0 0 0-.016-.007z"/><path id="gnqte" d="M1228.937 743.958l-.914-1.942a.025.025 0 0 0-.035-.013.025.025 0 0 0-.012.013l-.919 1.942-2.034.297a.029.029 0 0 0-.023.03.035.035 0 0 0 .008.017l1.477 1.513-.35 2.154c-.004.014.006.028.021.03.006.002.011 0 .016-.002l1.828-1.018 1.833 1.018a.026.026 0 0 0 .036-.012c.003-.005.004-.01.003-.016l-.358-2.154 1.48-1.513c.01-.011.01-.03 0-.04a.028.028 0 0 0-.016-.007z"/><path id="gnqtf" d="M1236.937 743.958l-.914-1.942a.025.025 0 0 0-.035-.013.025.025 0 0 0-.012.013l-.919 1.942-2.034.297a.029.029 0 0 0-.023.03.035.035 0 0 0 .008.017l1.477 1.513-.35 2.154c-.004.014.006.028.021.03.006.002.011 0 .016-.002l1.828-1.018 1.833 1.018a.026.026 0 0 0 .036-.012c.003-.005.004-.01.003-.016l-.358-2.154 1.48-1.513c.01-.011.01-.03 0-.04a.028.028 0 0 0-.016-.007z"/><path id="gnqtg" d="M1244.937 743.958l-.914-1.942a.025.025 0 0 0-.035-.013.025.025 0 0 0-.012.013l-.919 1.942-2.034.297a.029.029 0 0 0-.023.03.035.035 0 0 0 .008.017l1.477 1.513-.35 2.154c-.004.014.006.028.021.03.006.002.011 0 .016-.002l1.828-1.018 1.833 1.018a.026.026 0 0 0 .036-.012c.003-.005.004-.01.003-.016l-.358-2.154 1.48-1.513c.01-.011.01-.03 0-.04a.028.028 0 0 0-.016-.007z"/><path id="gnqth" d="M1254.992 744.263a.028.028 0 0 0-.015-.008l-2.04-.297-.915-1.942a.025.025 0 0 0-.035-.013.025.025 0 0 0-.012.013l-.919 1.942-2.034.297a.028.028 0 0 0-.022.03.035.035 0 0 0 .008.017l1.476 1.514-.35 2.153a.026.026 0 0 0 .021.03c.006.002.012 0 .017-.002l1.827-1.018 1.834 1.018a.025.025 0 0 0 .035-.011c.003-.005.004-.011.003-.017l-.358-2.153 1.48-1.514a.027.027 0 0 0 0-.04"/><path id="gnqti" d="M1256 724h-16a1 1 0 0 0-1 1v10a1 1 0 0 0 1 1h3v4l4-4h9a1 1 0 0 0 1-1v-10a1 1 0 0 0-1-1"/></defs><g><g transform="translate(-1188 -690)"><g><use fill="#ffeeb8" xlink:href="#gnqta"/></g><g><use fill="#5dcbb6" xlink:href="#gnqtb"/></g><g><use fill="#469fa6" xlink:href="#gnqtc"/></g><g><use fill="#469fa6" xlink:href="#gnqtd"/></g><g><use fill="#469fa6" xlink:href="#gnqte"/></g><g><use fill="#469fa6" xlink:href="#gnqtf"/></g><g><use fill="#469fa6" xlink:href="#gnqtg"/></g><g><use fill="#469fa6" xlink:href="#gnqth"/></g><g><use fill="#469fa6" xlink:href="#gnqti"/></g></g></g></svg>