<svg xmlns="http://www.w3.org/2000/svg" xmlns:xlink="http://www.w3.org/1999/xlink" width="48" height="48" viewBox="0 0 48 48"><defs><path id="l9xsa" d="M516 2186h48v48h-48z"/><path id="l9xsc" d="M560 2234h-40a4 4 0 0 1-4-4v-40a4 4 0 0 1 4-4h40a4 4 0 0 1 4 4v40a4 4 0 0 1-4 4"/><path id="l9xsd" d="M550.5 2221h-21c-.825 0-1.5-.675-1.5-1.5s.675-1.5 1.5-1.5h21c.825 0 1.5.675 1.5 1.5s-.675 1.5-1.5 1.5"/><path id="l9xse" d="M537 2223a3 3 0 1 0 6 0z"/><path id="l9xsf" d="M542 2199c0-1.1-.9-2-2-2s-2 .9-2 2v1.23c-4.007.911-7 4.487-7 8.77v9h18v-9c0-4.283-2.993-7.859-7-8.77z"/><clipPath id="l9xsb"><use xlink:href="#l9xsa"/></clipPath></defs><g><g transform="translate(-516 -2186)"><g><g/><g clip-path="url(#l9xsb)"><use fill="#ffeeb8" xlink:href="#l9xsc"/></g></g><g><use fill="#469fa6" xlink:href="#l9xsd"/></g><g><use fill="#469fa6" xlink:href="#l9xse"/></g><g><use fill="#5dcbb6" xlink:href="#l9xsf"/></g></g></g></svg>