<svg xmlns="http://www.w3.org/2000/svg" xmlns:xlink="http://www.w3.org/1999/xlink" width="48" height="48" viewBox="0 0 48 48"><defs><path id="ongba" d="M560 2399h-40a4 4 0 0 1-4-4v-40a4 4 0 0 1 4-4h40a4 4 0 0 1 4 4v40a4 4 0 0 1-4 4"/><path id="ongbb" d="M522 2385h17v-17h-17z"/><path id="ongbc" d="M530.5 2378c-2.757 0-5-2.243-5-5v-2h3v2c0 1.103.897 2 2 2s2-.897 2-2v-2h3v2c0 2.757-2.243 5-5 5"/><path id="ongbd" d="M541 2385h17v-17h-17z"/><path id="ongbe" d="M549.5 2378c-2.757 0-5-2.243-5-5v-2h3v2c0 1.103.897 2 2 2s2-.897 2-2v-2h3v2c0 2.757-2.243 5-5 5"/></defs><g><g transform="translate(-516 -2351)"><g><use fill="#ffeeb8" xlink:href="#ongba"/></g><g><use fill="#5dcbb6" xlink:href="#ongbb"/></g><g><use fill="#469fa6" xlink:href="#ongbc"/></g><g><use fill="#5dcbb6" xlink:href="#ongbd"/></g><g><use fill="#469fa6" xlink:href="#ongbe"/></g></g></g></svg>