<svg xmlns="http://www.w3.org/2000/svg" xmlns:xlink="http://www.w3.org/1999/xlink" width="48" height="48" viewBox="0 0 48 48"><defs><path id="8s72a" d="M1356 2355a4 4 0 0 1 4-4h40a4 4 0 0 1 4 4v40a4 4 0 0 1-4 4h-40a4 4 0 0 1-4-4z"/><path id="8s72b" d="M1375.714 2358.735c.271-.073 1.164.64 1.593.982.845.675 1.718 1.372 2.694 1.372.195 0 .398-.028.601-.083.771-.206 1.48-.77 2.166-1.316.5-.396 1.063-.846 1.428-.943.063-.017.09-.014.09-.014.251.068.676 1.152.858 1.615.4 1.02.812 2.074 1.674 2.572.863.498 1.982.328 3.065.165.492-.075 1.643-.249 1.826-.067.168.21.01 1.28-.068 1.795-.164 1.091-.332 2.22.172 3.094.487.847 1.528 1.254 2.534 1.65.512.2 1.575.615 1.647.886.074.273-.639 1.165-.982 1.594-.675.844-1.372 1.717-1.37 2.695 0 1.008.71 1.902 1.397 2.766.324.407.998 1.255.958 1.52-.069.25-1.152.674-1.615.855-1.02.4-2.075.814-2.572 1.675-.498.862-.328 1.982-.165 3.065.074.492.25 1.642.067 1.827-.006.003-.032.02-.087.034-.365.097-1.078-.009-1.708-.104-.867-.13-1.764-.263-2.534-.056a2.26 2.26 0 0 0-.562.228c-.846.488-1.253 1.528-1.647 2.535-.2.511-.617 1.575-.889 1.648-.27.072-1.164-.64-1.592-.983-.845-.674-1.718-1.372-2.695-1.372-.195 0-.397.03-.6.083-.772.206-1.48.771-2.166 1.317-.498.396-1.064.844-1.429.943-.063.017-.09.014-.09.014-.25-.069-.676-1.153-.856-1.616-.4-1.019-.814-2.074-1.676-2.572-.862-.497-1.982-.328-3.065-.164-.49.074-1.642.248-1.826.067-.168-.209-.008-1.28.07-1.795.163-1.092.332-2.22-.172-3.095-.489-.847-1.53-1.254-2.536-1.649-.51-.2-1.575-.616-1.647-.887-.073-.272.64-1.164.982-1.593.675-.845 1.373-1.718 1.372-2.695 0-1.009-.71-1.903-1.399-2.767-.324-.407-.998-1.255-.958-1.518.07-.25 1.153-.675 1.615-.857 1.021-.399 2.076-.812 2.573-1.675.498-.862.33-1.982.165-3.065-.075-.49-.248-1.642-.068-1.826a.324.324 0 0 1 .087-.034c.365-.098 1.08.01 1.708.103.867.13 1.764.264 2.534.057.204-.055.393-.13.562-.229.847-.488 1.254-1.528 1.647-2.535.201-.51.618-1.574.89-1.647"/><path id="8s72c" d="M1377.874 2381.487l-6.304-6.304 2.121-2.121 4.183 4.183 8.425-8.425 2.121 2.121z"/></defs><g><g transform="translate(-1356 -2351)"><g><use fill="#ffeeb8" xlink:href="#8s72a"/></g><g><g><use fill="#5dcbb6" xlink:href="#8s72b"/></g><g><use fill="#469fa6" xlink:href="#8s72c"/></g></g></g></g></svg>