<svg xmlns="http://www.w3.org/2000/svg" xmlns:xlink="http://www.w3.org/1999/xlink" width="48" height="48" viewBox="0 0 48 48"><defs><path id="mi7na" d="M1373 2211a7 7 0 1 1 14 0 7 7 0 0 1-14 0z"/><path id="mi7nb" d="M1400 2234h-40a4 4 0 0 1-4-4v-40a4 4 0 0 1 4-4h40a4 4 0 0 1 4 4v40a4 4 0 0 1-4 4"/><path id="mi7nc" d="M1365 2201a2 2 0 0 1 2-2h27a1 1 0 0 1 1 1v20a1 1 0 0 1-1 1h-28a1 1 0 0 1-1-1z"/><clipPath id="mi7nd"><use fill="#fff" xlink:href="#mi7na"/></clipPath></defs><g><g transform="translate(-1356 -2186)"><g><use fill="#ffeeb8" xlink:href="#mi7nb"/></g><g><use fill="#5dcbb6" xlink:href="#mi7nc"/></g><g><use fill="#fff" fill-opacity="0" stroke="#469fa6" stroke-miterlimit="50" stroke-width="6" clip-path="url(&quot;#mi7nd&quot;)" xlink:href="#mi7na"/></g></g></g></svg>