<svg xmlns="http://www.w3.org/2000/svg" xmlns:xlink="http://www.w3.org/1999/xlink" width="310" height="160" viewBox="0 0 310 160"><defs><path id="rrd0a" d="M880 2238h160v160H880z"/><path id="rrd0d" d="M1034.558 2355.726l4.87-11.731a7.49 7.49 0 0 0-4.054-9.783l-1.9-.787a11.164 11.164 0 0 1-6.813-11.081 66.08 66.08 0 0 0-.018-8.629 11.164 11.164 0 0 1 6.805-11.163l1.927-.799a7.491 7.491 0 0 0 4.053-9.784l-4.882-11.745a7.492 7.492 0 0 0-9.785-4.053l-2.064.857a11.183 11.183 0 0 1-12.675-3.021 65.848 65.848 0 0 0-6.023-6.012 11.168 11.168 0 0 1-3.055-12.679l.862-2.079a7.484 7.484 0 0 0-4.049-9.778l-.005-.001-11.73-4.87a7.492 7.492 0 0 0-9.786 4.054l-.945 2.285a11.172 11.172 0 0 1-11.054 6.809 66.498 66.498 0 0 0-8.34.034 11.19 11.19 0 0 1-11.173-6.808l-.96-2.34a7.488 7.488 0 0 0-9.785-4.049l-11.747 4.881a7.484 7.484 0 0 0-4.056 9.776l.003.004 1.02 2.462a11.183 11.183 0 0 1-3.048 12.679 65.114 65.114 0 0 0-5.804 5.813 11.182 11.182 0 0 1-12.665 3.031l-2.46-1.02a7.484 7.484 0 0 0-9.778 4.049l-.002.004-4.87 11.73a7.487 7.487 0 0 0 4.051 9.783l.002.001 2.46 1.016a11.178 11.178 0 0 1 6.812 11.097c-.17 2.734-.17 5.476.001 8.209a11.186 11.186 0 0 1-6.812 11.12l-2.462 1.017a7.49 7.49 0 0 0-4.052 9.784l4.881 11.745a7.493 7.493 0 0 0 9.786 4.052l2.321-.959a11.183 11.183 0 0 1 12.714 3.083 66.265 66.265 0 0 0 5.867 5.912 11.162 11.162 0 0 1 2.998 12.633l-.944 2.285a7.482 7.482 0 0 0 4.048 9.778l.003.001 11.733 4.87a7.492 7.492 0 0 0 9.785-4.053l.858-2.079a11.169 11.169 0 0 1 11.131-6.804c2.831.19 5.673.198 8.505.025a11.178 11.178 0 0 1 11.113 6.811l.858 2.067a7.492 7.492 0 0 0 9.785 4.053l11.746-4.882a7.49 7.49 0 0 0 4.054-9.783l-.8-1.928a11.17 11.17 0 0 1 3.084-12.704 66.328 66.328 0 0 0 6.117-6.089 11.162 11.162 0 0 1 12.651-3.019l1.905.787a7.484 7.484 0 0 0 9.775-4.057l.012-.028zm-81.213 4.879c-23.51-3.891-39.413-26.101-35.52-49.607a43.128 43.128 0 0 1 7.485-18.07 42.705 42.705 0 0 1 41.941-17.368c23.507 3.89 39.41 26.098 35.52 49.602a43.136 43.136 0 0 1-7.486 18.068 42.705 42.705 0 0 1-41.957 17.376z"/><path id="rrd0e" d="M960 2298c11.028 0 20 8.972 20 20s-8.972 20-20 20-20-8.972-20-20 8.972-20 20-20m0-12c-17.673 0-32 14.327-32 32 0 17.673 14.327 32 32 32 17.673 0 32-14.327 32-32 0-17.673-14.327-32-32-32"/><path id="rrd0b" d="M805 2249.51h19.923v138.157H805z"/><path id="rrd0g" d="M816.18 2276.355l3.88 1.358 2.115-28.203-15.935 23.366 4.261 1.492a175.52 175.52 0 0 0-5.501 43.627c0 24.208 4.852 47.649 14.419 69.672l5.504-2.391c-9.238-21.264-13.923-43.9-13.923-67.281 0-14.113 1.748-28.093 5.18-41.64"/><path id="rrd0h" d="M1114.999 2317.997c0-24.215-4.854-47.661-14.427-69.687l-5.502 2.392c9.242 21.267 13.929 43.908 13.929 67.295 0 13.555-1.611 27-4.781 40.047l-3.882-1.319-1.854 28.222 15.718-23.513-4.285-1.456a175.679 175.679 0 0 0 5.084-41.981"/><clipPath id="rrd0c"><use xlink:href="#rrd0a"/></clipPath><clipPath id="rrd0f"><use xlink:href="#rrd0b"/></clipPath></defs><g><g transform="translate(-805 -2238)"><g><g/><g clip-path="url(#rrd0c)"><use fill="#ffeeb8" xlink:href="#rrd0d"/></g></g><g><use fill="#5dcbb6" xlink:href="#rrd0e"/></g><g><g/><g clip-path="url(#rrd0f)"><use fill="#469fa6" xlink:href="#rrd0g"/></g></g><g><use fill="#469fa6" xlink:href="#rrd0h"/></g></g></g></svg>