<svg xmlns="http://www.w3.org/2000/svg" xmlns:xlink="http://www.w3.org/1999/xlink" width="96" height="96" viewBox="0 0 96 96"><defs><path id="4p21a" d="M636 738c0-26.51 21.49-48 48-48s48 21.49 48 48-21.49 48-48 48-48-21.49-48-48z"/><path id="4p21b" d="M660 724a2 2 0 0 1 2-2h44a2 2 0 0 1 2 2v28a2 2 0 0 1-2 2h-44a2 2 0 0 1-2-2z"/><path id="4p21c" d="M670 754v11l11-11z"/><path id="4p21d" d="M692.033 735.922c-1.348.001-4.969-.011-6.466-.011 0-2.499 3.023-5.55-.006-6.911-1.49 1.987-3.331 4.412-4.67 6.221-.385.52-.891 1.263-.891 2.086v7.572c0 1.172.943 2.122 2.115 2.121h7.072c1.614 0 2.421-1.531 2.012-2.462 1.092-.374 1.644-1.908 1.109-2.829 1.108-.464 1.422-1.872.838-2.713 1.098-.566 1.037-3.076-1.113-3.074"/><path id="4p21e" d="M675 747v-11h3v11z"/></defs><g><g transform="translate(-636 -690)"><g><use fill="#ffeeb8" xlink:href="#4p21a"/></g><g><g><use fill="#5dcbb6" xlink:href="#4p21b"/></g><g><use fill="#5dcbb6" xlink:href="#4p21c"/></g><g><use fill="#469fa6" xlink:href="#4p21d"/></g><g><use fill="#469fa6" xlink:href="#4p21e"/></g></g></g></g></svg>