<svg width="48" height="48" viewBox="0 0 48 48" fill="none" xmlns="http://www.w3.org/2000/svg">
<path fill-rule="evenodd" clip-rule="evenodd" d="M44 48H4C1.791 48 0 46.209 0 44V4C0 1.791 1.791 0 4 0H44C46.209 0 48 1.791 48 4V44C48 46.209 46.209 48 44 48Z" fill="#FFEEB8"/>
<path fill-rule="evenodd" clip-rule="evenodd" d="M9 18C9 16.8954 9.89543 16 11 16H15.5858C15.851 16 16.1054 15.8946 16.2929 15.7071L18.7071 13.2929C18.8946 13.1054 19.149 13 19.4142 13H28.5858C28.851 13 29.1054 13.1054 29.2929 13.2929L31.7071 15.7071C31.8946 15.8946 32.149 16 32.4142 16H37C38.1046 16 39 16.8954 39 18V33C39 34.1046 38.1046 35 37 35H11C9.89543 35 9 34.1046 9 33L9 18Z" fill="#5DCBB6"/>
<path d="M29.5 25C29.5 28.0376 27.0376 30.5 24 30.5C20.9624 30.5 18.5 28.0376 18.5 25C18.5 21.9624 20.9624 19.5 24 19.5C27.0376 19.5 29.5 21.9624 29.5 25Z" stroke="#469FA6" stroke-width="3"/>
</svg>
