<svg width="1920" height="470" viewBox="0 0 1920 470" fill="none" xmlns="http://www.w3.org/2000/svg">
<mask id="mask0" mask-type="alpha" maskUnits="userSpaceOnUse" x="0" y="0" width="1920" height="470">
<rect width="1920" height="470" fill="white"/>
</mask>
<g mask="url(#mask0)">
<path fill-rule="evenodd" clip-rule="evenodd" d="M0 470H1920V0H0V470Z" fill="#163942"/>
<path fill-rule="evenodd" clip-rule="evenodd" d="M591.382 472C596.887 463.258 601.886 456.095 605.299 451.167C608.416 446.667 617.215 445.667 617.215 445.667L637.749 461L652.416 451H675.882C685.782 451 695.682 429.667 695.682 429.667C699.423 429.667 704.012 429.173 705.993 430.405C713.833 435.282 724.282 441.667 724.282 441.667C724.282 441.667 733.036 423.333 738.032 423.333C743.409 423.333 749.246 423.2 751.232 422C754.292 420.152 757.069 415.95 761.515 415.95C768.849 415.95 775.615 427.667 775.615 427.667L793.887 426.903C797.524 426.903 811.549 397 811.549 397C811.549 397 820.817 400.233 823.832 402.833C830.982 409 843.449 432.5 843.449 432.5L856.649 421.5H880.299C888.549 421.5 902.299 397.5 906.149 400.5C909.999 403.5 921.549 417 921.549 417L929.645 409.5H943.86L958.86 393C972.361 401.5 987.035 404.646 987.035 404.646C987.035 404.646 994.902 389.8 1001.86 385.75C1010.24 380.875 1029.36 381 1029.36 381L1043.36 348.5H1072.36C1072.36 348.5 1084.17 325.833 1091.25 325.833C1098.5 325.833 1097.67 329.667 1101.33 330.833C1104.47 331.831 1110.43 330.615 1114.43 334.115C1118.43 337.615 1128.36 353 1128.36 353H1155.49C1161.86 353 1170.36 355.125 1170.36 355.125L1185.86 332.5C1185.86 332.5 1195.11 335.125 1198.61 335.125C1202.11 335.125 1211.45 334.688 1215.36 330C1219.74 324.75 1230.61 304.875 1237.86 302.5C1244.46 300.337 1250.61 300.75 1256.36 298.5C1261.27 296.58 1269.86 289.5 1269.86 289.5C1269.86 289.5 1279.49 327 1284.86 330C1290.09 332.917 1305.36 333.5 1310.86 337C1316.36 340.5 1325.36 355 1325.36 355C1325.36 355 1335.74 342 1339.53 341.333C1343.22 340.683 1345.99 341.766 1348.69 341.5C1351.79 341.195 1353.69 336 1359.03 337.833C1364.65 339.767 1366.88 346.185 1369.36 351C1374.2 360.404 1381.36 384.5 1381.36 384.5C1381.36 384.5 1391.06 359.292 1397.19 351.417C1403 343.935 1421.49 337.625 1425.36 327C1432.36 307.81 1451.44 240.5 1454.36 235C1457.21 229.633 1467.36 223.5 1467.36 223.5L1481.36 256.5C1481.36 256.5 1494.86 255.333 1496.36 251C1500.01 240.467 1509.86 207 1509.86 207C1509.86 207 1520.28 212.5 1523.61 212.5C1525.69 212.5 1536.61 196.5 1536.61 196.5L1551.86 196.583C1551.86 196.583 1561.44 182.917 1566.36 183C1569.24 200.375 1579.86 235 1579.86 235L1592.86 219H1608.36C1611.86 214.333 1619.61 190.917 1621.78 179.75L1637.99 179.625C1637.99 179.625 1648.86 147 1650.36 143.5C1651.86 140 1654.36 144 1657.36 142C1660.36 140 1661.38 138.5 1664.86 138.5C1669.88 138.5 1675.86 149 1679.86 149C1683.86 149 1685.87 148.336 1692.28 143.849C1699.78 138.599 1721.36 107 1721.36 107C1721.36 107 1732.11 125.5 1735.86 137C1740.11 150.021 1744.61 179.5 1750.36 189C1760.36 189 1776.86 172.5 1776.86 172.5C1776.86 172.5 1784.4 184 1791.36 184C1795.11 184 1801.11 127.5 1805.86 99.112C1811.61 101 1819.11 102.5 1827.9 99.112C1838.35 95.089 1847.36 70.614 1847.36 70.614C1853 70.614 1852.35 74.523 1854.02 74.523C1855.69 74.523 1857.17 66.288 1861.37 65.625C1865.33 65 1868.14 60.834 1874.33 61.833C1879.5 62.667 1884.5 74.508 1887.01 74.508C1889.82 74.508 1896.37 72.875 1902 64.625C1909.58 53.511 1922 21.5 1922 21.5V472H591.382Z" fill="url(#paint0_linear)"/>
<g filter="url(#filter0_f)">
<path fill-rule="evenodd" clip-rule="evenodd" d="M592.228 472.533L590.536 471.468C595.731 463.217 600.432 456.435 603.863 451.483L604.477 450.597C607.813 445.78 616.725 444.716 617.103 444.673L617.496 444.628L637.775 459.772L652.107 450H675.882C685.031 450 694.679 429.453 694.775 429.246L695.044 428.667H695.682C696.501 428.667 697.36 428.643 698.225 428.619C701.566 428.526 704.724 428.439 706.521 429.556C712.908 433.529 721.119 438.559 723.864 440.239C726.13 435.637 733.109 422.334 738.032 422.334C741.238 422.334 748.746 422.334 750.715 421.144C751.604 420.607 752.498 419.828 753.443 419.004C755.624 417.104 758.094 414.95 761.515 414.95C768.493 414.95 774.704 424.278 776.166 426.643L793.845 425.904C796.007 425.35 804.086 410.556 810.644 396.575L811.026 395.759L811.878 396.056C812.264 396.191 821.361 399.383 824.485 402.076C830.89 407.6 841.175 426.191 843.75 430.948L856.287 420.5H880.299C884.219 420.5 890.203 413.683 895.01 408.205C900.351 402.119 904.207 397.725 906.763 399.711C910.147 402.348 919.073 412.598 921.63 415.561L929.252 408.5H943.417L958.684 391.708L959.393 392.154C970.895 399.396 983.417 402.742 986.52 403.499C988.182 400.482 995.02 388.575 1001.36 384.886C1009.08 380.392 1025.18 380.027 1028.7 380.001L1042.7 347.5H1071.76C1073.89 343.481 1084.18 324.834 1091.25 324.834C1096.23 324.834 1097.87 326.627 1099.18 328.068C1099.93 328.882 1100.52 329.525 1101.64 329.881C1102.56 330.174 1103.88 330.26 1105.27 330.35C1108.34 330.55 1112.16 330.798 1115.09 333.363C1118.81 336.611 1127.19 349.364 1128.9 352H1155.48C1160.93 352 1167.76 353.487 1169.92 353.992L1185.44 331.342L1186.13 331.538C1186.23 331.564 1195.29 334.125 1198.61 334.125C1202.22 334.125 1211.01 333.661 1214.59 329.36C1215.81 327.906 1217.57 325.231 1219.62 322.135C1225.15 313.768 1232.04 303.356 1237.55 301.55C1240.8 300.485 1243.91 300.034 1246.91 299.597C1250.1 299.135 1253.11 298.698 1256 297.569C1260.7 295.729 1269.14 288.798 1269.23 288.728L1270.44 287.729L1270.83 289.252C1274.51 303.59 1281.71 327.094 1285.35 329.127C1287.66 330.417 1292.41 331.287 1297.01 332.128C1302.57 333.145 1308.32 334.197 1311.4 336.157C1316.14 339.177 1323.16 349.705 1325.46 353.288C1328.36 349.74 1335.85 340.966 1339.35 340.349C1341.63 339.949 1343.57 340.163 1345.28 340.354C1346.45 340.485 1347.56 340.608 1348.6 340.505C1349.46 340.421 1350.3 339.74 1351.28 338.951C1353.16 337.441 1355.49 335.561 1359.35 336.888C1364.5 338.658 1366.95 343.748 1369.12 348.24C1369.5 349.031 1369.87 349.806 1370.25 350.543C1374.15 358.13 1379.45 374.829 1381.48 381.457C1384.17 374.705 1391.38 357.254 1396.4 350.803C1398.85 347.642 1403.35 344.761 1408.11 341.71C1414.73 337.472 1422.23 332.669 1424.42 326.658C1427.87 317.189 1434.16 296.35 1440.25 276.198C1446.53 255.378 1451.96 237.396 1453.48 234.532C1456.42 228.985 1466.42 222.901 1466.84 222.644L1467.83 222.048L1481.99 255.435C1487 254.912 1494.52 253.253 1495.42 250.673C1499.01 240.283 1508.8 207.052 1508.9 206.718L1509.25 205.545L1510.33 206.116C1513.13 207.598 1520.91 211.418 1523.53 211.499C1524.98 210.861 1530.98 202.974 1535.78 195.937L1536.08 195.497L1551.35 195.581C1553.23 192.952 1561.37 182 1566.32 182C1566.34 182 1566.36 182 1566.38 182L1567.21 182.014L1567.35 182.837C1569.8 197.689 1578.06 225.58 1580.27 232.908L1592.39 218H1607.84C1611.36 212.639 1618.74 190.135 1620.8 179.56L1620.95 178.757L1637.26 178.631C1638.87 173.809 1648.05 146.365 1649.44 143.106C1650.6 140.412 1652.56 140.949 1653.85 141.302C1654.9 141.588 1655.81 141.835 1656.81 141.168C1657.47 140.728 1658.03 140.313 1658.54 139.934C1660.38 138.574 1661.83 137.5 1664.86 137.5C1667.93 137.5 1670.97 140.547 1673.9 143.492C1676 145.605 1678.39 148 1679.86 148C1683.65 148 1685.44 147.415 1691.71 143.03C1698.97 137.943 1720.32 106.751 1720.53 106.436L1721.43 105.127L1722.22 106.498C1722.67 107.257 1733.07 125.221 1736.81 136.69C1738.42 141.621 1740.05 148.833 1741.78 156.469C1744.48 168.417 1747.53 181.916 1750.93 187.982C1760.46 187.378 1775.99 171.952 1776.15 171.793L1777.02 170.924L1777.7 171.952C1777.77 172.061 1784.86 182.757 1791.15 182.996C1793.39 180.422 1797.06 153.754 1800.02 132.268C1801.65 120.381 1803.34 108.09 1804.87 98.9477L1805.07 97.7987L1806.17 98.1617C1811.56 99.9287 1818.85 101.529 1827.54 98.1787C1837.45 94.3647 1846.33 70.5087 1846.42 70.2677L1846.66 69.6137H1847.36C1851.57 69.6137 1852.84 71.6607 1853.6 72.8847C1853.71 73.0677 1853.85 73.3007 1853.96 73.4357C1854.29 73.0377 1854.81 71.9867 1855.2 71.1907C1856.45 68.6277 1858.17 65.1187 1861.22 64.6367C1862.52 64.4317 1863.76 63.7487 1865.07 63.0267C1867.51 61.6847 1870.26 60.1647 1874.49 60.8457C1877.87 61.3907 1880.84 65.5687 1883.45 69.2547C1884.61 70.8987 1886.37 73.3827 1887.04 73.5097C1887.81 73.5087 1894.91 73.2427 1901.17 64.0617C1908.6 53.1697 1920.94 21.4577 1921.07 21.1377L1922.93 21.8617C1922.42 23.1737 1910.38 54.1067 1902.83 65.1887C1896.13 75.0107 1888.48 75.5087 1887.02 75.5087C1885.5 75.5087 1884.19 73.7607 1881.81 70.4107C1879.55 67.2127 1876.73 63.2327 1874.17 62.8207C1870.63 62.2507 1868.29 63.5347 1866.04 64.7777C1864.57 65.5877 1863.18 66.3527 1861.53 66.6127C1859.51 66.9317 1858.06 69.9017 1856.99 72.0697C1856.01 74.0747 1855.31 75.5237 1854.02 75.5237C1852.88 75.5237 1852.33 74.6437 1851.9 73.9367C1851.27 72.9327 1850.57 71.8047 1848.04 71.6357C1846.47 75.7257 1838.14 96.2417 1828.26 100.046C1819.57 103.396 1812.23 102.127 1806.66 100.415C1805.18 109.398 1803.56 121.155 1802 132.54C1796.06 175.685 1794.17 185 1791.36 185C1785.13 185 1778.78 176.927 1776.71 174.042C1773.14 177.468 1759.44 190 1750.36 190H1749.8L1749.51 189.518C1745.83 183.445 1742.78 169.955 1739.83 156.91C1738.11 149.321 1736.49 142.153 1734.91 137.31C1731.82 127.842 1723.82 113.371 1721.28 108.88C1717.06 115 1699.62 139.931 1692.85 144.668C1686.24 149.301 1684.03 150 1679.86 150C1677.56 150 1675.21 147.638 1672.48 144.904C1669.96 142.371 1667.1 139.5 1664.86 139.5C1662.49 139.5 1661.51 140.225 1659.73 141.542C1659.19 141.939 1658.6 142.372 1657.92 142.832C1656.16 144.004 1654.52 143.558 1653.33 143.232C1652.02 142.876 1651.75 142.801 1651.28 143.894C1649.81 147.317 1639.04 179.616 1638.93 179.942L1638.71 180.62L1622.6 180.744C1620.22 192.236 1612.69 214.892 1609.16 219.6L1608.86 220H1593.34L1579.45 237.086L1578.9 235.294C1578.8 234.953 1568.61 201.66 1565.54 184.129C1562.1 185.181 1555.99 192.438 1552.68 197.158L1552.38 197.587L1537.14 197.503C1532.07 204.907 1525.73 213.5 1523.61 213.5C1520.67 213.5 1513.35 209.913 1510.48 208.446C1508.7 214.454 1500.53 242.006 1497.31 251.327C1495.64 256.136 1482.89 257.371 1481.45 257.496L1480.72 257.559L1466.9 224.974C1464.33 226.637 1457.42 231.361 1455.24 235.469C1453.82 238.161 1448.15 256.918 1442.16 276.776C1436.07 296.955 1429.77 317.821 1426.3 327.343C1423.88 333.989 1416.08 338.986 1409.19 343.394C1404.58 346.349 1400.22 349.141 1397.98 352.031C1392.01 359.7 1382.39 384.609 1382.29 384.86L1381.24 387.6L1380.4 384.785C1380.33 384.545 1373.21 360.671 1368.47 351.458C1368.08 350.705 1367.7 349.915 1367.31 349.108C1365.22 344.767 1363.06 340.278 1358.7 338.78C1355.89 337.811 1354.26 339.121 1352.53 340.509C1351.41 341.415 1350.24 342.352 1348.79 342.495C1347.55 342.618 1346.34 342.484 1345.06 342.342C1343.41 342.158 1341.7 341.968 1339.7 342.319C1337.21 342.757 1330.06 350.712 1326.14 355.624L1325.26 356.732L1324.51 355.528C1324.42 355.385 1315.57 341.181 1310.32 337.844C1307.57 336.094 1302.02 335.078 1296.65 334.096C1291.67 333.185 1286.97 332.325 1284.37 330.873C1279.24 328.006 1271.3 298.939 1269.28 291.249C1266.71 293.285 1260.66 297.892 1256.73 299.431C1253.63 300.644 1250.51 301.097 1247.2 301.576C1244.28 302.001 1241.26 302.439 1238.17 303.45C1233.32 305.04 1226.08 315.991 1221.29 323.238C1219.21 326.384 1217.41 329.101 1216.13 330.64C1212 335.591 1202.5 336.125 1198.61 336.125C1195.54 336.125 1188.53 334.271 1186.28 333.655L1170.79 356.264L1170.12 356.095C1170.03 356.075 1161.66 354 1155.48 354H1127.82L1127.52 353.542C1127.42 353.39 1117.62 338.236 1113.78 334.867C1111.35 332.75 1108.05 332.535 1105.14 332.346C1103.62 332.247 1102.18 332.154 1101.03 331.787C1099.4 331.269 1098.5 330.285 1097.71 329.418C1096.49 328.089 1095.35 326.834 1091.25 326.834C1085.94 326.834 1076.45 342.807 1073.25 348.962L1072.97 349.5H1044.02L1030.02 382.005L1029.35 382C1029.18 382 1010.4 381.933 1002.36 386.615C995.728 390.476 987.996 404.969 987.919 405.115L987.564 405.783L986.825 405.625C986.68 405.594 972.339 402.455 959.04 394.289L944.302 410.5H930.037L921.465 418.441L920.789 417.651C920.674 417.516 909.261 404.193 905.534 401.289C904.468 400.456 899.293 406.357 896.513 409.524C891.175 415.607 885.125 422.5 880.299 422.5H857.01L843.143 434.057L842.565 432.969C842.441 432.736 830.105 409.564 823.179 403.591C820.858 401.59 814.393 399.105 812.066 398.25C807.559 407.804 797.631 427.903 793.887 427.903L775.053 428.691L774.749 428.167C774.685 428.055 768.184 416.95 761.515 416.95C758.844 416.95 756.767 418.761 754.757 420.512C753.744 421.395 752.787 422.229 751.749 422.856C749.719 424.082 744.797 424.334 738.032 424.334C735.021 424.334 728.707 434.721 725.185 442.097L724.707 443.098L723.761 442.52C723.656 442.456 713.219 436.078 705.464 431.255C704.177 430.454 701.043 430.539 698.28 430.618C697.617 430.637 696.957 430.655 696.315 430.662C694.6 434.193 685.472 452 675.882 452H652.724L637.722 462.229L616.945 446.713C615.272 446.964 608.591 448.17 606.121 451.736L605.507 452.622C602.086 457.559 597.4 464.32 592.228 472.533Z" fill="#00CCFF"/>
</g>
<g filter="url(#filter1_f)">
<path fill-rule="evenodd" clip-rule="evenodd" d="M592.228 472.533L590.536 471.468C595.731 463.217 600.432 456.435 603.863 451.483L604.477 450.597C607.813 445.78 616.725 444.716 617.103 444.673L617.496 444.628L637.775 459.772L652.107 450H675.882C685.031 450 694.679 429.453 694.775 429.246L695.044 428.667H695.682C696.501 428.667 697.36 428.643 698.225 428.619C701.566 428.526 704.724 428.439 706.521 429.556C712.908 433.529 721.119 438.559 723.864 440.239C726.13 435.637 733.109 422.334 738.032 422.334C741.238 422.334 748.746 422.334 750.715 421.144C751.604 420.607 752.498 419.828 753.443 419.004C755.624 417.104 758.094 414.95 761.515 414.95C768.493 414.95 774.704 424.278 776.166 426.643L793.845 425.904C796.007 425.35 804.086 410.556 810.644 396.575L811.026 395.759L811.878 396.056C812.264 396.191 821.361 399.383 824.485 402.076C830.89 407.6 841.175 426.191 843.75 430.948L856.287 420.5H880.299C884.219 420.5 890.203 413.683 895.01 408.205C900.351 402.119 904.207 397.725 906.763 399.711C910.147 402.348 919.073 412.598 921.63 415.561L929.252 408.5H943.417L958.684 391.708L959.393 392.154C970.895 399.396 983.417 402.742 986.52 403.499C988.182 400.482 995.02 388.575 1001.36 384.886C1009.08 380.392 1025.18 380.027 1028.7 380.001L1042.7 347.5H1071.76C1073.89 343.481 1084.18 324.834 1091.25 324.834C1096.23 324.834 1097.87 326.627 1099.18 328.068C1099.93 328.882 1100.52 329.525 1101.64 329.881C1102.56 330.174 1103.88 330.26 1105.27 330.35C1108.34 330.55 1112.16 330.798 1115.09 333.363C1118.81 336.611 1127.19 349.364 1128.9 352H1155.48C1160.93 352 1167.76 353.487 1169.92 353.992L1185.44 331.342L1186.13 331.538C1186.23 331.564 1195.29 334.125 1198.61 334.125C1202.22 334.125 1211.01 333.661 1214.59 329.36C1215.81 327.906 1217.57 325.231 1219.62 322.135C1225.15 313.768 1232.04 303.356 1237.55 301.55C1240.8 300.485 1243.91 300.034 1246.91 299.597C1250.1 299.135 1253.11 298.698 1256 297.569C1260.7 295.729 1269.14 288.798 1269.23 288.728L1270.44 287.729L1270.83 289.252C1274.51 303.59 1281.71 327.094 1285.35 329.127C1287.66 330.417 1292.41 331.287 1297.01 332.128C1302.57 333.145 1308.32 334.197 1311.4 336.157C1316.14 339.177 1323.16 349.705 1325.46 353.288C1328.36 349.74 1335.85 340.966 1339.35 340.349C1341.63 339.949 1343.57 340.163 1345.28 340.354C1346.45 340.485 1347.56 340.608 1348.6 340.505C1349.46 340.421 1350.3 339.74 1351.28 338.951C1353.16 337.441 1355.49 335.561 1359.35 336.888C1364.5 338.658 1366.95 343.748 1369.12 348.24C1369.5 349.031 1369.87 349.806 1370.25 350.543C1374.15 358.13 1379.45 374.829 1381.48 381.457C1384.17 374.705 1391.38 357.254 1396.4 350.803C1398.85 347.642 1403.35 344.761 1408.11 341.71C1414.73 337.472 1422.23 332.669 1424.42 326.658C1427.87 317.189 1434.16 296.35 1440.25 276.198C1446.53 255.378 1451.96 237.396 1453.48 234.532C1456.42 228.985 1466.42 222.901 1466.84 222.644L1467.83 222.048L1481.99 255.435C1487 254.912 1494.52 253.253 1495.42 250.673C1499.01 240.283 1508.8 207.052 1508.9 206.718L1509.25 205.545L1510.33 206.116C1513.13 207.598 1520.91 211.418 1523.53 211.499C1524.98 210.861 1530.98 202.974 1535.78 195.937L1536.08 195.497L1551.35 195.581C1553.23 192.952 1561.37 182 1566.32 182C1566.34 182 1566.36 182 1566.38 182L1567.21 182.014L1567.35 182.837C1569.8 197.689 1578.06 225.58 1580.27 232.908L1592.39 218H1607.84C1611.36 212.639 1618.74 190.135 1620.8 179.56L1620.95 178.757L1637.26 178.631C1638.87 173.809 1648.05 146.365 1649.44 143.106C1650.6 140.412 1652.56 140.949 1653.85 141.302C1654.9 141.588 1655.81 141.835 1656.81 141.168C1657.47 140.728 1658.03 140.313 1658.54 139.934C1660.38 138.574 1661.83 137.5 1664.86 137.5C1667.93 137.5 1670.97 140.547 1673.9 143.492C1676 145.605 1678.39 148 1679.86 148C1683.65 148 1685.44 147.415 1691.71 143.03C1698.97 137.943 1720.32 106.751 1720.53 106.436L1721.43 105.127L1722.22 106.498C1722.67 107.257 1733.07 125.221 1736.81 136.69C1738.42 141.621 1740.05 148.833 1741.78 156.469C1744.48 168.417 1747.53 181.916 1750.93 187.982C1760.46 187.378 1775.99 171.952 1776.15 171.793L1777.02 170.924L1777.7 171.952C1777.77 172.061 1784.86 182.757 1791.15 182.996C1793.39 180.422 1797.06 153.754 1800.02 132.268C1801.65 120.381 1803.34 108.09 1804.87 98.9477L1805.07 97.7987L1806.17 98.1617C1811.56 99.9287 1818.85 101.529 1827.54 98.1787C1837.45 94.3647 1846.33 70.5087 1846.42 70.2677L1846.66 69.6137H1847.36C1851.57 69.6137 1852.84 71.6607 1853.6 72.8847C1853.71 73.0677 1853.85 73.3007 1853.96 73.4357C1854.29 73.0377 1854.81 71.9867 1855.2 71.1907C1856.45 68.6277 1858.17 65.1187 1861.22 64.6367C1862.52 64.4317 1863.76 63.7487 1865.07 63.0267C1867.51 61.6847 1870.26 60.1647 1874.49 60.8457C1877.87 61.3907 1880.84 65.5687 1883.45 69.2547C1884.61 70.8987 1886.37 73.3827 1887.04 73.5097C1887.81 73.5087 1894.91 73.2427 1901.17 64.0617C1908.6 53.1697 1920.94 21.4577 1921.07 21.1377L1922.93 21.8617C1922.42 23.1737 1910.38 54.1067 1902.83 65.1887C1896.13 75.0107 1888.48 75.5087 1887.02 75.5087C1885.5 75.5087 1884.19 73.7607 1881.81 70.4107C1879.55 67.2127 1876.73 63.2327 1874.17 62.8207C1870.63 62.2507 1868.29 63.5347 1866.04 64.7777C1864.57 65.5877 1863.18 66.3527 1861.53 66.6127C1859.51 66.9317 1858.06 69.9017 1856.99 72.0697C1856.01 74.0747 1855.31 75.5237 1854.02 75.5237C1852.88 75.5237 1852.33 74.6437 1851.9 73.9367C1851.27 72.9327 1850.57 71.8047 1848.04 71.6357C1846.47 75.7257 1838.14 96.2417 1828.26 100.046C1819.57 103.396 1812.23 102.127 1806.66 100.415C1805.18 109.398 1803.56 121.155 1802 132.54C1796.06 175.685 1794.17 185 1791.36 185C1785.13 185 1778.78 176.927 1776.71 174.042C1773.14 177.468 1759.44 190 1750.36 190H1749.8L1749.51 189.518C1745.83 183.445 1742.78 169.955 1739.83 156.91C1738.11 149.321 1736.49 142.153 1734.91 137.31C1731.82 127.842 1723.82 113.371 1721.28 108.88C1717.06 115 1699.62 139.931 1692.85 144.668C1686.24 149.301 1684.03 150 1679.86 150C1677.56 150 1675.21 147.638 1672.48 144.904C1669.96 142.371 1667.1 139.5 1664.86 139.5C1662.49 139.5 1661.51 140.225 1659.73 141.542C1659.19 141.939 1658.6 142.372 1657.92 142.832C1656.16 144.004 1654.52 143.558 1653.33 143.232C1652.02 142.876 1651.75 142.801 1651.28 143.894C1649.81 147.317 1639.04 179.616 1638.93 179.942L1638.71 180.62L1622.6 180.744C1620.22 192.236 1612.69 214.892 1609.16 219.6L1608.86 220H1593.34L1579.45 237.086L1578.9 235.294C1578.8 234.953 1568.61 201.66 1565.54 184.129C1562.1 185.181 1555.99 192.438 1552.68 197.158L1552.38 197.587L1537.14 197.503C1532.07 204.907 1525.73 213.5 1523.61 213.5C1520.67 213.5 1513.35 209.913 1510.48 208.446C1508.7 214.454 1500.53 242.006 1497.31 251.327C1495.64 256.136 1482.89 257.371 1481.45 257.496L1480.72 257.559L1466.9 224.974C1464.33 226.637 1457.42 231.361 1455.24 235.469C1453.82 238.161 1448.15 256.918 1442.16 276.776C1436.07 296.955 1429.77 317.821 1426.3 327.343C1423.88 333.989 1416.08 338.986 1409.19 343.394C1404.58 346.349 1400.22 349.141 1397.98 352.031C1392.01 359.7 1382.39 384.609 1382.29 384.86L1381.24 387.6L1380.4 384.785C1380.33 384.545 1373.21 360.671 1368.47 351.458C1368.08 350.705 1367.7 349.915 1367.31 349.108C1365.22 344.767 1363.06 340.278 1358.7 338.78C1355.89 337.811 1354.26 339.121 1352.53 340.509C1351.41 341.415 1350.24 342.352 1348.79 342.495C1347.55 342.618 1346.34 342.484 1345.06 342.342C1343.41 342.158 1341.7 341.968 1339.7 342.319C1337.21 342.757 1330.06 350.712 1326.14 355.624L1325.26 356.732L1324.51 355.528C1324.42 355.385 1315.57 341.181 1310.32 337.844C1307.57 336.094 1302.02 335.078 1296.65 334.096C1291.67 333.185 1286.97 332.325 1284.37 330.873C1279.24 328.006 1271.3 298.939 1269.28 291.249C1266.71 293.285 1260.66 297.892 1256.73 299.431C1253.63 300.644 1250.51 301.097 1247.2 301.576C1244.28 302.001 1241.26 302.439 1238.17 303.45C1233.32 305.04 1226.08 315.991 1221.29 323.238C1219.21 326.384 1217.41 329.101 1216.13 330.64C1212 335.591 1202.5 336.125 1198.61 336.125C1195.54 336.125 1188.53 334.271 1186.28 333.655L1170.79 356.264L1170.12 356.095C1170.03 356.075 1161.66 354 1155.48 354H1127.82L1127.52 353.542C1127.42 353.39 1117.62 338.236 1113.78 334.867C1111.35 332.75 1108.05 332.535 1105.14 332.346C1103.62 332.247 1102.18 332.154 1101.03 331.787C1099.4 331.269 1098.5 330.285 1097.71 329.418C1096.49 328.089 1095.35 326.834 1091.25 326.834C1085.94 326.834 1076.45 342.807 1073.25 348.962L1072.97 349.5H1044.02L1030.02 382.005L1029.35 382C1029.18 382 1010.4 381.933 1002.36 386.615C995.728 390.476 987.996 404.969 987.919 405.115L987.564 405.783L986.825 405.625C986.68 405.594 972.339 402.455 959.04 394.289L944.302 410.5H930.037L921.465 418.441L920.789 417.651C920.674 417.516 909.261 404.193 905.534 401.289C904.468 400.456 899.293 406.357 896.513 409.524C891.175 415.607 885.125 422.5 880.299 422.5H857.01L843.143 434.057L842.565 432.969C842.441 432.736 830.105 409.564 823.179 403.591C820.858 401.59 814.393 399.105 812.066 398.25C807.559 407.804 797.631 427.903 793.887 427.903L775.053 428.691L774.749 428.167C774.685 428.055 768.184 416.95 761.515 416.95C758.844 416.95 756.767 418.761 754.757 420.512C753.744 421.395 752.787 422.229 751.749 422.856C749.719 424.082 744.797 424.334 738.032 424.334C735.021 424.334 728.707 434.721 725.185 442.097L724.707 443.098L723.761 442.52C723.656 442.456 713.219 436.078 705.464 431.255C704.177 430.454 701.043 430.539 698.28 430.618C697.617 430.637 696.957 430.655 696.315 430.662C694.6 434.193 685.472 452 675.882 452H652.724L637.722 462.229L616.945 446.713C615.272 446.964 608.591 448.17 606.121 451.736L605.507 452.622C602.086 457.559 597.4 464.32 592.228 472.533Z" fill="#00CCFF" fill-opacity="0.6"/>
</g>
<path fill-rule="evenodd" clip-rule="evenodd" d="M591.382 472C596.887 463.258 601.886 456.095 605.299 451.167C608.416 446.667 617.215 445.667 617.215 445.667L637.749 461L652.416 451H675.882C685.782 451 695.682 429.667 695.682 429.667C699.423 429.667 704.012 429.173 705.993 430.405C713.833 435.282 724.282 441.667 724.282 441.667C724.282 441.667 733.036 423.333 738.032 423.333C743.409 423.333 749.246 423.2 751.232 422C754.292 420.152 757.069 415.95 761.515 415.95C768.849 415.95 775.615 427.667 775.615 427.667L793.887 426.903C797.524 426.903 811.549 397 811.549 397C811.549 397 820.817 400.233 823.832 402.833C830.982 409 843.449 432.5 843.449 432.5L856.649 421.5H880.299C888.549 421.5 902.299 397.5 906.149 400.5C909.999 403.5 921.549 417 921.549 417L929.645 409.5H943.86L958.86 393C972.361 401.5 987.035 404.646 987.035 404.646C987.035 404.646 994.902 389.8 1001.86 385.75C1010.24 380.875 1029.36 381 1029.36 381L1043.36 348.5H1072.36C1072.36 348.5 1084.17 325.833 1091.25 325.833C1098.5 325.833 1097.67 329.667 1101.33 330.833C1104.47 331.831 1110.43 330.615 1114.43 334.115C1118.43 337.615 1128.36 353 1128.36 353H1155.49C1161.86 353 1170.36 355.125 1170.36 355.125L1185.86 332.5C1185.86 332.5 1195.11 335.125 1198.61 335.125C1202.11 335.125 1211.45 334.688 1215.36 330C1219.74 324.75 1230.61 304.875 1237.86 302.5C1244.46 300.337 1250.61 300.75 1256.36 298.5C1261.27 296.58 1269.86 289.5 1269.86 289.5C1269.86 289.5 1279.49 327 1284.86 330C1290.09 332.917 1305.36 333.5 1310.86 337C1316.36 340.5 1325.36 355 1325.36 355C1325.36 355 1335.74 342 1339.53 341.333C1343.22 340.683 1345.99 341.766 1348.69 341.5C1351.79 341.195 1353.69 336 1359.03 337.833C1364.65 339.767 1366.88 346.185 1369.36 351C1374.2 360.404 1381.36 384.5 1381.36 384.5C1381.36 384.5 1391.06 359.292 1397.19 351.417C1403 343.935 1421.49 337.625 1425.36 327C1432.36 307.81 1451.44 240.5 1454.36 235C1457.21 229.633 1467.36 223.5 1467.36 223.5L1481.36 256.5C1481.36 256.5 1494.86 255.333 1496.36 251C1500.01 240.467 1509.86 207 1509.86 207C1509.86 207 1520.28 212.5 1523.61 212.5C1525.69 212.5 1536.61 196.5 1536.61 196.5L1551.86 196.583C1551.86 196.583 1561.44 182.917 1566.36 183C1569.24 200.375 1579.86 235 1579.86 235L1592.86 219H1608.36C1611.86 214.333 1619.61 190.917 1621.78 179.75L1637.99 179.625C1637.99 179.625 1648.86 147 1650.36 143.5C1651.86 140 1654.36 144 1657.36 142C1660.36 140 1661.38 138.5 1664.86 138.5C1669.88 138.5 1675.86 149 1679.86 149C1683.86 149 1685.87 148.336 1692.28 143.849C1699.78 138.599 1721.36 107 1721.36 107C1721.36 107 1732.11 125.5 1735.86 137C1740.11 150.021 1744.61 179.5 1750.36 189C1760.36 189 1776.86 172.5 1776.86 172.5C1776.86 172.5 1784.4 184 1791.36 184C1795.11 184 1801.11 127.5 1805.86 99.112C1811.61 101 1819.11 102.5 1827.9 99.112C1838.35 95.089 1847.36 70.614 1847.36 70.614C1853 70.614 1852.35 74.523 1854.02 74.523C1855.69 74.523 1857.17 66.288 1861.37 65.625C1865.33 65 1868.14 60.834 1874.33 61.833C1879.5 62.667 1884.5 74.508 1887.01 74.508C1889.82 74.508 1896.37 72.875 1902 64.625C1909.58 53.511 1922 21.5 1922 21.5V-2H-2.0002V472H591.382Z" fill="#163942"/>
<mask id="mask1" mask-type="alpha" maskUnits="userSpaceOnUse" x="-2" y="-2" width="1924" height="474">
<path fill-rule="evenodd" clip-rule="evenodd" d="M591.382 472C596.887 463.258 601.886 456.095 605.299 451.167C608.416 446.667 617.215 445.667 617.215 445.667L637.749 461L652.416 451H675.882C685.782 451 695.682 429.667 695.682 429.667C699.423 429.667 704.012 429.173 705.993 430.405C713.833 435.282 724.282 441.667 724.282 441.667C724.282 441.667 733.036 423.333 738.032 423.333C743.409 423.333 749.246 423.2 751.232 422C754.292 420.152 757.069 415.95 761.515 415.95C768.849 415.95 775.615 427.667 775.615 427.667L793.887 426.903C797.524 426.903 811.549 397 811.549 397C811.549 397 820.817 400.233 823.832 402.833C830.982 409 843.449 432.5 843.449 432.5L856.649 421.5H880.299C888.549 421.5 902.299 397.5 906.149 400.5C909.999 403.5 921.549 417 921.549 417L929.645 409.5H943.86L958.86 393C972.361 401.5 987.035 404.646 987.035 404.646C987.035 404.646 994.902 389.8 1001.86 385.75C1010.24 380.875 1029.36 381 1029.36 381L1043.36 348.5H1072.36C1072.36 348.5 1084.17 325.833 1091.25 325.833C1098.5 325.833 1097.67 329.667 1101.33 330.833C1104.47 331.831 1110.43 330.615 1114.43 334.115C1118.43 337.615 1128.36 353 1128.36 353H1155.49C1161.86 353 1170.36 355.125 1170.36 355.125L1185.86 332.5C1185.86 332.5 1195.11 335.125 1198.61 335.125C1202.11 335.125 1211.45 334.688 1215.36 330C1219.74 324.75 1230.61 304.875 1237.86 302.5C1244.46 300.337 1250.61 300.75 1256.36 298.5C1261.27 296.58 1269.86 289.5 1269.86 289.5C1269.86 289.5 1279.49 327 1284.86 330C1290.09 332.917 1305.36 333.5 1310.86 337C1316.36 340.5 1325.36 355 1325.36 355C1325.36 355 1335.74 342 1339.53 341.333C1343.22 340.683 1345.99 341.766 1348.69 341.5C1351.79 341.195 1353.69 336 1359.03 337.833C1364.65 339.767 1366.88 346.185 1369.36 351C1374.2 360.404 1381.36 384.5 1381.36 384.5C1381.36 384.5 1391.06 359.292 1397.19 351.417C1403.01 343.935 1421.49 337.625 1425.36 327C1432.36 307.81 1451.44 240.5 1454.36 235C1457.21 229.633 1467.36 223.5 1467.36 223.5L1481.36 256.5C1481.36 256.5 1494.86 255.333 1496.36 251C1500.01 240.467 1509.86 207 1509.86 207C1509.86 207 1520.28 212.5 1523.61 212.5C1525.69 212.5 1536.61 196.5 1536.61 196.5L1551.86 196.583C1551.86 196.583 1561.44 182.917 1566.36 183C1569.24 200.375 1579.86 235 1579.86 235L1592.86 219H1608.36C1611.86 214.333 1619.61 190.917 1621.78 179.75L1637.99 179.625C1637.99 179.625 1648.86 147 1650.36 143.5C1651.86 140 1654.36 144 1657.36 142C1660.36 140 1661.38 138.5 1664.86 138.5C1669.89 138.5 1675.86 149 1679.86 149C1683.86 149 1685.87 148.336 1692.28 143.849C1699.78 138.599 1721.36 107 1721.36 107C1721.36 107 1732.11 125.5 1735.86 137C1740.11 150.021 1744.61 179.5 1750.36 189C1760.36 189 1776.86 172.5 1776.86 172.5C1776.86 172.5 1784.4 184 1791.36 184C1795.11 184 1801.11 127.5 1805.86 99.112C1811.61 101 1819.11 102.5 1827.9 99.112C1838.35 95.089 1847.36 70.614 1847.36 70.614C1853 70.614 1852.35 74.523 1854.02 74.523C1855.69 74.523 1857.18 66.288 1861.38 65.625C1865.33 65 1868.14 60.834 1874.33 61.833C1879.5 62.667 1884.5 74.508 1887.02 74.508C1889.82 74.508 1896.38 72.875 1902 64.625C1909.58 53.511 1922 21.5 1922 21.5V-2H-2V472H591.382Z" fill="white"/>
</mask>
<g mask="url(#mask1)">
<path fill-rule="evenodd" clip-rule="evenodd" d="M984 321C984 319.343 985.343 318 987 318C988.657 318 990 319.343 990 321C990 322.657 988.657 324 987 324C985.343 324 984 322.657 984 321ZM987 314C983.133 314 980 317.135 980 321C980 324.171 982.108 326.85 985 327.71V404H989V327.71C991.892 326.85 994 324.171 994 321C994 317.135 990.867 314 987 314Z" fill="white" fill-opacity="0.1"/>
<path fill-rule="evenodd" clip-rule="evenodd" d="M1390 199C1390 197.343 1391.34 196 1393 196C1394.66 196 1396 197.343 1396 199C1396 200.657 1394.66 202 1393 202C1391.34 202 1390 200.657 1390 199ZM1393 192C1389.13 192 1386 195.135 1386 199C1386 202.171 1388.11 204.85 1391 205.71V360H1395V205.71C1397.89 204.85 1400 202.171 1400 199C1400 195.135 1396.87 192 1393 192Z" fill="white" fill-opacity="0.1"/>
</g>
<path d="M591.382 472C596.887 463.258 601.886 456.095 605.299 451.167C608.416 446.667 617.215 445.667 617.215 445.667L637.749 461L652.416 451H675.882C685.782 451 695.682 429.667 695.682 429.667C699.423 429.667 704.012 429.173 705.993 430.405C713.833 435.282 724.282 441.667 724.282 441.667C724.282 441.667 733.036 423.333 738.032 423.333C743.409 423.333 749.246 423.2 751.232 422C754.292 420.152 757.069 415.95 761.515 415.95C768.849 415.95 775.615 427.667 775.615 427.667L793.887 426.903C797.524 426.903 811.549 397 811.549 397C811.549 397 820.817 400.233 823.832 402.833C830.982 409 843.449 432.5 843.449 432.5L856.649 421.5H880.299C888.549 421.5 902.299 397.5 906.149 400.5C909.999 403.5 921.549 417 921.549 417L929.645 409.5H943.86L958.86 393C972.361 401.5 987.035 404.646 987.035 404.646C987.035 404.646 994.902 389.8 1001.86 385.75C1010.24 380.875 1029.36 381 1029.36 381L1043.36 348.5H1072.36C1072.36 348.5 1084.17 325.833 1091.25 325.833C1098.5 325.833 1097.67 329.667 1101.33 330.833C1104.47 331.831 1110.43 330.615 1114.43 334.115C1118.43 337.615 1128.36 353 1128.36 353H1155.49C1161.86 353 1170.36 355.125 1170.36 355.125L1185.86 332.5C1185.86 332.5 1195.11 335.125 1198.61 335.125C1202.11 335.125 1211.45 334.688 1215.36 330C1219.74 324.75 1230.61 304.875 1237.86 302.5C1244.46 300.337 1250.61 300.75 1256.36 298.5C1261.27 296.58 1269.86 289.5 1269.86 289.5C1269.86 289.5 1279.49 327 1284.86 330C1290.09 332.917 1305.36 333.5 1310.86 337C1316.36 340.5 1325.36 355 1325.36 355C1325.36 355 1335.74 342 1339.53 341.333C1343.22 340.683 1345.99 341.766 1348.69 341.5C1351.79 341.195 1353.69 336 1359.03 337.833C1364.65 339.767 1366.88 346.185 1369.36 351C1374.2 360.404 1381.36 384.5 1381.36 384.5C1381.36 384.5 1391.06 359.292 1397.19 351.417C1403 343.935 1421.49 337.625 1425.36 327C1432.36 307.81 1451.44 240.5 1454.36 235C1457.21 229.633 1467.36 223.5 1467.36 223.5L1481.36 256.5C1481.36 256.5 1494.86 255.333 1496.36 251C1500.01 240.467 1509.86 207 1509.86 207C1509.86 207 1520.28 212.5 1523.61 212.5C1525.69 212.5 1536.61 196.5 1536.61 196.5L1551.86 196.583C1551.86 196.583 1561.44 182.917 1566.36 183C1569.24 200.375 1579.86 235 1579.86 235L1592.86 219H1608.36C1611.86 214.333 1619.61 190.917 1621.78 179.75L1637.99 179.625C1637.99 179.625 1648.86 147 1650.36 143.5C1651.86 140 1654.36 144 1657.36 142C1660.36 140 1661.38 138.5 1664.86 138.5C1669.88 138.5 1675.86 149 1679.86 149C1683.86 149 1685.87 148.336 1692.28 143.849C1699.78 138.599 1721.36 107 1721.36 107C1721.36 107 1732.11 125.5 1735.86 137C1740.11 150.021 1744.61 179.5 1750.36 189C1760.36 189 1776.86 172.5 1776.86 172.5C1776.86 172.5 1784.4 184 1791.36 184C1795.11 184 1801.11 127.5 1805.86 99.112C1811.61 101 1819.11 102.5 1827.9 99.112C1838.35 95.089 1847.36 70.614 1847.36 70.614C1853 70.614 1852.35 74.523 1854.02 74.523C1855.69 74.523 1857.17 66.288 1861.37 65.625C1865.33 65 1868.14 60.834 1874.33 61.833C1879.5 62.667 1884.5 74.508 1887.01 74.508C1889.82 74.508 1896.37 72.875 1902 64.625C1909.58 53.511 1922 21.5 1922 21.5" stroke="#10829E" stroke-width="2"/>
<path opacity="0.217843" fill-rule="evenodd" clip-rule="evenodd" d="M1721 143C1740.88 143 1757 126.882 1757 107C1757 87.1177 1740.88 71 1721 71C1701.12 71 1685 87.1177 1685 107C1685 126.882 1701.12 143 1721 143Z" fill="url(#paint1_linear)"/>
<path opacity="0.237514" fill-rule="evenodd" clip-rule="evenodd" d="M1721 126C1731.49 126 1740 117.493 1740 107C1740 96.5066 1731.49 88 1721 88C1710.51 88 1702 96.5066 1702 107C1702 117.493 1710.51 126 1721 126Z" fill="url(#paint2_linear)"/>
<path fill-rule="evenodd" clip-rule="evenodd" d="M1721 110C1719.34 110 1718 108.657 1718 107C1718 105.343 1719.34 104 1721 104C1722.66 104 1724 105.343 1724 107C1724 108.657 1722.66 110 1721 110Z" fill="#0C8DAC"/>
<path opacity="0.217843" fill-rule="evenodd" clip-rule="evenodd" d="M1565 211C1580.46 211 1593 198.464 1593 183C1593 167.536 1580.46 155 1565 155C1549.54 155 1537 167.536 1537 183C1537 198.464 1549.54 211 1565 211Z" fill="url(#paint3_linear)"/>
<path opacity="0.241955" fill-rule="evenodd" clip-rule="evenodd" d="M1565 196C1572.18 196 1578 190.18 1578 183C1578 175.82 1572.18 170 1565 170C1557.82 170 1552 175.82 1552 183C1552 190.18 1557.82 196 1565 196Z" fill="url(#paint4_linear)"/>
<path fill-rule="evenodd" clip-rule="evenodd" d="M1565 186C1563.34 186 1562 184.657 1562 183C1562 181.343 1563.34 180 1565 180C1566.66 180 1568 181.343 1568 183C1568 184.657 1566.66 186 1565 186Z" fill="#0D8CAB"/>
<path opacity="0.331028" d="M1285 290C1285 298.284 1278.28 305 1270 305C1261.72 305 1255 298.284 1255 290C1255 281.716 1261.72 275 1270 275C1278.28 275 1285 281.716 1285 290Z" stroke="url(#paint5_linear)" stroke-width="10"/>
<path fill-rule="evenodd" clip-rule="evenodd" d="M1270 293C1271.66 293 1273 291.657 1273 290C1273 288.343 1271.66 287 1270 287C1268.34 287 1267 288.343 1267 290C1267 291.657 1268.34 293 1270 293Z" fill="#10829E"/>
<path opacity="0.331028" d="M1103 325C1103 331.627 1097.63 337 1091 337C1084.37 337 1079 331.627 1079 325C1079 318.373 1084.37 313 1091 313C1097.63 313 1103 318.373 1103 325Z" stroke="url(#paint6_linear)" stroke-width="6"/>
<path fill-rule="evenodd" clip-rule="evenodd" d="M1091 328C1089.34 328 1088 326.657 1088 325C1088 323.343 1089.34 322 1091 322C1092.66 322 1094 323.343 1094 325C1094 326.657 1092.66 328 1091 328Z" fill="#10829E"/>
<g style="mix-blend-mode:multiply" opacity="0.8">
<rect width="1920" height="470" fill="url(#paint7_radial)"/>
</g>
</g>
<defs>
<filter id="filter0_f" x="536.17" y="-33.2279" width="1441.13" height="560.126" filterUnits="userSpaceOnUse" color-interpolation-filters="sRGB">
<feFlood flood-opacity="0" result="BackgroundImageFix"/>
<feBlend mode="normal" in="SourceGraphic" in2="BackgroundImageFix" result="shape"/>
<feGaussianBlur stdDeviation="27.1828" result="effect1_foregroundBlur"/>
</filter>
<filter id="filter1_f" x="576.945" y="7.54629" width="1359.58" height="478.578" filterUnits="userSpaceOnUse" color-interpolation-filters="sRGB">
<feFlood flood-opacity="0" result="BackgroundImageFix"/>
<feBlend mode="normal" in="SourceGraphic" in2="BackgroundImageFix" result="shape"/>
<feGaussianBlur stdDeviation="6.7957" result="effect1_foregroundBlur"/>
</filter>
<linearGradient id="paint0_linear" x1="1690.5" y1="82" x2="1760.5" y2="472" gradientUnits="userSpaceOnUse">
<stop stop-color="#005267"/>
<stop offset="1" stop-color="#112C33"/>
</linearGradient>
<linearGradient id="paint1_linear" x1="1757" y1="143" x2="1757" y2="71" gradientUnits="userSpaceOnUse">
<stop stop-color="#00CCFF" stop-opacity="0.01"/>
<stop offset="1" stop-color="#00CCFF" stop-opacity="0.8"/>
</linearGradient>
<linearGradient id="paint2_linear" x1="1740" y1="126" x2="1740" y2="88" gradientUnits="userSpaceOnUse">
<stop stop-color="#00CCFF" stop-opacity="0.01"/>
<stop offset="1" stop-color="#00CCFF" stop-opacity="0.8"/>
</linearGradient>
<linearGradient id="paint3_linear" x1="1593" y1="211" x2="1593" y2="155" gradientUnits="userSpaceOnUse">
<stop stop-color="#00CCFF" stop-opacity="0.01"/>
<stop offset="1" stop-color="#00CCFF" stop-opacity="0.8"/>
</linearGradient>
<linearGradient id="paint4_linear" x1="1578" y1="196" x2="1578" y2="170" gradientUnits="userSpaceOnUse">
<stop stop-color="#00CCFF" stop-opacity="0.01"/>
<stop offset="1" stop-color="#00CCFF" stop-opacity="0.8"/>
</linearGradient>
<linearGradient id="paint5_linear" x1="1290" y1="310" x2="1290" y2="270" gradientUnits="userSpaceOnUse">
<stop stop-color="#00CCFF" stop-opacity="0.01"/>
<stop offset="1" stop-color="#00CCFF" stop-opacity="0.8"/>
</linearGradient>
<linearGradient id="paint6_linear" x1="1106" y1="340" x2="1106" y2="310" gradientUnits="userSpaceOnUse">
<stop stop-color="#00CCFF" stop-opacity="0.01"/>
<stop offset="1" stop-color="#00CCFF" stop-opacity="0.8"/>
</linearGradient>
<radialGradient id="paint7_radial" cx="0" cy="0" r="1" gradientUnits="userSpaceOnUse" gradientTransform="translate(620.5 219.992) scale(1337.17 327.329)">
<stop stop-color="white" stop-opacity="0.01"/>
<stop offset="1" stop-opacity="0.33"/>
</radialGradient>
</defs>
</svg>
