<svg xmlns="http://www.w3.org/2000/svg" xmlns:xlink="http://www.w3.org/1999/xlink" width="260" height="254" viewBox="0 0 260 254"><defs><path id="54xta" d="M416.874 1641.075v-256.15h262.252v256.15zM678 1481.965l-89.804-12.746L547.958 1386l-40.418 83.219-89.54 12.747 64.958 64.841L467.522 1639l80.436-43.62L628.67 1639l-15.713-92.193z"/><path id="54xtb" d="M678 1481.966l-89.804-12.747L547.958 1386l-40.418 83.219-89.54 12.747 64.958 64.841L467.522 1639l80.436-43.62L628.67 1639l-15.713-92.193z"/><path id="54xte" d="M604.05 1616.907l9.27 5.75 2.32 10.7 13.599-22.037z"/><path id="54xtf" d="M522.83 1616.907l9.27 5.75 2.32 10.7 13.599-22.037z"/><path id="54xtg" d="M482.22 1616.907l9.27 5.75 2.32 10.7 13.599-22.037z"/><path id="54xth" d="M441.61 1616.907l9.27 5.75 2.32 10.7 13.599-22.037z"/><path id="54xti" d="M615.64 1592.526l-2.32-10.7-9.27-5.75 25.189-5.586z"/><path id="54xtj" d="M575.03 1592.526l-2.32-10.7-9.27-5.75 25.189-5.586z"/><path id="54xtk" d="M534.42 1592.526l-2.32-10.7-9.27-5.75 25.189-5.586z"/><path id="54xtl" d="M493.81 1592.526l-2.32-10.7-9.27-5.75 25.189-5.586z"/><path id="54xtm" d="M453.2 1592.526l-2.32-10.7-9.27-5.75 25.189-5.586z"/><path id="54xtn" d="M615.64 1551.696l-2.32-10.7-9.27-5.75 25.189-5.586z"/><path id="54xto" d="M453.2 1551.696l-2.32-10.7-9.27-5.75 25.189-5.586z"/><path id="54xtp" d="M534.42 1510.866l-2.32-10.7-9.27-5.75 25.189-5.586z"/><path id="54xtq" d="M493.81 1510.866l-2.32-10.7-9.27-5.75 25.189-5.586z"/><path id="54xtr" d="M453.2 1510.866l-2.32-10.7-9.27-5.75 25.189-5.586z"/><path id="54xts" d="M534.42 1470.036l-2.32-10.7-9.27-5.75 25.189-5.586z"/><path id="54xtt" d="M478.795 1561.644l-9.595-15.296 53.237-33.13 17.905 22.292 49.579-33.63 10.193 14.908-63.438 43.03-18.311-22.799z"/><path id="54xtu" d="M589.502 1539.189l-4.814-22.57-19.738-12.019 53.913-12.14z"/><clipPath id="54xtc"><use fill="#fff" xlink:href="#54xta"/></clipPath><clipPath id="54xtd"><use xlink:href="#54xtb"/></clipPath></defs><g><g transform="translate(-418 -1386)"><g><use fill="#fce9ac" xlink:href="#54xtb"/><use fill="#fff" fill-opacity="0" stroke="#ebe3ca" stroke-miterlimit="50" stroke-width="2" clip-path="url(&quot;#54xtc&quot;)" xlink:href="#54xtb"/></g><g/><g clip-path="url(#54xtd)"><g><use fill="#5dcbb6" xlink:href="#54xte"/></g><g><use fill="#5dcbb6" xlink:href="#54xtf"/></g><g><use fill="#5dcbb6" xlink:href="#54xtg"/></g><g><use fill="#5dcbb6" xlink:href="#54xth"/></g><g><use fill="#5dcbb6" xlink:href="#54xti"/></g><g><use fill="#5dcbb6" xlink:href="#54xtj"/></g><g><use fill="#5dcbb6" xlink:href="#54xtk"/></g><g><use fill="#5dcbb6" xlink:href="#54xtl"/></g><g><use fill="#5dcbb6" xlink:href="#54xtm"/></g><g><use fill="#5dcbb6" xlink:href="#54xtn"/></g><g><use fill="#5dcbb6" xlink:href="#54xto"/></g><g><use fill="#5dcbb6" xlink:href="#54xtp"/></g><g><use fill="#5dcbb6" xlink:href="#54xtq"/></g><g><use fill="#5dcbb6" xlink:href="#54xtr"/></g><g><use fill="#5dcbb6" xlink:href="#54xts"/></g></g><g clip-path="url(#54xtd)"><g><use fill="#469fa6" xlink:href="#54xtt"/></g><g transform="rotate(1 592.5 1516)"><use fill="#469fa6" xlink:href="#54xtu"/></g></g></g></g></svg>