<svg xmlns="http://www.w3.org/2000/svg" xmlns:xlink="http://www.w3.org/1999/xlink" width="30" height="29" viewBox="0 0 30 29"><defs><path id="bngga" d="M405 36l-10.362-1.461L389.995 25l-4.663 9.539L375 36l7.495 7.432L380.715 54l9.28-5 9.313 5-1.813-10.568z"/><path id="bnggb" d="M385 38.5a1.5 1.5 0 1 1 3 0 1.5 1.5 0 0 1-3 0zm7 0a1.5 1.5 0 1 1 3 0 1.5 1.5 0 0 1-3 0zm-6 5.5c0-1.105 1.79-2 4-2s4 .895 4 2-1.79 2-4 2-4-.895-4-2z"/></defs><g><g transform="translate(-375 -25)"><g/><g><use fill="#fddd4b" xlink:href="#bngga"/></g><g><use fill="#f68712" xlink:href="#bnggb"/></g></g></g></svg>