<svg width="36" height="36" viewBox="0 0 36 36" fill="none" xmlns="http://www.w3.org/2000/svg">
<path fill-rule="evenodd" clip-rule="evenodd" d="M33.0049 14L22.6429 12.5389L18 3L13.3364 12.5389L3.00488 14L10.5 21.4325L8.71894 32L18 27L27.313 32L25.5 21.4325L33.0049 14Z" fill="#FDDD4B"/>
<path fill-rule="evenodd" clip-rule="evenodd" d="M14.5 18C15.3284 18 16 17.3284 16 16.5C16 15.6716 15.3284 15 14.5 15C13.6716 15 13 15.6716 13 16.5C13 17.3284 13.6716 18 14.5 18ZM21.5 18C22.3284 18 23 17.3284 23 16.5C23 15.6716 22.3284 15 21.5 15C20.6716 15 20 15.6716 20 16.5C20 17.3284 20.6716 18 21.5 18ZM22 20C22 22.2091 20.2091 24 18 24C15.7909 24 14 22.1625 14 20H22Z" fill="#F68712"/>
</svg>
