<svg width="37" height="26" viewBox="0 0 37 26" fill="none" xmlns="http://www.w3.org/2000/svg">
<rect y="3" width="37" height="20" fill="#7FDECC"/>
<path d="M0 23H37V24C37 25.1046 36.1046 26 35 26H2C0.895432 26 0 25.1046 0 24V23Z" fill="#469FA6"/>
<path d="M0 2C0 0.895431 0.89543 0 2 0H35C36.1046 0 37 0.895431 37 2V3H0V2Z" fill="#469FA6"/>
<mask id="mask0" mask-type="alpha" maskUnits="userSpaceOnUse" x="3" y="6" width="13" height="13">
<circle cx="9.5" cy="12.5" r="6.5" fill="#7FDECC"/>
</mask>
<g mask="url(#mask0)">
<circle r="2.5" transform="matrix(-1 0 0 1 9.5 9.5)" fill="#469FA6"/>
<ellipse rx="5.5" ry="4.5" transform="matrix(-1 0 0 1 9.5 18.5)" fill="#469FA6"/>
</g>
<path d="M19 16C19 15.4477 19.4477 15 20 15H31C31.5523 15 32 15.4477 32 16V17C32 17.5523 31.5523 18 31 18H20C19.4477 18 19 17.5523 19 17V16Z" fill="#469FA6"/>
<path d="M19 9C19 8.44772 19.4477 8 20 8H26C26.5523 8 27 8.44772 27 9V10C27 10.5523 26.5523 11 26 11H20C19.4477 11 19 10.5523 19 10V9Z" fill="#469FA6"/>
</svg>
