<svg width="32" height="27" viewBox="0 0 32 27" fill="none" xmlns="http://www.w3.org/2000/svg">
<path d="M2 5H30V25H2V5Z" fill="#7FDECC"/>
<path d="M6 11C6 10.4477 6.44772 10 7 10H25C25.5523 10 26 10.4477 26 11V12C26 12.5523 25.5523 13 25 13H7C6.44772 13 6 12.5523 6 12V11Z" fill="#469FA6"/>
<path d="M6 18C6 17.4477 6.44772 17 7 17H17C17.5523 17 18 17.4477 18 18V19C18 19.5523 17.5523 20 17 20H7C6.44772 20 6 19.5523 6 19V18Z" fill="#469FA6"/>
<path fill-rule="evenodd" clip-rule="evenodd" d="M1.5 0C2.32843 0 3 0.671573 3 1.5V23.5C3 23.7761 3.22386 24 3.5 24H28.5C28.7761 24 29 23.7761 29 23.5V1.5C29 0.671573 29.6716 0 30.5 0C31.3284 0 32 0.671573 32 1.5V23.5C32 25.433 30.433 27 28.5 27H3.5C1.567 27 0 25.433 0 23.5V1.5C0 0.671573 0.671573 0 1.5 0Z" fill="#469FA6"/>
</svg>
