<svg width="94" height="75" viewBox="0 0 94 75" fill="none" xmlns="http://www.w3.org/2000/svg">
<rect x="23" y="1" width="48" height="68" stroke="white" stroke-width="2" stroke-linejoin="round"/>
<path d="M28 6H66V69H28V6Z" stroke="white" stroke-width="2" stroke-linejoin="round"/>
<path d="M28 6H66V69H28V6Z" stroke="white" stroke-width="2" stroke-linejoin="round"/>
<path d="M34 24L46 12" stroke="white" stroke-width="2" stroke-linecap="round"/>
<path d="M34 18L40 12" stroke="white" stroke-width="2" stroke-linecap="round"/>
<path d="M71 13V69H90V13H76" stroke="white" stroke-width="2" stroke-linecap="round" stroke-linejoin="round"/>
<path d="M47 69H58V47H47M47 69H36V47H47M47 69V47" stroke="white" stroke-width="2" stroke-linejoin="round"/>
<path d="M36 39H58" stroke="white" stroke-width="2" stroke-linecap="round"/>
<path d="M4 13H23V69H4V13Z" stroke="white" stroke-width="2" stroke-linejoin="round"/>
<path d="M4 39V18H18M9 39H23" stroke="white" stroke-width="2" stroke-linecap="round" stroke-linejoin="round"/>
<path d="M71 39V18H90" stroke="white" stroke-width="2" stroke-linecap="round" stroke-linejoin="round"/>
<path d="M71 39H85" stroke="white" stroke-width="2" stroke-linecap="round"/>
<rect x="1" y="69" width="92" height="5" stroke="white" stroke-width="2" stroke-linejoin="round"/>
</svg>
