<?xml version="1.0" standalone="no"?>
<!DOCTYPE svg PUBLIC "-//W3C//DTD SVG 1.1//EN" "http://www.w3.org/Graphics/SVG/1.1/DTD/svg11.dtd" >
<svg xmlns="http://www.w3.org/2000/svg" xmlns:xlink="http://www.w3.org/1999/xlink" version="1.1">
<metadata>
Created by FontForge 20161116 at Mon May  9 18:57:27 2016
 By Jimmy Warting
Copyright \(c\) 2014 by Fontfabric. All rights reserved.
</metadata>
<defs>
<font id="MullerNarrow-Light" horiz-adv-x="513" >
  <font-face 
    font-family="Muller Narrow Light"
    font-weight="300"
    font-stretch="normal"
    units-per-em="1000"
    panose-1="0 0 4 0 0 0 0 0 0 0"
    ascent="800"
    descent="-200"
    x-height="480"
    cap-height="700"
    bbox="-435.594 -247 972 946"
    underline-thickness="50"
    underline-position="-100"
    stemh="53"
    stemv="57"
    unicode-range="U+0020-25CA"
  />
<missing-glyph horiz-adv-x="500" 
d="M410 780v-1000h-317v1000h317zM333 713h-165v-33h65v-37h-66v-33h166v33h-66v37h66v33zM267 584h-100v-104h166v34h-66v70zM233 550v-36h-33v36h33zM333 453h-166v-33h66v-37h-66v-33h100v70h66v33zM333 393h-33v-66h-133v-34h166v100zM333 271h-100v-56h34v23h33v-47
h-100v80h-33v-113h166v113zM333 98h-166v-113h166v113zM300 65v-47h-100v47h100zM333 -38h-166v-33h70l-70 -47v-33h166v33h-102l70 47h32v33z" />
    <glyph glyph-name="f_f" unicode="ff" horiz-adv-x="531" 
d="M485 659c-53 0 -87 -28 -87 -87v-92h124v-51h-124v-429h-57v429h-200v-429h-57v429h-70v51h70v77c0 91 50 143 135 143c29 0 52 -6 74 -16v-50c-19 9 -40 14 -65 14c-52 0 -87 -28 -87 -87v-81h200v89c0 90 50 142 134 142c30 0 53 -6 75 -16v-50c-19 9 -41 14 -65 14z
" />
    <glyph glyph-name="f_f_i" unicode="ffi" horiz-adv-x="718" 
d="M654 480v-480h-56v429h-200v-429h-57v429h-200v-429h-57v429h-70v51h70v77c0 91 50 143 135 143c29 0 52 -6 74 -16v-50c-19 9 -40 14 -65 14c-52 0 -87 -28 -87 -87v-81h200v77c0 101 64 154 156 154c42 0 84 -10 122 -31v-54c-33 21 -73 33 -113 33
c-69 0 -108 -35 -108 -109v-70h256z" />
    <glyph glyph-name="f_f_l" unicode="ffl" horiz-adv-x="718" 
d="M84 0v429h-70v51h70v77c0 91 50 143 135 143c29 0 52 -6 74 -16v-50c-19 9 -40 14 -65 14c-52 0 -87 -28 -87 -87v-81h200v89c0 90 62 142 153 142c38 0 72 -6 108 -22l9 11l43 11v-711h-56v636c-31 15 -64 23 -98 23c-62 0 -102 -30 -102 -94v-85h120v-51h-120v-429h-57
v429h-200v-429h-57z" />
    <glyph glyph-name=".notdef" horiz-adv-x="500" 
d="M410 780v-1000h-317v1000h317zM333 713h-165v-33h65v-37h-66v-33h166v33h-66v37h66v33zM267 584h-100v-104h166v34h-66v70zM233 550v-36h-33v36h33zM333 453h-166v-33h66v-37h-66v-33h100v70h66v33zM333 393h-33v-66h-133v-34h166v100zM333 271h-100v-56h34v23h33v-47
h-100v80h-33v-113h166v113zM333 98h-166v-113h166v113zM300 65v-47h-100v47h100zM333 -38h-166v-33h70l-70 -47v-33h166v33h-102l70 47h32v33z" />
    <glyph glyph-name="A" unicode="A" horiz-adv-x="546" 
d="M5 0l236 700h64l236 -700h-63l-61 187h-288l-61 -187h-63zM147 242h252l-102 308c-9 28 -17 55 -24 82c-7 -27 -15 -54 -24 -82z" />
    <glyph glyph-name="Aacute" unicode="&#xc1;" horiz-adv-x="546" 
d="M221 773l90 135h68l-99 -135h-59zM5 0l236 700h64l236 -700h-63l-61 187h-288l-61 -187h-63zM147 242h252l-102 308c-9 28 -17 55 -24 82c-7 -27 -15 -54 -24 -82z" />
    <glyph glyph-name="Abreve" unicode="&#x102;" horiz-adv-x="546" 
d="M272 774c-46 0 -84 11 -117 33v53c36 -22 75 -32 117 -32s81 10 117 32v-53c-33 -22 -71 -33 -117 -33zM5 0l236 700h64l236 -700h-63l-61 187h-288l-61 -187h-63zM147 242h252l-102 308c-9 28 -17 55 -24 82c-7 -27 -15 -54 -24 -82z" />
    <glyph glyph-name="Acircumflex" unicode="&#xc2;" horiz-adv-x="546" 
d="M298 903l104 -129h-63l-66 80l-67 -80h-63l104 129h51zM5 0l236 700h64l236 -700h-63l-61 187h-288l-61 -187h-63zM147 242h252l-102 308c-9 28 -17 55 -24 82c-7 -27 -15 -54 -24 -82z" />
    <glyph glyph-name="Adieresis" unicode="&#xc4;" horiz-adv-x="546" 
d="M190 795c-23 0 -42 19 -42 41s19 42 42 42s41 -20 41 -42s-18 -41 -41 -41zM354 795c-22 0 -41 19 -41 41s19 42 41 42c23 0 42 -20 42 -42s-19 -41 -42 -41zM5 0l236 700h64l236 -700h-63l-61 187h-288l-61 -187h-63zM147 242h252l-102 308c-9 28 -17 55 -24 82
c-7 -27 -15 -54 -24 -82z" />
    <glyph glyph-name="Agrave" unicode="&#xc0;" horiz-adv-x="546" 
d="M262 773l-98 135h68l89 -135h-59zM5 0l236 700h64l236 -700h-63l-61 187h-288l-61 -187h-63zM147 242h252l-102 308c-9 28 -17 55 -24 82c-7 -27 -15 -54 -24 -82z" />
    <glyph glyph-name="Amacron" unicode="&#x100;" horiz-adv-x="546" 
d="M396 847v-52h-247v52h247zM5 0l236 700h64l236 -700h-63l-61 187h-288l-61 -187h-63zM147 242h252l-102 308c-9 28 -17 55 -24 82c-7 -27 -15 -54 -24 -82z" />
    <glyph glyph-name="Aogonek" unicode="&#x104;" horiz-adv-x="546" 
d="M508 -185c14 0 29 2 43 9v-44c-16 -7 -33 -11 -52 -11c-58 0 -90 31 -90 80c0 44 26 101 71 151h-2l-61 187h-288l-61 -187h-63l236 700h64l236 -700c-50 -48 -79 -100 -79 -139c0 -34 21 -46 46 -46zM147 242h252l-102 308c-9 28 -17 55 -24 82c-7 -27 -15 -54 -24 -82z
" />
    <glyph glyph-name="Aring" unicode="&#xc5;" horiz-adv-x="546" 
d="M272 750c-55 0 -98 38 -98 98s43 98 98 98s98 -38 98 -98s-43 -98 -98 -98zM272 790c32 0 54 22 54 58s-22 58 -54 58s-54 -22 -54 -58s22 -58 54 -58zM5 0l236 700h64l236 -700h-63l-61 187h-288l-61 -187h-63zM147 242h252l-102 308c-9 28 -17 55 -24 82
c-7 -27 -15 -54 -24 -82z" />
    <glyph glyph-name="Atilde" unicode="&#xc3;" horiz-adv-x="546" 
d="M330 774c-53 0 -82 46 -112 46c-20 0 -28 -16 -30 -41h-43c-5 59 22 91 65 91c56 0 85 -45 111 -45c23 0 29 15 31 41h43c5 -60 -21 -92 -65 -92zM5 0l236 700h64l236 -700h-63l-61 187h-288l-61 -187h-63zM147 242h252l-102 308c-9 28 -17 55 -24 82
c-7 -27 -15 -54 -24 -82z" />
    <glyph glyph-name="AE" unicode="&#xc6;" horiz-adv-x="729" 
d="M423 57h274v-57h-334v190h-209l-96 -190h-65l354 700h344v-57h-268v-262h238v-57h-238v-267zM180 244h183v363z" />
    <glyph glyph-name="B" unicode="B" horiz-adv-x="544" 
d="M278 700c127 0 203 -56 203 -176c0 -96 -54 -142 -102 -157c51 -12 129 -57 130 -177c-1 -162 -138 -190 -230 -190h-204v700h203zM273 643h-138v-251h154c74 0 132 37 132 124c0 94 -51 127 -148 127zM286 336h-151v-279h133c83 0 180 10 181 139
c-1 124 -98 140 -163 140z" />
    <glyph glyph-name="C" unicode="C" horiz-adv-x="479" 
d="M306 -11c-147 0 -268 116 -267 356c1 232 119 366 277 366c48 0 92 -11 131 -35v-54c-38 22 -80 33 -128 33c-131 0 -219 -109 -220 -310c-1 -190 81 -300 215 -300c50 0 95 12 138 35v-57c-47 -24 -96 -34 -146 -34z" />
    <glyph glyph-name="Cacute" unicode="&#x106;" horiz-adv-x="479" 
d="M253 773l90 135h68l-99 -135h-59zM306 -11c-147 0 -268 116 -267 356c1 232 119 366 277 366c48 0 92 -11 131 -35v-54c-38 22 -80 33 -128 33c-131 0 -219 -109 -220 -310c-1 -190 81 -300 215 -300c50 0 95 12 138 35v-57c-47 -24 -96 -34 -146 -34z" />
    <glyph glyph-name="Ccaron" unicode="&#x10c;" horiz-adv-x="479" 
d="M330 774h-51l-104 129h63l66 -80l67 80h63zM306 -11c-147 0 -268 116 -267 356c1 232 119 366 277 366c48 0 92 -11 131 -35v-54c-38 22 -80 33 -128 33c-131 0 -219 -109 -220 -310c-1 -190 81 -300 215 -300c50 0 95 12 138 35v-57c-47 -24 -96 -34 -146 -34z" />
    <glyph glyph-name="Ccedilla" unicode="&#xc7;" horiz-adv-x="479" 
d="M452 23c-43 -23 -88 -33 -135 -34l-13 -59c42 1 84 -18 85 -72c1 -59 -55 -89 -111 -89c-29 0 -53 4 -73 13v46c23 -10 43 -13 70 -13c41 0 65 17 65 45c0 38 -46 44 -92 32l20 99c-129 19 -230 135 -229 354c1 232 119 366 277 366c48 0 92 -11 131 -35v-54
c-38 22 -80 33 -128 33c-131 0 -219 -109 -220 -310c-1 -190 81 -300 215 -300c50 0 95 12 138 35v-57z" />
    <glyph glyph-name="Cdotaccent" unicode="&#x10a;" horiz-adv-x="479" 
d="M304 779c-25 0 -43 16 -43 44s18 44 43 44c26 0 44 -16 44 -44s-18 -44 -44 -44zM306 -11c-147 0 -268 116 -267 356c1 232 119 366 277 366c48 0 92 -11 131 -35v-54c-38 22 -80 33 -128 33c-131 0 -219 -109 -220 -310c-1 -190 81 -300 215 -300c50 0 95 12 138 35v-57
c-47 -24 -96 -34 -146 -34z" />
    <glyph glyph-name="D" unicode="D" horiz-adv-x="569" 
d="M239 700c217 0 290 -148 290 -350s-73 -350 -290 -350h-164v700h164zM239 643h-104v-586h104c168 0 230 105 230 293s-62 293 -230 293z" />
    <glyph glyph-name="Eth" unicode="&#xd0;" horiz-adv-x="574" 
d="M244 700c217 0 290 -148 290 -350s-73 -350 -290 -350h-163v322h-70v54h70v324h163zM244 57c168 0 230 105 230 293s-62 293 -230 293h-104v-267h132v-54h-132v-265h104z" />
    <glyph glyph-name="Dcaron" unicode="&#x10e;" horiz-adv-x="569" 
d="M287 774h-51l-104 129h63l66 -80l67 80h63zM239 700c217 0 290 -148 290 -350s-73 -350 -290 -350h-164v700h164zM239 643h-104v-586h104c168 0 230 105 230 293s-62 293 -230 293z" />
    <glyph glyph-name="Dcroat" unicode="&#x110;" horiz-adv-x="574" 
d="M244 700c217 0 290 -148 290 -350s-73 -350 -290 -350h-163v322h-70v54h70v324h163zM244 57c168 0 230 105 230 293s-62 293 -230 293h-104v-267h132v-54h-132v-265h104z" />
    <glyph glyph-name="E" unicode="E" horiz-adv-x="474" 
d="M75 0v700h360v-57h-300v-262h270v-57h-270v-267h307v-57h-367z" />
    <glyph glyph-name="Eacute" unicode="&#xc9;" horiz-adv-x="474" 
d="M204 773l90 135h68l-99 -135h-59zM75 0v700h360v-57h-300v-262h270v-57h-270v-267h307v-57h-367z" />
    <glyph glyph-name="Ecaron" unicode="&#x11a;" horiz-adv-x="474" 
d="M281 774h-51l-104 129h63l66 -80l67 80h63zM75 0v700h360v-57h-300v-262h270v-57h-270v-267h307v-57h-367z" />
    <glyph glyph-name="Ecircumflex" unicode="&#xca;" horiz-adv-x="474" 
d="M280 903l104 -129h-63l-66 80l-67 -80h-63l104 129h51zM75 0v700h360v-57h-300v-262h270v-57h-270v-267h307v-57h-367z" />
    <glyph glyph-name="Edieresis" unicode="&#xcb;" horiz-adv-x="474" 
d="M172 795c-23 0 -42 19 -42 41s19 42 42 42s41 -20 41 -42s-18 -41 -41 -41zM336 795c-22 0 -41 19 -41 41s19 42 41 42c23 0 42 -20 42 -42s-19 -41 -42 -41zM75 0v700h360v-57h-300v-262h270v-57h-270v-267h307v-57h-367z" />
    <glyph glyph-name="Edotaccent" unicode="&#x116;" horiz-adv-x="474" 
d="M255 779c-25 0 -43 16 -43 44s18 44 43 44c26 0 44 -16 44 -44s-18 -44 -44 -44zM75 0v700h360v-57h-300v-262h270v-57h-270v-267h307v-57h-367z" />
    <glyph glyph-name="Egrave" unicode="&#xc8;" horiz-adv-x="474" 
d="M245 773l-98 135h68l89 -135h-59zM75 0v700h360v-57h-300v-262h270v-57h-270v-267h307v-57h-367z" />
    <glyph glyph-name="Emacron" unicode="&#x112;" horiz-adv-x="474" 
d="M379 847v-52h-247v52h247zM75 0v700h360v-57h-300v-262h270v-57h-270v-267h307v-57h-367z" />
    <glyph glyph-name="Eogonek" unicode="&#x118;" horiz-adv-x="474" 
d="M409 -185c14 0 29 2 43 9v-44c-16 -7 -33 -11 -52 -11c-58 0 -90 31 -90 80c0 44 27 101 72 151h-307v700h360v-57h-300v-262h270v-57h-270v-267h307v-57c-50 -48 -79 -100 -79 -139c0 -34 21 -46 46 -46z" />
    <glyph glyph-name="F" unicode="F" horiz-adv-x="460" 
d="M439 700v-57h-304v-273h275v-57h-275v-313h-60v700h364z" />
    <glyph glyph-name="G" unicode="G" horiz-adv-x="538" 
d="M310 -11c-143 0 -271 96 -271 358c0 234 127 364 286 364c57 0 106 -10 148 -37v-57c-44 27 -89 38 -141 38c-135 0 -233 -112 -233 -308c0 -216 98 -302 217 -302c49 0 82 8 117 31v293h59v-327c-48 -35 -104 -53 -182 -53z" />
    <glyph glyph-name="Gbreve" unicode="&#x11e;" horiz-adv-x="538" 
d="M306 774c-46 0 -84 11 -117 33v53c36 -22 75 -32 117 -32s81 10 117 32v-53c-33 -22 -71 -33 -117 -33zM310 -11c-143 0 -271 96 -271 358c0 234 127 364 286 364c57 0 106 -10 148 -37v-57c-44 27 -89 38 -141 38c-135 0 -233 -112 -233 -308c0 -216 98 -302 217 -302
c49 0 82 8 117 31v293h59v-327c-48 -35 -104 -53 -182 -53z" />
    <glyph glyph-name="Gcommaaccent" unicode="&#x122;" horiz-adv-x="538" 
d="M310 -11c-143 0 -271 96 -271 358c0 234 127 364 286 364c57 0 106 -10 148 -37v-57c-44 27 -89 38 -141 38c-135 0 -233 -112 -233 -308c0 -216 98 -302 217 -302c49 0 82 8 117 31v293h59v-327c-48 -35 -104 -53 -182 -53zM266 -247l23 180h56l-29 -180h-50z" />
    <glyph glyph-name="Gdotaccent" unicode="&#x120;" horiz-adv-x="538" 
d="M306 779c-25 0 -43 16 -43 44s18 44 43 44c26 0 44 -16 44 -44s-18 -44 -44 -44zM310 -11c-143 0 -271 96 -271 358c0 234 127 364 286 364c57 0 106 -10 148 -37v-57c-44 27 -89 38 -141 38c-135 0 -233 -112 -233 -308c0 -216 98 -302 217 -302c49 0 82 8 117 31v293
h59v-327c-48 -35 -104 -53 -182 -53z" />
    <glyph glyph-name="H" unicode="H" horiz-adv-x="594" 
d="M519 700v-700h-60v323h-324v-323h-60v700h60v-320h324v320h60z" />
    <glyph glyph-name="Hbar" unicode="&#x126;" horiz-adv-x="605" 
d="M594 560v-50h-70v-510h-59v323h-325v-323h-59v510h-70v50h70v140h59v-140h325v140h59v-140h70zM465 380v130h-325v-130h325z" />
    <glyph glyph-name="I" unicode="I" horiz-adv-x="210" 
d="M135 700v-700h-60v700h60z" />
    <glyph glyph-name="IJ" unicode="&#x132;" horiz-adv-x="615" 
d="M135 700v-700h-60v700h60zM361 -11c-46 0 -86 6 -132 28v57c48 -24 86 -29 125 -29c78 0 131 43 131 130v468h-164v57h223v-527c0 -126 -78 -184 -183 -184z" />
    <glyph glyph-name="Iacute" unicode="&#xcd;" horiz-adv-x="210" 
d="M55 773l90 135h68l-99 -135h-59zM135 700v-700h-60v700h60z" />
    <glyph glyph-name="Icircumflex" unicode="&#xce;" horiz-adv-x="210" 
d="M131 903l104 -129h-63l-66 80l-67 -80h-63l104 129h51zM135 700v-700h-60v700h60z" />
    <glyph glyph-name="Idieresis" unicode="&#xcf;" horiz-adv-x="210" 
d="M23 795c-23 0 -42 19 -42 41s19 42 42 42s41 -20 41 -42s-18 -41 -41 -41zM187 795c-22 0 -41 19 -41 41s19 42 41 42c23 0 42 -20 42 -42s-19 -41 -42 -41zM135 700v-700h-60v700h60z" />
    <glyph glyph-name="Idotaccent" unicode="&#x130;" horiz-adv-x="210" 
d="M105 779c-25 0 -43 16 -43 44s18 44 43 44c26 0 44 -16 44 -44s-18 -44 -44 -44zM135 700v-700h-60v700h60z" />
    <glyph glyph-name="Igrave" unicode="&#xcc;" horiz-adv-x="210" 
d="M95 773l-98 135h68l89 -135h-59zM135 700v-700h-60v700h60z" />
    <glyph glyph-name="Imacron" unicode="&#x12a;" horiz-adv-x="210" 
d="M229 847v-52h-247v52h247zM135 700v-700h-60v700h60z" />
    <glyph glyph-name="Iogonek" unicode="&#x12e;" horiz-adv-x="210" 
d="M114 -231c-50 0 -82 29 -82 80c0 42 18 96 51 152l-8 1v698h60v-700c-27 -48 -51 -100 -51 -139c0 -34 21 -46 46 -46c14 0 28 2 42 9v-44c-16 -7 -33 -11 -58 -11z" />
    <glyph glyph-name="J" unicode="J" horiz-adv-x="405" 
d="M151 -11c-46 0 -86 6 -132 28v57c48 -24 86 -29 125 -29c78 0 131 43 131 130v468h-164v57h223v-527c0 -126 -78 -184 -183 -184z" />
    <glyph glyph-name="K" unicode="K" horiz-adv-x="523" 
d="M75 0v700h60v-314h96l213 314h68l-232 -341l242 -359h-68l-221 330h-98v-330h-60z" />
    <glyph glyph-name="Kcommaaccent" unicode="&#x136;" horiz-adv-x="523" 
d="M75 0v700h60v-314h96l213 314h68l-232 -341l242 -359h-68l-221 330h-98v-330h-60zM239 -237l23 180h56l-29 -180h-50z" />
    <glyph glyph-name="L" unicode="L" horiz-adv-x="451" 
d="M135 700v-643h304v-57h-364v700h60z" />
    <glyph glyph-name="Lacute" unicode="&#x139;" horiz-adv-x="451" 
d="M66 773l90 135h68l-99 -135h-59zM135 700v-643h304v-57h-364v700h60z" />
    <glyph glyph-name="Lcaron" unicode="&#x13d;" horiz-adv-x="452" 
d="M135 700v-643h304v-57h-364v700h60zM311 700l-15 -172h-50l8 172h57z" />
    <glyph glyph-name="Lcommaaccent" unicode="&#x13b;" horiz-adv-x="451" 
d="M135 700v-643h304v-57h-364v700h60zM216 -237l23 180h56l-29 -180h-50z" />
    <glyph glyph-name="Ldot" unicode="&#x13f;" horiz-adv-x="451" 
d="M75 0v700h60v-643h304v-57h-364zM286 310c-21 0 -40 14 -40 40c0 25 19 39 40 39s39 -14 39 -39c0 -26 -18 -40 -39 -40z" />
    <glyph glyph-name="Lslash" unicode="&#x141;" horiz-adv-x="462" 
d="M145 57h304v-57h-363v276l-79 -39v58l79 39v366h59v-337l158 76v-58l-158 -76v-248z" />
    <glyph glyph-name="M" unicode="M" horiz-adv-x="699" 
d="M75 0v700h62l212 -422l212 422h62v-700h-59v428c0 57 1 111 5 166l-205 -409h-30l-205 409c4 -55 6 -109 6 -166v-428h-60z" />
    <glyph glyph-name="N" unicode="N" horiz-adv-x="594" 
d="M75 0v700h62l327 -593c-3 49 -5 100 -5 160v433h60v-700h-62l-327 593c3 -48 5 -100 5 -159v-434h-60z" />
    <glyph glyph-name="Nacute" unicode="&#x143;" horiz-adv-x="594" 
d="M246 773l90 135h68l-99 -135h-59zM75 0v700h62l327 -593c-3 49 -5 100 -5 160v433h60v-700h-62l-327 593c3 -48 5 -100 5 -159v-434h-60z" />
    <glyph glyph-name="Ncaron" unicode="&#x147;" horiz-adv-x="594" 
d="M323 774h-51l-104 129h63l66 -80l67 80h63zM75 0v700h62l327 -593c-3 49 -5 100 -5 160v433h60v-700h-62l-327 593c3 -48 5 -100 5 -159v-434h-60z" />
    <glyph glyph-name="Ncommaaccent" unicode="&#x145;" horiz-adv-x="594" 
d="M75 0v700h62l327 -593c-3 49 -5 100 -5 160v433h60v-700h-62l-327 593c3 -48 5 -100 5 -159v-434h-60zM254 -237l23 180h56l-29 -180h-50z" />
    <glyph glyph-name="Eng" unicode="&#x14a;" horiz-adv-x="594" 
d="M408 -231c-20 0 -41 2 -59 8v50c14 -4 29 -6 43 -6c45 0 70 25 70 88v81l-332 603c3 -48 5 -100 5 -159v-434h-60v700h62l327 -593c-3 49 -5 100 -5 160v433h60v-802c0 -85 -48 -130 -111 -129z" />
    <glyph glyph-name="Ntilde" unicode="&#xd1;" horiz-adv-x="594" 
d="M354 774c-53 0 -82 46 -112 46c-20 0 -28 -16 -30 -41h-43c-5 59 22 91 65 91c56 0 85 -45 111 -45c23 0 29 15 31 41h43c5 -60 -21 -92 -65 -92zM75 0v700h62l327 -593c-3 49 -5 100 -5 160v433h60v-700h-62l-327 593c3 -48 5 -100 5 -159v-434h-60z" />
    <glyph glyph-name="O" unicode="O" horiz-adv-x="587" 
d="M294 -11c-169 0 -254 141 -254 361s85 361 254 361c168 0 253 -141 253 -361s-85 -361 -253 -361zM294 45c130 0 193 115 193 305s-63 305 -193 305s-194 -115 -194 -305s64 -305 194 -305z" />
    <glyph glyph-name="Oacute" unicode="&#xd3;" horiz-adv-x="587" 
d="M243 774l90 135h68l-99 -135h-59zM294 -11c-169 0 -254 141 -254 361s85 361 254 361c168 0 253 -141 253 -361s-85 -361 -253 -361zM294 45c130 0 193 115 193 305s-63 305 -193 305s-194 -115 -194 -305s64 -305 194 -305z" />
    <glyph glyph-name="Ocircumflex" unicode="&#xd4;" horiz-adv-x="587" 
d="M319 904l104 -129h-63l-66 80l-67 -80h-63l104 129h51zM294 -11c-169 0 -254 141 -254 361s85 361 254 361c168 0 253 -141 253 -361s-85 -361 -253 -361zM294 45c130 0 193 115 193 305s-63 305 -193 305s-194 -115 -194 -305s64 -305 194 -305z" />
    <glyph glyph-name="Odieresis" unicode="&#xd6;" horiz-adv-x="587" 
d="M211 796c-23 0 -42 19 -42 41s19 42 42 42s41 -20 41 -42s-18 -41 -41 -41zM375 796c-22 0 -41 19 -41 41s19 42 41 42c23 0 42 -20 42 -42s-19 -41 -42 -41zM294 -11c-169 0 -254 141 -254 361s85 361 254 361c168 0 253 -141 253 -361s-85 -361 -253 -361zM294 45
c130 0 193 115 193 305s-63 305 -193 305s-194 -115 -194 -305s64 -305 194 -305z" />
    <glyph glyph-name="Ograve" unicode="&#xd2;" horiz-adv-x="587" 
d="M283 774l-98 135h68l89 -135h-59zM294 -11c-169 0 -254 141 -254 361s85 361 254 361c168 0 253 -141 253 -361s-85 -361 -253 -361zM294 45c130 0 193 115 193 305s-63 305 -193 305s-194 -115 -194 -305s64 -305 194 -305z" />
    <glyph glyph-name="Ohungarumlaut" unicode="&#x150;" horiz-adv-x="587" 
d="M184 780l68 138h63l-72 -138h-59zM323 780l72 138h62l-75 -138h-59zM294 -11c-169 0 -254 141 -254 361s85 361 254 361c168 0 253 -141 253 -361s-85 -361 -253 -361zM294 45c130 0 193 115 193 305s-63 305 -193 305s-194 -115 -194 -305s64 -305 194 -305z" />
    <glyph glyph-name="Omacron" unicode="&#x14c;" horiz-adv-x="587" 
d="M417 848v-52h-247v52h247zM294 -11c-169 0 -254 141 -254 361s85 361 254 361c168 0 253 -141 253 -361s-85 -361 -253 -361zM294 45c130 0 193 115 193 305s-63 305 -193 305s-194 -115 -194 -305s64 -305 194 -305z" />
    <glyph glyph-name="Oslash" unicode="&#xd8;" horiz-adv-x="587" 
d="M459 644c58 -62 88 -165 88 -294c0 -220 -85 -361 -253 -361c-48 0 -89 12 -123 33l-33 -69h-50l45 98c-62 61 -93 165 -93 299c0 220 85 361 254 361c50 0 93 -13 128 -37l35 73h50zM100 350c0 -106 20 -187 61 -240l237 510c-28 23 -63 35 -104 35
c-130 0 -194 -115 -194 -305zM294 45c130 0 193 115 193 305c0 101 -19 181 -56 232l-236 -507c27 -19 60 -30 99 -30z" />
    <glyph glyph-name="Otilde" unicode="&#xd5;" horiz-adv-x="587" 
d="M351 775c-53 0 -82 46 -112 46c-20 0 -28 -16 -30 -41h-43c-5 59 22 91 65 91c56 0 85 -45 111 -45c23 0 29 15 31 41h43c5 -60 -21 -92 -65 -92zM294 -11c-169 0 -254 141 -254 361s85 361 254 361c168 0 253 -141 253 -361s-85 -361 -253 -361zM294 45
c130 0 193 115 193 305s-63 305 -193 305s-194 -115 -194 -305s64 -305 194 -305z" />
    <glyph glyph-name="OE" unicode="&#x152;" horiz-adv-x="745" 
d="M300 -11c-171 0 -260 142 -260 361c0 221 89 361 260 361c30 0 56 -3 79 -11h328v-57h-268v-262h238v-57h-238v-267h274v-57h-334c-23 -8 -49 -11 -79 -11zM300 45c31 0 57 6 79 15v580c-22 9 -48 15 -79 15c-132 0 -200 -114 -200 -305s68 -305 200 -305z" />
    <glyph glyph-name="P" unicode="P" horiz-adv-x="519" 
d="M257 700c143 0 235 -72 235 -222s-92 -223 -235 -223h-122v-255h-60v700h182zM260 643h-125v-331h125c109 0 172 57 172 166c0 110 -62 165 -172 165z" />
    <glyph glyph-name="Thorn" unicode="&#xde;" horiz-adv-x="518" 
d="M75 0v700h60v-128h122c143 0 235 -72 235 -222c0 -149 -92 -222 -235 -222h-122v-128h-60zM135 184h125c109 0 172 57 172 166c0 110 -62 166 -172 166h-125v-332z" />
    <glyph glyph-name="Q" unicode="Q" horiz-adv-x="587" 
d="M488 -49l-58 80c-37 -28 -82 -42 -136 -42c-169 0 -254 141 -254 361s85 361 254 361c168 0 253 -141 253 -361c0 -121 -26 -218 -78 -282l63 -86zM294 45c40 0 74 12 102 33l-93 128l44 32l86 -118c36 51 54 130 54 230c0 190 -63 305 -193 305s-194 -115 -194 -305
s64 -305 194 -305z" />
    <glyph glyph-name="R" unicode="R" horiz-adv-x="548" 
d="M75 0v700h208c122 0 219 -70 219 -209c0 -103 -54 -176 -151 -200l181 -291h-70l-174 283h-153v-283h-60zM135 339h149c93 0 158 53 158 152c0 100 -64 152 -156 152h-151v-304z" />
    <glyph glyph-name="Racute" unicode="&#x154;" horiz-adv-x="548" 
d="M211 773l90 135h68l-99 -135h-59zM75 0v700h208c122 0 219 -70 219 -209c0 -103 -54 -176 -151 -200l181 -291h-70l-174 283h-153v-283h-60zM135 339h149c93 0 158 53 158 152c0 100 -64 152 -156 152h-151v-304z" />
    <glyph glyph-name="Rcaron" unicode="&#x158;" horiz-adv-x="548" 
d="M288 774h-51l-104 129h63l66 -80l67 80h63zM75 0v700h208c122 0 219 -70 219 -209c0 -103 -54 -176 -151 -200l181 -291h-70l-174 283h-153v-283h-60zM135 339h149c93 0 158 53 158 152c0 100 -64 152 -156 152h-151v-304z" />
    <glyph glyph-name="Rcommaaccent" unicode="&#x156;" horiz-adv-x="548" 
d="M75 0v700h208c122 0 219 -70 219 -209c0 -103 -54 -176 -151 -200l181 -291h-70l-174 283h-153v-283h-60zM135 339h149c93 0 158 53 158 152c0 100 -64 152 -156 152h-151v-304zM250 -237l23 180h56l-29 -180h-50z" />
    <glyph glyph-name="S" unicode="S" horiz-adv-x="473" 
d="M235 -11c-74 0 -132 12 -190 49v57c60 -36 115 -50 186 -50c95 0 157 46 157 128c0 183 -355 135 -355 358c0 117 93 180 207 180c62 0 113 -14 166 -46v-57c-52 32 -101 47 -162 47c-87 0 -151 -41 -151 -122c0 -174 355 -134 355 -356c0 -126 -93 -188 -213 -188z" />
    <glyph glyph-name="Sacute" unicode="&#x15a;" horiz-adv-x="473" 
d="M174 773l90 135h68l-99 -135h-59zM235 -11c-74 0 -132 12 -190 49v57c60 -36 115 -50 186 -50c95 0 157 46 157 128c0 183 -355 135 -355 358c0 117 93 180 207 180c62 0 113 -14 166 -46v-57c-52 32 -101 47 -162 47c-87 0 -151 -41 -151 -122c0 -174 355 -134 355 -356
c0 -126 -93 -188 -213 -188z" />
    <glyph glyph-name="Scaron" unicode="&#x160;" horiz-adv-x="473" 
d="M251 774h-51l-104 129h63l66 -80l67 80h63zM235 -11c-74 0 -132 12 -190 49v57c60 -36 115 -50 186 -50c95 0 157 46 157 128c0 183 -355 135 -355 358c0 117 93 180 207 180c62 0 113 -14 166 -46v-57c-52 32 -101 47 -162 47c-87 0 -151 -41 -151 -122
c0 -174 355 -134 355 -356c0 -126 -93 -188 -213 -188z" />
    <glyph glyph-name="Scedilla" unicode="&#x15e;" horiz-adv-x="473" 
d="M448 177c0 -114 -77 -176 -180 -187l-14 -60c42 1 84 -18 85 -72c1 -59 -55 -89 -111 -89c-29 0 -53 4 -73 13v46c23 -10 43 -13 70 -13c41 0 65 17 65 45c0 38 -46 44 -92 32l20 97c-67 2 -120 15 -173 49v57c60 -36 115 -50 186 -50c95 0 157 46 157 128
c0 183 -355 135 -355 358c0 117 93 180 207 180c62 0 113 -14 166 -46v-57c-52 32 -101 47 -162 47c-87 0 -151 -41 -151 -122c0 -174 355 -134 355 -356z" />
    <glyph glyph-name="Scommaaccent" unicode="&#x218;" horiz-adv-x="473" 
d="M235 -11c-74 0 -132 12 -190 49v57c60 -36 115 -50 186 -50c95 0 157 46 157 128c0 183 -355 135 -355 358c0 117 93 180 207 180c62 0 113 -14 166 -46v-57c-52 32 -101 47 -162 47c-87 0 -151 -41 -151 -122c0 -174 355 -134 355 -356c0 -126 -93 -188 -213 -188z
M200 -237l23 180h56l-29 -180h-50z" />
    <glyph glyph-name="T" unicode="T" horiz-adv-x="468" 
d="M204 0v643h-193v57h446v-57h-193v-643h-60z" />
    <glyph glyph-name="Tbar" unicode="&#x166;" horiz-adv-x="477" 
d="M462 643h-194v-258h108v-50h-108v-335h-59v335h-108v50h108v258h-194v57h447v-57z" />
    <glyph glyph-name="Tcaron" unicode="&#x164;" horiz-adv-x="468" 
d="M262 774h-51l-104 129h63l66 -80l67 80h63zM204 0v643h-193v57h446v-57h-193v-643h-60z" />
    <glyph glyph-name="uni0162" unicode="&#x162;" horiz-adv-x="468" 
d="M204 0v643h-193v57h446v-57h-193v-643h-60zM185 -237l23 180h56l-29 -180h-50z" />
    <glyph glyph-name="uni021A" unicode="&#x21a;" horiz-adv-x="468" 
d="M204 0v643h-193v57h446v-57h-193v-643h-60zM185 -237l23 180h56l-29 -180h-50z" />
    <glyph glyph-name="U" unicode="U" horiz-adv-x="583" 
d="M291 -11c-121 0 -221 58 -221 221v490h59v-487c0 -118 61 -168 162 -168c102 0 163 50 163 168v487h59v-490c0 -163 -101 -221 -222 -221z" />
    <glyph glyph-name="Uacute" unicode="&#xda;" horiz-adv-x="583" 
d="M239 773l90 135h68l-99 -135h-59zM291 -11c-121 0 -221 58 -221 221v490h59v-487c0 -118 61 -168 162 -168c102 0 163 50 163 168v487h59v-490c0 -163 -101 -221 -222 -221z" />
    <glyph glyph-name="Ucircumflex" unicode="&#xdb;" horiz-adv-x="583" 
d="M316 903l104 -129h-63l-66 80l-67 -80h-63l104 129h51zM291 -11c-121 0 -221 58 -221 221v490h59v-487c0 -118 61 -168 162 -168c102 0 163 50 163 168v487h59v-490c0 -163 -101 -221 -222 -221z" />
    <glyph glyph-name="Udieresis" unicode="&#xdc;" horiz-adv-x="583" 
d="M208 795c-23 0 -42 19 -42 41s19 42 42 42s41 -20 41 -42s-18 -41 -41 -41zM372 795c-22 0 -41 19 -41 41s19 42 41 42c23 0 42 -20 42 -42s-19 -41 -42 -41zM291 -11c-121 0 -221 58 -221 221v490h59v-487c0 -118 61 -168 162 -168c102 0 163 50 163 168v487h59v-490
c0 -163 -101 -221 -222 -221z" />
    <glyph glyph-name="Ugrave" unicode="&#xd9;" horiz-adv-x="583" 
d="M280 773l-98 135h68l89 -135h-59zM291 -11c-121 0 -221 58 -221 221v490h59v-487c0 -118 61 -168 162 -168c102 0 163 50 163 168v487h59v-490c0 -163 -101 -221 -222 -221z" />
    <glyph glyph-name="Uhungarumlaut" unicode="&#x170;" horiz-adv-x="583" 
d="M180 779l68 138h63l-72 -138h-59zM319 779l72 138h62l-75 -138h-59zM291 -11c-121 0 -221 58 -221 221v490h59v-487c0 -118 61 -168 162 -168c102 0 163 50 163 168v487h59v-490c0 -163 -101 -221 -222 -221z" />
    <glyph glyph-name="Umacron" unicode="&#x16a;" horiz-adv-x="583" 
d="M414 847v-52h-247v52h247zM291 -11c-121 0 -221 58 -221 221v490h59v-487c0 -118 61 -168 162 -168c102 0 163 50 163 168v487h59v-490c0 -163 -101 -221 -222 -221z" />
    <glyph glyph-name="Uogonek" unicode="&#x172;" horiz-adv-x="583" 
d="M384 -231c-58 0 -90 31 -90 80c0 38 20 87 72 152c-23 -9 -48 -12 -75 -12c-121 0 -221 58 -221 221v490h59v-487c0 -118 61 -168 162 -168c102 0 163 50 163 168v487h59v-490c0 -78 -23 -132 -60 -167c-80 -81 -105 -143 -105 -182c0 -34 21 -46 46 -46c14 0 28 2 42 9
v-44c-16 -7 -33 -11 -52 -11z" />
    <glyph glyph-name="Uring" unicode="&#x16e;" horiz-adv-x="583" 
d="M290 750c-55 0 -98 38 -98 98s43 98 98 98s98 -38 98 -98s-43 -98 -98 -98zM290 790c32 0 54 22 54 58s-22 58 -54 58s-54 -22 -54 -58s22 -58 54 -58zM291 -11c-121 0 -221 58 -221 221v490h59v-487c0 -118 61 -168 162 -168c102 0 163 50 163 168v487h59v-490
c0 -163 -101 -221 -222 -221z" />
    <glyph glyph-name="V" unicode="V" horiz-adv-x="532" 
d="M234 0l-227 700h62l176 -550c8 -25 15 -51 21 -82c6 31 13 57 21 82l176 550h62l-227 -700h-64z" />
    <glyph glyph-name="W" unicode="W" horiz-adv-x="791" 
d="M177 0l-163 700h61l135 -605l164 592h42l164 -592l136 605h61l-163 -700h-62l-157 562l-156 -562h-62z" />
    <glyph glyph-name="Wacute" unicode="&#x1e82;" horiz-adv-x="791" 
d="M344 773l90 135h68l-99 -135h-59zM177 0l-163 700h61l135 -605l164 592h42l164 -592l136 605h61l-163 -700h-62l-157 562l-156 -562h-62z" />
    <glyph glyph-name="Wcircumflex" unicode="&#x174;" horiz-adv-x="791" 
d="M421 903l104 -129h-63l-66 80l-67 -80h-63l104 129h51zM177 0l-163 700h61l135 -605l164 592h42l164 -592l136 605h61l-163 -700h-62l-157 562l-156 -562h-62z" />
    <glyph glyph-name="Wdieresis" unicode="&#x1e84;" horiz-adv-x="791" 
d="M313 795c-23 0 -42 19 -42 41s19 42 42 42s41 -20 41 -42s-18 -41 -41 -41zM477 795c-22 0 -41 19 -41 41s19 42 41 42c23 0 42 -20 42 -42s-19 -41 -42 -41zM177 0l-163 700h61l135 -605l164 592h42l164 -592l136 605h61l-163 -700h-62l-157 562l-156 -562h-62z" />
    <glyph glyph-name="Wgrave" unicode="&#x1e80;" horiz-adv-x="791" 
d="M385 773l-98 135h68l89 -135h-59zM177 0l-163 700h61l135 -605l164 592h42l164 -592l136 605h61l-163 -700h-62l-157 562l-156 -562h-62z" />
    <glyph glyph-name="X" unicode="X" horiz-adv-x="515" 
d="M1 0l224 362l-209 338h66l176 -286l176 286h65l-208 -338l223 -362h-67l-189 309l-190 -309h-67z" />
    <glyph glyph-name="Y" unicode="Y" horiz-adv-x="524" 
d="M232 0v298l-225 402h65l190 -345l190 345h65l-225 -402v-298h-60z" />
    <glyph glyph-name="Yacute" unicode="&#xdd;" horiz-adv-x="524" 
d="M212 773l90 135h68l-99 -135h-59zM232 0v298l-225 402h65l190 -345l190 345h65l-225 -402v-298h-60z" />
    <glyph glyph-name="Ycircumflex" unicode="&#x176;" horiz-adv-x="524" 
d="M288 903l104 -129h-63l-66 80l-67 -80h-63l104 129h51zM232 0v298l-225 402h65l190 -345l190 345h65l-225 -402v-298h-60z" />
    <glyph glyph-name="Ydieresis" unicode="&#x178;" horiz-adv-x="524" 
d="M180 795c-23 0 -42 19 -42 41s19 42 42 42s41 -20 41 -42s-18 -41 -41 -41zM344 795c-22 0 -41 19 -41 41s19 42 41 42c23 0 42 -20 42 -42s-19 -41 -42 -41zM232 0v298l-225 402h65l190 -345l190 345h65l-225 -402v-298h-60z" />
    <glyph glyph-name="Ygrave" unicode="&#x1ef2;" horiz-adv-x="524" 
d="M253 773l-98 135h68l89 -135h-59zM232 0v298l-225 402h65l190 -345l190 345h65l-225 -402v-298h-60z" />
    <glyph glyph-name="Z" unicode="Z" horiz-adv-x="455" 
d="M19 0v52l339 591h-325v57h393v-52l-339 -591h348v-57h-416z" />
    <glyph glyph-name="Zacute" unicode="&#x179;" horiz-adv-x="455" 
d="M184 773l90 135h68l-99 -135h-59zM19 0v52l339 591h-325v57h393v-52l-339 -591h348v-57h-416z" />
    <glyph glyph-name="Zcaron" unicode="&#x17d;" horiz-adv-x="455" 
d="M261 774h-51l-104 129h63l66 -80l67 80h63zM19 0v52l339 591h-325v57h393v-52l-339 -591h348v-57h-416z" />
    <glyph glyph-name="Zdotaccent" unicode="&#x17b;" horiz-adv-x="455" 
d="M235 779c-25 0 -43 16 -43 44s18 44 43 44c26 0 44 -16 44 -44s-18 -44 -44 -44zM19 0v52l339 591h-325v57h393v-52l-339 -591h348v-57h-416z" />
    <glyph glyph-name="a" unicode="a" horiz-adv-x="436" 
d="M410 45c6 0 13 1 19 3v-47c-11 -3 -23 -5 -34 -5c-38 0 -65 16 -75 59c-34 -46 -86 -66 -142 -66c-79 0 -153 43 -153 144c0 104 80 155 189 155c31 0 64 -5 98 -14v50c0 64 -26 115 -120 115c-50 0 -95 -12 -138 -30v55c35 13 86 27 144 27c128 0 170 -73 170 -174v-226
c0 -34 17 -46 42 -46zM186 39c57 0 100 25 126 74v112c-31 9 -61 13 -89 13c-82 0 -140 -31 -140 -102c0 -63 43 -97 103 -97z" />
    <glyph glyph-name="aacute" unicode="&#xe1;" horiz-adv-x="436" 
d="M147 553l90 135h68l-99 -135h-59zM410 45c6 0 13 1 19 3v-47c-11 -3 -23 -5 -34 -5c-38 0 -65 16 -75 59c-34 -46 -86 -66 -142 -66c-79 0 -153 43 -153 144c0 104 80 155 189 155c31 0 64 -5 98 -14v50c0 64 -26 115 -120 115c-50 0 -95 -12 -138 -30v55
c35 13 86 27 144 27c128 0 170 -73 170 -174v-226c0 -34 17 -46 42 -46zM186 39c57 0 100 25 126 74v112c-31 9 -61 13 -89 13c-82 0 -140 -31 -140 -102c0 -63 43 -97 103 -97z" />
    <glyph glyph-name="abreve" unicode="&#x103;" horiz-adv-x="436" 
d="M198 554c-46 0 -84 11 -117 33v53c36 -22 75 -32 117 -32s81 10 117 32v-53c-33 -22 -71 -33 -117 -33zM410 45c6 0 13 1 19 3v-47c-11 -3 -23 -5 -34 -5c-38 0 -65 16 -75 59c-34 -46 -86 -66 -142 -66c-79 0 -153 43 -153 144c0 104 80 155 189 155c31 0 64 -5 98 -14
v50c0 64 -26 115 -120 115c-50 0 -95 -12 -138 -30v55c35 13 86 27 144 27c128 0 170 -73 170 -174v-226c0 -34 17 -46 42 -46zM186 39c57 0 100 25 126 74v112c-31 9 -61 13 -89 13c-82 0 -140 -31 -140 -102c0 -63 43 -97 103 -97z" />
    <glyph glyph-name="acircumflex" unicode="&#xe2;" horiz-adv-x="436" 
d="M224 683l104 -129h-63l-66 80l-67 -80h-63l104 129h51zM410 45c6 0 13 1 19 3v-47c-11 -3 -23 -5 -34 -5c-38 0 -65 16 -75 59c-34 -46 -86 -66 -142 -66c-79 0 -153 43 -153 144c0 104 80 155 189 155c31 0 64 -5 98 -14v50c0 64 -26 115 -120 115
c-50 0 -95 -12 -138 -30v55c35 13 86 27 144 27c128 0 170 -73 170 -174v-226c0 -34 17 -46 42 -46zM186 39c57 0 100 25 126 74v112c-31 9 -61 13 -89 13c-82 0 -140 -31 -140 -102c0 -63 43 -97 103 -97z" />
    <glyph glyph-name="adieresis" unicode="&#xe4;" horiz-adv-x="436" 
d="M116 575c-23 0 -42 19 -42 41s19 42 42 42s41 -20 41 -42s-18 -41 -41 -41zM280 575c-22 0 -41 19 -41 41s19 42 41 42c23 0 42 -20 42 -42s-19 -41 -42 -41zM410 45c6 0 13 1 19 3v-47c-11 -3 -23 -5 -34 -5c-38 0 -65 16 -75 59c-34 -46 -86 -66 -142 -66
c-79 0 -153 43 -153 144c0 104 80 155 189 155c31 0 64 -5 98 -14v50c0 64 -26 115 -120 115c-50 0 -95 -12 -138 -30v55c35 13 86 27 144 27c128 0 170 -73 170 -174v-226c0 -34 17 -46 42 -46zM186 39c57 0 100 25 126 74v112c-31 9 -61 13 -89 13
c-82 0 -140 -31 -140 -102c0 -63 43 -97 103 -97z" />
    <glyph glyph-name="agrave" unicode="&#xe0;" horiz-adv-x="436" 
d="M188 553l-98 135h68l89 -135h-59zM410 45c6 0 13 1 19 3v-47c-11 -3 -23 -5 -34 -5c-38 0 -65 16 -75 59c-34 -46 -86 -66 -142 -66c-79 0 -153 43 -153 144c0 104 80 155 189 155c31 0 64 -5 98 -14v50c0 64 -26 115 -120 115c-50 0 -95 -12 -138 -30v55
c35 13 86 27 144 27c128 0 170 -73 170 -174v-226c0 -34 17 -46 42 -46zM186 39c57 0 100 25 126 74v112c-31 9 -61 13 -89 13c-82 0 -140 -31 -140 -102c0 -63 43 -97 103 -97z" />
    <glyph glyph-name="amacron" unicode="&#x101;" horiz-adv-x="436" 
d="M322 627v-52h-247v52h247zM410 45c6 0 13 1 19 3v-47c-11 -3 -23 -5 -34 -5c-38 0 -65 16 -75 59c-34 -46 -86 -66 -142 -66c-79 0 -153 43 -153 144c0 104 80 155 189 155c31 0 64 -5 98 -14v50c0 64 -26 115 -120 115c-50 0 -95 -12 -138 -30v55c35 13 86 27 144 27
c128 0 170 -73 170 -174v-226c0 -34 17 -46 42 -46zM186 39c57 0 100 25 126 74v112c-31 9 -61 13 -89 13c-82 0 -140 -31 -140 -102c0 -63 43 -97 103 -97z" />
    <glyph glyph-name="aogonek" unicode="&#x105;" horiz-adv-x="436" 
d="M378 -229c-58 0 -90 32 -90 80c0 42 25 96 79 150c-27 5 -42 20 -47 54c-34 -46 -86 -66 -142 -66c-79 0 -153 43 -153 144c0 104 80 155 189 155c31 0 64 -5 98 -14v50c0 64 -26 115 -120 115c-50 0 -95 -12 -138 -30v55c35 13 86 27 144 27c128 0 170 -73 170 -174
v-226c0 -34 17 -46 42 -46c6 0 13 1 19 3v-47c-54 -46 -88 -98 -88 -138c0 -33 21 -46 46 -46c14 0 29 3 42 10v-44c-15 -8 -33 -12 -51 -12zM186 39c57 0 100 25 126 74v112c-31 9 -61 13 -89 13c-82 0 -140 -31 -140 -102c0 -63 43 -97 103 -97z" />
    <glyph glyph-name="aring" unicode="&#xe5;" horiz-adv-x="436" 
d="M198 530c-55 0 -98 38 -98 98s43 98 98 98s98 -38 98 -98s-43 -98 -98 -98zM198 570c32 0 54 22 54 58s-22 58 -54 58s-54 -22 -54 -58s22 -58 54 -58zM410 45c6 0 13 1 19 3v-47c-11 -3 -23 -5 -34 -5c-38 0 -65 16 -75 59c-34 -46 -86 -66 -142 -66
c-79 0 -153 43 -153 144c0 104 80 155 189 155c31 0 64 -5 98 -14v50c0 64 -26 115 -120 115c-50 0 -95 -12 -138 -30v55c35 13 86 27 144 27c128 0 170 -73 170 -174v-226c0 -34 17 -46 42 -46zM186 39c57 0 100 25 126 74v112c-31 9 -61 13 -89 13
c-82 0 -140 -31 -140 -102c0 -63 43 -97 103 -97z" />
    <glyph glyph-name="atilde" unicode="&#xe3;" horiz-adv-x="436" 
d="M256 554c-53 0 -82 46 -112 46c-20 0 -28 -16 -30 -41h-43c-5 59 22 91 65 91c56 0 85 -45 111 -45c23 0 29 15 31 41h43c5 -60 -21 -92 -65 -92zM410 45c6 0 13 1 19 3v-47c-11 -3 -23 -5 -34 -5c-38 0 -65 16 -75 59c-34 -46 -86 -66 -142 -66c-79 0 -153 43 -153 144
c0 104 80 155 189 155c31 0 64 -5 98 -14v50c0 64 -26 115 -120 115c-50 0 -95 -12 -138 -30v55c35 13 86 27 144 27c128 0 170 -73 170 -174v-226c0 -34 17 -46 42 -46zM186 39c57 0 100 25 126 74v112c-31 9 -61 13 -89 13c-82 0 -140 -31 -140 -102c0 -63 43 -97 103 -97
z" />
    <glyph glyph-name="ae" unicode="&#xe6;" horiz-adv-x="695" 
d="M183 -11c-79 0 -158 43 -158 144c0 104 80 155 184 155c31 0 64 -5 98 -14v57c0 60 -25 108 -118 108c-47 0 -92 -12 -135 -30v55c36 13 85 27 137 27c91 0 137 -37 153 -106c26 66 79 106 151 106c120 0 182 -122 166 -279h-301c6 -112 53 -170 158 -170
c37 0 78 7 115 26v-53c-38 -19 -79 -26 -118 -26c-80 0 -134 28 -167 78c-39 -57 -96 -78 -165 -78zM360 262h247c3 106 -39 175 -116 175c-79 0 -125 -67 -131 -175zM191 39c56 0 106 23 132 76c-10 31 -16 69 -17 110c-31 9 -60 13 -88 13c-77 0 -135 -31 -135 -102
c0 -63 43 -97 108 -97z" />
    <glyph glyph-name="b" unicode="b" horiz-adv-x="476" 
d="M255 -11c-71 0 -118 40 -142 88v-77h-52v700h57v-290c23 41 66 81 137 81c124 0 184 -110 184 -251s-60 -251 -184 -251zM246 41c94 0 135 82 135 199s-41 199 -135 199c-61 0 -104 -38 -128 -102v-194c24 -64 67 -102 128 -102z" />
    <glyph glyph-name="c" unicode="c" horiz-adv-x="382" 
d="M245 -11c-138 0 -208 99 -208 251s80 251 208 251c39 0 72 -8 104 -26v-53c-31 18 -61 27 -97 27c-101 0 -157 -79 -157 -199c0 -122 48 -198 150 -198c44 0 80 11 109 25v-52c-27 -15 -67 -26 -109 -26z" />
    <glyph glyph-name="cacute" unicode="&#x107;" horiz-adv-x="382" 
d="M173 553l90 135h68l-99 -135h-59zM245 -11c-138 0 -208 99 -208 251s80 251 208 251c39 0 72 -8 104 -26v-53c-31 18 -61 27 -97 27c-101 0 -157 -79 -157 -199c0 -122 48 -198 150 -198c44 0 80 11 109 25v-52c-27 -15 -67 -26 -109 -26z" />
    <glyph glyph-name="ccaron" unicode="&#x10d;" horiz-adv-x="382" 
d="M249 554h-51l-104 129h63l66 -80l67 80h63zM245 -11c-138 0 -208 99 -208 251s80 251 208 251c39 0 72 -8 104 -26v-53c-31 18 -61 27 -97 27c-101 0 -157 -79 -157 -199c0 -122 48 -198 150 -198c44 0 80 11 109 25v-52c-27 -15 -67 -26 -109 -26z" />
    <glyph glyph-name="ccedilla" unicode="&#xe7;" horiz-adv-x="382" 
d="M354 15c-24 -14 -59 -24 -97 -26l-13 -59c42 1 84 -18 85 -72c1 -59 -55 -89 -111 -89c-29 0 -53 4 -73 13v46c23 -10 43 -13 70 -13c41 0 65 17 65 45c0 38 -46 44 -92 32l20 99c-113 17 -171 111 -171 249c0 152 80 251 208 251c39 0 72 -8 104 -26v-53
c-31 18 -61 27 -97 27c-101 0 -157 -79 -157 -199c0 -122 48 -198 150 -198c44 0 80 11 109 25v-52z" />
    <glyph glyph-name="cdotaccent" unicode="&#x10b;" horiz-adv-x="382" 
d="M223 559c-25 0 -43 16 -43 44s18 44 43 44c26 0 44 -16 44 -44s-18 -44 -44 -44zM245 -11c-138 0 -208 99 -208 251s80 251 208 251c39 0 72 -8 104 -26v-53c-31 18 -61 27 -97 27c-101 0 -157 -79 -157 -199c0 -122 48 -198 150 -198c44 0 80 11 109 25v-52
c-27 -15 -67 -26 -109 -26z" />
    <glyph glyph-name="d" unicode="d" horiz-adv-x="476" 
d="M37 240c0 141 60 251 184 251c71 0 114 -40 137 -81v290h57v-700h-52v77c-24 -48 -71 -88 -142 -88c-124 0 -184 110 -184 251zM358 143v194c-24 64 -67 102 -128 102c-94 0 -135 -82 -135 -199s41 -199 135 -199c61 0 104 38 128 102z" />
    <glyph glyph-name="eth" unicode="&#xf0;" horiz-adv-x="465" 
d="M296 626c79 -73 123 -200 123 -371c0 -158 -60 -266 -190 -266c-115 0 -192 91 -192 232c0 129 73 223 186 223c62 0 105 -29 131 -73c-12 99 -43 173 -95 218l-83 -84l-33 33l77 78c-35 21 -75 32 -124 33v51c62 0 116 -15 162 -46l71 73l34 -33zM229 43
c105 0 138 97 133 249c-25 65 -71 99 -132 99c-91 0 -136 -69 -136 -170c0 -107 46 -178 135 -178z" />
    <glyph glyph-name="dcaron" unicode="&#x10f;" horiz-adv-x="506" 
d="M37 240c0 141 60 251 184 251c71 0 114 -40 137 -81v290h57v-700h-52v77c-24 -48 -71 -88 -142 -88c-124 0 -184 110 -184 251zM554 700l-21 -172h-50l15 172h56zM358 143v194c-24 64 -67 102 -128 102c-94 0 -135 -82 -135 -199s41 -199 135 -199c61 0 104 38 128 102z
" />
    <glyph glyph-name="dcroat" unicode="&#x111;" horiz-adv-x="476" 
d="M475 617v-44h-60v-573h-52v80c-26 -53 -71 -91 -142 -91c-124 0 -184 110 -184 251s60 251 184 251c71 0 114 -40 137 -82v164h-175v44h175v83h57v-83h60zM358 143v194c-24 64 -67 102 -128 102c-94 0 -135 -82 -135 -199s41 -199 135 -199c61 0 104 37 128 102z" />
    <glyph glyph-name="e" unicode="e" horiz-adv-x="442" 
d="M261 -11c-149 0 -224 98 -224 251c0 150 72 251 195 251c135 0 192 -119 176 -279h-312c8 -118 68 -170 168 -170c37 0 78 7 116 26v-53c-38 -19 -80 -26 -119 -26zM95 262h260c4 108 -36 175 -123 175c-86 0 -132 -69 -137 -175z" />
    <glyph glyph-name="eacute" unicode="&#xe9;" horiz-adv-x="442" 
d="M179 553l90 135h68l-99 -135h-59zM261 -11c-149 0 -224 98 -224 251c0 150 72 251 195 251c135 0 192 -119 176 -279h-312c8 -118 68 -170 168 -170c37 0 78 7 116 26v-53c-38 -19 -80 -26 -119 -26zM95 262h260c4 108 -36 175 -123 175c-86 0 -132 -69 -137 -175z" />
    <glyph glyph-name="ecaron" unicode="&#x11b;" horiz-adv-x="442" 
d="M256 554h-51l-104 129h63l66 -80l67 80h63zM261 -11c-149 0 -224 98 -224 251c0 150 72 251 195 251c135 0 192 -119 176 -279h-312c8 -118 68 -170 168 -170c37 0 78 7 116 26v-53c-38 -19 -80 -26 -119 -26zM95 262h260c4 108 -36 175 -123 175
c-86 0 -132 -69 -137 -175z" />
    <glyph glyph-name="ecircumflex" unicode="&#xea;" horiz-adv-x="442" 
d="M255 683l104 -129h-63l-66 80l-67 -80h-63l104 129h51zM261 -11c-149 0 -224 98 -224 251c0 150 72 251 195 251c135 0 192 -119 176 -279h-312c8 -118 68 -170 168 -170c37 0 78 7 116 26v-53c-38 -19 -80 -26 -119 -26zM95 262h260c4 108 -36 175 -123 175
c-86 0 -132 -69 -137 -175z" />
    <glyph glyph-name="edieresis" unicode="&#xeb;" horiz-adv-x="442" 
d="M147 575c-23 0 -42 19 -42 41s19 42 42 42s41 -20 41 -42s-18 -41 -41 -41zM311 575c-22 0 -41 19 -41 41s19 42 41 42c23 0 42 -20 42 -42s-19 -41 -42 -41zM261 -11c-149 0 -224 98 -224 251c0 150 72 251 195 251c135 0 192 -119 176 -279h-312
c8 -118 68 -170 168 -170c37 0 78 7 116 26v-53c-38 -19 -80 -26 -119 -26zM95 262h260c4 108 -36 175 -123 175c-86 0 -132 -69 -137 -175z" />
    <glyph glyph-name="edotaccent" unicode="&#x117;" horiz-adv-x="442" 
d="M230 559c-25 0 -43 16 -43 44s18 44 43 44c26 0 44 -16 44 -44s-18 -44 -44 -44zM261 -11c-149 0 -224 98 -224 251c0 150 72 251 195 251c135 0 192 -119 176 -279h-312c8 -118 68 -170 168 -170c37 0 78 7 116 26v-53c-38 -19 -80 -26 -119 -26zM95 262h260
c4 108 -36 175 -123 175c-86 0 -132 -69 -137 -175z" />
    <glyph glyph-name="egrave" unicode="&#xe8;" horiz-adv-x="442" 
d="M220 553l-98 135h68l89 -135h-59zM261 -11c-149 0 -224 98 -224 251c0 150 72 251 195 251c135 0 192 -119 176 -279h-312c8 -118 68 -170 168 -170c37 0 78 7 116 26v-53c-38 -19 -80 -26 -119 -26zM95 262h260c4 108 -36 175 -123 175c-86 0 -132 -69 -137 -175z" />
    <glyph glyph-name="emacron" unicode="&#x113;" horiz-adv-x="442" 
d="M354 627v-52h-247v52h247zM261 -11c-149 0 -224 98 -224 251c0 150 72 251 195 251c135 0 192 -119 176 -279h-312c8 -118 68 -170 168 -170c37 0 78 7 116 26v-53c-38 -19 -80 -26 -119 -26zM95 262h260c4 108 -36 175 -123 175c-86 0 -132 -69 -137 -175z" />
    <glyph glyph-name="eogonek" unicode="&#x119;" horiz-adv-x="442" 
d="M314 -229c-58 0 -90 32 -90 80c0 40 26 90 78 143c-13 -4 -26 -5 -41 -5c-149 0 -224 98 -224 251c0 150 72 251 195 251c135 0 192 -119 176 -279h-312c8 -118 68 -170 168 -170c37 0 78 7 116 26v-53c-72 -61 -103 -112 -103 -152c0 -33 21 -46 46 -46c14 0 29 3 43 10
v-44c-16 -8 -33 -12 -52 -12zM95 262h260c4 108 -36 175 -123 175c-86 0 -132 -69 -137 -175z" />
    <glyph glyph-name="f" unicode="f" horiz-adv-x="274" 
d="M84 0v429h-70v51h70v89c0 90 50 142 135 142c29 0 52 -6 74 -16v-50c-19 9 -40 14 -65 14c-52 0 -87 -28 -87 -87v-92h124v-51h-124v-429h-57z" />
    <glyph glyph-name="g" unicode="g" horiz-adv-x="476" 
d="M205 -231c-46 0 -87 7 -125 26v53c37 -19 78 -26 122 -26c104 0 156 57 156 155v94c-23 -42 -66 -82 -137 -82c-124 0 -184 110 -184 251s60 251 184 251c71 0 116 -38 142 -91v80h52v-503c0 -113 -64 -208 -210 -208zM230 41c61 0 104 38 128 102v194
c-24 65 -67 102 -128 102c-94 0 -135 -82 -135 -199s41 -199 135 -199z" />
    <glyph glyph-name="gbreve" unicode="&#x11f;" horiz-adv-x="476" 
d="M232 554c-46 0 -84 11 -117 33v53c36 -22 75 -32 117 -32s81 10 117 32v-53c-33 -22 -71 -33 -117 -33zM205 -231c-46 0 -87 7 -125 26v53c37 -19 78 -26 122 -26c104 0 156 57 156 155v94c-23 -42 -66 -82 -137 -82c-124 0 -184 110 -184 251s60 251 184 251
c71 0 116 -38 142 -91v80h52v-503c0 -113 -64 -208 -210 -208zM230 41c61 0 104 38 128 102v194c-24 65 -67 102 -128 102c-94 0 -135 -82 -135 -199s41 -199 135 -199z" />
    <glyph glyph-name="gcommaaccent" unicode="&#x123;" horiz-adv-x="476" 
d="M275 722l-21 -169h-57l28 169h50zM205 -231c-46 0 -87 7 -125 26v53c37 -19 78 -26 122 -26c104 0 156 57 156 155v94c-23 -42 -66 -82 -137 -82c-124 0 -184 110 -184 251s60 251 184 251c71 0 116 -38 142 -91v80h52v-503c0 -113 -64 -208 -210 -208zM230 41
c61 0 104 38 128 102v194c-24 65 -67 102 -128 102c-94 0 -135 -82 -135 -199s41 -199 135 -199z" />
    <glyph glyph-name="gdotaccent" unicode="&#x121;" horiz-adv-x="476" 
d="M232 559c-25 0 -43 16 -43 44s18 44 43 44c26 0 44 -16 44 -44s-18 -44 -44 -44zM205 -231c-46 0 -87 7 -125 26v53c37 -19 78 -26 122 -26c104 0 156 57 156 155v94c-23 -42 -66 -82 -137 -82c-124 0 -184 110 -184 251s60 251 184 251c71 0 116 -38 142 -91v80h52v-503
c0 -113 -64 -208 -210 -208zM230 41c61 0 104 38 128 102v194c-24 65 -67 102 -128 102c-94 0 -135 -82 -135 -199s41 -199 135 -199z" />
    <glyph glyph-name="h" unicode="h" horiz-adv-x="463" 
d="M61 0v700h57v-283c26 45 73 74 137 74c89 0 150 -61 150 -165v-326h-57v323c0 79 -42 116 -105 116s-107 -44 -125 -98v-341h-57z" />
    <glyph glyph-name="hbar" unicode="&#x127;" horiz-adv-x="463" 
d="M255 491c89 0 150 -61 150 -165v-326h-57v323c0 79 -42 116 -105 116s-107 -44 -125 -98v-341h-57v573h-60v44h60v83h57v-83h175v-44h-175v-156c26 45 73 74 137 74z" />
    <glyph glyph-name="i" unicode="i" horiz-adv-x="184" 
d="M92 588c-21 0 -39 12 -39 38c0 24 18 38 39 38s39 -14 39 -38c0 -26 -18 -38 -39 -38zM64 0v480h56v-480h-56z" />
    <glyph glyph-name="dotlessi" unicode="&#x131;" horiz-adv-x="184" 
d="M64 0v480h56v-480h-56z" />
    <glyph glyph-name="iacute" unicode="&#xed;" horiz-adv-x="184" 
d="M35 553l76 142h64l-85 -142h-55zM64 0v480h56v-480h-56z" />
    <glyph glyph-name="icircumflex" unicode="&#xee;" horiz-adv-x="184" 
d="M-20 554l87 127h50l87 -127h-62l-50 78l-50 -78h-62zM64 0v480h56v-480h-56z" />
    <glyph glyph-name="idieresis" unicode="&#xef;" horiz-adv-x="184" 
d="M25 578c-21 0 -39 18 -39 38s18 39 39 39s38 -19 38 -39s-17 -38 -38 -38zM159 578c-20 0 -38 18 -38 38s18 39 38 39c21 0 39 -19 39 -39s-18 -38 -39 -38zM64 0v480h56v-480h-56z" />
    <glyph glyph-name="i.loclTRK" horiz-adv-x="184" 
d="M92 559c-25 0 -43 16 -43 44s18 44 43 44c26 0 44 -16 44 -44s-18 -44 -44 -44zM64 0v480h56v-480h-56z" />
    <glyph glyph-name="igrave" unicode="&#xec;" horiz-adv-x="184" 
d="M93 553l-85 142h64l76 -142h-55zM64 0v480h56v-480h-56z" />
    <glyph glyph-name="ij" unicode="&#x133;" horiz-adv-x="374" 
d="M282 588c-21 0 -39 12 -39 38c0 24 18 38 39 38s39 -14 39 -38c0 -26 -18 -38 -39 -38zM92 588c-21 0 -39 12 -39 38c0 24 18 38 39 38s39 -14 39 -38c0 -26 -18 -38 -39 -38zM64 0v480h56v-480h-56zM203 -231c-20 0 -41 2 -59 9v50c14 -5 29 -7 43 -7c45 0 67 22 67 81
v578h56v-588c0 -83 -44 -124 -107 -123z" />
    <glyph glyph-name="imacron" unicode="&#x12b;" horiz-adv-x="184" 
d="M-5 582v53h194v-53h-194zM64 0v480h56v-480h-56z" />
    <glyph glyph-name="iogonek" unicode="&#x12f;" horiz-adv-x="184" 
d="M92 588c-21 0 -39 12 -39 38c0 24 18 38 39 38s39 -14 39 -38c0 -26 -18 -38 -39 -38zM103 -231c-57 0 -87 32 -87 80c0 45 18 98 48 152v479h56v-480c-28 -46 -51 -98 -51 -139c0 -33 20 -46 43 -46c12 0 25 2 37 8v-44c-14 -7 -29 -10 -46 -10z" />
    <glyph glyph-name="j" unicode="j" horiz-adv-x="190" 
d="M98 588c-21 0 -39 12 -39 38c0 24 18 38 39 38s39 -14 39 -38c0 -26 -18 -38 -39 -38zM19 -231c-20 0 -41 2 -59 9v50c14 -5 29 -7 43 -7c45 0 67 22 67 81v578h56v-588c0 -83 -44 -124 -107 -123z" />
    <glyph glyph-name="k" unicode="k" horiz-adv-x="416" 
d="M61 0v700h57v-428h78l143 208h66l-164 -236l173 -244h-67l-153 219h-76v-219h-57z" />
    <glyph glyph-name="kcommaaccent" unicode="&#x137;" horiz-adv-x="416" 
d="M61 0v700h57v-428h78l143 208h66l-164 -236l173 -244h-67l-153 219h-76v-219h-57zM180 -237l23 180h56l-29 -180h-50z" />
    <glyph glyph-name="l" unicode="l" horiz-adv-x="184" 
d="M120 730v-730h-56v730h56z" />
    <glyph glyph-name="lacute" unicode="&#x13a;" horiz-adv-x="184" 
d="M41 790l90 135h68l-99 -135h-59zM120 730v-730h-56v730h56z" />
    <glyph glyph-name="lcaron" unicode="&#x13e;" horiz-adv-x="212" 
d="M120 730v-730h-56v730h56zM259 730l-23 -172h-50l17 172h56z" />
    <glyph glyph-name="lcommaaccent" unicode="&#x13c;" horiz-adv-x="184" 
d="M120 730v-730h-56v730h56zM43 -237l23 180h56l-29 -180h-50z" />
    <glyph glyph-name="ldot" unicode="&#x140;" horiz-adv-x="263" 
d="M120 730v-730h-56v730h56zM223 316c-21 0 -40 14 -40 40c0 25 19 39 40 39s40 -14 40 -39c0 -26 -19 -40 -40 -40z" />
    <glyph glyph-name="lslash" unicode="&#x142;" horiz-adv-x="238" 
d="M217 439v-54l-69 -32v-353h-57v325l-69 -33v54l69 33v351h57v-323z" />
    <glyph glyph-name="m" unicode="m" horiz-adv-x="703" 
d="M500 491c96 0 145 -68 145 -162v-329h-57v326c0 73 -32 113 -94 113c-54 0 -88 -37 -113 -84v-355h-56v326c0 73 -33 113 -93 113c-54 0 -91 -38 -114 -90v-349h-57v480h52v-65c31 51 73 76 127 76c60 0 101 -30 122 -78c36 54 81 78 138 78z" />
    <glyph glyph-name="n" unicode="n" horiz-adv-x="463" 
d="M61 0v480h52v-69c25 47 74 80 142 80c89 0 150 -61 150 -165v-326h-57v323c0 79 -42 116 -105 116s-107 -44 -125 -98v-341h-57z" />
    <glyph glyph-name="nacute" unicode="&#x144;" horiz-adv-x="463" 
d="M183 553l90 135h68l-99 -135h-59zM61 0v480h52v-69c25 47 74 80 142 80c89 0 150 -61 150 -165v-326h-57v323c0 79 -42 116 -105 116s-107 -44 -125 -98v-341h-57z" />
    <glyph glyph-name="ncaron" unicode="&#x148;" horiz-adv-x="463" 
d="M260 554h-51l-104 129h63l66 -80l67 80h63zM61 0v480h52v-69c25 47 74 80 142 80c89 0 150 -61 150 -165v-326h-57v323c0 79 -42 116 -105 116s-107 -44 -125 -98v-341h-57z" />
    <glyph glyph-name="ncommaaccent" unicode="&#x146;" horiz-adv-x="463" 
d="M61 0v480h52v-69c25 47 74 80 142 80c89 0 150 -61 150 -165v-326h-57v323c0 79 -42 116 -105 116s-107 -44 -125 -98v-341h-57zM197 -237l23 180h56l-29 -180h-50z" />
    <glyph glyph-name="eng" unicode="&#x14b;" horiz-adv-x="463" 
d="M298 -231c-21 0 -41 2 -59 8v51c14 -5 28 -7 43 -7c44 0 66 23 66 81v421c0 79 -42 116 -105 116s-107 -44 -125 -98v-341h-57v480h52v-69c25 47 74 80 142 80c89 0 150 -61 150 -165v-434c0 -81 -46 -124 -107 -123z" />
    <glyph glyph-name="ntilde" unicode="&#xf1;" horiz-adv-x="463" 
d="M291 554c-53 0 -82 46 -112 46c-20 0 -28 -16 -30 -41h-43c-5 59 22 91 65 91c56 0 85 -45 111 -45c23 0 29 15 31 41h43c5 -60 -21 -92 -65 -92zM61 0v480h52v-69c25 47 74 80 142 80c89 0 150 -61 150 -165v-326h-57v323c0 79 -42 116 -105 116s-107 -44 -125 -98v-341
h-57z" />
    <glyph glyph-name="o" unicode="o" horiz-adv-x="465" 
d="M232 491c126 0 195 -92 195 -251c0 -157 -69 -251 -195 -251c-125 0 -195 94 -195 251s70 251 195 251zM232 439c-92 0 -137 -76 -137 -199s45 -198 137 -198c93 0 137 75 137 198s-44 199 -137 199z" />
    <glyph glyph-name="oacute" unicode="&#xf3;" horiz-adv-x="465" 
d="M181 553l90 135h68l-99 -135h-59zM232 491c126 0 195 -92 195 -251c0 -157 -69 -251 -195 -251c-125 0 -195 94 -195 251s70 251 195 251zM232 439c-92 0 -137 -76 -137 -199s45 -198 137 -198c93 0 137 75 137 198s-44 199 -137 199z" />
    <glyph glyph-name="ocircumflex" unicode="&#xf4;" horiz-adv-x="465" 
d="M258 683l104 -129h-63l-66 80l-67 -80h-63l104 129h51zM232 491c126 0 195 -92 195 -251c0 -157 -69 -251 -195 -251c-125 0 -195 94 -195 251s70 251 195 251zM232 439c-92 0 -137 -76 -137 -199s45 -198 137 -198c93 0 137 75 137 198s-44 199 -137 199z" />
    <glyph glyph-name="odieresis" unicode="&#xf6;" horiz-adv-x="465" 
d="M150 575c-23 0 -42 19 -42 41s19 42 42 42s41 -20 41 -42s-18 -41 -41 -41zM314 575c-22 0 -41 19 -41 41s19 42 41 42c23 0 42 -20 42 -42s-19 -41 -42 -41zM232 491c126 0 195 -92 195 -251c0 -157 -69 -251 -195 -251c-125 0 -195 94 -195 251s70 251 195 251z
M232 439c-92 0 -137 -76 -137 -199s45 -198 137 -198c93 0 137 75 137 198s-44 199 -137 199z" />
    <glyph glyph-name="ograve" unicode="&#xf2;" horiz-adv-x="465" 
d="M222 553l-98 135h68l89 -135h-59zM232 491c126 0 195 -92 195 -251c0 -157 -69 -251 -195 -251c-125 0 -195 94 -195 251s70 251 195 251zM232 439c-92 0 -137 -76 -137 -199s45 -198 137 -198c93 0 137 75 137 198s-44 199 -137 199z" />
    <glyph glyph-name="ohungarumlaut" unicode="&#x151;" horiz-adv-x="465" 
d="M122 559l68 138h63l-72 -138h-59zM261 559l72 138h62l-75 -138h-59zM232 491c126 0 195 -92 195 -251c0 -157 -69 -251 -195 -251c-125 0 -195 94 -195 251s70 251 195 251zM232 439c-92 0 -137 -76 -137 -199s45 -198 137 -198c93 0 137 75 137 198s-44 199 -137 199z
" />
    <glyph glyph-name="omacron" unicode="&#x14d;" horiz-adv-x="465" 
d="M356 627v-52h-247v52h247zM232 491c126 0 195 -92 195 -251c0 -157 -69 -251 -195 -251c-125 0 -195 94 -195 251s70 251 195 251zM232 439c-92 0 -137 -76 -137 -199s45 -198 137 -198c93 0 137 75 137 198s-44 199 -137 199z" />
    <glyph glyph-name="oslash" unicode="&#xf8;" horiz-adv-x="465" 
d="M359 445c45 -43 68 -113 68 -205c0 -157 -69 -251 -195 -251c-36 0 -68 8 -94 24l-35 -69h-46l48 93c-44 42 -68 112 -68 203c0 157 70 251 195 251c37 0 67 -8 94 -23l36 71h46zM95 240c0 -64 13 -114 38 -148l168 327c-19 13 -42 20 -69 20c-92 0 -137 -76 -137 -199z
M232 42c93 0 137 75 137 198c0 64 -13 116 -38 149l-168 -327c19 -13 42 -20 69 -20z" />
    <glyph glyph-name="otilde" unicode="&#xf5;" horiz-adv-x="465" 
d="M290 554c-53 0 -82 46 -112 46c-20 0 -28 -16 -30 -41h-43c-5 59 22 91 65 91c56 0 85 -45 111 -45c23 0 29 15 31 41h43c5 -60 -21 -92 -65 -92zM232 491c126 0 195 -92 195 -251c0 -157 -69 -251 -195 -251c-125 0 -195 94 -195 251s70 251 195 251zM232 439
c-92 0 -137 -76 -137 -199s45 -198 137 -198c93 0 137 75 137 198s-44 199 -137 199z" />
    <glyph glyph-name="oe" unicode="&#x153;" horiz-adv-x="747" 
d="M225 -12c-123 0 -187 99 -187 252s64 252 187 252c82 0 135 -48 158 -129c26 81 80 128 159 128c124 0 187 -122 171 -279h-304c7 -118 60 -170 160 -170c38 0 79 7 116 26v-53c-38 -19 -79 -26 -118 -26c-100 0 -159 47 -185 127c-23 -80 -76 -128 -157 -128zM225 41
c90 0 130 76 130 199s-40 199 -130 199c-88 0 -129 -76 -129 -199s41 -199 129 -199zM410 262h249c3 106 -40 175 -117 175c-78 0 -127 -66 -132 -175z" />
    <glyph glyph-name="p" unicode="p" horiz-adv-x="476" 
d="M439 240c0 -141 -60 -251 -184 -251c-71 0 -114 40 -137 81v-290h-57v700h52v-77c24 48 71 88 142 88c124 0 184 -110 184 -251zM118 337v-194c24 -64 67 -102 128 -102c94 0 135 82 135 199s-41 199 -135 199c-61 0 -104 -38 -128 -102z" />
    <glyph glyph-name="thorn" unicode="&#xfe;" horiz-adv-x="476" 
d="M61 -220v920h57v-291c23 42 66 82 137 82c124 0 184 -110 184 -251s-60 -251 -184 -251c-71 0 -114 40 -137 82v-291h-57zM246 41c94 0 135 82 135 199s-41 199 -135 199c-61 0 -104 -38 -128 -102v-194c24 -64 67 -102 128 -102z" />
    <glyph glyph-name="q" unicode="q" horiz-adv-x="476" 
d="M221 491c71 0 118 -40 142 -88v77h52v-700h-57v290c-23 -41 -66 -81 -137 -81c-124 0 -184 110 -184 251s60 251 184 251zM230 439c-94 0 -135 -82 -135 -199s41 -199 135 -199c61 0 104 38 128 102v194c-24 64 -67 102 -128 102z" />
    <glyph glyph-name="r" unicode="r" horiz-adv-x="296" 
d="M61 0v480h52v-96c32 80 96 109 172 106v-57c-81 6 -144 -31 -167 -128v-305h-57z" />
    <glyph glyph-name="racute" unicode="&#x155;" horiz-adv-x="296" 
d="M117 553l90 135h68l-99 -135h-59zM61 0v480h52v-96c32 80 96 109 172 106v-57c-81 6 -144 -31 -167 -128v-305h-57z" />
    <glyph glyph-name="rcaron" unicode="&#x159;" horiz-adv-x="296" 
d="M194 554h-51l-104 129h63l66 -80l67 80h63zM61 0v480h52v-96c32 80 96 109 172 106v-57c-81 6 -144 -31 -167 -128v-305h-57z" />
    <glyph glyph-name="rcommaaccent" unicode="&#x157;" horiz-adv-x="296" 
d="M61 0v480h52v-96c32 80 96 109 172 106v-57c-81 6 -144 -31 -167 -128v-305h-57zM39 -237l23 180h56l-29 -180h-50z" />
    <glyph glyph-name="s" unicode="s" horiz-adv-x="378" 
d="M194 491c46 0 87 -11 129 -33v-54c-40 24 -81 36 -125 36c-61 0 -104 -29 -104 -79c0 -121 257 -73 257 -241c0 -89 -74 -131 -163 -131c-60 0 -111 12 -150 37v56c41 -27 91 -41 147 -41c65 0 109 26 109 78c0 122 -258 71 -258 241c0 80 64 131 158 131z" />
    <glyph glyph-name="sacute" unicode="&#x15b;" horiz-adv-x="378" 
d="M135 553l90 135h68l-99 -135h-59zM194 491c46 0 87 -11 129 -33v-54c-40 24 -81 36 -125 36c-61 0 -104 -29 -104 -79c0 -121 257 -73 257 -241c0 -89 -74 -131 -163 -131c-60 0 -111 12 -150 37v56c41 -27 91 -41 147 -41c65 0 109 26 109 78c0 122 -258 71 -258 241
c0 80 64 131 158 131z" />
    <glyph glyph-name="scaron" unicode="&#x161;" horiz-adv-x="378" 
d="M212 554h-51l-104 129h63l66 -80l67 80h63zM194 491c46 0 87 -11 129 -33v-54c-40 24 -81 36 -125 36c-61 0 -104 -29 -104 -79c0 -121 257 -73 257 -241c0 -89 -74 -131 -163 -131c-60 0 -111 12 -150 37v56c41 -27 91 -41 147 -41c65 0 109 26 109 78
c0 122 -258 71 -258 241c0 80 64 131 158 131z" />
    <glyph glyph-name="scedilla" unicode="&#x15f;" horiz-adv-x="378" 
d="M351 120c0 -77 -54 -118 -126 -129l-14 -61c42 1 84 -18 85 -72c1 -59 -55 -89 -111 -89c-29 0 -53 4 -73 13v46c23 -10 43 -13 70 -13c41 0 65 17 65 45c0 38 -46 44 -92 32l20 97c-54 2 -101 14 -137 37v56c41 -27 91 -41 147 -41c65 0 109 26 109 78
c0 122 -258 71 -258 241c0 80 64 131 158 131c46 0 87 -11 129 -33v-54c-40 24 -81 36 -125 36c-61 0 -104 -29 -104 -79c0 -121 257 -73 257 -241z" />
    <glyph glyph-name="scommaaccent" unicode="&#x219;" horiz-adv-x="378" 
d="M194 491c46 0 87 -11 129 -33v-54c-40 24 -81 36 -125 36c-61 0 -104 -29 -104 -79c0 -121 257 -73 257 -241c0 -89 -74 -131 -163 -131c-60 0 -111 12 -150 37v56c41 -27 91 -41 147 -41c65 0 109 26 109 78c0 122 -258 71 -258 241c0 80 64 131 158 131zM158 -237
l23 180h56l-29 -180h-50z" />
    <glyph glyph-name="germandbls" unicode="&#xdf;" horiz-adv-x="462" 
d="M300 -11c-28 0 -57 4 -85 16v52c25 -11 53 -16 77 -16c53 0 90 30 90 91c0 102 -134 181 -134 248c0 66 84 106 84 188c0 54 -39 91 -97 91c-79 -1 -117 -52 -117 -137v-522h-57v520c0 112 56 190 174 191c102 1 153 -70 153 -137c0 -99 -84 -140 -84 -188
c0 -59 135 -134 135 -258c0 -91 -64 -139 -139 -139z" />
    <glyph glyph-name="t" unicode="t" horiz-adv-x="294" 
d="M205 -11c-72 -1 -120 42 -120 129v311h-73v51h73v129l56 13v-142h133v-51h-133v-302c0 -59 23 -86 70 -86c23 1 43 5 65 15v-53c-20 -9 -42 -14 -71 -14z" />
    <glyph glyph-name="tbar" unicode="&#x167;" horiz-adv-x="295" 
d="M207 -11c-73 -1 -121 42 -121 129v106h-54v50h54v155h-73v51h73v129l57 13v-142h132v-51h-132v-155h109v-50h-109v-97c0 -59 22 -86 70 -86c22 1 42 6 64 15v-53c-20 -8 -42 -14 -70 -14z" />
    <glyph glyph-name="tcaron" unicode="&#x165;" horiz-adv-x="294" 
d="M284 730l-25 -166h-50l18 166h57zM205 -11c-72 -1 -120 42 -120 129v311h-73v51h73v129l56 13v-142h133v-51h-133v-302c0 -59 23 -86 70 -86c23 1 43 5 65 15v-53c-20 -9 -42 -14 -71 -14z" />
    <glyph glyph-name="uni0163" unicode="&#x163;" horiz-adv-x="294" 
d="M205 -11c-72 -1 -120 42 -120 129v311h-73v51h73v129l56 13v-142h133v-51h-133v-302c0 -59 23 -86 70 -86c23 1 43 5 65 15v-53c-20 -9 -42 -14 -71 -14zM134 -237l23 180h56l-29 -180h-50z" />
    <glyph glyph-name="uni021B" unicode="&#x21b;" horiz-adv-x="294" 
d="M205 -11c-72 -1 -120 42 -120 129v311h-73v51h73v129l56 13v-142h133v-51h-133v-302c0 -59 23 -86 70 -86c23 1 43 5 65 15v-53c-20 -9 -42 -14 -71 -14zM134 -237l23 180h56l-29 -180h-50z" />
    <glyph glyph-name="u" unicode="u" horiz-adv-x="463" 
d="M402 480v-480h-52v69c-25 -47 -74 -80 -142 -80c-89 0 -150 61 -150 165v326h57v-323c0 -79 42 -116 105 -116s107 44 125 98v341h57z" />
    <glyph glyph-name="uacute" unicode="&#xfa;" horiz-adv-x="463" 
d="M178 553l90 135h68l-99 -135h-59zM402 480v-480h-52v69c-25 -47 -74 -80 -142 -80c-89 0 -150 61 -150 165v326h57v-323c0 -79 42 -116 105 -116s107 44 125 98v341h57z" />
    <glyph glyph-name="ucircumflex" unicode="&#xfb;" horiz-adv-x="463" 
d="M255 683l104 -129h-63l-66 80l-67 -80h-63l104 129h51zM402 480v-480h-52v69c-25 -47 -74 -80 -142 -80c-89 0 -150 61 -150 165v326h57v-323c0 -79 42 -116 105 -116s107 44 125 98v341h57z" />
    <glyph glyph-name="udieresis" unicode="&#xfc;" horiz-adv-x="463" 
d="M147 575c-23 0 -42 19 -42 41s19 42 42 42s41 -20 41 -42s-18 -41 -41 -41zM311 575c-22 0 -41 19 -41 41s19 42 41 42c23 0 42 -20 42 -42s-19 -41 -42 -41zM402 480v-480h-52v69c-25 -47 -74 -80 -142 -80c-89 0 -150 61 -150 165v326h57v-323c0 -79 42 -116 105 -116
s107 44 125 98v341h57z" />
    <glyph glyph-name="ugrave" unicode="&#xf9;" horiz-adv-x="463" 
d="M219 553l-98 135h68l89 -135h-59zM402 480v-480h-52v69c-25 -47 -74 -80 -142 -80c-89 0 -150 61 -150 165v326h57v-323c0 -79 42 -116 105 -116s107 44 125 98v341h57z" />
    <glyph glyph-name="uhungarumlaut" unicode="&#x171;" horiz-adv-x="463" 
d="M119 559l68 138h63l-72 -138h-59zM258 559l72 138h62l-75 -138h-59zM402 480v-480h-52v69c-25 -47 -74 -80 -142 -80c-89 0 -150 61 -150 165v326h57v-323c0 -79 42 -116 105 -116s107 44 125 98v341h57z" />
    <glyph glyph-name="umacron" unicode="&#x16b;" horiz-adv-x="463" 
d="M353 627v-52h-247v52h247zM402 480v-480h-52v69c-25 -47 -74 -80 -142 -80c-89 0 -150 61 -150 165v326h57v-323c0 -79 42 -116 105 -116s107 44 125 98v341h57z" />
    <glyph glyph-name="uogonek" unicode="&#x173;" horiz-adv-x="462" 
d="M349 -229c-58 0 -90 32 -90 79c0 44 28 96 91 157v62c-26 -47 -74 -80 -143 -80c-88 0 -149 61 -149 165v326h56v-323c0 -79 42 -116 105 -116s107 44 125 98v341h57v-480c-56 -47 -88 -97 -88 -138c0 -32 21 -45 46 -45c14 0 28 3 42 10v-44c-16 -8 -33 -12 -52 -12z
" />
    <glyph glyph-name="uring" unicode="&#x16f;" horiz-adv-x="463" 
d="M229 530c-55 0 -98 38 -98 98s43 98 98 98s98 -38 98 -98s-43 -98 -98 -98zM229 570c32 0 54 22 54 58s-22 58 -54 58s-54 -22 -54 -58s22 -58 54 -58zM402 480v-480h-52v69c-25 -47 -74 -80 -142 -80c-89 0 -150 61 -150 165v326h57v-323c0 -79 42 -116 105 -116
s107 44 125 98v341h57z" />
    <glyph glyph-name="v" unicode="v" horiz-adv-x="424" 
d="M182 0l-168 480h62l119 -352c7 -23 12 -41 17 -68c5 27 10 45 17 68l119 352h62l-168 -480h-60z" />
    <glyph glyph-name="w" unicode="w" horiz-adv-x="641" 
d="M149 0l-133 480h60l104 -400l115 393h51l115 -393l104 400h59l-133 -480h-58l-113 385l-113 -385h-58z" />
    <glyph glyph-name="wacute" unicode="&#x1e83;" horiz-adv-x="641" 
d="M269 553l90 135h68l-99 -135h-59zM149 0l-133 480h60l104 -400l115 393h51l115 -393l104 400h59l-133 -480h-58l-113 385l-113 -385h-58z" />
    <glyph glyph-name="wcircumflex" unicode="&#x175;" horiz-adv-x="641" 
d="M346 683l104 -129h-63l-66 80l-67 -80h-63l104 129h51zM149 0l-133 480h60l104 -400l115 393h51l115 -393l104 400h59l-133 -480h-58l-113 385l-113 -385h-58z" />
    <glyph glyph-name="wdieresis" unicode="&#x1e85;" horiz-adv-x="641" 
d="M238 575c-23 0 -42 19 -42 41s19 42 42 42s41 -20 41 -42s-18 -41 -41 -41zM402 575c-22 0 -41 19 -41 41s19 42 41 42c23 0 42 -20 42 -42s-19 -41 -42 -41zM149 0l-133 480h60l104 -400l115 393h51l115 -393l104 400h59l-133 -480h-58l-113 385l-113 -385h-58z" />
    <glyph glyph-name="wgrave" unicode="&#x1e81;" horiz-adv-x="641" 
d="M310 553l-98 135h68l89 -135h-59zM149 0l-133 480h60l104 -400l115 393h51l115 -393l104 400h59l-133 -480h-58l-113 385l-113 -385h-58z" />
    <glyph glyph-name="x" unicode="x" horiz-adv-x="409" 
d="M8 0l165 248l-155 232h65l108 -164l14 -24c5 9 8 14 14 24l108 164h64l-153 -232l163 -248h-64l-110 165c-10 15 -15 26 -22 42c-7 -16 -12 -27 -22 -42l-110 -165h-65z" />
    <glyph glyph-name="y" unicode="y" horiz-adv-x="433" 
d="M59 -220v51c29 -4 50 0 68 13c23 17 39 47 55 96l19 58l-192 482h59l159 -409l131 409h61l-184 -554c-20 -59 -42 -101 -76 -124c-26 -20 -58 -28 -100 -22z" />
    <glyph glyph-name="yacute" unicode="&#xfd;" horiz-adv-x="433" 
d="M156 553l90 135h68l-99 -135h-59zM59 -220v51c29 -4 50 0 68 13c23 17 39 47 55 96l19 58l-192 482h59l159 -409l131 409h61l-184 -554c-20 -59 -42 -101 -76 -124c-26 -20 -58 -28 -100 -22z" />
    <glyph glyph-name="ycircumflex" unicode="&#x177;" horiz-adv-x="433" 
d="M232 683l104 -129h-63l-66 80l-67 -80h-63l104 129h51zM59 -220v51c29 -4 50 0 68 13c23 17 39 47 55 96l19 58l-192 482h59l159 -409l131 409h61l-184 -554c-20 -59 -42 -101 -76 -124c-26 -20 -58 -28 -100 -22z" />
    <glyph glyph-name="ydieresis" unicode="&#xff;" horiz-adv-x="433" 
d="M124 575c-23 0 -42 19 -42 41s19 42 42 42s41 -20 41 -42s-18 -41 -41 -41zM288 575c-22 0 -41 19 -41 41s19 42 41 42c23 0 42 -20 42 -42s-19 -41 -42 -41zM59 -220v51c29 -4 50 0 68 13c23 17 39 47 55 96l19 58l-192 482h59l159 -409l131 409h61l-184 -554
c-20 -59 -42 -101 -76 -124c-26 -20 -58 -28 -100 -22z" />
    <glyph glyph-name="ygrave" unicode="&#x1ef3;" horiz-adv-x="433" 
d="M196 553l-98 135h68l89 -135h-59zM59 -220v51c29 -4 50 0 68 13c23 17 39 47 55 96l19 58l-192 482h59l159 -409l131 409h61l-184 -554c-20 -59 -42 -101 -76 -124c-26 -20 -58 -28 -100 -22z" />
    <glyph glyph-name="z" unicode="z" horiz-adv-x="371" 
d="M337 480v-49l-246 -380h256v-51h-324v49l246 380h-234v51h302z" />
    <glyph glyph-name="zacute" unicode="&#x17a;" horiz-adv-x="371" 
d="M136 553l90 135h68l-99 -135h-59zM337 480v-49l-246 -380h256v-51h-324v49l246 380h-234v51h302z" />
    <glyph glyph-name="zcaron" unicode="&#x17e;" horiz-adv-x="371" 
d="M213 554h-51l-104 129h63l66 -80l67 80h63zM337 480v-49l-246 -380h256v-51h-324v49l246 380h-234v51h302z" />
    <glyph glyph-name="zdotaccent" unicode="&#x17c;" horiz-adv-x="371" 
d="M187 559c-25 0 -43 16 -43 44s18 44 43 44c26 0 44 -16 44 -44s-18 -44 -44 -44zM337 480v-49l-246 -380h256v-51h-324v49l246 380h-234v51h302z" />
    <glyph glyph-name="a.ss01" horiz-adv-x="476" 
d="M221 -11c-124 0 -184 110 -184 251s60 251 184 251c71 0 116 -38 142 -91v80h52v-480h-52v80c-26 -53 -71 -91 -142 -91zM230 41c61 0 104 37 128 102v194c-24 65 -67 102 -128 102c-94 0 -135 -82 -135 -199s41 -199 135 -199z" />
    <glyph glyph-name="aacute.ss01" horiz-adv-x="476" 
d="M183 553l90 135h68l-99 -135h-59zM221 -11c-124 0 -184 110 -184 251s60 251 184 251c71 0 116 -38 142 -91v80h52v-480h-52v80c-26 -53 -71 -91 -142 -91zM230 41c61 0 104 37 128 102v194c-24 65 -67 102 -128 102c-94 0 -135 -82 -135 -199s41 -199 135 -199z" />
    <glyph glyph-name="abreve.ss01" horiz-adv-x="476" 
d="M234 554c-46 0 -84 11 -117 33v53c36 -22 75 -32 117 -32s81 10 117 32v-53c-33 -22 -71 -33 -117 -33zM221 -11c-124 0 -184 110 -184 251s60 251 184 251c71 0 116 -38 142 -91v80h52v-480h-52v80c-26 -53 -71 -91 -142 -91zM230 41c61 0 104 37 128 102v194
c-24 65 -67 102 -128 102c-94 0 -135 -82 -135 -199s41 -199 135 -199z" />
    <glyph glyph-name="acircumflex.ss01" horiz-adv-x="476" 
d="M259 683l104 -129h-63l-66 80l-67 -80h-63l104 129h51zM221 -11c-124 0 -184 110 -184 251s60 251 184 251c71 0 116 -38 142 -91v80h52v-480h-52v80c-26 -53 -71 -91 -142 -91zM230 41c61 0 104 37 128 102v194c-24 65 -67 102 -128 102c-94 0 -135 -82 -135 -199
s41 -199 135 -199z" />
    <glyph glyph-name="adieresis.ss01" horiz-adv-x="476" 
d="M151 575c-23 0 -42 19 -42 41s19 42 42 42s41 -20 41 -42s-18 -41 -41 -41zM315 575c-22 0 -41 19 -41 41s19 42 41 42c23 0 42 -20 42 -42s-19 -41 -42 -41zM221 -11c-124 0 -184 110 -184 251s60 251 184 251c71 0 116 -38 142 -91v80h52v-480h-52v80
c-26 -53 -71 -91 -142 -91zM230 41c61 0 104 37 128 102v194c-24 65 -67 102 -128 102c-94 0 -135 -82 -135 -199s41 -199 135 -199z" />
    <glyph glyph-name="agrave.ss01" horiz-adv-x="476" 
d="M223 553l-98 135h68l89 -135h-59zM221 -11c-124 0 -184 110 -184 251s60 251 184 251c71 0 116 -38 142 -91v80h52v-480h-52v80c-26 -53 -71 -91 -142 -91zM230 41c61 0 104 37 128 102v194c-24 65 -67 102 -128 102c-94 0 -135 -82 -135 -199s41 -199 135 -199z" />
    <glyph glyph-name="amacron.ss01" horiz-adv-x="476" 
d="M357 627v-52h-247v52h247zM221 -11c-124 0 -184 110 -184 251s60 251 184 251c71 0 116 -38 142 -91v80h52v-480h-52v80c-26 -53 -71 -91 -142 -91zM230 41c61 0 104 37 128 102v194c-24 65 -67 102 -128 102c-94 0 -135 -82 -135 -199s41 -199 135 -199z" />
    <glyph glyph-name="aogonek.ss01" horiz-adv-x="476" 
d="M363 -229c-58 0 -90 32 -90 79c0 44 28 96 90 157v73c-26 -53 -71 -91 -142 -91c-124 0 -184 110 -184 251s60 251 184 251c71 0 116 -38 142 -91v80h52v-480c-56 -47 -89 -97 -89 -138c0 -32 21 -45 46 -45c14 0 29 3 43 10v-44c-16 -8 -33 -12 -52 -12zM230 41
c61 0 104 37 128 102v194c-24 65 -67 102 -128 102c-94 0 -135 -82 -135 -199s41 -199 135 -199z" />
    <glyph glyph-name="aring.ss01" horiz-adv-x="476" 
d="M234 530c-55 0 -98 38 -98 98s43 98 98 98s98 -38 98 -98s-43 -98 -98 -98zM234 570c32 0 54 22 54 58s-22 58 -54 58s-54 -22 -54 -58s22 -58 54 -58zM221 -11c-124 0 -184 110 -184 251s60 251 184 251c71 0 116 -38 142 -91v80h52v-480h-52v80
c-26 -53 -71 -91 -142 -91zM230 41c61 0 104 37 128 102v194c-24 65 -67 102 -128 102c-94 0 -135 -82 -135 -199s41 -199 135 -199z" />
    <glyph glyph-name="atilde.ss01" horiz-adv-x="476" 
d="M291 554c-53 0 -82 46 -112 46c-20 0 -28 -16 -30 -41h-43c-5 59 22 91 65 91c56 0 85 -45 111 -45c23 0 29 15 31 41h43c5 -60 -21 -92 -65 -92zM221 -11c-124 0 -184 110 -184 251s60 251 184 251c71 0 116 -38 142 -91v80h52v-480h-52v80c-26 -53 -71 -91 -142 -91z
M230 41c61 0 104 37 128 102v194c-24 65 -67 102 -128 102c-94 0 -135 -82 -135 -199s41 -199 135 -199z" />
    <glyph glyph-name="ae.ss01" horiz-adv-x="747" 
d="M217 -11c-120 0 -179 110 -179 251s59 251 179 251c70 0 116 -40 140 -97v86h45v-94c26 65 76 105 144 105c121 0 183 -122 167 -279h-303c8 -118 66 -170 166 -170c37 0 72 7 109 26v-53c-38 -19 -73 -26 -112 -26c-84 0 -141 40 -171 108v-97h-45v86
c-24 -57 -70 -97 -140 -97zM223 42c64 0 106 40 129 104v188c-23 64 -65 104 -129 104c-89 0 -127 -84 -127 -198s38 -198 127 -198zM410 262h249c3 106 -40 175 -117 175c-78 0 -127 -66 -132 -175z" />
    <glyph glyph-name="y.ss01" horiz-adv-x="462" 
d="M201 -231c-49 0 -90 7 -128 26v53c37 -19 78 -26 125 -26c97 0 146 54 146 149v92c-26 -45 -73 -74 -137 -74c-88 0 -149 61 -149 165v326h56v-323c0 -79 42 -116 105 -116s107 44 125 98v341h57v-509c0 -110 -61 -202 -200 -202z" />
    <glyph glyph-name="yacute.ss01" horiz-adv-x="462" 
d="M178 553l90 135h68l-99 -135h-59zM201 -231c-49 0 -90 7 -128 26v53c37 -19 78 -26 125 -26c97 0 146 54 146 149v92c-26 -45 -73 -74 -137 -74c-88 0 -149 61 -149 165v326h56v-323c0 -79 42 -116 105 -116s107 44 125 98v341h57v-509c0 -110 -61 -202 -200 -202z" />
    <glyph glyph-name="ycircumflex.ss01" horiz-adv-x="462" 
d="M254 683l104 -129h-63l-66 80l-67 -80h-63l104 129h51zM201 -231c-49 0 -90 7 -128 26v53c37 -19 78 -26 125 -26c97 0 146 54 146 149v92c-26 -45 -73 -74 -137 -74c-88 0 -149 61 -149 165v326h56v-323c0 -79 42 -116 105 -116s107 44 125 98v341h57v-509
c0 -110 -61 -202 -200 -202z" />
    <glyph glyph-name="ydieresis.ss01" horiz-adv-x="462" 
d="M146 575c-23 0 -42 19 -42 41s19 42 42 42s41 -20 41 -42s-18 -41 -41 -41zM310 575c-22 0 -41 19 -41 41s19 42 41 42c23 0 42 -20 42 -42s-19 -41 -42 -41zM201 -231c-49 0 -90 7 -128 26v53c37 -19 78 -26 125 -26c97 0 146 54 146 149v92c-26 -45 -73 -74 -137 -74
c-88 0 -149 61 -149 165v326h56v-323c0 -79 42 -116 105 -116s107 44 125 98v341h57v-509c0 -110 -61 -202 -200 -202z" />
    <glyph glyph-name="ygrave.ss01" horiz-adv-x="462" 
d="M219 553l-98 135h68l89 -135h-59zM201 -231c-49 0 -90 7 -128 26v53c37 -19 78 -26 125 -26c97 0 146 54 146 149v92c-26 -45 -73 -74 -137 -74c-88 0 -149 61 -149 165v326h56v-323c0 -79 42 -116 105 -116s107 44 125 98v341h57v-509c0 -110 -61 -202 -200 -202z" />
    <glyph glyph-name="f_b" horiz-adv-x="758" 
d="M537 491c124 0 183 -110 183 -251s-59 -251 -183 -251c-72 0 -116 38 -143 91v-80h-51v636c-31 15 -64 23 -97 23c-60 0 -100 -30 -100 -94v-85h118v-51h-118v-429h-56v429h-77v51h77v89c0 90 62 142 149 142c38 0 72 -6 109 -22l6 11l46 11v-302c22 42 65 82 137 82z
M528 41c94 0 134 82 134 199s-40 199 -134 199c-61 0 -104 -38 -128 -102v-194c24 -65 67 -102 128 -102z" />
    <glyph glyph-name="f_f_b" horiz-adv-x="1009" 
d="M788 491c124 0 184 -110 184 -251s-60 -251 -184 -251c-71 0 -116 38 -142 91v-80h-52v636c-31 15 -64 23 -97 23c-59 0 -99 -30 -99 -94v-85h117v-51h-117v-429h-57v429h-200v-429h-57v429h-70v51h70v77c0 91 50 143 135 143c29 0 52 -6 74 -16v-50c-19 9 -40 14 -65 14
c-52 0 -87 -28 -87 -87v-81h200v89c0 90 62 142 149 142c38 0 73 -6 109 -22l9 11l43 11v-302c23 42 66 82 137 82zM779 41c94 0 135 82 135 199s-41 199 -135 199c-61 0 -104 -38 -128 -102v-194c24 -65 67 -102 128 -102z" />
    <glyph glyph-name="f_f_h" horiz-adv-x="996" 
d="M788 491c89 0 150 -61 150 -165v-326h-57v323c0 79 -42 116 -105 116s-107 -44 -125 -98v-341h-57v636c-31 15 -64 23 -97 23c-59 0 -99 -30 -99 -94v-85h117v-51h-117v-429h-57v429h-200v-429h-57v429h-70v51h70v77c0 91 50 143 135 143c29 0 52 -6 74 -16v-50
c-19 9 -40 14 -65 14c-52 0 -87 -28 -87 -87v-81h200v89c0 90 62 142 149 142c38 0 73 -6 109 -22l9 11l43 11v-294c26 45 73 74 137 74z" />
    <glyph glyph-name="f_f_j" horiz-adv-x="718" 
d="M654 480v-588c0 -83 -44 -124 -107 -123c-20 0 -41 2 -59 9v50c14 -5 29 -7 43 -7c45 0 67 22 67 81v527h-200v-429h-57v429h-200v-429h-57v429h-70v51h70v77c0 91 50 143 135 143c29 0 52 -6 74 -16v-50c-19 9 -40 14 -65 14c-52 0 -87 -28 -87 -87v-81h200v77
c0 101 64 154 156 154c42 0 84 -10 122 -31v-54c-33 21 -73 33 -113 33c-69 0 -108 -35 -108 -109v-70h256z" />
    <glyph glyph-name="f_f_k" horiz-adv-x="950" 
d="M784 244l164 -244h-66l-145 219h-86v-219h-57v636c-31 15 -64 23 -97 23c-59 0 -99 -30 -99 -94v-85h117v-51h-117v-429h-57v429h-200v-429h-57v429h-70v51h70v77c0 91 50 143 135 143c29 0 52 -6 74 -16v-50c-19 9 -40 14 -65 14c-52 0 -87 -28 -87 -87v-81h200v89
c0 90 62 142 149 142c38 0 73 -6 109 -22l9 11l43 11v-439h88l134 208h65z" />
    <glyph glyph-name="f_h" horiz-adv-x="744" 
d="M537 491c88 0 149 -61 149 -165v-326h-56v323c0 79 -42 116 -105 116s-107 -44 -125 -98v-341h-57v636c-31 15 -64 23 -97 23c-60 0 -100 -30 -100 -94v-85h118v-51h-118v-429h-56v429h-77v51h77v89c0 90 62 142 149 142c38 0 72 -6 109 -22l10 11l42 11v-294
c26 45 73 74 137 74z" />
    <glyph glyph-name="f_i" horiz-adv-x="461" 
d="M398 480v-480h-57v429h-200v-429h-57v429h-70v51h70v77c0 101 64 154 156 154c42 0 85 -10 122 -31v-54c-33 21 -73 33 -113 33c-69 0 -108 -35 -108 -109v-70h257z" />
    <glyph glyph-name="f_j" horiz-adv-x="461" 
d="M398 480v-588c0 -83 -45 -124 -107 -123c-21 0 -41 2 -59 9v50c14 -5 28 -7 43 -7c45 0 66 22 66 81v527h-200v-429h-57v429h-70v51h70v77c0 101 64 154 156 154c42 0 85 -10 122 -31v-54c-33 21 -73 33 -113 33c-69 0 -108 -35 -108 -109v-70h257z" />
    <glyph glyph-name="f_k" horiz-adv-x="699" 
d="M532 244l165 -244h-66l-146 219h-85v-219h-57v636c-31 15 -64 23 -97 23c-60 0 -100 -30 -100 -94v-85h118v-51h-118v-429h-56v429h-77v51h77v89c0 90 62 142 149 142c38 0 72 -6 109 -22l7 11l45 11v-439h88l133 208h66z" />
    <glyph glyph-name="f_l" horiz-adv-x="463" 
d="M90 0v429h-77v51h77v89c0 90 62 142 149 142c38 0 72 -6 109 -22l8 11l44 11v-711h-57v636c-31 15 -64 23 -97 23c-60 0 -100 -30 -100 -94v-85h118v-51h-118v-429h-56z" />
    <glyph glyph-name="uni0410" unicode="&#x410;" horiz-adv-x="546" 
d="M5 0l236 700h64l236 -700h-63l-61 187h-288l-61 -187h-63zM147 242h252l-102 308c-9 28 -17 55 -24 82c-7 -27 -15 -54 -24 -82z" />
    <glyph glyph-name="uni0411" unicode="&#x411;" horiz-adv-x="535" 
d="M75 0v700h394v-57h-334v-235h151c136 0 223 -72 223 -204c0 -133 -87 -204 -223 -204h-211zM135 57h154c107 0 160 54 160 147s-54 147 -160 147h-154v-294z" />
    <glyph glyph-name="uni0412" unicode="&#x412;" horiz-adv-x="544" 
d="M278 700c127 0 203 -56 203 -176c0 -96 -54 -142 -102 -157c51 -12 129 -57 130 -177c-1 -162 -138 -190 -230 -190h-204v700h203zM273 643h-138v-251h154c74 0 132 37 132 124c0 94 -51 127 -148 127zM286 336h-151v-279h133c83 0 180 10 181 139
c-1 124 -98 140 -163 140z" />
    <glyph glyph-name="uni0413" unicode="&#x413;" horiz-adv-x="449" 
d="M75 0v700h364v-57h-304v-643h-60z" />
    <glyph glyph-name="uni0403" unicode="&#x403;" horiz-adv-x="449" 
d="M193 773l90 135h68l-99 -135h-59zM75 0v700h364v-57h-304v-643h-60z" />
    <glyph glyph-name="uni0490" unicode="&#x490;" horiz-adv-x="449" 
d="M383 840h56v-197h-304v-643h-60v700h307z" />
    <glyph glyph-name="uni0414" unicode="&#x414;" horiz-adv-x="620" 
d="M8 -170v227h71c53 147 70 370 70 643h375v-643h75v-227h-56v170h-478v-170h-57zM143 57h322v586h-257c1 -220 -16 -424 -65 -586z" />
    <glyph glyph-name="uni0415" unicode="&#x415;" horiz-adv-x="474" 
d="M75 0v700h360v-57h-300v-262h270v-57h-270v-267h307v-57h-367z" />
    <glyph glyph-name="uni0401" unicode="&#x401;" horiz-adv-x="474" 
d="M172 795c-23 0 -42 19 -42 41s19 42 42 42s41 -20 41 -42s-18 -41 -41 -41zM336 795c-22 0 -41 19 -41 41s19 42 41 42c23 0 42 -20 42 -42s-19 -41 -42 -41zM75 0v700h360v-57h-300v-262h270v-57h-270v-267h307v-57h-367z" />
    <glyph glyph-name="uni0416" unicode="&#x416;" horiz-adv-x="759" 
d="M2 0l219 359l-206 341h68l186 -314h81v314h59v-314h81l186 314h68l-205 -341l218 -359h-68l-197 330h-83v-330h-59v330h-82l-198 -330h-68z" />
    <glyph glyph-name="uni0417" unicode="&#x417;" horiz-adv-x="478" 
d="M214 -11c-67 0 -128 10 -191 39v58c58 -30 118 -41 187 -41c76 0 172 32 172 145c0 114 -95 146 -155 146h-97v56h91c73 0 133 47 133 130c0 95 -66 133 -159 133c-54 0 -105 -13 -160 -40v57c51 27 104 39 165 39c122 0 214 -59 214 -182c0 -88 -59 -145 -115 -163
c55 -12 144 -63 144 -181c0 -147 -126 -196 -229 -196z" />
    <glyph glyph-name="uni0418" unicode="&#x418;" horiz-adv-x="594" 
d="M519 0h-60v434c0 59 2 111 5 159l-327 -593h-62v700h60v-433c0 -60 -2 -111 -5 -160l327 593h62v-700z" />
    <glyph glyph-name="uni0419" unicode="&#x419;" horiz-adv-x="594" 
d="M297 767c-47 0 -85 10 -120 35v50c38 -24 77 -34 120 -34s82 10 120 34v-50c-35 -25 -73 -35 -120 -35zM519 0h-60v434c0 59 2 111 5 159l-327 -593h-62v700h60v-433c0 -60 -2 -111 -5 -160l327 593h62v-700z" />
    <glyph glyph-name="uni041A" unicode="&#x41a;" horiz-adv-x="523" 
d="M75 0v700h60v-314h96l213 314h68l-232 -341l242 -359h-68l-221 330h-98v-330h-60z" />
    <glyph glyph-name="uni040C" unicode="&#x40c;" horiz-adv-x="523" 
d="M220 773l90 135h68l-99 -135h-59zM75 0v700h60v-314h96l213 314h68l-232 -341l242 -359h-68l-221 330h-98v-330h-60z" />
    <glyph glyph-name="uni041B" unicode="&#x41b;" horiz-adv-x="613" 
d="M-2 0v51c41 -13 77 -1 100 29c54 72 64 286 79 620h361v-700h-59v643h-246c-13 -291 -24 -522 -94 -604c-31 -37 -81 -54 -141 -39z" />
    <glyph glyph-name="uni041C" unicode="&#x41c;" horiz-adv-x="699" 
d="M75 0v700h62l212 -422l212 422h62v-700h-59v428c0 57 1 111 5 166l-205 -409h-30l-205 409c4 -55 6 -109 6 -166v-428h-60z" />
    <glyph glyph-name="uni041D" unicode="&#x41d;" horiz-adv-x="594" 
d="M519 700v-700h-60v323h-324v-323h-60v700h60v-320h324v320h60z" />
    <glyph glyph-name="uni041E" unicode="&#x41e;" horiz-adv-x="587" 
d="M294 -11c-169 0 -254 141 -254 361s85 361 254 361c168 0 253 -141 253 -361s-85 -361 -253 -361zM294 45c130 0 193 115 193 305s-63 305 -193 305s-194 -115 -194 -305s64 -305 194 -305z" />
    <glyph glyph-name="uni041F" unicode="&#x41f;" horiz-adv-x="594" 
d="M75 0v700h444v-700h-60v643h-324v-643h-60z" />
    <glyph glyph-name="uni0420" unicode="&#x420;" horiz-adv-x="519" 
d="M257 700c143 0 235 -72 235 -222s-92 -223 -235 -223h-122v-255h-60v700h182zM260 643h-125v-331h125c109 0 172 57 172 166c0 110 -62 165 -172 165z" />
    <glyph glyph-name="uni0421" unicode="&#x421;" horiz-adv-x="479" 
d="M306 -11c-147 0 -268 116 -267 356c1 232 119 366 277 366c48 0 92 -11 131 -35v-54c-38 22 -80 33 -128 33c-131 0 -219 -109 -220 -310c-1 -190 81 -300 215 -300c50 0 95 12 138 35v-57c-47 -24 -96 -34 -146 -34z" />
    <glyph glyph-name="uni0422" unicode="&#x422;" horiz-adv-x="468" 
d="M204 0v643h-193v57h446v-57h-193v-643h-60z" />
    <glyph glyph-name="uni0423" unicode="&#x423;" horiz-adv-x="497" 
d="M434 700h62l-201 -557c-39 -109 -82 -145 -141 -150c-30 -4 -50 -2 -82 7v56c29 -9 54 -11 74 -7c48 7 69 43 96 114l-240 537h60l207 -466z" />
    <glyph glyph-name="uni040E" unicode="&#x40e;" horiz-adv-x="497" 
d="M248 774c-46 0 -84 11 -117 33v53c36 -22 75 -32 117 -32s81 10 117 32v-53c-33 -22 -71 -33 -117 -33zM434 700h62l-201 -557c-39 -109 -82 -145 -141 -150c-30 -4 -50 -2 -82 7v56c29 -9 54 -11 74 -7c48 7 69 43 96 114l-240 537h60l207 -466z" />
    <glyph glyph-name="uni0424" unicode="&#x424;" horiz-adv-x="677" 
d="M309 -36v89c-180 13 -288 129 -288 297s108 284 288 297v89h59v-89c179 -13 287 -129 287 -297s-108 -284 -287 -297v-89h-59zM309 110v480c-154 -9 -228 -109 -228 -240s81 -231 228 -240zM368 110c154 9 227 109 227 240s-73 231 -227 240v-480z" />
    <glyph glyph-name="uni0425" unicode="&#x425;" horiz-adv-x="515" 
d="M1 0l224 362l-209 338h66l176 -286l176 286h65l-208 -338l223 -362h-67l-189 309l-190 -309h-67z" />
    <glyph glyph-name="uni0427" unicode="&#x427;" horiz-adv-x="552" 
d="M417 0v291c-51 -25 -106 -42 -177 -42c-124 2 -197 70 -197 194v257h60v-260c0 -92 56 -133 147 -134c68 -1 121 18 167 45v349h60v-700h-60z" />
    <glyph glyph-name="uni0426" unicode="&#x426;" horiz-adv-x="606" 
d="M528 -170l1 170h-454v700h60v-643h314v643h60v-643h76v-227h-57z" />
    <glyph glyph-name="uni0428" unicode="&#x428;" horiz-adv-x="865" 
d="M75 0v700h60v-643h268v643h59v-643h268v643h59v-700h-714z" />
    <glyph glyph-name="uni0429" unicode="&#x429;" horiz-adv-x="867" 
d="M789 -170l1 170h-715v700h60v-643h258v643h59v-643h258v643h59v-643h77v-227h-57z" />
    <glyph glyph-name="uni040F" unicode="&#x40f;" horiz-adv-x="584" 
d="M509 700v-700h-189v-170h-56v170h-189v700h60v-643h314v643h60z" />
    <glyph glyph-name="uni042C" unicode="&#x42c;" horiz-adv-x="519" 
d="M75 0v700h60v-269h123c139 0 235 -69 235 -215s-96 -216 -235 -216h-183zM135 57h126c107 0 172 53 172 159c0 105 -66 159 -172 159h-126v-318z" />
    <glyph glyph-name="uni042A" unicode="&#x42a;" horiz-adv-x="611" 
d="M167 0v643h-156v57h215v-269h123c139 0 235 -69 235 -215s-96 -216 -235 -216h-182zM226 57h126c107 0 172 53 172 159c0 105 -66 159 -172 159h-126v-318z" />
    <glyph glyph-name="uni042B" unicode="&#x42b;" horiz-adv-x="729" 
d="M75 0v700h60v-269h123c139 0 235 -69 235 -215s-96 -216 -235 -216h-183zM654 700v-700h-60v700h60zM135 57h126c107 0 172 53 172 159c0 105 -66 159 -172 159h-126v-318z" />
    <glyph glyph-name="uni0409" unicode="&#x409;" horiz-adv-x="894" 
d="M650 398c132 0 218 -66 218 -199s-86 -198 -218 -198l-188 -1v643h-229c-13 -291 -24 -522 -94 -604c-31 -37 -81 -54 -141 -39v51c41 -13 77 -1 100 29c54 72 64 286 79 620h344v-302h129zM653 57c100 0 155 49 155 142c0 92 -56 142 -155 142h-132v-284h132z" />
    <glyph glyph-name="uni040A" unicode="&#x40a;" horiz-adv-x="871" 
d="M627 398c133 0 218 -66 218 -199s-85 -198 -218 -198l-188 -1v341h-304v-341h-60v700h60v-302h304v302h60v-302h128zM630 57c100 0 155 49 155 142c0 92 -56 142 -155 142h-131v-284h131z" />
    <glyph glyph-name="uni0405" unicode="&#x405;" horiz-adv-x="473" 
d="M235 -11c-74 0 -132 12 -190 49v57c60 -36 115 -50 186 -50c95 0 157 46 157 128c0 183 -355 135 -355 358c0 117 93 180 207 180c62 0 113 -14 166 -46v-57c-52 32 -101 47 -162 47c-87 0 -151 -41 -151 -122c0 -174 355 -134 355 -356c0 -126 -93 -188 -213 -188z" />
    <glyph glyph-name="uni0404" unicode="&#x404;" horiz-adv-x="478" 
d="M39 345c1 242 116 366 276 366c50 0 93 -11 133 -35v-54c-39 22 -81 33 -130 33c-126 0 -209 -93 -217 -277h233v-56h-234c4 -187 83 -277 213 -277c52 0 97 12 140 35v-57c-47 -24 -97 -34 -148 -34c-153 0 -267 106 -266 356z" />
    <glyph glyph-name="uni042D" unicode="&#x42d;" horiz-adv-x="478" 
d="M173 -11c-51 0 -101 10 -148 34v57c43 -23 88 -35 140 -35c130 0 209 90 213 277h-234v56h233c-8 184 -91 277 -217 277c-49 0 -91 -11 -130 -33v54c40 24 83 35 133 35c160 0 275 -124 276 -366c1 -250 -113 -356 -266 -356z" />
    <glyph glyph-name="uni0406" unicode="&#x406;" horiz-adv-x="210" 
d="M135 700v-700h-60v700h60z" />
    <glyph glyph-name="uni0407" unicode="&#x407;" horiz-adv-x="210" 
d="M23 795c-23 0 -42 19 -42 41s19 42 42 42s41 -20 41 -42s-18 -41 -41 -41zM187 795c-22 0 -41 19 -41 41s19 42 41 42c23 0 42 -20 42 -42s-19 -41 -42 -41zM135 700v-700h-60v700h60z" />
    <glyph glyph-name="uni0408" unicode="&#x408;" horiz-adv-x="405" 
d="M151 -11c-46 0 -86 6 -132 28v57c48 -24 86 -29 125 -29c78 0 131 43 131 130v468h-164v57h223v-527c0 -126 -78 -184 -183 -184z" />
    <glyph glyph-name="uni040B" unicode="&#x40b;" horiz-adv-x="577" 
d="M385 491c92 0 151 -61 151 -162v-329h-60v322c0 76 -37 113 -103 113c-62 0 -102 -33 -125 -59v-376h-60v643h-177v57h447v-57h-210v-202c31 28 75 50 137 50z" />
    <glyph glyph-name="uni042E" unicode="&#x42e;" horiz-adv-x="792" 
d="M499 -12c-161 0 -243 130 -250 334h-114v-322h-60v700h60v-322h114c7 204 89 334 250 334c168 0 253 -142 253 -362s-85 -362 -253 -362zM499 45c130 0 193 115 193 305s-63 305 -193 305s-194 -115 -194 -305s64 -305 194 -305z" />
    <glyph glyph-name="uni042F" unicode="&#x42f;" horiz-adv-x="550" 
d="M263 700h211v-700h-59v283h-146c-7 0 -14 0 -20 1l-161 -284h-67l168 292c-93 25 -145 96 -145 199c0 142 98 209 219 209zM415 339v304h-155c-91 0 -156 -48 -156 -152c0 -102 65 -152 158 -152h153z" />
    <glyph glyph-name="uni0402" unicode="&#x402;" horiz-adv-x="575" 
d="M385 491c92 0 151 -61 151 -162v-217c0 -81 -46 -124 -107 -123c-21 0 -41 2 -59 8v53c14 -4 28 -6 43 -6c44 0 63 23 63 78v200c0 76 -37 113 -103 113c-62 0 -102 -33 -125 -59v-376h-60v643h-177v57h447v-57h-210v-202c31 28 75 50 137 50z" />
    <glyph glyph-name="uni0414.loclBGR" horiz-adv-x="635" 
d="M12 -170v227h62l210 643h66l210 -643h62v-227h-56v170h-497v-170h-57zM135 57h364l-182 572z" />
    <glyph glyph-name="uni041B.loclBGR" horiz-adv-x="532" 
d="M234 700h64l227 -700h-62l-176 550c-8 25 -15 51 -21 82c-6 -31 -13 -57 -21 -82l-176 -550h-62z" />
    <glyph glyph-name="uni0424.loclBGR" horiz-adv-x="745" 
d="M343 -103v93c-202 14 -306 170 -306 360s104 345 306 359v94h59v-94c202 -14 305 -169 305 -359s-103 -346 -305 -360v-93h-59zM343 47v606c-173 -14 -246 -149 -246 -303s73 -289 246 -303zM402 47c173 14 245 149 245 303s-72 288 -245 302v-605z" />
    <glyph glyph-name="uni0430" unicode="&#x430;" horiz-adv-x="436" 
d="M410 45c6 0 13 1 19 3v-47c-11 -3 -23 -5 -34 -5c-38 0 -65 16 -75 59c-34 -46 -86 -66 -142 -66c-79 0 -153 43 -153 144c0 104 80 155 189 155c31 0 64 -5 98 -14v50c0 64 -26 115 -120 115c-50 0 -95 -12 -138 -30v55c35 13 86 27 144 27c128 0 170 -73 170 -174v-226
c0 -34 17 -46 42 -46zM186 39c57 0 100 25 126 74v112c-31 9 -61 13 -89 13c-82 0 -140 -31 -140 -102c0 -63 43 -97 103 -97z" />
    <glyph glyph-name="uni0431" unicode="&#x431;" horiz-adv-x="475" 
d="M245 -11c-127 0 -203 92 -203 277c0 173 48 261 122 314c69 49 166 72 231 131v-63c-58 -48 -143 -72 -202 -115c-49 -36 -80 -94 -89 -168c27 56 78 95 151 95c111 0 182 -93 182 -235c0 -146 -66 -236 -192 -236zM241 43c100 0 140 76 140 181s-39 182 -134 182
c-88 0 -137 -72 -147 -169c0 -114 46 -194 141 -194z" />
    <glyph glyph-name="uni0432" unicode="&#x432;" horiz-adv-x="441" 
d="M61 0v480h183c88 0 147 -46 147 -127c0 -53 -28 -93 -72 -108c46 -12 89 -49 89 -115c0 -82 -57 -130 -154 -130h-193zM118 268h122c58 0 94 25 94 80c0 58 -42 82 -95 82h-121v-162zM118 50h129c59 0 104 21 104 83c0 67 -49 85 -101 85h-132v-168z" />
    <glyph glyph-name="uni0433" unicode="&#x433;" horiz-adv-x="358" 
d="M61 0v480h284v-53h-227v-427h-57z" />
    <glyph glyph-name="uni0453" unicode="&#x453;" horiz-adv-x="358" 
d="M137 553l90 135h68l-99 -135h-59zM61 0v480h284v-53h-227v-427h-57z" />
    <glyph glyph-name="uni0491" unicode="&#x491;" horiz-adv-x="358" 
d="M289 600h56v-173h-227v-427h-57v480h228v120z" />
    <glyph glyph-name="uni0434" unicode="&#x434;" horiz-adv-x="509" 
d="M7 -133v184h59c41 109 59 239 57 429h301v-429h66v-184h-55v133h-373v-133h-55zM128 51h240v378h-190c-3 -164 -20 -279 -50 -378z" />
    <glyph glyph-name="uni0435" unicode="&#x435;" horiz-adv-x="442" 
d="M261 -11c-149 0 -224 98 -224 251c0 150 72 251 195 251c135 0 192 -119 176 -279h-312c8 -118 68 -170 168 -170c37 0 78 7 116 26v-53c-38 -19 -80 -26 -119 -26zM95 262h260c4 108 -36 175 -123 175c-86 0 -132 -69 -137 -175z" />
    <glyph glyph-name="uni0451" unicode="&#x451;" horiz-adv-x="442" 
d="M147 575c-23 0 -42 19 -42 41s19 42 42 42s41 -20 41 -42s-18 -41 -41 -41zM311 575c-22 0 -41 19 -41 41s19 42 41 42c23 0 42 -20 42 -42s-19 -41 -42 -41zM261 -11c-149 0 -224 98 -224 251c0 150 72 251 195 251c135 0 192 -119 176 -279h-312
c8 -118 68 -170 168 -170c37 0 78 7 116 26v-53c-38 -19 -80 -26 -119 -26zM95 262h260c4 108 -36 175 -123 175c-86 0 -132 -69 -137 -175z" />
    <glyph glyph-name="uni0436" unicode="&#x436;" horiz-adv-x="605" 
d="M438 244l158 -244h-67l-138 219h-60v-219h-57v219h-60l-138 -219h-67l158 244l-148 236h66l127 -208h62v208h57v-208h62l127 208h66z" />
    <glyph glyph-name="uni0437" unicode="&#x437;" horiz-adv-x="385" 
d="M171 -11c-52 0 -97 6 -143 29v54c43 -23 91 -31 136 -31c60 0 128 21 128 91c0 66 -63 86 -107 86h-72v53h72c49 0 93 27 93 81c0 60 -48 87 -113 87c-40 0 -85 -9 -129 -30v53c47 22 89 30 135 30c100 0 164 -51 164 -135c0 -59 -35 -100 -82 -112
c46 -12 95 -53 95 -119c0 -92 -78 -137 -177 -137z" />
    <glyph glyph-name="uni0438" unicode="&#x438;" horiz-adv-x="473" 
d="M61 0v480h57v-274c0 -39 -1 -76 -5 -112l244 386h54v-480h-56v274c0 39 1 76 4 112l-243 -386h-55z" />
    <glyph glyph-name="uni0439" unicode="&#x439;" horiz-adv-x="473" 
d="M236 552c-43 0 -79 9 -113 30v54c37 -22 74 -32 113 -32c40 0 77 10 114 32v-54c-34 -21 -70 -30 -114 -30zM61 0v480h57v-274c0 -39 -1 -76 -5 -112l244 386h54v-480h-56v274c0 39 1 76 4 112l-243 -386h-55z" />
    <glyph glyph-name="uni043A" unicode="&#x43a;" horiz-adv-x="418" 
d="M61 0v480h57v-208h88l134 208h65l-154 -236l164 -244h-66l-145 219h-86v-219h-57z" />
    <glyph glyph-name="uni045C" unicode="&#x45c;" horiz-adv-x="418" 
d="M160 553l90 135h68l-99 -135h-59zM61 0v480h57v-208h88l134 208h65l-154 -236l164 -244h-66l-145 219h-86v-219h-57z" />
    <glyph glyph-name="uni043B" unicode="&#x43b;" horiz-adv-x="474" 
d="M6 0v48c34 -8 55 -2 72 15c41 43 48 187 56 417h279v-480h-57v427h-167c-9 -207 -16 -347 -71 -403c-29 -29 -66 -35 -112 -24z" />
    <glyph glyph-name="uni043C" unicode="&#x43c;" horiz-adv-x="563" 
d="M61 0v480h62l158 -287l159 287h61v-480h-54v303c0 33 2 64 7 96l-151 -273h-43l-151 273c4 -32 6 -63 6 -96v-303h-54z" />
    <glyph glyph-name="uni043D" unicode="&#x43d;" horiz-adv-x="466" 
d="M61 0v480h57v-214h230v214h57v-480h-57v214h-230v-214h-57z" />
    <glyph glyph-name="uni043E" unicode="&#x43e;" horiz-adv-x="465" 
d="M232 491c126 0 195 -92 195 -251c0 -157 -69 -251 -195 -251c-125 0 -195 94 -195 251s70 251 195 251zM232 439c-92 0 -137 -76 -137 -199s45 -198 137 -198c93 0 137 75 137 198s-44 199 -137 199z" />
    <glyph glyph-name="uni043F" unicode="&#x43f;" horiz-adv-x="466" 
d="M61 0v480h344v-480h-57v429h-230v-429h-57z" />
    <glyph glyph-name="uni0440" unicode="&#x440;" horiz-adv-x="476" 
d="M439 240c0 -141 -60 -251 -184 -251c-71 0 -114 40 -137 81v-290h-57v700h52v-77c24 48 71 88 142 88c124 0 184 -110 184 -251zM118 337v-194c24 -64 67 -102 128 -102c94 0 135 82 135 199s-41 199 -135 199c-61 0 -104 -38 -128 -102z" />
    <glyph glyph-name="uni0441" unicode="&#x441;" horiz-adv-x="382" 
d="M245 -11c-138 0 -208 99 -208 251s80 251 208 251c39 0 72 -8 104 -26v-53c-31 18 -61 27 -97 27c-101 0 -157 -79 -157 -199c0 -122 48 -198 150 -198c44 0 80 11 109 25v-52c-27 -15 -67 -26 -109 -26z" />
    <glyph glyph-name="uni0442" unicode="&#x442;" horiz-adv-x="367" 
d="M155 0v429h-141v51h340v-51h-142v-429h-57z" />
    <glyph glyph-name="uni0443" unicode="&#x443;" horiz-adv-x="433" 
d="M59 -220v51c29 -4 50 0 68 13c23 17 39 47 55 96l19 58l-192 482h59l159 -409l131 409h61l-184 -554c-20 -59 -42 -101 -76 -124c-26 -20 -58 -28 -100 -22z" />
    <glyph glyph-name="uni045E" unicode="&#x45e;" horiz-adv-x="433" 
d="M214 554c-46 0 -84 11 -117 33v53c36 -22 75 -32 117 -32s81 10 117 32v-53c-33 -22 -71 -33 -117 -33zM59 -220v51c29 -4 50 0 68 13c23 17 39 47 55 96l19 58l-192 482h59l159 -409l131 409h61l-184 -554c-20 -59 -42 -101 -76 -124c-26 -20 -58 -28 -100 -22z" />
    <glyph glyph-name="uni0444" unicode="&#x444;" horiz-adv-x="587" 
d="M265 -220v210c-134 11 -230 101 -230 250s96 239 230 250v210h57v-210c135 -11 230 -101 230 -250s-95 -239 -230 -250v-210h-57zM265 41v398c-109 -9 -173 -81 -173 -199s64 -190 173 -199zM322 41c109 9 173 81 173 199s-64 190 -173 199v-398z" />
    <glyph glyph-name="uni0445" unicode="&#x445;" horiz-adv-x="409" 
d="M8 0l165 248l-155 232h65l108 -164l14 -24c5 9 8 14 14 24l108 164h64l-153 -232l163 -248h-64l-110 165c-10 15 -15 26 -22 42c-7 -16 -12 -27 -22 -42l-110 -165h-65z" />
    <glyph glyph-name="uni0447" unicode="&#x447;" horiz-adv-x="435" 
d="M317 0v187c-36 -18 -74 -26 -122 -26c-92 0 -158 48 -158 151v168h56v-164c0 -72 47 -103 111 -103c41 0 77 8 113 26v241h56v-480h-56z" />
    <glyph glyph-name="uni0446" unicode="&#x446;" horiz-adv-x="480" 
d="M406 -133v133h-345v480h57v-427h220v427h57v-427h66v-186h-55z" />
    <glyph glyph-name="uni0448" unicode="&#x448;" horiz-adv-x="659" 
d="M61 0v480h57v-427h183v427h57v-427h183v427h57v-480h-537z" />
    <glyph glyph-name="uni0449" unicode="&#x449;" horiz-adv-x="666" 
d="M592 -133v133h-531v480h57v-427h175v427h57v-427h175v427h56v-427h66v-186h-55z" />
    <glyph glyph-name="uni045F" unicode="&#x45f;" horiz-adv-x="456" 
d="M395 480v-480h-139v-133h-56v133h-139v480h57v-427h220v427h57z" />
    <glyph glyph-name="uni044C" unicode="&#x44c;" horiz-adv-x="430" 
d="M61 0v480h57v-175h119c115 0 164 -73 164 -152s-49 -153 -164 -153h-176zM118 51h112c79 0 114 42 114 102c0 59 -35 101 -114 101h-112v-203z" />
    <glyph glyph-name="uni044A" unicode="&#x44a;" horiz-adv-x="509" 
d="M141 0v430h-127v50h184v-175h119c115 0 164 -73 164 -152s-49 -153 -164 -153h-176zM198 51h112c78 0 114 42 114 102c0 59 -36 101 -114 101h-112v-203z" />
    <glyph glyph-name="uni044B" unicode="&#x44b;" horiz-adv-x="611" 
d="M61 0v480h57v-175h119c115 0 164 -73 164 -152s-49 -153 -164 -153h-176zM493 0v480h57v-480h-57zM118 51h112c79 0 114 42 114 102c0 59 -35 101 -114 101h-112v-203z" />
    <glyph glyph-name="uni0459" unicode="&#x459;" horiz-adv-x="702" 
d="M520 285c106 0 155 -63 155 -142s-49 -143 -155 -143h-174v427h-157c-9 -207 -16 -347 -71 -403c-29 -29 -66 -35 -112 -24v48c34 -8 55 -2 72 15c41 43 48 187 56 417h269v-195h117zM514 51c68 0 103 32 103 92c0 59 -35 91 -103 91h-111v-183h111z" />
    <glyph glyph-name="uni045A" unicode="&#x45a;" horiz-adv-x="694" 
d="M512 285c105 0 154 -63 154 -142s-49 -143 -154 -143h-174v234h-220v-234h-57v480h57v-195h220v195h57v-195h117zM505 51c69 0 104 32 104 92c0 59 -35 91 -104 91h-110v-183h110z" />
    <glyph glyph-name="uni0455" unicode="&#x455;" horiz-adv-x="378" 
d="M194 491c46 0 87 -11 129 -33v-54c-40 24 -81 36 -125 36c-61 0 -104 -29 -104 -79c0 -121 257 -73 257 -241c0 -89 -74 -131 -163 -131c-60 0 -111 12 -150 37v56c41 -27 91 -41 147 -41c65 0 109 26 109 78c0 122 -258 71 -258 241c0 80 64 131 158 131z" />
    <glyph glyph-name="uni0454" unicode="&#x454;" horiz-adv-x="393" 
d="M359 465v-53c-31 18 -61 27 -101 27c-96 0 -155 -63 -162 -173h188v-52h-188c6 -112 61 -172 159 -172c44 0 80 11 109 25v-52c-27 -15 -67 -26 -109 -26c-141 0 -219 92 -219 251s84 251 216 251c41 0 74 -8 107 -26z" />
    <glyph glyph-name="uni044D" unicode="&#x44d;" horiz-adv-x="392" 
d="M141 491c131 0 215 -92 215 -251s-77 -251 -219 -251c-42 0 -82 11 -109 26v52c30 -14 65 -25 109 -25c98 0 153 60 160 172h-189v52h189c-8 110 -67 173 -163 173c-40 0 -70 -9 -101 -27v53c33 18 66 26 108 26z" />
    <glyph glyph-name="uni0456" unicode="&#x456;" horiz-adv-x="184" 
d="M92 588c-21 0 -39 12 -39 38c0 24 18 38 39 38s39 -14 39 -38c0 -26 -18 -38 -39 -38zM64 0v480h56v-480h-56z" />
    <glyph glyph-name="uni0457" unicode="&#x457;" horiz-adv-x="184" 
d="M9 575c-23 0 -42 19 -42 41s19 42 42 42s41 -20 41 -42s-18 -41 -41 -41zM173 575c-22 0 -41 19 -41 41s19 42 41 42c23 0 42 -20 42 -42s-19 -41 -42 -41zM64 0v480h56v-480h-56z" />
    <glyph glyph-name="uni0458" unicode="&#x458;" horiz-adv-x="190" 
d="M98 588c-21 0 -39 12 -39 38c0 24 18 38 39 38s39 -14 39 -38c0 -26 -18 -38 -39 -38zM19 -231c-20 0 -41 2 -59 9v50c14 -5 29 -7 43 -7c45 0 67 22 67 81v578h56v-588c0 -83 -44 -124 -107 -123z" />
    <glyph glyph-name="uni045B" unicode="&#x45b;" horiz-adv-x="463" 
d="M255 491c89 0 150 -61 150 -165v-326h-57v323c0 79 -42 116 -105 116s-107 -44 -125 -98v-341h-57v573h-60v44h60v83h57v-83h175v-44h-175v-156c26 45 73 74 137 74z" />
    <glyph glyph-name="uni044E" unicode="&#x44e;" horiz-adv-x="635" 
d="M403 491c126 0 195 -92 195 -251c0 -157 -69 -251 -195 -251c-117 0 -183 84 -191 225h-94v-214h-57v480h57v-214h94c8 141 74 225 191 225zM403 42c92 0 137 75 137 198s-45 199 -137 199s-137 -76 -137 -199s45 -198 137 -198z" />
    <glyph glyph-name="uni044F" unicode="&#x44f;" horiz-adv-x="436" 
d="M18 0l136 183c-74 17 -113 75 -113 146c0 84 55 151 159 151h175v-480h-57v178h-88c-5 0 -10 0 -15 1l-132 -179h-65zM204 229h114v200h-114c-69 0 -107 -39 -107 -100s38 -100 107 -100z" />
    <glyph glyph-name="uni0452" unicode="&#x452;" horiz-adv-x="463" 
d="M255 491c89 0 150 -61 150 -165v-434c0 -81 -46 -124 -107 -123c-21 0 -41 2 -59 8v51c14 -5 28 -7 43 -7c44 0 66 23 66 81v421c0 79 -42 116 -105 116s-107 -44 -125 -98v-341h-57v573h-60v44h60v83h57v-83h175v-44h-175v-156c26 45 73 74 137 74z" />
    <glyph glyph-name="uni0432.loclBGR" horiz-adv-x="474" 
d="M297 392c93 -5 142 -87 142 -190c0 -116 -63 -213 -189 -213c-133 0 -194 85 -194 225v293c0 124 66 204 177 204c98 0 158 -71 158 -156c0 -55 -21 -119 -94 -163zM112 507l1 -137l81 25c113 31 141 98 141 160c0 58 -35 104 -102 104c-75 0 -122 -57 -121 -152zM250 41
c92 0 133 66 133 161c0 110 -60 180 -186 141l-84 -27v-102c1 -108 40 -173 137 -173z" />
    <glyph glyph-name="uni0433.loclBGR" horiz-adv-x="376" 
d="M196 -11c-89 0 -167 42 -167 131c0 185 253 100 253 240c0 49 -40 80 -103 80c-46 0 -87 -14 -127 -37v54c41 22 84 34 137 34c90 0 151 -49 151 -133c0 -185 -254 -100 -254 -239c0 -52 49 -78 112 -78c54 0 99 15 140 42v-56c-38 -25 -85 -38 -142 -38z" />
    <glyph glyph-name="uni0434.loclBGR" horiz-adv-x="476" 
d="M205 -231c-46 0 -87 7 -125 26v53c37 -19 78 -26 122 -26c104 0 156 57 156 155v94c-23 -42 -66 -82 -137 -82c-124 0 -184 110 -184 251s60 251 184 251c71 0 116 -38 142 -91v80h52v-503c0 -113 -64 -208 -210 -208zM230 41c61 0 104 38 128 102v194
c-24 65 -67 102 -128 102c-94 0 -135 -82 -135 -199s41 -199 135 -199z" />
    <glyph glyph-name="uni0436.loclBGR" horiz-adv-x="605" 
d="M9 0l158 244l-148 236h66l127 -208h62v428h57v-428h62l127 208h66l-148 -236l158 -244h-67l-138 219h-60v-219h-57v219h-60l-138 -219h-67z" />
    <glyph glyph-name="uni0438.loclBGR" horiz-adv-x="463" 
d="M402 480v-480h-52v69c-25 -47 -74 -80 -142 -80c-89 0 -150 61 -150 165v326h57v-323c0 -79 42 -116 105 -116s107 44 125 98v341h57z" />
    <glyph glyph-name="uni0439.loclBGR" horiz-adv-x="462" 
d="M229 552c-43 0 -79 9 -113 30v54c37 -22 74 -32 113 -32c40 0 77 10 114 32v-54c-34 -21 -70 -30 -114 -30zM402 480v-480h-52v69c-25 -47 -74 -80 -142 -80c-89 0 -150 61 -150 165v326h57v-323c0 -79 42 -116 105 -116s107 44 125 98v341h57z" />
    <glyph glyph-name="uni043A.loclBGR" horiz-adv-x="416" 
d="M61 0v700h57v-428h78l143 208h66l-164 -236l173 -244h-67l-153 219h-76v-219h-57z" />
    <glyph glyph-name="uni043B.loclBGR" horiz-adv-x="424" 
d="M182 480h60l168 -480h-62l-119 352c-7 23 -12 41 -17 68c-5 -27 -10 -45 -17 -68l-119 -352h-62z" />
    <glyph glyph-name="uni043F.loclBGR" horiz-adv-x="463" 
d="M61 0v480h52v-69c25 47 74 80 142 80c89 0 150 -61 150 -165v-326h-57v323c0 79 -42 116 -105 116s-107 -44 -125 -98v-341h-57z" />
    <glyph glyph-name="uni0442.loclBGR" horiz-adv-x="703" 
d="M500 491c96 0 145 -68 145 -162v-329h-57v326c0 73 -32 113 -94 113c-54 0 -88 -37 -113 -84v-355h-56v326c0 73 -33 113 -93 113c-54 0 -91 -38 -114 -90v-349h-57v480h52v-65c31 51 73 76 127 76c60 0 101 -30 122 -78c36 54 81 78 138 78z" />
    <glyph glyph-name="uni0446.loclBGR" horiz-adv-x="485" 
d="M418 -133v130c-46 6 -61 24 -66 70c-27 -46 -77 -78 -145 -78c-88 0 -149 61 -149 165v326h56v-323c0 -79 42 -116 105 -116s107 44 125 98v341h57v-391c0 -32 15 -44 46 -44h24v-178h-53z" />
    <glyph glyph-name="uni0448.loclBGR" horiz-adv-x="703" 
d="M203 -11c-96 0 -145 68 -145 162v329h57v-326c0 -73 32 -113 94 -113c54 0 88 37 113 84v355h56v-326c0 -73 33 -113 93 -113c54 0 91 38 114 90v349h57v-480h-52v65c-31 -51 -73 -76 -127 -76c-60 0 -101 30 -122 78c-36 -54 -81 -78 -138 -78z" />
    <glyph glyph-name="uni0449.loclBGR" horiz-adv-x="725" 
d="M658 -133v130c-38 2 -61 24 -68 66c-31 -49 -73 -74 -127 -74c-61 0 -102 30 -123 78c-35 -54 -81 -78 -138 -78c-95 0 -144 68 -144 162v329h56v-326c0 -73 33 -113 94 -113c55 0 90 36 114 86c-1 8 -1 15 -1 24v329h57v-326c0 -73 32 -113 92 -113c54 0 92 38 114 90
v349h57v-386c0 -36 17 -49 46 -49h24v-178h-53z" />
    <glyph glyph-name="uni044E.loclBGR" horiz-adv-x="635" 
d="M403 491c126 0 195 -92 195 -251c0 -157 -69 -251 -195 -251c-117 0 -183 84 -191 225h-94v-214h-57v700h57v-434h94c8 141 74 225 191 225zM403 42c92 0 137 75 137 198s-45 199 -137 199s-137 -76 -137 -199s45 -198 137 -198z" />
    <glyph glyph-name="uni0430.ss01" horiz-adv-x="476" 
d="M221 -11c-124 0 -184 110 -184 251s60 251 184 251c71 0 116 -38 142 -91v80h52v-480h-52v80c-26 -53 -71 -91 -142 -91zM230 41c61 0 104 37 128 102v194c-24 65 -67 102 -128 102c-94 0 -135 -82 -135 -199s41 -199 135 -199z" />
    <glyph glyph-name="uni0437.ss01" horiz-adv-x="355" 
d="M126 -231c-46 0 -78 6 -110 21v54c34 -16 69 -23 106 -23c88 0 154 60 154 161c0 104 -50 174 -144 153l-47 -11v53l53 12c66 15 102 65 102 130c0 73 -48 120 -118 120c-28 0 -64 -7 -99 -26v54c39 20 72 25 108 24c90 1 165 -62 165 -166c0 -60 -22 -118 -92 -152
c76 -10 129 -84 129 -191c0 -121 -80 -213 -207 -213z" />
    <glyph glyph-name="uni0443.ss01" horiz-adv-x="462" 
d="M201 -231c-49 0 -90 7 -128 26v53c37 -19 78 -26 125 -26c97 0 146 54 146 149v92c-26 -45 -73 -74 -137 -74c-88 0 -149 61 -149 165v326h56v-323c0 -79 42 -116 105 -116s107 44 125 98v341h57v-509c0 -110 -61 -202 -200 -202z" />
    <glyph glyph-name="zero" unicode="0" horiz-adv-x="537" 
d="M269 -11c-160 0 -224 150 -224 351s64 351 224 351c159 0 223 -150 223 -351s-64 -351 -223 -351zM269 45c113 0 163 107 163 295c0 187 -50 295 -163 295c-114 0 -164 -108 -164 -295c0 -188 50 -295 164 -295z" />
    <glyph glyph-name="one" unicode="1" horiz-adv-x="354" 
d="M36 0v57h129v559l-125 -54v56l141 62h43v-623h118v-57h-306z" />
    <glyph glyph-name="two" unicode="2" horiz-adv-x="445" 
d="M217 691c108 0 184 -66 184 -171c0 -114 -78 -177 -155 -241c-73 -60 -149 -120 -151 -223l311 1v-57h-372v37c0 137 88 211 170 279c72 60 138 116 138 204c0 71 -56 116 -129 116c-53 0 -105 -15 -161 -53v60c50 31 106 48 165 48z" />
    <glyph glyph-name="three" unicode="3" horiz-adv-x="449" 
d="M193 -11c-65 0 -109 10 -155 32v56c48 -23 92 -33 153 -32c85 0 160 47 160 140c0 95 -69 138 -146 138h-75v56h75c72 0 122 58 122 127c0 76 -51 130 -150 130c-47 0 -88 -11 -132 -32v56c43 20 86 31 140 31c123 0 199 -78 199 -184c0 -68 -40 -132 -101 -153
c61 -15 125 -73 125 -172c0 -124 -101 -193 -215 -193z" />
    <glyph glyph-name="four" unicode="4" horiz-adv-x="501" 
d="M332 0v159h-317v44l315 477h60v-466h89v-55h-89v-159h-58zM86 214h246v368z" />
    <glyph glyph-name="five" unicode="5" horiz-adv-x="448" 
d="M198 -11c-67 0 -115 13 -154 34v57c41 -22 89 -36 146 -36c96 0 164 56 164 156c0 97 -66 148 -160 148c-49 0 -91 -9 -136 -27l18 359h305v-57h-251l-12 -235c32 10 58 13 90 13c123 0 206 -75 206 -201c0 -129 -90 -211 -216 -211z" />
    <glyph glyph-name="six" unicode="6" horiz-adv-x="497" 
d="M268 418c108 0 197 -68 197 -210c0 -129 -73 -219 -199 -219c-150 0 -221 133 -221 316c0 266 97 386 251 386c43 0 84 -11 123 -33v-56c-37 24 -79 34 -121 34c-126 0 -186 -103 -192 -287c43 42 94 69 162 69zM265 45c96 0 140 67 140 160c0 106 -57 158 -139 158
c-64 0 -114 -27 -161 -78c5 -145 56 -240 160 -240z" />
    <glyph glyph-name="seven" unicode="7" horiz-adv-x="414" 
d="M394 680v-53l-213 -627h-60l212 623h-316v57h377z" />
    <glyph glyph-name="eight" unicode="8" horiz-adv-x="515" 
d="M258 -11c-145 0 -217 87 -217 182c0 86 51 155 119 201c-54 33 -94 78 -94 153c0 81 62 166 192 166c122 0 192 -80 192 -172c0 -67 -39 -130 -99 -178c67 -34 124 -80 124 -173c0 -85 -63 -179 -217 -179zM303 365c47 36 88 91 88 154c0 67 -49 117 -133 117
c-87 0 -133 -53 -133 -115c0 -91 91 -119 178 -156zM258 45c106 0 157 56 157 124c0 103 -113 130 -209 177c-62 -43 -105 -99 -105 -171c0 -76 57 -130 157 -130z" />
    <glyph glyph-name="nine" unicode="9" horiz-adv-x="496" 
d="M207 -11c-43 0 -84 11 -123 33v56c37 -24 79 -34 121 -34c120 0 179 103 186 287c-44 -42 -95 -69 -162 -69c-109 0 -198 68 -198 210c0 129 74 219 199 219c150 0 221 -133 221 -316c0 -266 -97 -386 -244 -386zM231 317c64 0 113 27 161 78c-5 145 -57 240 -161 240
c-95 0 -140 -67 -140 -160c0 -106 57 -158 140 -158z" />
    <glyph glyph-name="zero.osf" horiz-adv-x="517" 
d="M259 -11c-145 0 -219 117 -219 271s74 271 219 271c144 0 218 -117 218 -271s-74 -271 -218 -271zM259 45c107 0 158 88 158 215s-51 215 -158 215c-108 0 -159 -88 -159 -215s51 -215 159 -215z" />
    <glyph glyph-name="one.osf" horiz-adv-x="354" 
d="M42 0v57h122v399l-125 -54v56l142 62h43v-463h113v-57h-295z" />
    <glyph glyph-name="two.osf" horiz-adv-x="426" 
d="M35 0v37c0 110 97 162 177 214c59 37 111 75 111 136c0 54 -43 89 -113 89c-53 0 -102 -15 -160 -53v60c51 31 105 48 165 48c97 0 167 -54 167 -145c0 -86 -72 -138 -143 -184c-68 -44 -141 -84 -143 -146l291 1v-57h-352z" />
    <glyph glyph-name="three.osf" horiz-adv-x="438" 
d="M187 -171c-58 0 -105 10 -155 36v56c49 -26 95 -36 155 -36c94 0 157 53 157 143c0 99 -76 135 -138 135h-78v57l72 -1c72 -1 116 60 116 126c0 83 -53 131 -144 131c-45 0 -89 -12 -133 -36v58c43 22 91 33 143 33c119 0 191 -76 191 -181c0 -69 -38 -138 -97 -157
c57 -17 126 -65 126 -168c0 -120 -92 -196 -215 -196z" />
    <glyph glyph-name="four.osf" horiz-adv-x="501" 
d="M334 -160v159h-316v44l315 477h59v-466h89v-55h-89v-159h-58zM89 54h245v368z" />
    <glyph glyph-name="five.osf" horiz-adv-x="436" 
d="M192 -171c-67 0 -115 13 -154 34v57c40 -22 89 -36 146 -36c96 0 164 56 164 156c0 97 -66 148 -160 148c-49 0 -91 -9 -136 -27l18 359h304v-57h-250l-13 -235c33 10 58 13 91 13c122 0 206 -75 206 -201c0 -129 -91 -211 -216 -211z" />
    <glyph glyph-name="six.osf" horiz-adv-x="495" 
d="M267 418c108 0 197 -68 197 -210c0 -129 -73 -219 -199 -219c-150 0 -221 133 -221 316c0 266 97 386 251 386c43 0 84 -11 123 -33v-56c-37 24 -79 34 -121 34c-126 0 -186 -103 -192 -287c43 42 94 69 162 69zM264 45c96 0 140 67 140 160c0 106 -57 158 -139 158
c-64 0 -114 -27 -161 -78c5 -145 56 -240 160 -240z" />
    <glyph glyph-name="seven.osf" horiz-adv-x="405" 
d="M389 520v-53l-220 -627h-60l218 623h-315v57h377z" />
    <glyph glyph-name="eight.osf" 
d="M257 -11c-146 0 -217 87 -217 182c0 86 51 155 118 201c-53 33 -94 78 -94 153c0 81 63 166 193 166c122 0 192 -80 192 -172c0 -67 -40 -130 -99 -178c67 -34 123 -80 123 -173c0 -85 -62 -179 -216 -179zM297 367c49 35 93 88 93 152c0 67 -49 117 -133 117
c-88 0 -133 -53 -133 -115c0 -90 88 -118 173 -154zM257 45c105 0 157 56 157 124c0 102 -110 129 -205 175c-63 -43 -110 -97 -110 -169c0 -76 58 -130 158 -130z" />
    <glyph glyph-name="nine.osf" horiz-adv-x="488" 
d="M202 -171c-43 0 -83 11 -122 33v56c37 -24 78 -34 120 -34c121 0 180 103 186 287c-43 -42 -94 -69 -162 -69c-108 0 -197 68 -197 210c0 129 73 219 199 219c150 0 221 -133 221 -316c0 -266 -97 -386 -245 -386zM226 157c64 0 114 27 161 78c-5 145 -56 240 -160 240
c-96 0 -140 -67 -140 -160c0 -106 57 -158 139 -158z" />
    <glyph glyph-name="zero.sinf" horiz-adv-x="367" 
d="M183 -128c-106 0 -153 87 -153 212c0 128 47 213 153 213c107 0 154 -85 154 -213c0 -125 -47 -212 -154 -212zM183 -81c67 0 104 55 104 165c0 113 -37 166 -104 166c-66 0 -103 -53 -103 -166c0 -110 37 -165 103 -165z" />
    <glyph glyph-name="one.sinf" horiz-adv-x="249" 
d="M23 -117v47h86v302l-76 -35v47l91 42h35v-356h77v-47h-213z" />
    <glyph glyph-name="two.sinf" horiz-adv-x="295" 
d="M146 297c73 0 119 -44 119 -110s-48 -103 -96 -139c-45 -34 -89 -66 -93 -118h191v-47h-242v29c0 91 66 131 118 173c38 28 72 55 72 102c0 38 -27 63 -75 63c-37 0 -68 -8 -106 -32v48c35 22 68 31 112 31z" />
    <glyph glyph-name="three.sinf" horiz-adv-x="303" 
d="M135 -128c-44 0 -79 8 -110 22v46c31 -14 65 -22 106 -22c54 0 97 24 97 76s-42 72 -93 72h-40v47h40c51 0 77 28 77 67c0 46 -33 70 -88 70c-35 0 -63 -8 -93 -23v47c29 15 58 23 100 23c78 0 129 -43 129 -113c0 -42 -26 -79 -62 -91c35 -11 78 -43 78 -105
c0 -76 -66 -116 -141 -116z" />
    <glyph glyph-name="four.sinf" horiz-adv-x="337" 
d="M213 -117v81h-198v42l193 280h54v-276h57v-46h-57v-81h-49zM70 10h143v203z" />
    <glyph glyph-name="five.sinf" horiz-adv-x="296" 
d="M130 -128c-39 0 -73 7 -102 23v46c30 -15 61 -23 98 -23c51 0 96 26 96 87c0 59 -43 84 -99 84c-26 0 -55 -5 -83 -15l12 212h200v-48h-154l-7 -113c17 5 34 7 50 7c69 -1 131 -40 131 -127c0 -88 -69 -133 -142 -133z" />
    <glyph glyph-name="six.sinf" horiz-adv-x="333" 
d="M181 133c79 0 129 -49 129 -126c0 -73 -51 -135 -134 -135c-98 0 -147 70 -147 194c0 158 69 231 173 231c31 0 59 -7 82 -21v-46c-22 13 -49 20 -79 20c-77 0 -118 -56 -124 -152c29 24 61 35 100 35zM175 -81c52 0 85 35 85 87c0 56 -32 81 -81 81
c-35 0 -70 -12 -99 -40c1 -84 32 -128 95 -128z" />
    <glyph glyph-name="seven.sinf" horiz-adv-x="277" 
d="M68 -117l142 355h-196v48h247v-46l-142 -357h-51z" />
    <glyph glyph-name="eight.sinf" horiz-adv-x="332" 
d="M168 -128c-91 0 -140 49 -140 116c0 54 31 91 65 118c-29 20 -51 46 -51 88c0 56 48 103 124 103c83 0 123 -51 123 -108c0 -39 -21 -73 -54 -103c38 -21 69 -48 69 -100c0 -58 -43 -114 -136 -114zM195 105c27 24 46 52 46 84c0 35 -25 63 -75 63c-47 0 -75 -25 -75 -59
c0 -49 53 -67 104 -88zM168 -82c56 0 87 28 87 68c0 53 -67 70 -123 97c-35 -25 -55 -53 -55 -92c0 -43 33 -73 91 -73z" />
    <glyph glyph-name="nine.sinf" horiz-adv-x="333" 
d="M130 -128c-30 0 -58 7 -81 21v46c22 -13 49 -21 79 -21c77 0 117 57 123 156c-28 -24 -61 -36 -99 -36c-80 0 -130 49 -130 127c0 72 47 132 133 132c100 0 148 -81 148 -192c0 -160 -69 -233 -173 -233zM154 84c35 0 69 13 98 41c-5 83 -40 125 -97 125
c-53 0 -83 -33 -83 -85c0 -55 32 -81 82 -81z" />
    <glyph glyph-name="zero.tf" 
d="M257 -11c-160 0 -224 150 -224 351s64 351 224 351c159 0 223 -150 223 -351s-64 -351 -223 -351zM257 45c113 0 163 107 163 295c0 187 -50 295 -163 295c-114 0 -164 -108 -164 -295c0 -188 50 -295 164 -295z" />
    <glyph glyph-name="one.tf" 
d="M44 0v57h202v559l-162 -69v56l179 77h43v-623h178v-57h-440z" />
    <glyph glyph-name="two.tf" 
d="M247 691c134 0 205 -75 205 -177c0 -113 -93 -181 -181 -249c-78 -60 -156 -120 -159 -208h345v-57h-406v37c0 130 99 205 189 275c78 61 153 118 153 203c0 66 -51 121 -150 121c-66 0 -123 -24 -174 -63v62c48 34 111 56 178 56z" />
    <glyph glyph-name="three.tf" 
d="M231 -11c-72 0 -127 14 -176 43v56c53 -29 103 -43 174 -43c101 0 172 47 172 140c0 102 -68 138 -160 138h-91v56h89c97 0 135 58 135 125c0 80 -59 132 -153 132c-66 0 -113 -18 -162 -45v56c45 26 93 44 169 44c124 0 203 -74 203 -182c0 -70 -36 -137 -99 -156
c61 -17 126 -65 126 -171c0 -124 -98 -193 -227 -193z" />
    <glyph glyph-name="four.tf" 
d="M341 0v159h-323v44l327 477h54v-466h89v-55h-89v-159h-58zM89 214h252v364z" />
    <glyph glyph-name="five.tf" 
d="M224 -11c-70 0 -118 13 -157 34v57c40 -22 89 -36 149 -36c113 0 181 56 181 156c0 97 -66 148 -177 148c-52 0 -94 -9 -139 -27l18 359h324v-57h-270l-13 -235c33 10 58 13 94 13c139 0 223 -75 223 -201c0 -129 -91 -211 -233 -211z" />
    <glyph glyph-name="six.tf" 
d="M277 418c105 0 193 -68 193 -210c0 -129 -74 -219 -196 -219c-151 0 -218 140 -218 316c0 266 91 386 245 386c40 0 80 -11 119 -33v-56c-37 24 -78 34 -117 34c-127 0 -181 -105 -186 -288c44 43 97 70 160 70zM273 45c92 0 137 67 137 160c0 106 -56 158 -135 158
c-59 0 -111 -27 -159 -78c5 -140 52 -240 157 -240z" />
    <glyph glyph-name="seven.tf" 
d="M471 680v-53l-250 -627h-60l248 623h-368v57h430z" />
    <glyph glyph-name="eight.tf" 
d="M257 -11c-146 0 -217 87 -217 182c0 86 51 155 118 201c-53 33 -94 78 -94 153c0 81 63 166 193 166c122 0 192 -80 192 -172c0 -67 -40 -130 -99 -178c67 -34 123 -80 123 -173c0 -85 -62 -179 -216 -179zM297 367c49 35 93 88 93 152c0 67 -49 117 -133 117
c-88 0 -133 -53 -133 -115c0 -90 88 -118 173 -154zM257 45c105 0 157 56 157 124c0 102 -110 129 -205 175c-63 -43 -110 -97 -110 -169c0 -76 58 -130 158 -130z" />
    <glyph glyph-name="nine.tf" 
d="M212 -11c-39 0 -80 11 -119 33v56c37 -24 79 -34 117 -34c127 0 181 105 186 288c-44 -43 -97 -70 -160 -70c-105 0 -192 68 -192 210c0 129 76 219 197 219c150 0 216 -140 216 -316c0 -266 -91 -386 -245 -386zM238 317c60 0 111 27 159 78c-4 140 -52 240 -155 240
c-91 0 -138 -67 -138 -160c0 -106 55 -158 134 -158z" />
    <glyph glyph-name="zero.tosf" 
d="M257 -11c-150 0 -224 117 -224 271s74 271 224 271c149 0 223 -117 223 -271s-74 -271 -223 -271zM257 45c112 0 163 88 163 215s-51 215 -163 215c-113 0 -164 -88 -164 -215s51 -215 164 -215z" />
    <glyph glyph-name="one.tosf" 
d="M43 0v57h202v399l-162 -69v56l178 77h43v-463h179v-57h-440z" />
    <glyph glyph-name="two.tosf" 
d="M51 0v37c0 122 95 167 184 207c81 37 158 62 158 138c0 55 -52 94 -134 94c-79 0 -133 -20 -190 -57v60c50 31 109 52 190 52c114 0 194 -59 194 -149c0 -104 -97 -144 -188 -186c-76 -36 -150 -68 -152 -140l345 1v-57h-407z" />
    <glyph glyph-name="three.tosf" 
d="M230 -171c-71 0 -126 14 -176 43v56c53 -29 103 -43 175 -43c100 0 171 47 171 140c0 102 -68 138 -159 138h-92v56h89c97 0 135 58 135 125c0 80 -59 132 -153 132c-66 0 -112 -18 -162 -45v56c45 26 94 44 169 44c125 0 203 -74 203 -182c0 -70 -36 -137 -99 -156
c61 -17 126 -65 126 -171c0 -124 -98 -193 -227 -193z" />
    <glyph glyph-name="four.tosf" 
d="M343 -160v159h-323v44l328 477h53v-466h89v-55h-89v-159h-58zM91 54h252v364z" />
    <glyph glyph-name="five.tosf" 
d="M223 -171c-70 0 -118 13 -157 34v57c41 -22 89 -36 149 -36c113 0 181 56 181 156c0 97 -66 148 -176 148c-53 0 -95 -9 -140 -27l18 359h325v-57h-271l-12 -235c32 10 58 13 94 13c139 0 222 -75 222 -201c0 -129 -90 -211 -233 -211z" />
    <glyph glyph-name="six.tosf" 
d="M277 418c105 0 193 -68 193 -210c0 -129 -75 -219 -196 -219c-151 0 -218 140 -218 316c0 266 91 386 245 386c40 0 80 -11 119 -33v-56c-37 24 -78 34 -117 34c-127 0 -181 -105 -186 -288c44 43 97 70 160 70zM273 45c91 0 137 67 137 160c0 106 -56 158 -135 158
c-59 0 -111 -27 -159 -78c5 -140 52 -240 157 -240z" />
    <glyph glyph-name="seven.tosf" 
d="M470 520v-53l-250 -627h-60l248 623h-368v57h430z" />
    <glyph glyph-name="eight.tosf" 
d="M257 -11c-146 0 -217 87 -217 182c0 86 51 155 118 201c-53 33 -94 78 -94 153c0 81 63 166 193 166c122 0 192 -80 192 -172c0 -67 -40 -130 -99 -178c67 -34 123 -80 123 -173c0 -85 -62 -179 -216 -179zM297 367c49 35 93 88 93 152c0 67 -49 117 -133 117
c-88 0 -133 -53 -133 -115c0 -90 88 -118 173 -154zM257 45c105 0 157 56 157 124c0 102 -110 129 -205 175c-63 -43 -110 -97 -110 -169c0 -76 58 -130 158 -130z" />
    <glyph glyph-name="nine.tosf" 
d="M212 -171c-39 0 -80 11 -119 33v56c37 -24 79 -34 117 -34c127 0 181 105 186 288c-44 -43 -97 -70 -160 -70c-105 0 -192 68 -192 210c0 129 76 219 197 219c150 0 216 -140 216 -316c0 -266 -91 -386 -245 -386zM238 157c60 0 111 27 159 78c-4 140 -52 240 -155 240
c-91 0 -138 -67 -138 -160c0 -106 55 -158 134 -158z" />
    <glyph glyph-name="fraction" unicode="&#x2044;" horiz-adv-x="117" 
d="M-134 -12l358 723h27l-358 -723h-27z" />
    <glyph glyph-name="onehalf" unicode="&#xbd;" horiz-adv-x="749" 
d="M190 -12l358 723h27l-358 -723h-27zM35 272v47h87v307l-77 -35v48l92 41h34v-361h77v-47h-213zM597 415c72 0 118 -43 118 -110c0 -66 -48 -104 -95 -140c-45 -34 -89 -66 -93 -118h191v-47h-242v29c0 91 65 131 118 173c38 28 71 56 71 103c0 38 -27 64 -74 64
c-38 0 -68 -9 -107 -33v49c36 21 68 30 113 30z" />
    <glyph glyph-name="onequarter" unicode="&#xbc;" horiz-adv-x="753" 
d="M193 -12l357 723h27l-357 -723h-27zM38 272v47h86v307l-76 -35v48l91 41h35v-361h77v-47h-213zM622 0v81h-198v42l193 285h53v-281h57v-46h-57v-81h-48zM478 127h144v208z" />
    <glyph glyph-name="threequarters" unicode="&#xbe;" horiz-adv-x="756" 
d="M203 -12l358 723h27l-358 -723h-27zM149 269c-44 0 -79 8 -110 22v46c31 -14 65 -22 106 -22c54 0 97 24 97 76s-42 72 -93 72h-40v47h40c51 0 77 28 77 67c0 44 -33 68 -88 68c-35 0 -63 -9 -93 -24v48c29 14 58 22 100 22c78 0 129 -43 129 -110c0 -42 -26 -79 -62 -91
c35 -11 78 -43 78 -105c0 -76 -66 -116 -141 -116zM626 0v81h-198v42l193 285h53v-281h57v-46h-57v-81h-48zM482 127h144v208z" />
    <glyph glyph-name="oneeighth" unicode="&#x215b;" horiz-adv-x="768" 
d="M190 -12l358 723h27l-358 -723h-27zM35 272v47h87v307l-77 -35v48l92 41h34v-361h77v-47h-213zM605 -7c-91 0 -140 49 -140 113c0 55 31 91 65 118c-29 20 -51 47 -51 88c0 57 48 103 124 103c83 0 123 -51 123 -107c0 -40 -21 -73 -54 -104c37 -20 68 -48 68 -100
c0 -55 -42 -111 -135 -111zM632 223c27 24 45 52 45 85c0 35 -25 62 -74 62c-47 0 -75 -25 -75 -58c0 -50 52 -67 104 -89zM605 39c56 0 87 28 87 65c0 53 -67 70 -124 98c-34 -26 -55 -53 -55 -93s34 -70 92 -70z" />
    <glyph glyph-name="threeeighths" unicode="&#x215c;" horiz-adv-x="779" 
d="M201 -12l358 723h27l-358 -723h-27zM147 269c-44 0 -79 8 -110 22v46c31 -14 64 -22 106 -22c53 0 97 24 97 76s-42 72 -93 72h-41v47h41c51 0 76 28 76 67c0 44 -33 68 -87 68c-35 0 -63 -9 -93 -24v48c29 14 58 22 99 22c78 0 129 -43 129 -110c0 -42 -25 -79 -62 -91
c36 -11 79 -43 79 -105c0 -76 -66 -116 -141 -116zM616 -7c-91 0 -140 49 -140 113c0 55 31 91 65 118c-29 20 -51 47 -51 88c0 57 48 103 124 103c83 0 123 -51 123 -107c0 -40 -21 -73 -54 -104c37 -20 68 -48 68 -100c0 -55 -42 -111 -135 -111zM643 223
c27 24 45 52 45 85c0 35 -25 62 -74 62c-47 0 -75 -25 -75 -58c0 -50 52 -67 104 -89zM616 39c56 0 87 28 87 65c0 53 -67 70 -124 98c-34 -26 -55 -53 -55 -93s34 -70 92 -70z" />
    <glyph glyph-name="fiveeighths" unicode="&#x215d;" horiz-adv-x="769" 
d="M191 -12l358 723h27l-358 -723h-27zM138 265c-39 0 -73 7 -102 23v46c30 -15 61 -23 98 -23c51 0 96 26 96 84c0 59 -43 85 -99 85c-26 0 -55 -5 -83 -16l12 216h200v-47h-154l-7 -117c17 5 34 6 50 6c69 0 131 -39 131 -127c0 -85 -69 -130 -142 -130zM606 -7
c-91 0 -140 49 -140 113c0 55 31 91 65 118c-29 20 -51 47 -51 88c0 57 48 103 124 103c83 0 123 -51 123 -107c0 -40 -21 -73 -54 -104c38 -20 69 -48 69 -100c0 -55 -43 -111 -136 -111zM633 223c27 24 46 52 46 85c0 35 -25 62 -75 62c-47 0 -75 -25 -75 -58
c0 -50 53 -67 104 -89zM606 39c56 0 87 28 87 65c0 53 -67 70 -123 98c-35 -26 -55 -53 -55 -93s33 -70 91 -70z" />
    <glyph glyph-name="seveneighths" unicode="&#x215e;" horiz-adv-x="701" 
d="M121 -12l358 723h27l-358 -723h-27zM80 272l141 361h-196v47h247v-45l-141 -363h-51zM536 -7c-91 0 -140 49 -140 113c0 55 31 91 65 118c-29 20 -51 47 -51 88c0 57 48 103 124 103c83 0 123 -51 123 -107c0 -40 -21 -73 -54 -104c38 -20 69 -48 69 -100
c0 -55 -43 -111 -136 -111zM563 223c27 24 46 52 46 85c0 35 -25 62 -75 62c-47 0 -75 -25 -75 -58c0 -50 53 -67 104 -89zM536 39c56 0 87 28 87 65c0 53 -67 70 -123 98c-35 -26 -55 -53 -55 -93s33 -70 91 -70z" />
    <glyph glyph-name="zero.dnom" horiz-adv-x="367" 
d="M183 -11c-106 0 -153 87 -153 212c0 128 47 213 153 213c107 0 154 -85 154 -213c0 -125 -47 -212 -154 -212zM183 36c67 0 104 55 104 165c0 113 -37 166 -104 166c-66 0 -103 -53 -103 -166c0 -110 37 -165 103 -165z" />
    <glyph glyph-name="one.dnom" horiz-adv-x="249" 
d="M23 0v47h86v302l-76 -35v47l91 42h35v-356h77v-47h-213z" />
    <glyph glyph-name="two.dnom" horiz-adv-x="295" 
d="M146 414c73 0 119 -44 119 -110s-48 -103 -96 -139c-45 -34 -89 -66 -93 -118h191v-47h-242v29c0 91 66 131 118 173c38 28 72 55 72 102c0 38 -27 63 -75 63c-37 0 -68 -8 -106 -32v48c35 22 68 31 112 31z" />
    <glyph glyph-name="three.dnom" horiz-adv-x="303" 
d="M135 -11c-44 0 -79 8 -110 22v46c31 -14 65 -22 106 -22c54 0 97 24 97 76s-42 72 -93 72h-40v47h40c51 0 77 28 77 67c0 46 -33 70 -88 70c-35 0 -63 -8 -93 -23v47c29 15 58 23 100 23c78 0 129 -43 129 -113c0 -42 -26 -79 -62 -91c35 -11 78 -43 78 -105
c0 -76 -66 -116 -141 -116z" />
    <glyph glyph-name="four.dnom" horiz-adv-x="337" 
d="M213 0v81h-198v42l193 280h54v-276h57v-46h-57v-81h-49zM70 127h143v203z" />
    <glyph glyph-name="five.dnom" horiz-adv-x="296" 
d="M130 -11c-39 0 -73 7 -102 23v46c30 -15 61 -23 98 -23c51 0 96 26 96 87c0 59 -43 84 -99 84c-26 0 -55 -5 -83 -15l12 212h200v-48h-154l-7 -113c17 5 34 7 50 7c69 -1 131 -40 131 -127c0 -88 -69 -133 -142 -133z" />
    <glyph glyph-name="six.dnom" horiz-adv-x="333" 
d="M181 250c79 0 129 -49 129 -126c0 -73 -51 -135 -134 -135c-98 0 -147 70 -147 194c0 158 69 231 173 231c31 0 59 -7 82 -21v-46c-22 13 -49 20 -79 20c-77 0 -118 -56 -124 -152c29 24 61 35 100 35zM175 36c52 0 85 35 85 87c0 56 -32 81 -81 81
c-35 0 -70 -12 -99 -40c1 -84 32 -128 95 -128z" />
    <glyph glyph-name="seven.dnom" horiz-adv-x="277" 
d="M68 0l142 355h-196v48h247v-46l-142 -357h-51z" />
    <glyph glyph-name="eight.dnom" horiz-adv-x="332" 
d="M168 -11c-91 0 -140 49 -140 116c0 54 31 91 65 118c-29 20 -51 46 -51 88c0 56 48 103 124 103c83 0 123 -51 123 -108c0 -39 -21 -73 -54 -103c38 -21 69 -48 69 -100c0 -58 -43 -114 -136 -114zM195 222c27 24 46 52 46 84c0 35 -25 63 -75 63c-47 0 -75 -25 -75 -59
c0 -49 53 -67 104 -88zM168 35c56 0 87 28 87 68c0 53 -67 70 -123 97c-35 -25 -55 -53 -55 -92c0 -43 33 -73 91 -73z" />
    <glyph glyph-name="nine.dnom" horiz-adv-x="333" 
d="M130 -11c-30 0 -58 7 -81 21v46c22 -13 49 -21 79 -21c77 0 117 57 123 156c-28 -24 -61 -36 -99 -36c-80 0 -130 49 -130 127c0 72 47 132 133 132c100 0 148 -81 148 -192c0 -160 -69 -233 -173 -233zM154 201c35 0 69 13 98 41c-5 83 -40 125 -97 125
c-53 0 -83 -33 -83 -85c0 -55 32 -81 82 -81z" />
    <glyph glyph-name="zero.numr" horiz-adv-x="367" 
d="M183 286c-106 0 -153 88 -153 213c0 127 47 212 153 212c107 0 154 -85 154 -212c0 -125 -47 -213 -154 -213zM183 333c67 0 104 56 104 166c0 112 -37 165 -104 165c-66 0 -103 -53 -103 -165c0 -110 37 -166 103 -166z" />
    <glyph glyph-name="one.numr" horiz-adv-x="249" 
d="M23 297v48h86v301l-76 -35v48l91 41h35v-355h77v-48h-213z" />
    <glyph glyph-name="two.numr" horiz-adv-x="295" 
d="M146 711c73 0 119 -43 119 -110c0 -66 -48 -102 -96 -138c-45 -35 -89 -67 -93 -118h191v-48h-242v30c0 91 66 131 118 172c38 28 72 55 72 102c0 38 -27 64 -75 64c-37 0 -68 -9 -106 -33v49c35 21 68 30 112 30z" />
    <glyph glyph-name="three.numr" horiz-adv-x="303" 
d="M135 286c-44 0 -79 8 -110 22v46c31 -14 65 -21 106 -21c54 0 97 23 97 75c0 53 -42 72 -93 72h-40v47h40c51 0 77 29 77 67c0 47 -33 71 -88 71c-35 0 -63 -9 -93 -24v48c29 14 58 22 100 22c78 0 129 -43 129 -113c0 -42 -26 -79 -62 -91c35 -11 78 -42 78 -104
c0 -77 -66 -117 -141 -117z" />
    <glyph glyph-name="four.numr" horiz-adv-x="337" 
d="M213 297v81h-198v43l193 279h54v-276h57v-46h-57v-81h-49zM70 424h143v203z" />
    <glyph glyph-name="five.numr" horiz-adv-x="296" 
d="M130 286c-39 0 -73 7 -102 24v46c30 -16 61 -23 98 -23c51 0 96 26 96 86c0 59 -43 85 -99 85c-26 0 -55 -5 -83 -16l12 212h200v-47h-154l-7 -113c17 5 34 6 50 6c69 0 131 -39 131 -127c0 -87 -69 -133 -142 -133z" />
    <glyph glyph-name="six.numr" horiz-adv-x="333" 
d="M181 548c79 0 129 -49 129 -127c0 -72 -51 -135 -134 -135c-98 0 -147 70 -147 195c0 157 69 230 173 230c31 0 59 -7 82 -21v-46c-22 13 -49 21 -79 21c-77 0 -118 -57 -124 -153c29 24 61 36 100 36zM175 333c52 0 85 36 85 88c0 55 -32 81 -81 81
c-35 0 -70 -13 -99 -41c1 -83 32 -128 95 -128z" />
    <glyph glyph-name="seven.numr" horiz-adv-x="277" 
d="M68 297l142 356h-196v47h247v-45l-142 -358h-51z" />
    <glyph glyph-name="eight.numr" horiz-adv-x="332" 
d="M168 286c-91 0 -140 49 -140 116c0 55 31 91 65 118c-29 20 -51 47 -51 88c0 57 48 103 124 103c83 0 123 -51 123 -107c0 -40 -21 -73 -54 -104c38 -20 69 -48 69 -100c0 -58 -43 -114 -136 -114zM195 519c27 24 46 52 46 85c0 35 -25 62 -75 62c-47 0 -75 -25 -75 -58
c0 -50 53 -67 104 -89zM168 333c56 0 87 27 87 67c0 53 -67 70 -123 98c-35 -26 -55 -53 -55 -93c0 -43 33 -72 91 -72z" />
    <glyph glyph-name="nine.numr" horiz-adv-x="333" 
d="M130 286c-30 0 -58 7 -81 21v46c22 -13 49 -20 79 -20c77 0 117 56 123 155c-28 -24 -61 -36 -99 -36c-80 0 -130 49 -130 127c0 72 47 132 133 132c100 0 148 -81 148 -192c0 -160 -69 -233 -173 -233zM154 498c35 0 69 13 98 41c-5 83 -40 125 -97 125
c-53 0 -83 -33 -83 -85c0 -55 32 -81 82 -81z" />
    <glyph glyph-name="zero.sups" horiz-adv-x="367" 
d="M183 391c-106 0 -153 88 -153 213c0 128 47 213 153 213c107 0 154 -85 154 -213c0 -125 -47 -213 -154 -213zM183 439c67 0 104 55 104 165c0 113 -37 165 -104 165c-66 0 -103 -52 -103 -165c0 -110 37 -165 103 -165z" />
    <glyph glyph-name="one.sups" horiz-adv-x="249" 
d="M23 403v47h86v301l-76 -34v47l91 41h35v-355h77v-47h-213z" />
    <glyph glyph-name="two.sups" horiz-adv-x="295" 
d="M146 817c73 0 119 -44 119 -110c0 -67 -48 -103 -96 -139c-45 -34 -89 -66 -93 -118h191v-47h-242v29c0 91 66 131 118 172c38 29 72 56 72 103c0 38 -27 63 -75 63c-37 0 -68 -8 -106 -33v49c35 21 68 31 112 31z" />
    <glyph glyph-name="three.sups" horiz-adv-x="303" 
d="M135 391c-44 0 -79 8 -110 22v46c31 -14 65 -21 106 -21c54 0 97 24 97 75c0 53 -42 72 -93 72h-40v48h40c51 0 77 28 77 67c0 46 -33 70 -88 70c-35 0 -63 -8 -93 -23v47c29 14 58 23 100 23c78 0 129 -43 129 -113c0 -43 -26 -79 -62 -92c35 -11 78 -42 78 -104
c0 -76 -66 -117 -141 -117z" />
    <glyph glyph-name="four.sups" horiz-adv-x="337" 
d="M213 403v80h-198v43l193 279h54v-275h57v-47h-57v-80h-49zM70 530h143v203z" />
    <glyph glyph-name="five.sups" horiz-adv-x="296" 
d="M130 391c-39 0 -73 8 -102 24v46c30 -16 61 -23 98 -23c51 0 96 26 96 87c0 59 -43 84 -99 84c-26 0 -55 -5 -83 -16l12 212h200v-47h-154l-7 -113c17 5 34 7 50 7c69 -1 131 -40 131 -127c0 -88 -69 -134 -142 -134z" />
    <glyph glyph-name="six.sups" horiz-adv-x="333" 
d="M181 653c79 0 129 -49 129 -127c0 -72 -51 -135 -134 -135c-98 0 -147 71 -147 195c0 158 69 231 173 231c31 0 59 -8 82 -22v-46c-22 14 -49 21 -79 21c-77 0 -118 -57 -124 -153c29 24 61 36 100 36zM175 439c52 0 85 35 85 87c0 55 -32 81 -81 81
c-35 0 -70 -13 -99 -41c1 -83 32 -127 95 -127z" />
    <glyph glyph-name="seven.sups" horiz-adv-x="277" 
d="M68 403l142 355h-196v47h247v-45l-142 -357h-51z" />
    <glyph glyph-name="eight.sups" horiz-adv-x="332" 
d="M168 391c-91 0 -140 49 -140 116c0 55 31 92 65 118c-29 21 -51 47 -51 89c0 56 48 103 124 103c83 0 123 -52 123 -108c0 -40 -21 -73 -54 -103c38 -21 69 -48 69 -101c0 -57 -43 -114 -136 -114zM195 625c27 23 46 51 46 84c0 35 -25 62 -75 62c-47 0 -75 -24 -75 -58
c0 -50 53 -67 104 -88zM168 438c56 0 87 28 87 67c0 53 -67 70 -123 98c-35 -26 -55 -53 -55 -92c0 -44 33 -73 91 -73z" />
    <glyph glyph-name="nine.sups" horiz-adv-x="333" 
d="M130 391c-30 0 -58 8 -81 22v46c22 -14 49 -21 79 -21c77 0 117 57 123 155c-28 -24 -61 -35 -99 -35c-80 0 -130 49 -130 126c0 73 47 133 133 133c100 0 148 -81 148 -192c0 -161 -69 -234 -173 -234zM154 604c35 0 69 12 98 40c-5 84 -40 125 -97 125
c-53 0 -83 -32 -83 -84c0 -56 32 -81 82 -81z" />
    <glyph glyph-name="asterisk" unicode="*" horiz-adv-x="345" 
d="M111 438l-43 30l70 86l-103 31l18 50l99 -42l-5 107h51l-4 -107l98 42l19 -50l-104 -31l71 -86l-44 -30l-61 93z" />
    <glyph glyph-name="backslash" unicode="\" horiz-adv-x="329" 
d="M264 -58l-240 816h41l240 -816h-41z" />
    <glyph glyph-name="periodcentered" unicode="&#xb7;" horiz-adv-x="185" 
d="M92 200c-21 0 -39 14 -39 40c0 25 18 39 39 39s40 -14 40 -39c0 -26 -19 -40 -40 -40z" />
    <glyph glyph-name="bullet" unicode="&#x2022;" horiz-adv-x="273" 
d="M136 287c-34 0 -64 22 -64 63s30 63 64 63c35 0 65 -22 65 -63s-30 -63 -65 -63z" />
    <glyph glyph-name="colon" unicode=":" horiz-adv-x="191" 
d="M96 356c-21 0 -40 14 -40 40s19 40 40 40s39 -14 39 -40s-18 -40 -39 -40zM96 -8c-21 0 -40 14 -40 40s19 40 40 40s39 -14 39 -40s-18 -40 -39 -40z" />
    <glyph glyph-name="comma" unicode="," horiz-adv-x="162" 
d="M39 -147l16 224h60l-30 -224h-46z" />
    <glyph glyph-name="ellipsis" unicode="&#x2026;" horiz-adv-x="472" 
d="M236 -8c-21 0 -40 14 -40 40s19 40 40 40s40 -14 40 -40s-19 -40 -40 -40zM389 -8c-21 0 -39 14 -39 40s18 40 39 40s40 -14 40 -40s-19 -40 -40 -40zM83 -8c-21 0 -40 14 -40 40s19 40 40 40s39 -14 39 -40s-18 -40 -39 -40z" />
    <glyph glyph-name="exclam" unicode="!" horiz-adv-x="201" 
d="M75 189l-4 511h59l-5 -511h-50zM100 -8c-21 0 -39 14 -39 40s18 40 39 40s40 -14 40 -40s-19 -40 -40 -40z" />
    <glyph glyph-name="exclamdown" unicode="&#xa1;" horiz-adv-x="187" 
d="M133 448c0 -26 -19 -40 -40 -40s-39 14 -39 40s18 40 39 40s40 -14 40 -40zM68 291h50l5 -511h-59z" />
    <glyph glyph-name="numbersign" unicode="#" horiz-adv-x="559" 
d="M75 0l34 179h-82v50h91l44 223h-85v50h94l35 179h55l-34 -179h167l34 179h56l-35 -179h83v-50h-92l-43 -223h85v-50h-94l-35 -179h-56l35 179h-167l-35 -179h-55zM174 229h167l44 223h-167z" />
    <glyph glyph-name="period" unicode="." horiz-adv-x="165" 
d="M83 -8c-21 0 -40 14 -40 40s19 40 40 40s39 -14 39 -40s-18 -40 -39 -40z" />
    <glyph glyph-name="question" unicode="?" horiz-adv-x="391" 
d="M156 208c0 153 147 214 147 342c0 62 -42 105 -121 105c-60 0 -113 -25 -156 -58v60c36 27 90 54 163 54c109 0 174 -69 174 -155c0 -152 -150 -211 -150 -348h-57zM183 -8c-21 0 -39 14 -39 40s18 40 39 40s40 -14 40 -40s-19 -40 -40 -40z" />
    <glyph glyph-name="questiondown" unicode="&#xbf;" horiz-adv-x="399" 
d="M218 490c21 0 40 -14 40 -40s-19 -40 -40 -40s-39 14 -39 40s18 40 39 40zM246 274c0 -153 -148 -214 -148 -342c0 -62 43 -105 121 -105c60 0 113 25 157 58v-60c-36 -27 -90 -54 -163 -54c-110 0 -175 69 -175 155c0 152 151 211 151 348h57z" />
    <glyph glyph-name="quotedbl" unicode="&#x22;" horiz-adv-x="273" 
d="M55 483v217h57l-14 -217h-43zM169 483v217h57l-15 -217h-42z" />
    <glyph glyph-name="quotesingle" unicode="'" horiz-adv-x="160" 
d="M55 483v217h57l-14 -217h-43z" />
    <glyph glyph-name="semicolon" unicode=";" horiz-adv-x="182" 
d="M92 395c-21 0 -40 14 -40 40s19 40 40 40s40 -14 40 -40s-19 -40 -40 -40zM47 -147l16 224h60l-30 -224h-46z" />
    <glyph glyph-name="slash" unicode="/" horiz-adv-x="329" 
d="M64 -58h-40l240 816h41z" />
    <glyph glyph-name="underscore" unicode="_" horiz-adv-x="377" 
d="M0 -140v54h377v-54h-377z" />
    <glyph glyph-name="braceleft" unicode="{" horiz-adv-x="261" 
d="M232 -160c-92 -18 -134 26 -134 105v248c0 72 -40 79 -82 79v56c42 0 82 6 82 79v248c0 79 42 124 134 105v-57c-58 9 -75 -14 -75 -71v-222c0 -73 -29 -103 -57 -110c28 -7 57 -37 57 -110v-222c0 -57 17 -80 75 -71v-57z" />
    <glyph glyph-name="braceright" unicode="}" horiz-adv-x="261" 
d="M29 -160v57c58 -9 75 14 75 71v222c0 73 29 103 57 110c-28 7 -57 37 -57 110v222c0 57 -17 80 -75 71v57c92 19 134 -26 134 -105v-248c0 -73 40 -79 82 -79v-56c-42 0 -82 -7 -82 -79v-248c0 -79 -42 -123 -134 -105z" />
    <glyph glyph-name="bracketleft" unicode="[" horiz-adv-x="264" 
d="M72 -160v920h167v-57h-107v-806h107v-57h-167z" />
    <glyph glyph-name="bracketright" unicode="]" horiz-adv-x="264" 
d="M191 -160h-166v57h107v806h-107v57h166v-920z" />
    <glyph glyph-name="parenleft" unicode="(" horiz-adv-x="248" 
d="M236 759c-84 -126 -132 -301 -132 -459s48 -333 132 -459h-56c-85 127 -140 298 -140 459s55 332 140 459h56z" />
    <glyph glyph-name="parenright" unicode=")" horiz-adv-x="248" 
d="M11 759h56c86 -127 140 -298 140 -459s-54 -332 -140 -459h-56c84 126 133 301 133 459s-49 333 -133 459z" />
    <glyph glyph-name="braceleft.case" horiz-adv-x="265" 
d="M236 -110c-92 -18 -134 26 -134 105v248c0 72 -40 79 -82 79v56c42 0 82 6 82 79v248c0 79 42 124 134 105v-57c-58 9 -75 -14 -75 -71v-222c0 -73 -29 -103 -57 -110c28 -7 57 -37 57 -110v-222c0 -57 17 -80 75 -71v-57z" />
    <glyph glyph-name="braceright.case" horiz-adv-x="265" 
d="M29 -110v57c59 -9 75 14 75 71v222c0 73 29 103 58 110c-29 7 -58 37 -58 110v222c0 57 -16 80 -75 71v57c92 19 135 -26 135 -105v-248c0 -73 39 -79 81 -79v-56c-42 0 -81 -7 -81 -79v-248c0 -79 -43 -123 -135 -105z" />
    <glyph glyph-name="bracketleft.case" horiz-adv-x="272" 
d="M80 -110v920h167v-57h-107v-806h107v-57h-167z" />
    <glyph glyph-name="bracketright.case" horiz-adv-x="272" 
d="M191 -110h-166v57h107v806h-107v57h166v-920z" />
    <glyph glyph-name="parenleft.case" horiz-adv-x="248" 
d="M237 809c-84 -127 -133 -301 -133 -459s49 -332 133 -459h-56c-86 127 -140 298 -140 459s54 332 140 459h56z" />
    <glyph glyph-name="parenright.case" horiz-adv-x="248" 
d="M12 809h56c85 -127 140 -298 140 -459s-55 -332 -140 -459h-56c84 126 132 301 132 459s-48 333 -132 459z" />
    <glyph glyph-name="emdash" unicode="&#x2014;" horiz-adv-x="643" 
d="M53 219v54h536v-54h-536z" />
    <glyph glyph-name="endash" unicode="&#x2013;" horiz-adv-x="467" 
d="M53 219v54h361v-54h-361z" />
    <glyph glyph-name="hyphen" unicode="-" horiz-adv-x="378" 
d="M325 273v-54h-272v54h272z" />
    <glyph glyph-name="emdash.case" horiz-adv-x="649" 
d="M57 323v54h536v-54h-536z" />
    <glyph glyph-name="endash.case" horiz-adv-x="474" 
d="M57 323v54h360v-54h-360z" />
    <glyph glyph-name="hyphen.case" horiz-adv-x="385" 
d="M328 377v-54h-271v54h271z" />
    <glyph glyph-name="guillemotleft" unicode="&#xab;" horiz-adv-x="391" 
d="M135 63l-101 171v12l101 171h61l-106 -177l106 -177h-61zM287 63l-102 171v12l102 171h60l-105 -177l105 -177h-60z" />
    <glyph glyph-name="guillemotright" unicode="&#xbb;" horiz-adv-x="391" 
d="M104 63h-60l105 177l-105 177h60l102 -171v-12zM256 63h-61l106 177l-106 177h61l101 -171v-12z" />
    <glyph glyph-name="guilsinglleft" unicode="&#x2039;" horiz-adv-x="240" 
d="M135 63l-101 171v12l101 171h61l-106 -177l106 -177h-61z" />
    <glyph glyph-name="guilsinglright" unicode="&#x203a;" horiz-adv-x="240" 
d="M104 63h-60l105 177l-105 177h60l102 -171v-12z" />
    <glyph glyph-name="quotedblbase" unicode="&#x201e;" horiz-adv-x="292" 
d="M39 -147l16 224h60l-30 -224h-46zM169 -147l16 224h60l-30 -224h-46z" />
    <glyph glyph-name="quotedblleft" unicode="&#x201c;" horiz-adv-x="299" 
d="M45 477l30 223h47l-17 -223h-60zM175 477l30 223h47l-17 -223h-60z" />
    <glyph glyph-name="quotedblright" unicode="&#x201d;" horiz-adv-x="296" 
d="M49 477l17 223h60l-30 -223h-47zM179 477l17 223h60l-30 -223h-47z" />
    <glyph glyph-name="quoteleft" unicode="&#x2018;" horiz-adv-x="169" 
d="M45 477l30 223h47l-17 -223h-60z" />
    <glyph glyph-name="quoteright" unicode="&#x2019;" horiz-adv-x="166" 
d="M49 477l17 223h60l-30 -223h-47z" />
    <glyph glyph-name="quotesinglbase" unicode="&#x201a;" horiz-adv-x="162" 
d="M39 -147l16 224h60l-30 -224h-46z" />
    <glyph glyph-name="guillemotleft.case" horiz-adv-x="397" 
d="M139 173l-102 171v12l102 171h60l-105 -177l105 -177h-60zM290 173l-102 171v12l102 171h61l-105 -177l105 -177h-61z" />
    <glyph glyph-name="guillemotright.case" horiz-adv-x="397" 
d="M107 173h-61l105 177l-105 177h61l102 -171v-12zM258 173h-60l105 177l-105 177h60l102 -171v-12z" />
    <glyph glyph-name="guilsinglleft.case" horiz-adv-x="246" 
d="M139 173l-102 171v12l102 171h60l-105 -177l105 -177h-60z" />
    <glyph glyph-name="guilsinglright.case" horiz-adv-x="246" 
d="M107 173h-61l106 177l-106 177h61l102 -171v-12z" />
    <glyph glyph-name="space" unicode=" " horiz-adv-x="199" 
 />
    <glyph glyph-name="cent" unicode="&#xa2;" horiz-adv-x="400" 
d="M214 -110v101c-116 15 -175 110 -175 249c0 138 66 233 175 249v101h50v-99c33 -2 60 -11 88 -26v-53c-31 18 -61 27 -97 27c-101 0 -158 -79 -158 -199c0 -122 49 -198 151 -198c44 0 80 11 109 25v-52c-24 -14 -57 -23 -93 -26v-99h-50z" />
    <glyph glyph-name="currency" unicode="&#xa4;" horiz-adv-x="491" 
d="M88 134l-37 32l58 66c-20 31 -31 71 -31 118s12 87 31 118l-58 66l37 32l54 -61c28 24 63 36 103 36s76 -13 104 -37l54 62l37 -32l-59 -67c20 -30 31 -70 31 -117s-11 -87 -31 -117l59 -67l-37 -32l-54 62c-28 -24 -64 -37 -104 -37s-75 13 -103 37zM245 212
c71 0 110 54 110 138s-39 138 -110 138s-110 -54 -110 -138s39 -138 110 -138z" />
    <glyph glyph-name="dollar" unicode="$" horiz-adv-x="447" 
d="M421 167c0 -109 -75 -169 -173 -177v-111h-50v110c-55 3 -104 16 -153 44v57c58 -34 110 -45 173 -45c85 0 143 43 143 118c0 184 -326 133 -326 356c0 100 71 160 163 170v112h50v-110c46 -3 89 -17 133 -42v-57c-50 31 -96 43 -148 43c-77 0 -138 -37 -138 -114
c0 -174 326 -132 326 -354z" />
    <glyph glyph-name="Euro" unicode="&#x20ac;" horiz-adv-x="517" 
d="M356 45c46 0 85 11 123 33v-57c-40 -23 -82 -32 -123 -32c-126 0 -231 84 -257 257h-68v50h63c-1 13 -2 25 -2 39c0 17 1 33 3 49h-64v50h70c29 164 132 257 257 257c42 0 81 -9 116 -28v-54c-34 18 -70 26 -112 26c-106 0 -178 -76 -201 -201h210v-50h-216
c-2 -16 -3 -32 -3 -49c0 -14 1 -27 2 -39h217v-50h-212c20 -127 91 -201 197 -201z" />
    <glyph glyph-name="sterling" unicode="&#xa3;" horiz-adv-x="489" 
d="M139 57h318v-57h-427v57h19c44 0 66 34 66 89v156h-70v56h70v133c0 138 80 200 188 200c51 0 87 -11 124 -36v-56c-36 25 -70 37 -117 37c-90 0 -135 -53 -135 -146v-132h219v-56h-219v-156c0 -47 -14 -76 -36 -89z" />
    <glyph glyph-name="yen" unicode="&#xa5;" horiz-adv-x="523" 
d="M500 680l-200 -363h132v-50h-141v-74h141v-50h-141v-143h-59v143h-140v50h140v74h-140v50h131l-200 363h67l172 -327l172 327h66z" />
    <glyph glyph-name="cent.tf" 
d="M271 -117v108c-124 14 -204 106 -204 249c0 141 87 234 204 249v108h50v-106c39 -2 73 -12 108 -33v-52c-39 23 -74 33 -117 33c-107 0 -187 -77 -187 -199c0 -125 72 -198 180 -198c54 0 92 11 129 30v-52c-31 -19 -68 -29 -113 -31v-106h-50z" />
    <glyph glyph-name="currency.tf" 
d="M89 134l-37 32l59 62c-24 32 -38 72 -38 122c0 49 14 90 38 121l-59 63l37 32l57 -60c29 23 68 35 111 35c42 0 81 -12 110 -35l57 60l37 -32l-59 -63c24 -31 38 -72 38 -121c0 -50 -14 -90 -38 -122l59 -62l-37 -32l-57 60c-29 -23 -68 -35 -110 -35
c-43 0 -82 12 -111 35zM257 212c76 0 126 52 126 138s-50 138 -126 138c-77 0 -127 -52 -127 -138s50 -138 127 -138z" />
    <glyph glyph-name="dollar.tf" 
d="M471 167c0 -108 -76 -167 -186 -176v-112h-50v110c-68 2 -121 15 -174 48v57c59 -35 114 -49 187 -49c102 0 163 43 163 118c0 184 -360 133 -360 356c0 103 82 163 184 171v111h50v-110c57 -3 102 -19 146 -46v-57c-50 32 -99 47 -168 47c-84 0 -152 -37 -152 -114
c0 -174 360 -132 360 -354z" />
    <glyph glyph-name="Euro.tf" 
d="M346 45c47 0 92 12 136 36v-57c-45 -26 -94 -35 -141 -35c-133 0 -230 89 -255 257h-61v50h56c-1 13 -1 25 -1 39c0 17 1 33 2 49h-57v50h63c28 161 124 257 254 257c47 0 93 -10 135 -34v-54c-38 22 -80 32 -123 32c-106 0 -181 -68 -205 -201h210v-50h-217
c-1 -16 -2 -32 -2 -49c0 -14 0 -27 2 -39h217v-50h-212c20 -129 90 -201 199 -201z" />
    <glyph glyph-name="sterling.tf" 
d="M141 57h335v-57h-443v57h18c45 0 67 34 67 89v156h-70v56h70v120c0 141 76 213 201 213c59 0 97 -16 134 -42v-57c-36 27 -72 44 -127 44c-107 0 -149 -63 -149 -159v-119h243v-56h-243v-156c0 -47 -14 -76 -36 -89z" />
    <glyph glyph-name="yen.tf" 
d="M502 680l-206 -363h131v-50h-141v-74h141v-50h-141v-143h-59v143h-140v50h140v74h-140v50h130l-205 363h65l180 -329l180 329h65z" />
    <glyph glyph-name="approxequal" unicode="&#x2248;" horiz-adv-x="441" 
d="M309 362c-55 0 -122 58 -162 58c-27 0 -38 -18 -40 -52h-47c-4 66 24 105 76 105c59 0 119 -58 163 -58c26 0 38 17 40 53h47c4 -65 -22 -106 -77 -106zM309 226c-55 0 -122 58 -162 58c-27 0 -38 -18 -40 -52h-47c-4 66 24 105 76 105c59 0 119 -58 163 -58
c26 0 38 17 40 53h47c4 -65 -22 -106 -77 -106z" />
    <glyph glyph-name="asciitilde" unicode="~" horiz-adv-x="442" 
d="M310 294c-56 0 -122 58 -162 58c-28 0 -39 -18 -41 -53h-47c-3 67 25 106 76 106c60 0 120 -58 163 -58c26 0 38 16 41 52h47c3 -64 -23 -105 -77 -105z" />
    <glyph glyph-name="divide" unicode="&#xf7;" horiz-adv-x="454" 
d="M227 467c-21 0 -40 14 -40 40c0 25 19 39 40 39s40 -14 40 -39c0 -26 -19 -40 -40 -40zM47 323v54h360v-54h-360zM227 151c-21 0 -40 15 -40 40s19 40 40 40s40 -15 40 -40s-19 -40 -40 -40z" />
    <glyph glyph-name="emptyset" unicode="&#x2205;" horiz-adv-x="617" 
d="M501 596c47 -63 71 -153 71 -256c0 -200 -90 -352 -263 -352c-72 0 -130 26 -172 72l-41 -60h-37l57 83c-47 64 -71 154 -71 257c0 200 90 352 264 352c72 0 130 -27 172 -72l41 60h37zM77 340c0 -93 19 -173 58 -229l328 483c-37 42 -90 67 -154 67
c-153 0 -232 -134 -232 -321zM309 19c153 0 231 134 231 321c0 92 -19 172 -57 228l-328 -482c38 -42 89 -67 154 -67z" />
    <glyph glyph-name="equal" unicode="=" horiz-adv-x="431" 
d="M57 414v54h317v-54h-317zM57 232v54h317v-54h-317z" />
    <glyph glyph-name="greater" unicode="&#x3e;" horiz-adv-x="396" 
d="M61 165v58l249 127l-249 127v58l304 -157v-56z" />
    <glyph glyph-name="greaterequal" unicode="&#x2265;" horiz-adv-x="433" 
d="M70 228v58l252 127l-252 126v59l304 -157v-57zM70 107v54h304v-54h-304z" />
    <glyph glyph-name="infinity" unicode="&#x221e;" horiz-adv-x="730" 
d="M194 182c-82 0 -149 65 -149 176s67 176 149 176c84 0 131 -63 171 -128c40 65 87 128 171 128c82 0 149 -65 149 -176s-67 -176 -149 -176c-84 0 -130 63 -171 128c-41 -65 -87 -128 -171 -128zM199 236c64 0 103 57 141 121c-39 65 -77 123 -141 123
c-53 0 -98 -40 -98 -122s45 -122 98 -122zM531 236c53 0 98 40 98 122s-45 122 -98 122c-64 0 -102 -58 -141 -123c38 -64 77 -121 141 -121z" />
    <glyph glyph-name="integral" unicode="&#x222b;" horiz-adv-x="336" 
d="M72 -231c-27 0 -50 5 -70 14v51c18 -7 40 -11 65 -11c37 0 73 16 73 77v762c0 96 63 129 124 129c27 0 50 -5 70 -14v-51c-18 7 -40 11 -65 11c-37 0 -73 -16 -73 -77v-762c0 -96 -63 -129 -124 -129z" />
    <glyph glyph-name="less" unicode="&#x3c;" horiz-adv-x="396" 
d="M335 165l-304 157v56l304 157v-58l-249 -127l249 -127v-58z" />
    <glyph glyph-name="lessequal" unicode="&#x2264;" horiz-adv-x="433" 
d="M364 228l-304 156v57l304 157v-59l-252 -126l252 -127v-58zM364 107h-304v54h304v-54z" />
    <glyph glyph-name="logicalnot" unicode="&#xac;" horiz-adv-x="467" 
d="M352 252v142h-303v54h360v-196h-57z" />
    <glyph glyph-name="minus" unicode="&#x2212;" horiz-adv-x="450" 
d="M57 320v53h336v-53h-336z" />
    <glyph glyph-name="multiply" unicode="&#xd7;" horiz-adv-x="428" 
d="M83 184l-36 37l131 130l-131 130l36 37l131 -130l130 130l37 -37l-130 -130l130 -130l-37 -37l-130 131z" />
    <glyph glyph-name="notequal" unicode="&#x2260;" horiz-adv-x="431" 
d="M374 414h-107l-63 -128h170v-54h-194l-49 -101h-40l48 101h-82v54h107l62 128h-169v54h194l49 101h40l-49 -101h83v-54z" />
    <glyph glyph-name="partialdiff" unicode="&#x2202;" horiz-adv-x="491" 
d="M240 -11c-127 0 -203 91 -203 233c0 132 68 224 190 224c77 0 147 -46 166 -123c-18 195 -91 324 -302 318v54c201 5 355 -111 355 -426c0 -180 -76 -280 -206 -280zM240 43c91 0 137 66 144 168c-4 112 -62 182 -152 182c-95 0 -138 -69 -138 -171
c0 -109 46 -179 146 -179z" />
    <glyph glyph-name="percent" unicode="%" horiz-adv-x="649" 
d="M166 409c-77 0 -140 56 -140 151s63 151 140 151c76 0 138 -56 138 -151s-62 -151 -138 -151zM95 0l406 700h53l-405 -700h-54zM166 459c55 0 84 44 84 101s-29 101 -84 101c-57 0 -86 -44 -86 -101s29 -101 86 -101zM484 -11c-77 0 -139 56 -139 151s62 151 139 151
s139 -56 139 -151s-62 -151 -139 -151zM484 39c56 0 85 44 85 101s-29 101 -85 101c-55 0 -85 -44 -85 -101s30 -101 85 -101z" />
    <glyph glyph-name="perthousand" unicode="&#x2030;" horiz-adv-x="947" 
d="M169 409c-77 0 -140 56 -140 151s63 151 140 151c76 0 138 -56 138 -151s-62 -151 -138 -151zM72 0l432 700h54l-433 -700h-53zM169 459c55 0 84 44 84 101s-29 101 -84 101c-56 0 -86 -44 -86 -101s30 -101 86 -101zM460 -11c-76 0 -138 56 -138 151s62 151 138 151
c77 0 140 -56 140 -151s-63 -151 -140 -151zM784 -11c-77 0 -139 56 -139 151s62 151 139 151s139 -56 139 -151s-62 -151 -139 -151zM460 39c57 0 86 44 86 101s-29 101 -86 101c-55 0 -84 -44 -84 -101s29 -101 84 -101zM784 39c56 0 85 44 85 101s-29 101 -85 101
c-55 0 -85 -44 -85 -101s30 -101 85 -101z" />
    <glyph glyph-name="plus" unicode="+" horiz-adv-x="425" 
d="M389 376v-52h-150v-151h-54v151h-149v52h149v151h54v-151h150z" />
    <glyph glyph-name="plusminus" unicode="&#xb1;" horiz-adv-x="480" 
d="M213 237v150h-150v53h150v150h54v-150h150v-53h-150v-150h-54zM63 112v53h354v-53h-354z" />
    <glyph glyph-name="product" unicode="&#x220f;" horiz-adv-x="639" 
d="M121 -220v863h-98v57h593v-57h-98v-863h-60v863h-278v-863h-59z" />
    <glyph glyph-name="radical" unicode="&#x221a;" horiz-adv-x="621" 
d="M262 0l-150 423h-97v57h135l140 -403l265 703h62l-302 -780h-53z" />
    <glyph glyph-name="summation" unicode="&#x2211;" horiz-adv-x="460" 
d="M28 0v34l208 316l-208 316v34h395v-57h-315l189 -287v-12l-189 -287h317v-57h-397z" />
    <glyph glyph-name="lozenge" unicode="&#x25ca;" horiz-adv-x="471" 
d="M204 0l-181 350l181 350h63l180 -350l-180 -350h-63zM235 66l148 284l-148 284l-148 -284z" />
    <glyph glyph-name="bar" unicode="|" horiz-adv-x="204" 
d="M72 -100v910h60v-910h-60z" />
    <glyph glyph-name="brokenbar" unicode="&#xa6;" horiz-adv-x="202" 
d="M71 459v351h60v-351h-60zM71 -100v351h60v-351h-60z" />
    <glyph glyph-name="at" unicode="@" horiz-adv-x="865" 
d="M466 -231c-256 0 -428 165 -428 471c0 242 135 471 407 471c265 0 377 -239 377 -432c0 -175 -53 -270 -160 -270c-69 0 -106 38 -120 96c-29 -45 -68 -74 -126 -74c-98 0 -157 82 -157 206c0 125 59 208 157 208c49 0 92 -24 117 -69v60h56v-272c0 -65 17 -105 76 -105
c81 0 98 92 98 220c0 172 -95 376 -318 376c-234 0 -348 -199 -348 -415c0 -266 139 -415 370 -415c68 0 131 11 202 36v-56c-73 -27 -135 -36 -203 -36zM426 83c52 0 83 30 107 74v162c-24 44 -55 74 -107 74c-67 0 -110 -58 -110 -155s43 -155 110 -155z" />
    <glyph glyph-name="ampersand" unicode="&#x26;" horiz-adv-x="574" 
d="M571 0h-72l-67 77c-45 -53 -110 -88 -197 -88c-136 0 -202 80 -202 171c0 107 75 167 140 211c-38 44 -85 99 -85 178c0 81 63 162 173 162c92 0 153 -63 153 -146c0 -96 -76 -152 -159 -203l171 -194c22 46 32 101 31 153h59c0 -66 -16 -139 -51 -199zM260 657
c-80 0 -114 -58 -114 -108c0 -65 42 -111 75 -148c70 42 135 91 135 160c0 54 -35 96 -96 96zM235 43c73 0 125 30 161 75l-187 212c-57 -39 -117 -85 -117 -167c0 -66 45 -120 143 -120z" />
    <glyph glyph-name="paragraph" unicode="&#xb6;" horiz-adv-x="533" 
d="M200 -220v507c-103 0 -176 76 -176 206s73 207 176 207h248v-920h-59v863h-130v-863h-59z" />
    <glyph glyph-name="copyright" unicode="&#xa9;" horiz-adv-x="691" 
d="M345 -11c-171 0 -303 130 -303 361s132 361 303 361c172 0 304 -130 304 -361s-132 -361 -304 -361zM345 12c166 0 280 126 280 338s-114 338 -280 338c-165 0 -279 -126 -279 -338s114 -338 279 -338zM363 148c-111 0 -168 79 -168 202s65 202 168 202
c31 0 56 -6 81 -19v-43c-23 13 -47 18 -75 18c-80 0 -126 -61 -126 -158c0 -99 39 -157 120 -157c35 0 63 6 85 16v-43c-19 -9 -52 -18 -85 -18z" />
    <glyph glyph-name="registered" unicode="&#xae;" horiz-adv-x="691" 
d="M345 -11c-171 0 -303 130 -303 361s132 361 303 361c172 0 304 -130 304 -361s-132 -361 -304 -361zM345 12c166 0 280 126 280 338s-114 338 -280 338c-165 0 -279 -126 -279 -338s114 -338 279 -338zM244 154v393h123c66 0 121 -35 121 -119c0 -60 -29 -101 -79 -115
l96 -159h-47l-91 152h-80v-152h-43zM287 348h82c39 0 76 20 76 80c0 61 -37 78 -76 78h-82v-158z" />
    <glyph glyph-name="section" unicode="&#xa7;" horiz-adv-x="438" 
d="M213 -34c-56 0 -109 12 -156 40v53c49 -31 103 -43 154 -43c64 0 117 24 117 80c0 60 -55 76 -131 103c-85 29 -157 67 -157 149c0 55 37 98 84 127c-41 24 -67 56 -67 108c0 85 74 128 164 128c53 0 95 -12 138 -35v-53c-41 24 -86 38 -135 38c-63 0 -110 -28 -110 -79
c0 -66 61 -78 142 -108c72 -27 149 -61 149 -147c0 -57 -37 -95 -87 -125c39 -22 66 -52 66 -105c0 -91 -81 -131 -171 -131zM272 227c41 20 78 48 78 98c0 52 -44 76 -112 99c-24 9 -48 17 -68 25c-36 -17 -75 -49 -75 -96c0 -70 65 -90 177 -126z" />
    <glyph glyph-name="trademark" unicode="&#x2122;" horiz-adv-x="536" 
d="M99 447v220h-70v33h176v-33h-70v-220h-36zM246 447v253h33l82 -140l82 140h33v-253h-35v189l-72 -122h-16l-72 122v-189h-35z" />
    <glyph glyph-name="degree" unicode="&#xb0;" horiz-adv-x="341" 
d="M171 442c-74 0 -134 52 -134 135c0 81 60 134 134 134s133 -53 133 -134c0 -83 -59 -135 -133 -135zM171 485c55 0 90 38 90 92s-35 92 -90 92s-91 -38 -91 -92s36 -92 91 -92z" />
    <glyph glyph-name="asciicircum" unicode="^" horiz-adv-x="433" 
d="M32 383l160 317h50l159 -317h-61l-123 249l-124 -249h-61z" />
    <glyph glyph-name="dagger" unicode="&#x2020;" horiz-adv-x="423" 
d="M182 -220v643h-140v57h140v220h59v-220h140v-57h-140v-643h-59z" />
    <glyph glyph-name="daggerdbl" unicode="&#x2021;" horiz-adv-x="423" 
d="M182 -220v313h-140v56h140v274h-140v57h140v220h59v-220h140v-57h-140v-274h140v-56h-140v-313h-59z" />
    <glyph glyph-name="uni0308" unicode="&#x308;" horiz-adv-x="0" 
d="M-388 795c-23 0 -42 19 -42 41s19 42 42 42s41 -20 41 -42s-18 -41 -41 -41zM-224 795c-22 0 -41 19 -41 41s19 42 41 42c23 0 42 -20 42 -42s-19 -41 -42 -41z" />
    <glyph glyph-name="uni0307" unicode="&#x307;" horiz-adv-x="0" 
d="M-306 779c-25 0 -43 16 -43 44s18 44 43 44c26 0 44 -16 44 -44s-18 -44 -44 -44z" />
    <glyph glyph-name="gravecomb" unicode="&#x300;" horiz-adv-x="0" 
d="M-308 773l-98 135h68l89 -135h-59z" />
    <glyph glyph-name="acutecomb" unicode="&#x301;" horiz-adv-x="0" 
d="M-362 773l90 135h68l-99 -135h-59z" />
    <glyph glyph-name="uni030B" unicode="&#x30b;" horiz-adv-x="0" 
d="M-416 779l68 138h63l-72 -138h-59zM-277 779l72 138h62l-75 -138h-59z" />
    <glyph glyph-name="uni0302" unicode="&#x302;" horiz-adv-x="0" 
d="M-278 903l104 -129h-63l-66 80l-67 -80h-63l104 129h51z" />
    <glyph glyph-name="uni030C" unicode="&#x30c;" horiz-adv-x="0" 
d="M-279 774h-51l-104 129h63l66 -80l67 80h63z" />
    <glyph glyph-name="uni0306" unicode="&#x306;" horiz-adv-x="0" 
d="M-302 774c-46 0 -84 11 -117 33v53c36 -22 75 -32 117 -32s81 10 117 32v-53c-33 -22 -71 -33 -117 -33z" />
    <glyph glyph-name="uni030A" unicode="&#x30a;" horiz-adv-x="0" 
d="M-302 750c-55 0 -98 38 -98 98s43 98 98 98s98 -38 98 -98s-43 -98 -98 -98zM-302 790c32 0 54 22 54 58s-22 58 -54 58s-54 -22 -54 -58s22 -58 54 -58z" />
    <glyph glyph-name="tildecomb" unicode="&#x303;" horiz-adv-x="0" 
d="M-250 774c-53 0 -82 46 -112 46c-20 0 -28 -16 -30 -41h-43c-5 59 22 91 65 91c56 0 85 -45 111 -45c23 0 29 15 31 41h43c5 -60 -21 -92 -65 -92z" />
    <glyph glyph-name="uni0304" unicode="&#x304;" horiz-adv-x="0" 
d="M-185 847v-52h-247v52h247z" />
    <glyph glyph-name="uni0312" unicode="&#x312;" horiz-adv-x="0" 
d="M-264 942l-21 -169h-57l28 169h50z" />
    <glyph glyph-name="uni0326" unicode="&#x326;" horiz-adv-x="0" 
d="M-351 -237l23 180h56l-29 -180h-50z" />
    <glyph glyph-name="uni0327" unicode="&#x327;" horiz-adv-x="0" 
d="M-279 0l-16 -70c42 1 84 -18 85 -72c1 -59 -55 -89 -111 -89c-29 0 -53 4 -73 13v46c23 -10 43 -13 70 -13c41 0 65 17 65 45c0 38 -46 44 -92 32l22 108h50z" />
    <glyph glyph-name="uni0328" unicode="&#x328;" horiz-adv-x="0" 
d="M-252 -231c-58 0 -90 31 -90 80c0 44 27 101 72 151h60c-50 -48 -79 -100 -79 -139c0 -34 21 -46 46 -46c14 0 29 2 43 9v-44c-16 -7 -33 -11 -52 -11z" />
    <glyph glyph-name="acute" unicode="&#xb4;" horiz-adv-x="217" 
d="M30 773l90 135h67l-98 -135h-59z" />
    <glyph glyph-name="breve" unicode="&#x2d8;" horiz-adv-x="293" 
d="M147 774c-46 0 -84 11 -117 33v53c36 -22 74 -32 117 -32c42 0 81 10 116 32v-53c-32 -22 -70 -33 -116 -33z" />
    <glyph glyph-name="caron" unicode="&#x2c7;" horiz-adv-x="319" 
d="M185 774h-51l-104 129h63l67 -80l66 80h63z" />
    <glyph glyph-name="cedilla" unicode="&#xb8;" horiz-adv-x="244" 
d="M145 0l-16 -70c42 1 84 -18 85 -72c1 -59 -55 -89 -111 -89c-29 0 -53 4 -73 13v46c23 -10 43 -13 70 -13c41 0 65 17 65 45c0 38 -46 44 -92 32l22 108h50z" />
    <glyph glyph-name="circumflex" unicode="&#x2c6;" horiz-adv-x="319" 
d="M185 903l104 -129h-63l-66 80l-67 -80h-63l104 129h51z" />
    <glyph glyph-name="dieresis" unicode="&#xa8;" horiz-adv-x="308" 
d="M72 795c-23 0 -42 19 -42 41s19 42 42 42s41 -20 41 -42s-18 -41 -41 -41zM236 795c-22 0 -41 19 -41 41s19 42 41 42c23 0 42 -20 42 -42s-19 -41 -42 -41z" />
    <glyph glyph-name="dotaccent" unicode="&#x2d9;" horiz-adv-x="147" 
d="M73 779c-25 0 -43 16 -43 44s18 44 43 44c26 0 44 -16 44 -44s-18 -44 -44 -44z" />
    <glyph glyph-name="grave" unicode="`" horiz-adv-x="217" 
d="M128 773l-98 135h68l89 -135h-59z" />
    <glyph glyph-name="hungarumlaut" unicode="&#x2dd;" horiz-adv-x="333" 
d="M30 779l68 138h63l-72 -138h-59zM169 779l72 138h62l-75 -138h-59z" />
    <glyph glyph-name="macron" unicode="&#xaf;" horiz-adv-x="307" 
d="M277 847v-52h-247v52h247z" />
    <glyph glyph-name="ogonek" unicode="&#x2db;" horiz-adv-x="202" 
d="M120 -231c-58 0 -90 31 -90 80c0 44 27 101 72 151h60c-50 -48 -79 -100 -79 -139c0 -34 21 -46 46 -46c14 0 29 2 43 9v-44c-16 -7 -33 -11 -52 -11z" />
    <glyph glyph-name="ring" unicode="&#x2da;" horiz-adv-x="255" 
d="M128 750c-56 0 -98 38 -98 98s42 98 98 98c55 0 97 -38 97 -98s-42 -98 -97 -98zM128 790c32 0 53 22 53 58s-21 58 -53 58s-54 -22 -54 -58s22 -58 54 -58z" />
    <glyph glyph-name="tilde" unicode="&#x2dc;" horiz-adv-x="312" 
d="M216 774c-53 0 -82 46 -112 46c-20 0 -28 -16 -30 -41h-43c-5 59 22 91 65 91c56 0 85 -45 111 -45c23 0 29 15 31 41h43c5 -60 -21 -92 -65 -92z" />
    </font>
</defs>
</svg>
