<svg width="48" height="48" viewBox="0 0 48 48" fill="none" xmlns="http://www.w3.org/2000/svg">
<rect width="48" height="48" rx="4" fill="#FFEEB8"/>
<path fill-rule="evenodd" clip-rule="evenodd" d="M9.15077 27.5355C8.76025 27.145 8.76025 26.5118 9.15077 26.1213L26.1213 9.1507C26.5119 8.76018 27.145 8.76018 27.5355 9.1507L30.364 11.9791C28.8019 13.5412 28.8019 16.0739 30.364 17.636C31.9261 19.1981 34.4587 19.1981 36.0208 17.636L38.8493 20.4644C39.2398 20.8549 39.2398 21.4881 38.8493 21.8786L21.8787 38.8492C21.4882 39.2397 20.855 39.2397 20.4645 38.8492L17.6361 36.0208C19.1981 34.4587 19.1981 31.926 17.6361 30.3639C16.074 28.8018 13.5413 28.8018 11.9792 30.3639L9.15077 27.5355Z" fill="#5DCBB6"/>
<path fill-rule="evenodd" clip-rule="evenodd" d="M20.1677 23.5898L19.0365 21.8924L20.4782 20.4507L21.6099 22.1476L22.9961 20.7614L21.8924 19.0365L23.2929 17.636L24.4383 19.3191L25.4143 18.3432L26.8285 19.7574L25.5697 21.0162L26.7011 22.7133L28.2427 21.1716L29.6569 22.5858L27.8325 24.4103L28.9635 26.1076L27.5493 27.5218L26.3902 25.8525L25.004 27.2387L26.1076 28.9635L24.7071 30.364L23.5618 28.681L22.5859 29.6569L21.1716 28.2427L22.4304 26.9839L21.2991 25.2868L19.7574 26.8285L18.3432 25.4143L20.1677 23.5898ZM22.7413 23.8446L23.8727 25.5417L25.2589 24.1555L24.1275 22.4584L22.7413 23.8446Z" fill="#469FA6"/>
</svg>
