<svg width="96" height="96" viewBox="0 0 96 96" fill="none" xmlns="http://www.w3.org/2000/svg">
<circle cx="48" cy="48" r="48" fill="#FFEEB8"/>
<path d="M19 45C19 41.6863 21.6863 39 25 39H29V57H25C21.6863 57 19 54.3137 19 51V45Z" fill="#469FA6"/>
<rect x="55" y="28" width="4" height="40" rx="2" fill="#469FA6"/>
<path fill-rule="evenodd" clip-rule="evenodd" d="M29 39H46C51 39 55 35 55 30V48V66C55 61 51 57 46 57H29V48V39Z" fill="#5DCBB6"/>
<path d="M29 57H37V66C37 67.1046 36.1046 68 35 68H34.2914C32.9385 68 31.7531 67.0945 31.3971 65.7894L29 57Z" fill="#469FA6"/>
<path d="M59 42C60.6569 42 62 43.3431 62 45V51C62 52.6569 60.6569 54 59 54V42Z" fill="#469FA6"/>
<path d="M67.8825 40C68.6103 42.5411 69 45.225 69 48C69 50.775 68.6103 53.4589 67.8825 56" stroke="#469FA6" stroke-width="2" stroke-linecap="round"/>
<path d="M72.0877 34C73.9609 38.2872 75 43.0223 75 48C75 52.9777 73.9609 57.7128 72.0877 62" stroke="#469FA6" stroke-width="2" stroke-linecap="round"/>
</svg>
