<svg width="48" height="48" viewBox="0 0 48 48" fill="none" xmlns="http://www.w3.org/2000/svg">
<rect width="48" height="48" rx="4" fill="#FFEEB8"/>
<path d="M36.0667 32.2189L23.9967 20.2189L22.5867 18.8189C22.3116 18.5468 22.1034 18.2147 21.9784 17.8486C21.8535 17.4824 21.8152 17.0923 21.8667 16.7089C21.9925 15.8015 21.9053 14.8772 21.6119 14.0094C21.3186 13.1415 20.8272 12.3539 20.1767 11.7089C19.5118 11.0591 18.7049 10.5727 17.8199 10.2881C16.9348 10.0035 15.9957 9.92841 15.0767 10.0689C15.0109 10.0769 14.9488 10.1034 14.8975 10.1453C14.8462 10.1872 14.8079 10.2428 14.7869 10.3056C14.766 10.3685 14.7633 10.4359 14.7792 10.5002C14.7951 10.5645 14.8289 10.623 14.8767 10.6689L16.6767 12.4589C16.8799 12.6606 17.0411 12.9005 17.1512 13.1648C17.2612 13.4291 17.3179 13.7126 17.3179 13.9989C17.3179 14.2852 17.2612 14.5686 17.1512 14.8329C17.0411 15.0972 16.8799 15.3372 16.6767 15.5389L15.5767 16.6489C15.1646 17.058 14.6074 17.2876 14.0267 17.2876C13.446 17.2876 12.8888 17.058 12.4767 16.6489L10.6667 14.8589C10.6193 14.8147 10.561 14.7841 10.4977 14.7703C10.4345 14.7565 10.3687 14.7601 10.3072 14.7806C10.2458 14.801 10.1911 14.8377 10.1487 14.8867C10.1064 14.9356 10.078 14.9951 10.0667 15.0589C9.92741 15.9765 10.007 16.9142 10.299 17.7952C10.5909 18.6763 11.087 19.4759 11.7467 20.1289C12.397 20.7713 13.1856 21.2566 14.0522 21.5478C14.9187 21.8389 15.8403 21.9282 16.7467 21.8089C17.1308 21.7569 17.5218 21.7939 17.8894 21.917C18.2569 22.0401 18.5913 22.246 18.8667 22.5189L20.2667 23.9089L32.3467 35.9089C32.8412 36.3998 33.5098 36.6754 34.2067 36.6754C34.9035 36.6754 35.5721 36.3998 36.0667 35.9089C36.5558 35.4194 36.8306 34.7558 36.8306 34.0639C36.8306 33.3719 36.5558 32.7083 36.0667 32.2189Z" fill="#5DCBB6"/>
<path d="M37.855 11.375L36.625 10.145C36.5502 10.0707 36.4538 10.0221 36.3496 10.0059C36.2454 9.98975 36.1388 10.0069 36.045 10.055L29.925 13.055C29.7567 13.1374 29.615 13.2655 29.516 13.4247C29.4169 13.5838 29.3646 13.7676 29.365 13.955V16.845L26.765 19.425L28.505 21.165L31.115 18.575H33.995C34.1797 18.5744 34.3606 18.5227 34.5177 18.4256C34.6748 18.3286 34.8019 18.1899 34.885 18.025L37.945 11.955C37.9931 11.8612 38.0102 11.7545 37.9941 11.6504C37.9779 11.5462 37.9292 11.4498 37.855 11.375Z" fill="#469FA6"/>
<path d="M16.383 26.5692L11.1588 31.7563C10.4732 32.4026 10.0608 33.287 10.0062 34.2278C9.95162 35.1687 10.259 36.0948 10.8653 36.8162C11.193 37.1772 11.5903 37.4681 12.0333 37.6713C12.4764 37.8746 12.956 37.986 13.4432 37.9988C13.9305 38.0116 14.4153 37.9255 14.8684 37.7458C15.3215 37.5661 15.7336 37.2965 16.0797 36.9532L21.4212 31.6388C21.6046 31.4569 21.7502 31.2404 21.8495 31.0019C21.9489 30.7633 22 30.5075 22 30.2491C22 29.9907 21.9489 29.7349 21.8495 29.4963C21.7502 29.2578 21.6046 29.0413 21.4212 28.8593L19.1418 26.5692C18.7752 26.2046 18.2793 26 17.7624 26C17.2455 26 16.7496 26.2046 16.383 26.5692Z" fill="#469FA6"/>
</svg>
