<svg width="224" height="224" viewBox="0 0 224 224" fill="none" xmlns="http://www.w3.org/2000/svg">
<rect width="224" height="224" rx="112" fill="#FFEEB8"/>
<path fill-rule="evenodd" clip-rule="evenodd" d="M57.5528 166.447C80.456 189.35 113.928 186.439 133.213 167.154L165.74 134.627C167.302 133.065 167.302 130.533 165.74 128.971L148.77 112C147.207 110.438 144.675 110.438 143.113 112L110.586 144.527C103.001 152.112 89.804 153.444 80.1802 143.82L57.5528 166.447Z" fill="#5DCBB6"/>
<path fill-rule="evenodd" clip-rule="evenodd" d="M57.5528 166.447C34.6496 143.544 37.5609 110.072 56.8457 90.7868L89.3726 58.2599C90.9347 56.6978 93.4673 56.6978 95.0294 58.2599L112 75.2304C113.562 76.7925 113.562 79.3252 112 80.8873L79.4731 113.414C71.8878 120.999 70.5565 134.196 80.1802 143.82L57.5528 166.447Z" fill="#5DCBB6"/>
<path d="M106.343 52.603C108.641 50.3049 111.47 53.1334 113.761 50.8423C116.052 48.5513 113.23 45.7158 115.536 43.4106C117.841 41.1055 120.662 43.941 122.96 41.6429C125.258 39.3448 122.43 36.5163 124.728 34.2183" stroke="#469FA6" stroke-width="4" stroke-miterlimit="10" stroke-linecap="round"/>
<path d="M116.243 62.5026C118.541 60.2045 121.369 63.0329 123.667 60.7348C125.965 58.4367 123.137 55.6083 125.435 53.3102C127.733 51.0121 130.562 53.8405 132.853 51.5495C135.144 49.2585 132.322 46.423 134.62 44.1249C136.918 41.8268 139.747 44.6552 142.045 42.3571C144.343 40.059 141.522 37.2235 143.82 34.9254" stroke="#469FA6" stroke-width="4" stroke-miterlimit="10" stroke-linecap="round"/>
<path d="M171.397 117.657C173.695 115.359 170.867 112.53 173.158 110.239C175.449 107.948 178.284 110.77 180.589 108.464C182.895 106.159 180.059 103.338 182.357 101.04C184.655 98.7418 187.484 101.57 189.782 99.2721" stroke="#469FA6" stroke-width="4" stroke-miterlimit="10" stroke-linecap="round"/>
<path d="M161.497 107.757C163.796 105.459 160.967 102.631 163.265 100.333C165.563 98.0346 168.392 100.863 170.69 98.5649C172.988 96.2668 170.16 93.4384 172.451 91.1474C174.742 88.8564 177.577 91.6777 179.875 89.3796C182.173 87.0815 179.345 84.2531 181.643 81.955C183.941 79.6569 186.777 82.4783 189.075 80.1802" stroke="#469FA6" stroke-width="4" stroke-miterlimit="10" stroke-linecap="round"/>
<path d="M69.5736 78.0588L89.3726 58.2598C90.9347 56.6977 93.4674 56.6978 95.0295 58.2598L112 75.2304C113.562 76.7925 113.562 79.3252 112 80.8873L92.201 100.686L69.5736 78.0588Z" fill="#469FA6"/>
<path d="M123.314 131.799L143.113 112C144.675 110.438 147.207 110.438 148.77 112L165.74 128.971C167.302 130.533 167.302 133.065 165.74 134.627L145.941 154.426L123.314 131.799Z" fill="#469FA6"/>
</svg>
