<svg width="310" height="140" viewBox="0 0 310 140" fill="none" xmlns="http://www.w3.org/2000/svg">
<path fill-rule="evenodd" clip-rule="evenodd" d="M310 70C310 45.785 305.146 22.339 295.573 0.312988L290.071 2.70499C299.313 23.972 304 46.613 304 70C304 83.555 302.389 97 299.219 110.047L295.337 108.728L293.483 136.95L309.201 113.437L304.916 111.981C308.281 98.308 310 84.212 310 70Z" fill="#469FA6"/>
<path fill-rule="evenodd" clip-rule="evenodd" d="M11.1797 28.3599L15.0597 29.7179L17.1747 1.51489L1.23969 24.8809L5.50069 26.3729C1.86069 40.5609 -0.000305176 55.2109 -0.000305176 69.9999C-0.000305176 94.2079 4.85169 117.649 14.4187 139.672L19.9227 137.281C10.6847 116.017 5.99969 93.3809 5.99969 69.9999C5.99969 55.8869 7.74769 41.9069 11.1797 28.3599Z" fill="#469FA6"/>
<path d="M104 49L206 49.1702V107C206 110.314 203.314 113 200 113H110C106.686 113 104 110.314 104 107V49Z" fill="#FFEEB8"/>
<path d="M155 13L104 49L155 86L206 49L155 13Z" fill="#5DCBB6"/>
<mask id="mask0" mask-type="alpha" maskUnits="userSpaceOnUse" x="104" y="13" width="102" height="73">
<path d="M155 13L104 49L155 86L206 49L155 13Z" fill="#5DCBB6"/>
</mask>
<g mask="url(#mask0)">
<path d="M119 49H191V92H119V49Z" fill="white"/>
<path d="M129 59H181V63H129V59Z" fill="#5DCBB6"/>
<path d="M143 69H167V73H143V69Z" fill="#5DCBB6"/>
</g>
</svg>
