<svg width="1920" height="470" viewBox="0 0 1920 470" fill="none" xmlns="http://www.w3.org/2000/svg">
<mask id="mask0" mask-type="alpha" maskUnits="userSpaceOnUse" x="0" y="0" width="1920" height="470">
<rect width="1920" height="470" fill="white"/>
</mask>
<g mask="url(#mask0)">
<path fill-rule="evenodd" clip-rule="evenodd" d="M0 470H1920V0H0V470Z" fill="#163942"/>
<mask id="mask1" mask-type="alpha" maskUnits="userSpaceOnUse" x="880" y="143" width="359" height="374">
<path d="M1119.5 188.5C1074 221 962 318 881 471V516H1051V471C1058.5 358 1139.5 240 1177.5 212L1237 236L1208 145L1060 166L1119.5 188.5Z" fill="#C4C4C4" stroke="#009BB2" stroke-width="2" stroke-miterlimit="6.07152"/>
</mask>
<g mask="url(#mask1)">
<path d="M1119.5 188.5C1074 221 962 318 881 471V516H1051V471C1058.5 358 1139.5 240 1177.5 212L1237 236L1208 145L1060 166L1119.5 188.5Z" fill="url(#paint0_linear)"/>
<g filter="url(#filter0_f)">
<path d="M1119.5 188.5C1074 221 962 318 881 471V516H1051V471C1058.5 358 1139.5 240 1177.5 212L1237 236L1208 145L1060 166L1119.5 188.5Z" stroke="#00DEFF" stroke-width="2" stroke-miterlimit="6.07152"/>
</g>
<path d="M1119.5 188.5C1074 221 962 318 881 471V516H1051V471C1058.5 358 1139.5 240 1177.5 212L1237 236L1208 145L1060 166L1119.5 188.5Z" stroke="#009BB2" stroke-width="2" stroke-miterlimit="6.07152"/>
</g>
<mask id="mask2" mask-type="alpha" maskUnits="userSpaceOnUse" x="1542" y="-54" width="294" height="381">
<path d="M1652 279C1705 238 1809 101 1835 -2V-53H1705V-2C1705 95 1647 196 1595 253L1544 230L1561 325L1720 308L1652 279Z" fill="#C4C4C4" stroke="#009BB2" stroke-width="2" stroke-miterlimit="4.7764"/>
</mask>
<g mask="url(#mask2)">
<path d="M1652 279C1705 238 1809 101 1835 -2V-53H1705V-2C1705 95 1647 196 1595 253L1544 230L1561 325L1720 308L1652 279Z" fill="url(#paint1_linear)"/>
<g filter="url(#filter1_f)">
<path d="M1652 279C1705 238 1809 101 1835 -2V-53H1705V-2C1705 95 1647 196 1595 253L1544 230L1561 325L1720 308L1652 279Z" stroke="#00DEFF" stroke-width="2" stroke-miterlimit="4.7764"/>
</g>
<path d="M1652 279C1705 238 1809 101 1835 -2V-53H1705V-2C1705 95 1647 196 1595 253L1544 230L1561 325L1720 308L1652 279Z" stroke="#009BB2" stroke-width="2" stroke-miterlimit="4.7764"/>
</g>
<mask id="mask3" mask-type="alpha" maskUnits="userSpaceOnUse" x="1256" y="131" width="241" height="238">
<path fill-rule="evenodd" clip-rule="evenodd" d="M1372.21 138.437L1260.06 284.63C1255.69 290.327 1257.27 298.559 1263.43 302.239L1369.7 365.659C1374.23 368.36 1380.07 367.086 1383.06 362.747L1493.22 202.894C1497.33 196.933 1495.26 188.719 1488.82 185.411L1461.56 171.407C1459.78 170.496 1457.63 171.056 1456.27 172.515C1452.19 176.906 1446.54 179.88 1440.1 180.508C1424.67 182.013 1411.48 171.243 1411.29 158.199C1411.24 154.496 1411.7 152.074 1412.3 150.105C1412.9 148.155 1412.16 146.033 1410.34 145.1L1389.72 134.505C1383.7 131.414 1376.33 133.069 1372.21 138.437ZM1391.32 279.586C1391.64 279.843 1391.53 280.359 1391.13 280.461L1371.22 285.54C1369.96 285.862 1368.93 286.777 1368.47 287.994L1361.04 307.556C1360.89 307.945 1360.36 307.993 1360.14 307.637L1349.56 290.145C1348.86 288.993 1347.63 288.268 1346.29 288.218L1325.92 287.465C1325.5 287.45 1325.29 286.963 1325.55 286.644L1339.02 270.625C1339.85 269.632 1340.16 268.297 1339.83 267.042L1334.64 247.163C1334.54 246.763 1334.94 246.417 1335.32 246.574L1353.97 254.275C1355.19 254.782 1356.59 254.647 1357.7 253.913L1374.9 242.524C1375.25 242.294 1375.71 242.566 1375.68 242.981L1374.01 263.517C1373.9 264.844 1374.46 266.138 1375.5 266.968L1391.32 279.586Z" fill="#C4C4C4"/>
<path d="M1260.06 284.63L1259.27 284.022L1259.27 284.022L1260.06 284.63ZM1372.21 138.437L1371.42 137.828L1371.42 137.828L1372.21 138.437ZM1263.43 302.239L1262.92 303.097L1263.43 302.239ZM1369.7 365.659L1369.19 366.518L1369.7 365.659ZM1383.06 362.747L1383.88 363.314L1383.06 362.747ZM1493.22 202.894L1494.04 203.462L1493.22 202.894ZM1488.82 185.411L1489.28 184.522L1489.28 184.522L1488.82 185.411ZM1461.56 171.407L1462.01 170.517L1461.56 171.407ZM1456.27 172.515L1457.01 173.197L1456.27 172.515ZM1411.29 158.199L1412.29 158.185L1412.29 158.185L1411.29 158.199ZM1412.3 150.105L1413.26 150.4L1413.26 150.4L1412.3 150.105ZM1410.34 145.1L1410.8 144.211L1410.34 145.1ZM1389.72 134.505L1389.26 135.395L1389.26 135.395L1389.72 134.505ZM1391.13 280.461L1391.38 281.43L1391.38 281.43L1391.13 280.461ZM1391.32 279.586L1390.7 280.367L1390.7 280.367L1391.32 279.586ZM1371.22 285.54L1370.97 284.571L1371.22 285.54ZM1368.47 287.994L1367.54 287.639L1367.54 287.639L1368.47 287.994ZM1361.04 307.556L1361.97 307.911L1361.97 307.911L1361.04 307.556ZM1360.14 307.637L1359.28 308.154L1359.28 308.154L1360.14 307.637ZM1349.56 290.145L1348.7 290.663L1349.56 290.145ZM1346.29 288.218L1346.32 287.219L1346.29 288.218ZM1325.92 287.465L1325.88 288.465L1325.88 288.465L1325.92 287.465ZM1325.55 286.644L1326.32 287.287L1326.32 287.287L1325.55 286.644ZM1339.02 270.625L1339.79 271.269L1339.02 270.625ZM1339.83 267.042L1340.8 266.789L1340.8 266.789L1339.83 267.042ZM1334.64 247.163L1333.67 247.415L1333.67 247.415L1334.64 247.163ZM1335.32 246.574L1335.7 245.65L1335.7 245.65L1335.32 246.574ZM1353.97 254.275L1353.58 255.2L1353.58 255.2L1353.97 254.275ZM1357.7 253.913L1358.25 254.747L1357.7 253.913ZM1374.9 242.524L1375.45 243.358L1374.9 242.524ZM1375.68 242.981L1376.67 243.062L1376.67 243.062L1375.68 242.981ZM1374.01 263.517L1375 263.598L1374.01 263.517ZM1375.5 266.968L1374.88 267.75L1374.88 267.75L1375.5 266.968ZM1260.86 285.239L1373.01 139.046L1371.42 137.828L1259.27 284.022L1260.86 285.239ZM1263.95 301.38C1258.3 298.007 1256.85 290.461 1260.86 285.239L1259.27 284.022C1254.54 290.193 1256.24 299.112 1262.92 303.097L1263.95 301.38ZM1370.22 364.801L1263.95 301.38L1262.92 303.097L1369.19 366.518L1370.22 364.801ZM1382.24 362.179C1379.55 366.084 1374.29 367.231 1370.22 364.801L1369.19 366.518C1374.17 369.489 1380.6 368.087 1383.88 363.314L1382.24 362.179ZM1492.39 202.327L1382.24 362.179L1383.88 363.314L1494.04 203.462L1492.39 202.327ZM1488.36 186.301C1494.27 189.333 1496.16 196.862 1492.39 202.327L1494.04 203.462C1498.49 197.004 1496.25 188.105 1489.28 184.522L1488.36 186.301ZM1461.1 172.297L1488.36 186.301L1489.28 184.522L1462.01 170.517L1461.1 172.297ZM1457.01 173.197C1458.12 172.005 1459.79 171.625 1461.1 172.297L1462.01 170.517C1459.77 169.367 1457.15 170.107 1455.54 171.834L1457.01 173.197ZM1440.19 181.503C1446.89 180.85 1452.76 177.759 1457.01 173.197L1455.54 171.834C1451.61 176.053 1446.19 178.909 1440 179.513L1440.19 181.503ZM1410.29 158.213C1410.49 171.962 1424.31 183.053 1440.19 181.503L1440 179.513C1425.03 180.973 1412.47 170.525 1412.29 158.185L1410.29 158.213ZM1411.35 149.811C1410.71 151.885 1410.24 154.412 1410.29 158.213L1412.29 158.185C1412.24 154.58 1412.68 152.263 1413.26 150.4L1411.35 149.811ZM1409.89 145.99C1411.22 146.672 1411.82 148.262 1411.35 149.811L1413.26 150.4C1413.98 148.048 1413.1 145.393 1410.8 144.211L1409.89 145.99ZM1389.26 135.395L1409.89 145.99L1410.8 144.211L1390.17 133.616L1389.26 135.395ZM1373.01 139.046C1376.83 134.061 1383.67 132.524 1389.26 135.395L1390.17 133.616C1383.73 130.303 1375.83 132.076 1371.42 137.828L1373.01 139.046ZM1391.38 281.43C1392.58 281.124 1392.91 279.576 1391.95 278.804L1390.7 280.367C1390.38 280.11 1390.49 279.594 1390.89 279.492L1391.38 281.43ZM1371.47 286.509L1391.38 281.43L1390.89 279.492L1370.97 284.571L1371.47 286.509ZM1369.41 288.35C1369.75 287.437 1370.52 286.75 1371.47 286.509L1370.97 284.571C1369.4 284.973 1368.12 286.118 1367.54 287.639L1369.41 288.35ZM1361.97 307.911L1369.41 288.35L1367.54 287.639L1360.1 307.2L1361.97 307.911ZM1359.28 308.154C1359.93 309.224 1361.53 309.079 1361.97 307.911L1360.1 307.2C1360.25 306.811 1360.78 306.763 1361 307.119L1359.28 308.154ZM1348.7 290.663L1359.28 308.154L1361 307.119L1350.42 289.628L1348.7 290.663ZM1346.25 289.218C1347.26 289.255 1348.18 289.798 1348.7 290.663L1350.42 289.628C1349.54 288.187 1348.01 287.281 1346.32 287.219L1346.25 289.218ZM1325.88 288.465L1346.25 289.218L1346.32 287.219L1325.96 286.466L1325.88 288.465ZM1324.79 286.001C1323.99 286.957 1324.63 288.419 1325.88 288.465L1325.96 286.466C1326.37 286.481 1326.59 286.969 1326.32 287.287L1324.79 286.001ZM1338.25 269.982L1324.79 286.001L1326.32 287.287L1339.79 271.269L1338.25 269.982ZM1338.86 267.294C1339.11 268.235 1338.88 269.237 1338.25 269.982L1339.79 271.269C1340.83 270.028 1341.2 268.358 1340.8 266.789L1338.86 267.294ZM1333.67 247.415L1338.86 267.294L1340.8 266.789L1335.61 246.91L1333.67 247.415ZM1335.7 245.65C1334.55 245.177 1333.36 246.217 1333.67 247.415L1335.61 246.91C1335.71 247.31 1335.32 247.656 1334.94 247.499L1335.7 245.65ZM1354.35 253.351L1335.7 245.65L1334.94 247.499L1353.58 255.2L1354.35 253.351ZM1357.15 253.08C1356.32 253.63 1355.27 253.731 1354.35 253.351L1353.58 255.2C1355.12 255.834 1356.87 255.664 1358.25 254.747L1357.15 253.08ZM1374.35 241.69L1357.15 253.08L1358.25 254.747L1375.45 243.358L1374.35 241.69ZM1376.67 243.062C1376.77 241.815 1375.39 240.999 1374.35 241.69L1375.45 243.358C1375.1 243.588 1374.64 243.316 1374.68 242.901L1376.67 243.062ZM1375 263.598L1376.67 243.062L1374.68 242.901L1373.01 263.436L1375 263.598ZM1376.12 266.187C1375.34 265.564 1374.92 264.594 1375 263.598L1373.01 263.436C1372.88 265.095 1373.58 266.713 1374.88 267.75L1376.12 266.187ZM1391.95 278.804L1376.12 266.187L1374.88 267.75L1390.7 280.367L1391.95 278.804Z" fill="#009BB2"/>
</mask>
<g mask="url(#mask3)">
<path fill-rule="evenodd" clip-rule="evenodd" d="M1372.21 138.437L1260.06 284.63C1255.69 290.327 1257.27 298.559 1263.43 302.239L1369.7 365.659C1374.23 368.36 1380.07 367.086 1383.06 362.747L1493.22 202.894C1497.33 196.933 1495.26 188.719 1488.82 185.411L1461.56 171.407C1459.78 170.496 1457.63 171.056 1456.27 172.515C1452.19 176.906 1446.54 179.88 1440.1 180.508C1424.67 182.013 1411.48 171.243 1411.29 158.199C1411.24 154.496 1411.7 152.074 1412.3 150.105C1412.9 148.155 1412.16 146.033 1410.34 145.1L1389.72 134.505C1383.7 131.414 1376.33 133.069 1372.21 138.437ZM1391.32 279.586C1391.64 279.843 1391.53 280.359 1391.13 280.461L1371.22 285.54C1369.96 285.862 1368.93 286.777 1368.47 287.994L1361.04 307.556C1360.89 307.945 1360.36 307.993 1360.14 307.637L1349.56 290.145C1348.86 288.993 1347.63 288.268 1346.29 288.218L1325.92 287.465C1325.5 287.45 1325.29 286.963 1325.55 286.644L1339.02 270.625C1339.85 269.632 1340.16 268.297 1339.83 267.042L1334.64 247.163C1334.54 246.763 1334.94 246.417 1335.32 246.574L1353.97 254.275C1355.19 254.782 1356.59 254.647 1357.7 253.913L1374.9 242.524C1375.25 242.294 1375.71 242.566 1375.68 242.981L1374.01 263.517C1373.9 264.844 1374.46 266.138 1375.5 266.968L1391.32 279.586Z" fill="url(#paint2_linear)"/>
<g filter="url(#filter2_f)">
<path d="M1260.06 284.63L1259.27 284.022L1259.27 284.022L1260.06 284.63ZM1372.21 138.437L1371.42 137.828L1371.42 137.828L1372.21 138.437ZM1263.43 302.239L1262.92 303.097L1263.43 302.239ZM1369.7 365.659L1369.19 366.518L1369.7 365.659ZM1383.06 362.747L1383.88 363.314L1383.06 362.747ZM1493.22 202.894L1494.04 203.462L1493.22 202.894ZM1488.82 185.411L1489.28 184.522L1489.28 184.522L1488.82 185.411ZM1461.56 171.407L1462.01 170.517L1461.56 171.407ZM1456.27 172.515L1457.01 173.197L1456.27 172.515ZM1411.29 158.199L1412.29 158.185L1412.29 158.185L1411.29 158.199ZM1412.3 150.105L1413.26 150.4L1413.26 150.4L1412.3 150.105ZM1410.34 145.1L1410.8 144.211L1410.34 145.1ZM1389.72 134.505L1389.26 135.395L1389.26 135.395L1389.72 134.505ZM1391.13 280.461L1391.38 281.43L1391.38 281.43L1391.13 280.461ZM1391.32 279.586L1390.7 280.367L1390.7 280.367L1391.32 279.586ZM1371.22 285.54L1370.97 284.571L1371.22 285.54ZM1368.47 287.994L1367.54 287.639L1367.54 287.639L1368.47 287.994ZM1361.04 307.556L1361.97 307.911L1361.97 307.911L1361.04 307.556ZM1360.14 307.637L1359.28 308.154L1359.28 308.154L1360.14 307.637ZM1349.56 290.145L1348.7 290.663L1349.56 290.145ZM1346.29 288.218L1346.32 287.219L1346.29 288.218ZM1325.92 287.465L1325.88 288.465L1325.88 288.465L1325.92 287.465ZM1325.55 286.644L1326.32 287.287L1326.32 287.287L1325.55 286.644ZM1339.02 270.625L1339.79 271.269L1339.02 270.625ZM1339.83 267.042L1340.8 266.789L1340.8 266.789L1339.83 267.042ZM1334.64 247.163L1333.67 247.415L1333.67 247.415L1334.64 247.163ZM1335.32 246.574L1335.7 245.65L1335.7 245.65L1335.32 246.574ZM1353.97 254.275L1353.58 255.2L1353.58 255.2L1353.97 254.275ZM1357.7 253.913L1358.25 254.747L1357.7 253.913ZM1374.9 242.524L1375.45 243.358L1374.9 242.524ZM1375.68 242.981L1376.67 243.062L1376.67 243.062L1375.68 242.981ZM1374.01 263.517L1375 263.598L1374.01 263.517ZM1375.5 266.968L1374.88 267.75L1374.88 267.75L1375.5 266.968ZM1260.86 285.239L1373.01 139.046L1371.42 137.828L1259.27 284.022L1260.86 285.239ZM1263.95 301.38C1258.3 298.007 1256.85 290.461 1260.86 285.239L1259.27 284.022C1254.54 290.193 1256.24 299.112 1262.92 303.097L1263.95 301.38ZM1370.22 364.801L1263.95 301.38L1262.92 303.097L1369.19 366.518L1370.22 364.801ZM1382.24 362.179C1379.55 366.084 1374.29 367.231 1370.22 364.801L1369.19 366.518C1374.17 369.489 1380.6 368.087 1383.88 363.314L1382.24 362.179ZM1492.39 202.327L1382.24 362.179L1383.88 363.314L1494.04 203.462L1492.39 202.327ZM1488.36 186.301C1494.27 189.333 1496.16 196.862 1492.39 202.327L1494.04 203.462C1498.49 197.004 1496.25 188.105 1489.28 184.522L1488.36 186.301ZM1461.1 172.297L1488.36 186.301L1489.28 184.522L1462.01 170.517L1461.1 172.297ZM1457.01 173.197C1458.12 172.005 1459.79 171.625 1461.1 172.297L1462.01 170.517C1459.77 169.367 1457.15 170.107 1455.54 171.834L1457.01 173.197ZM1440.19 181.503C1446.89 180.85 1452.76 177.759 1457.01 173.197L1455.54 171.834C1451.61 176.053 1446.19 178.909 1440 179.513L1440.19 181.503ZM1410.29 158.213C1410.49 171.962 1424.31 183.053 1440.19 181.503L1440 179.513C1425.03 180.973 1412.47 170.525 1412.29 158.185L1410.29 158.213ZM1411.35 149.811C1410.71 151.885 1410.24 154.412 1410.29 158.213L1412.29 158.185C1412.24 154.58 1412.68 152.263 1413.26 150.4L1411.35 149.811ZM1409.89 145.99C1411.22 146.672 1411.82 148.262 1411.35 149.811L1413.26 150.4C1413.98 148.048 1413.1 145.393 1410.8 144.211L1409.89 145.99ZM1389.26 135.395L1409.89 145.99L1410.8 144.211L1390.17 133.616L1389.26 135.395ZM1373.01 139.046C1376.83 134.061 1383.67 132.524 1389.26 135.395L1390.17 133.616C1383.73 130.303 1375.83 132.076 1371.42 137.828L1373.01 139.046ZM1391.38 281.43C1392.58 281.124 1392.91 279.576 1391.95 278.804L1390.7 280.367C1390.38 280.11 1390.49 279.594 1390.89 279.492L1391.38 281.43ZM1371.47 286.509L1391.38 281.43L1390.89 279.492L1370.97 284.571L1371.47 286.509ZM1369.41 288.35C1369.75 287.437 1370.52 286.75 1371.47 286.509L1370.97 284.571C1369.4 284.973 1368.12 286.118 1367.54 287.639L1369.41 288.35ZM1361.97 307.911L1369.41 288.35L1367.54 287.639L1360.1 307.2L1361.97 307.911ZM1359.28 308.154C1359.93 309.224 1361.53 309.079 1361.97 307.911L1360.1 307.2C1360.25 306.811 1360.78 306.763 1361 307.119L1359.28 308.154ZM1348.7 290.663L1359.28 308.154L1361 307.119L1350.42 289.628L1348.7 290.663ZM1346.25 289.218C1347.26 289.255 1348.18 289.798 1348.7 290.663L1350.42 289.628C1349.54 288.187 1348.01 287.281 1346.32 287.219L1346.25 289.218ZM1325.88 288.465L1346.25 289.218L1346.32 287.219L1325.96 286.466L1325.88 288.465ZM1324.79 286.001C1323.99 286.957 1324.63 288.419 1325.88 288.465L1325.96 286.466C1326.37 286.481 1326.59 286.969 1326.32 287.287L1324.79 286.001ZM1338.25 269.982L1324.79 286.001L1326.32 287.287L1339.79 271.269L1338.25 269.982ZM1338.86 267.294C1339.11 268.235 1338.88 269.237 1338.25 269.982L1339.79 271.269C1340.83 270.028 1341.2 268.358 1340.8 266.789L1338.86 267.294ZM1333.67 247.415L1338.86 267.294L1340.8 266.789L1335.61 246.91L1333.67 247.415ZM1335.7 245.65C1334.55 245.177 1333.36 246.217 1333.67 247.415L1335.61 246.91C1335.71 247.31 1335.32 247.656 1334.94 247.499L1335.7 245.65ZM1354.35 253.351L1335.7 245.65L1334.94 247.499L1353.58 255.2L1354.35 253.351ZM1357.15 253.08C1356.32 253.63 1355.27 253.731 1354.35 253.351L1353.58 255.2C1355.12 255.834 1356.87 255.664 1358.25 254.747L1357.15 253.08ZM1374.35 241.69L1357.15 253.08L1358.25 254.747L1375.45 243.358L1374.35 241.69ZM1376.67 243.062C1376.77 241.815 1375.39 240.999 1374.35 241.69L1375.45 243.358C1375.1 243.588 1374.64 243.316 1374.68 242.901L1376.67 243.062ZM1375 263.598L1376.67 243.062L1374.68 242.901L1373.01 263.436L1375 263.598ZM1376.12 266.187C1375.34 265.564 1374.92 264.594 1375 263.598L1373.01 263.436C1372.88 265.095 1373.58 266.713 1374.88 267.75L1376.12 266.187ZM1391.95 278.804L1376.12 266.187L1374.88 267.75L1390.7 280.367L1391.95 278.804Z" fill="#00DEFF"/>
</g>
<path d="M1260.06 284.63L1259.27 284.022L1259.27 284.022L1260.06 284.63ZM1372.21 138.437L1371.42 137.828L1371.42 137.828L1372.21 138.437ZM1263.43 302.239L1262.92 303.097L1263.43 302.239ZM1369.7 365.659L1369.19 366.518L1369.7 365.659ZM1383.06 362.747L1383.88 363.314L1383.06 362.747ZM1493.22 202.894L1494.04 203.462L1493.22 202.894ZM1488.82 185.411L1489.28 184.522L1489.28 184.522L1488.82 185.411ZM1461.56 171.407L1462.01 170.517L1461.56 171.407ZM1456.27 172.515L1457.01 173.197L1456.27 172.515ZM1411.29 158.199L1412.29 158.185L1412.29 158.185L1411.29 158.199ZM1412.3 150.105L1413.26 150.4L1413.26 150.4L1412.3 150.105ZM1410.34 145.1L1410.8 144.211L1410.34 145.1ZM1389.72 134.505L1389.26 135.395L1389.26 135.395L1389.72 134.505ZM1391.13 280.461L1391.38 281.43L1391.38 281.43L1391.13 280.461ZM1391.32 279.586L1390.7 280.367L1390.7 280.367L1391.32 279.586ZM1371.22 285.54L1370.97 284.571L1371.22 285.54ZM1368.47 287.994L1367.54 287.639L1367.54 287.639L1368.47 287.994ZM1361.04 307.556L1361.97 307.911L1361.97 307.911L1361.04 307.556ZM1360.14 307.637L1359.28 308.154L1359.28 308.154L1360.14 307.637ZM1349.56 290.145L1348.7 290.663L1349.56 290.145ZM1346.29 288.218L1346.32 287.219L1346.29 288.218ZM1325.92 287.465L1325.88 288.465L1325.88 288.465L1325.92 287.465ZM1325.55 286.644L1326.32 287.287L1326.32 287.287L1325.55 286.644ZM1339.02 270.625L1339.79 271.269L1339.02 270.625ZM1339.83 267.042L1340.8 266.789L1340.8 266.789L1339.83 267.042ZM1334.64 247.163L1333.67 247.415L1333.67 247.415L1334.64 247.163ZM1335.32 246.574L1335.7 245.65L1335.7 245.65L1335.32 246.574ZM1353.97 254.275L1353.58 255.2L1353.58 255.2L1353.97 254.275ZM1357.7 253.913L1358.25 254.747L1357.7 253.913ZM1374.9 242.524L1375.45 243.358L1374.9 242.524ZM1375.68 242.981L1376.67 243.062L1376.67 243.062L1375.68 242.981ZM1374.01 263.517L1375 263.598L1374.01 263.517ZM1375.5 266.968L1374.88 267.75L1374.88 267.75L1375.5 266.968ZM1260.86 285.239L1373.01 139.046L1371.42 137.828L1259.27 284.022L1260.86 285.239ZM1263.95 301.38C1258.3 298.007 1256.85 290.461 1260.86 285.239L1259.27 284.022C1254.54 290.193 1256.24 299.112 1262.92 303.097L1263.95 301.38ZM1370.22 364.801L1263.95 301.38L1262.92 303.097L1369.19 366.518L1370.22 364.801ZM1382.24 362.179C1379.55 366.084 1374.29 367.231 1370.22 364.801L1369.19 366.518C1374.17 369.489 1380.6 368.087 1383.88 363.314L1382.24 362.179ZM1492.39 202.327L1382.24 362.179L1383.88 363.314L1494.04 203.462L1492.39 202.327ZM1488.36 186.301C1494.27 189.333 1496.16 196.862 1492.39 202.327L1494.04 203.462C1498.49 197.004 1496.25 188.105 1489.28 184.522L1488.36 186.301ZM1461.1 172.297L1488.36 186.301L1489.28 184.522L1462.01 170.517L1461.1 172.297ZM1457.01 173.197C1458.12 172.005 1459.79 171.625 1461.1 172.297L1462.01 170.517C1459.77 169.367 1457.15 170.107 1455.54 171.834L1457.01 173.197ZM1440.19 181.503C1446.89 180.85 1452.76 177.759 1457.01 173.197L1455.54 171.834C1451.61 176.053 1446.19 178.909 1440 179.513L1440.19 181.503ZM1410.29 158.213C1410.49 171.962 1424.31 183.053 1440.19 181.503L1440 179.513C1425.03 180.973 1412.47 170.525 1412.29 158.185L1410.29 158.213ZM1411.35 149.811C1410.71 151.885 1410.24 154.412 1410.29 158.213L1412.29 158.185C1412.24 154.58 1412.68 152.263 1413.26 150.4L1411.35 149.811ZM1409.89 145.99C1411.22 146.672 1411.82 148.262 1411.35 149.811L1413.26 150.4C1413.98 148.048 1413.1 145.393 1410.8 144.211L1409.89 145.99ZM1389.26 135.395L1409.89 145.99L1410.8 144.211L1390.17 133.616L1389.26 135.395ZM1373.01 139.046C1376.83 134.061 1383.67 132.524 1389.26 135.395L1390.17 133.616C1383.73 130.303 1375.83 132.076 1371.42 137.828L1373.01 139.046ZM1391.38 281.43C1392.58 281.124 1392.91 279.576 1391.95 278.804L1390.7 280.367C1390.38 280.11 1390.49 279.594 1390.89 279.492L1391.38 281.43ZM1371.47 286.509L1391.38 281.43L1390.89 279.492L1370.97 284.571L1371.47 286.509ZM1369.41 288.35C1369.75 287.437 1370.52 286.75 1371.47 286.509L1370.97 284.571C1369.4 284.973 1368.12 286.118 1367.54 287.639L1369.41 288.35ZM1361.97 307.911L1369.41 288.35L1367.54 287.639L1360.1 307.2L1361.97 307.911ZM1359.28 308.154C1359.93 309.224 1361.53 309.079 1361.97 307.911L1360.1 307.2C1360.25 306.811 1360.78 306.763 1361 307.119L1359.28 308.154ZM1348.7 290.663L1359.28 308.154L1361 307.119L1350.42 289.628L1348.7 290.663ZM1346.25 289.218C1347.26 289.255 1348.18 289.798 1348.7 290.663L1350.42 289.628C1349.54 288.187 1348.01 287.281 1346.32 287.219L1346.25 289.218ZM1325.88 288.465L1346.25 289.218L1346.32 287.219L1325.96 286.466L1325.88 288.465ZM1324.79 286.001C1323.99 286.957 1324.63 288.419 1325.88 288.465L1325.96 286.466C1326.37 286.481 1326.59 286.969 1326.32 287.287L1324.79 286.001ZM1338.25 269.982L1324.79 286.001L1326.32 287.287L1339.79 271.269L1338.25 269.982ZM1338.86 267.294C1339.11 268.235 1338.88 269.237 1338.25 269.982L1339.79 271.269C1340.83 270.028 1341.2 268.358 1340.8 266.789L1338.86 267.294ZM1333.67 247.415L1338.86 267.294L1340.8 266.789L1335.61 246.91L1333.67 247.415ZM1335.7 245.65C1334.55 245.177 1333.36 246.217 1333.67 247.415L1335.61 246.91C1335.71 247.31 1335.32 247.656 1334.94 247.499L1335.7 245.65ZM1354.35 253.351L1335.7 245.65L1334.94 247.499L1353.58 255.2L1354.35 253.351ZM1357.15 253.08C1356.32 253.63 1355.27 253.731 1354.35 253.351L1353.58 255.2C1355.12 255.834 1356.87 255.664 1358.25 254.747L1357.15 253.08ZM1374.35 241.69L1357.15 253.08L1358.25 254.747L1375.45 243.358L1374.35 241.69ZM1376.67 243.062C1376.77 241.815 1375.39 240.999 1374.35 241.69L1375.45 243.358C1375.1 243.588 1374.64 243.316 1374.68 242.901L1376.67 243.062ZM1375 263.598L1376.67 243.062L1374.68 242.901L1373.01 263.436L1375 263.598ZM1376.12 266.187C1375.34 265.564 1374.92 264.594 1375 263.598L1373.01 263.436C1372.88 265.095 1373.58 266.713 1374.88 267.75L1376.12 266.187ZM1391.95 278.804L1376.12 266.187L1374.88 267.75L1390.7 280.367L1391.95 278.804Z" fill="#009BB2"/>
<path d="M1345.58 174.658L1465.72 242.312" stroke="#009BB2" stroke-width="2" stroke-linecap="round" stroke-dasharray="8 8"/>
</g>
<g style="mix-blend-mode:multiply" opacity="0.8">
<rect width="1920" height="470" fill="url(#paint3_radial)"/>
</g>
</g>
<defs>
<filter id="filter0_f" x="875" y="138.891" width="368.599" height="383.109" filterUnits="userSpaceOnUse" color-interpolation-filters="sRGB">
<feFlood flood-opacity="0" result="BackgroundImageFix"/>
<feBlend mode="normal" in="SourceGraphic" in2="BackgroundImageFix" result="shape"/>
<feGaussianBlur stdDeviation="2.5" result="effect1_foregroundBlur"/>
</filter>
<filter id="filter1_f" x="1537.68" y="-59" width="303.319" height="390.093" filterUnits="userSpaceOnUse" color-interpolation-filters="sRGB">
<feFlood flood-opacity="0" result="BackgroundImageFix"/>
<feBlend mode="normal" in="SourceGraphic" in2="BackgroundImageFix" result="shape"/>
<feGaussianBlur stdDeviation="2.5" result="effect1_foregroundBlur"/>
</filter>
<filter id="filter2_f" x="1251.58" y="126.957" width="249.757" height="246.116" filterUnits="userSpaceOnUse" color-interpolation-filters="sRGB">
<feFlood flood-opacity="0" result="BackgroundImageFix"/>
<feBlend mode="normal" in="SourceGraphic" in2="BackgroundImageFix" result="shape"/>
<feGaussianBlur stdDeviation="2.5" result="effect1_foregroundBlur"/>
</filter>
<linearGradient id="paint0_linear" x1="1177" y1="134" x2="912" y2="516" gradientUnits="userSpaceOnUse">
<stop stop-color="#00CCFF" stop-opacity="0.14"/>
<stop offset="0.303867" stop-color="#00CCFF" stop-opacity="0.1"/>
<stop offset="1" stop-color="#00CCFF" stop-opacity="0"/>
</linearGradient>
<linearGradient id="paint1_linear" x1="1582" y1="331" x2="1809" y2="-2.00001" gradientUnits="userSpaceOnUse">
<stop stop-color="#00CCFF" stop-opacity="0.14"/>
<stop offset="1" stop-color="#00CCFF" stop-opacity="0"/>
</linearGradient>
<linearGradient id="paint2_linear" x1="1541" y1="-2.00001" x2="1269.98" y2="494.119" gradientUnits="userSpaceOnUse">
<stop stop-color="#00CCFF" stop-opacity="0"/>
<stop offset="0.486208" stop-color="#00CCFF" stop-opacity="0.14"/>
<stop offset="1" stop-color="#00CCFF" stop-opacity="0"/>
</linearGradient>
<radialGradient id="paint3_radial" cx="0" cy="0" r="1" gradientUnits="userSpaceOnUse" gradientTransform="translate(620.5 219.992) scale(1337.17 327.329)">
<stop stop-opacity="0"/>
<stop offset="1" stop-opacity="0.33"/>
</radialGradient>
</defs>
</svg>
