<svg version="1.2" baseProfile="tiny" xmlns="http://www.w3.org/2000/svg" viewBox="0 0 734.8 295.7"><path fill="#44548D" d="M730 55.4c-3.7-1.9-6.7-5.7-11.4-5.9-6.6-13.4-36.6-37.4-66.2-37.4-27 0-47.7 7.8-55.5 22.4-15.5-2.8-24.3 2.9-29 5.4-6.1-13-19.4-28.9-46.8-28.6-37.6.5-57 15.9-62.6 33.6-11.1-1.6-19.3.2-26 3.5-4.8-9.2-11.7-20.1-43.2-23-43.9-3.9-65.3 34.8-67.2 39.4-4-4-9.4-4.4-17.4-4.4-5.8 0-11.1 1.4-15.1 3.7-6.2-14.4-27.6-23.4-44.1-23.4-7 0-12.8 1-20.2 4.7-4.4-16.2-21.2-27.8-33.6-32.4-7.7-8.4-22.5-13-44.2-13-22.6 0-48.4 10.1-62.4 22.6-6.8-1.2-16.8-1.5-31.5-1.5-21.8 0-40.4 17.2-51.7 29.2l-.3 45.2c0 .1.1.1.1.2v198.1h730.6L730 55.4z"/><path fill="#2E4264" d="M734.8 51.6c-3.7-1.9-8.1-3.2-12.8-3.4-6.6-13.4-29.5-35.5-59.1-35.5-27 0-53.2 11.1-64.1 25-2.3-.3-4.8-.5-7.3-.5-6.8 0-12.7 1.5-17.5 3.9-6.1-13-18.9-25.8-32-26.5-46.9-2.3-73 17.6-80 33.4-1.1-.8-2.7-1.3-4.9-1.3-11.6 0-17.2 2.1-23.8 5.5-8.8-10.1-23.5-19.7-42.6-19.7-41.5 0-63.9 29.4-66.2 38.5-4-4-11.1-6.6-19.1-6.6-5.8 0-11.1 1.4-15.1 3.7-10.3-13.2-29.6-25.4-46.1-25.4-7 0-15.4 2.2-22.8 6-4.4-16.2-18.6-29-31-33.6C182.5 6.6 167.8 2 146.1 2c-22.6 0-48.4 10.1-62.4 22.6-6.8-1.2-16.8-1.5-31.5-1.5-21.8 0-41 16.5-52.3 28.5l.4 244.1h734.5V51.6z"/><linearGradient id="a" gradientUnits="userSpaceOnUse" x1="367.161" y1="295.722" x2="367.161" y2="42.171"><stop offset=".305" stop-color="#2d466c"/><stop offset="1" stop-color="#2e394e"/></linearGradient><path fill="url(#a)" d="M734.5 84c-4.3.6-8.6 1.9-12.3 4.1-3.5 2.1-6.4 5.2-8 9-5.5-2.3-11.9-3-17.9-3.4-5.4-.3-11.3-.2-15.8 2.4-.8-1.7-1.7-3.5-2.5-5.2-2.2-4.6-4.5-9.3-7.6-13.4-4.1-5.6-9.5-10.2-15.7-13.2-8.7-4.3-18.6-5.5-28.3-4.8-9.6.7-19.1 3.3-28.2 6.5-2 .7-4 1.4-5.8 2.4-3.5 1.9-6.5 4.6-9.3 7.5-4.6 4.6-8.8 9.6-12.6 14.8-8.2-10.1-24.9-16.5-46.1-17.6-12.5-.6-25 1.9-37 5.3-1.6.5-3.3 1-4.7 1.9-1.1.7-15.3 12.2-15.3 12.2-6.4-10.1-15.9-18.3-26.9-23.1-11-4.8-23.4-6.3-35.2-4.2-11.3 2-21.7 7.1-31.5 13.1-3 1.9-6 3.8-8.8 6-5.5 4.2-10.2 9.4-14.1 15.1-7-5-23.9-7.1-36.5-.6 0 0-1.2 1.5-4.1 2.5-.5.2-1.1.3-1.6.2-.5-.2-.8-.5-1.1-.9-7.6-9.2-18-16.1-29.4-19.4-11.5-3.3-23.9-3.1-35.3.7 0 0-14.8-30.6-46.7-37.5-41.5-9-59.8 15.5-61.7 18.2-6.6.7-12.5 4.2-17.3 8.8-10.8 10.5-7.1 21.2-8.3 23-5.9-12.9-23.4-25.3-49-24-20.1 1-36 17-42.7 21.4C8.1 83.5-.2 84-.2 84L0 295.7h734.5V84z"/></svg>