<svg xmlns="http://www.w3.org/2000/svg" viewBox="0 0 2000 2000"><ellipse transform="rotate(-84.601 999.805 1739.742)" fill="#BDBDBD" cx="999.8" cy="1739.8" rx="164.4" ry="1004.3"/><path fill="#814645" d="M1647.8 237.4l-79-8.1-206.3-19.3-112.8 628.7-62.9 865.7 72.5 104.8 440.1-61.3 140.2-1492.7-191.8-17.8z"/><path fill="#B95048" d="M1647.8 237.4l-87.1-8.1-54.8 573.9 87.1 8.1 53.2-556.2 1.6-9.7z"/><path fill="#C94E49" d="M1617.2 234.2L564.5 135.8l-3.2 22.6-51.6 549.7L1562.3 808l51.6-551.3 1.6-14.5z"/><path fill="#8B4946" d="M1259.3 840.3l-14.5 204.7 104.8 9.7L1593 811.3l-322.4-30.7z"/><path fill="#994C47" d="M509.7 708.1L253.4 951.5l1054.2 98.3L1562.3 808z"/><path fill="#B95048" d="M1244.8 1045l-33.9 464.3 169.3 16.1-3.2-3.2-35.5-461.1 8.1-6.4z"/><path fill="#C94E49" d="M290.5 1423.8l-37.1-472.3 1054.2 98.3 35.5 472.4z"/><path fill="#8B4946" d="M1210.9 1509.3L1198 1693l317.6 29.1-135.4-196.7z"/><path fill="#994C47" d="M1476.9 1720.4l-133.8-198.2-1052.6-98.4 133.8 198.3z"/><path fill="#B95048" d="M1196.4 1694.7v11.2l30.6 45.2 130.6 12.9 156.4-24.2 1.6-16.1z"/><path fill="#C94E49" d="M424.3 1622.1l1052.6 98.3-228.9 32.3-1060.7-100z"/><path fill="#8B4946" d="M1357.6 1764l-130.6-12.9 17.8 25.8 14.5 32.2h8l24.2-3.2-6.4-32.3z"/><path fill="#994C47" d="M187.3 1652.7l8 56.5 1064 99.9-11.3-56.4z"/><path fill="#4E4A4B" d="M1509.1 554.9c-9.7 106.4-104.8 183.8-211.2 174.1l-530.4-50c-106.4-11.3-185.4-104.8-175.7-211.2l6.4-62.9c9.7-106.4 104.8-183.8 211.2-174.1l530.4 50c106.4 9.7 183.8 104.8 174.1 211.2l-4.8 62.9z"/><path fill="#393738" d="M1338.3 335.7l-145.1-12.9-246.6-22.6-145.1-14.5c-79-8.1-148.3 50-156.4 129l-4.8 46.7c-8.1 79 50 148.3 129 156.4l145.1 14.5 246.6 21 145.1 14.5c79 8.1 148.3-50 156.4-129l4.8-46.7c8-79-50-148.3-129-156.4z"/><path fill="#C5DFEB" d="M1462.4 437.3c-4.8-17.7-14.5-35.5-27.4-50L695.1 318c-14.5 11.3-25.8 27.4-35.5 43.5l-14.5 154.8c8.1 25.8 22.6 48.4 41.9 64.5l707.7 66.1c22.6-12.9 40.3-32.2 53.2-56.4l14.5-153.2z"/><path fill="#A2B9C1" d="M651.26 456.927l.762-8.065 802.454 75.842-.762 8.064z"/><path fill="#6192A4" d="M645.1 516.3c4.8 16.1 12.9 30.6 22.6 43.5l22.6-237c-12.9 11.3-22.6 24.2-30.6 38.7l-14.6 154.8zm772.2 114.4c12.9-11.3 22.6-24.2 30.6-38.7l14.5-154.8c-4.8-16.1-12.9-30.6-22.6-43.5l-22.5 237z"/><path fill="#393738" d="M906.754 601.525l-8.065-.762 24.726-261.644 8.064.762zm270.831 25.662l-8.064-.762 24.726-261.644 8.064.762zM733.8 550.1l1.6-21 24.2 1.6c3.2-22.6 11.3-46.7 22.6-69.3 11.3-24.2 24.2-43.5 35.5-58l-59.6-6.4-1.6 24.2-22.6-1.6 4.8-46.7 111.2 9.7-1.6 17.7c-12.9 12.9-25.8 32.2-38.7 59.6-12.9 27.4-21 51.6-22.6 72.5l21 1.6-1.6 21-72.6-4.9zm267.6 25.8l1.6-21 24.2 1.6c3.2-22.6 11.3-46.7 22.6-69.3 11.3-24.2 24.2-43.5 35.5-58l-61.3-6.4-1.6 24.2-22.6-1.6 4.8-46.7 111.2 9.7-1.6 17.7c-12.9 12.9-25.8 32.2-38.7 59.6-12.9 27.4-21 51.6-22.6 72.5l21 1.6-1.6 21-70.9-4.9zm265.9 24.2l1.6-21 24.2 1.6c3.2-22.6 11.3-46.7 22.6-69.3 11.3-24.2 24.2-43.5 35.5-58l-61.3-6.4-1.6 24.2-22.6-1.6 4.8-46.7 111.2 9.7-1.6 19.3c-12.9 12.9-25.8 32.2-38.7 59.6-12.9 27.4-21 51.6-22.6 72.5l21 1.6-1.6 21-70.9-6.5z"/><path fill="#4E4A4B" d="M641.9 388.9L630.6 505l61.2-50zm830.2 79L1460.8 584l-51.6-61.3z"/><path fill="#6F3F41" d="M1484.9 1220.7zm6.5 1.1c2 .2 3.9.3 5.9.2l-12.4-1.3c2.1.5 4.3.9 6.5 1.1z"/><path fill="#6F3F41" d="M1547.2 1194.2c17.1-20.5 29.4-50.9 32.7-85.5 3.6-37.8-4.4-72.5-19.7-96.2l1.2-29.9-49-1.7c-.8 0-1.6-.1-2.3-.1h-.2c-40.8-.3-77.9 49.1-84 113.3-5.9 63 20.2 117.6 59.1 126.6l5.4.9 54.4 5.2 2.4-32.6z"/><path fill="#6F3F41" d="M1435 1149.8c9.7 1.6 6.4 14.5 1.6 22.6-3.2-6.4-4.8-14.5-6.4-22.6h4.8zm-1.6-90.3c6.4 6.4 9.7 14.5 0 22.6-1.6 1.6-3.2 3.2-4.8 3.2-.1-8.1 1.6-17.7 4.8-25.8z"/><ellipse transform="rotate(-84.606 1552.696 1104.661)" fill="#994C47" cx="1552.7" cy="1104.7" rx="122.5" ry="66.1"/><path fill="#393738" d="M1987.9 163.2c0-54.3-44-98.3-98.3-98.3s-98.3 44-98.3 98.3c0 26.5 10.4 50.5 27.4 68.1l-90.3 301c-4.6 17.1 1.4 35 13.8 46.9L1610.7 1024l-51.6 40.3s-16.1 12.9-17.7 32.2c-1.6 19.3 4.8 41.9 11.3 37.1l101.6-80.6 137.6-465.4c12.2-5.5 22.3-16 26.8-29.5l89.5-298.4c45.4-8.6 79.7-48.5 79.7-96.5z"/><circle fill="#F9F2C5" cx="1949.2" cy="168.1" r="16.1"/><path fill="#6F3F41" d="M716 837.1l3.2-32.2-11.3 8.1c-19.3-25.8-64.5-41.9-116.1-38.7-46.7 3.2-85.4 22.6-103.2 46.7l-8.1-1.6-1.6 24.2v11.3c3.2 38.7 58 67.7 124.1 61.3 64.7-5 114.6-40.5 113-79.1z"/><ellipse transform="rotate(85.56 599.226 814.165)" fill="#FFF" cx="599.2" cy="814.2" rx="70.9" ry="119.3"/><path fill="#6F3F41" d="M1028.8 866.1l3.2-32.2-11.3 8.1c-19.3-25.8-64.5-41.9-116.1-38.7-46.7 3.2-85.4 22.6-103.2 46.7l-8.1-1.6-1.6 24.2v11.3c3.2 38.7 58 67.7 124.1 61.3 64.6-3.4 116.2-40.4 113-79.1z"/><ellipse transform="rotate(85.56 913.08 842.728)" fill="#FFF" cx="913.1" cy="842.7" rx="70.9" ry="119.3"/><path fill="#6F3F41" d="M1356 896.7l3.2-32.2-11.3 8.1c-19.3-25.8-64.5-41.9-116.1-38.7-46.7 3.2-85.4 22.6-103.2 46.7l-8.1-1.6-1.6 24.2v11.3c3.2 38.7 58 67.7 124.1 61.3 64.6-3.3 116.2-38.8 113-79.1z"/><ellipse transform="rotate(85.56 1240.023 873.945)" fill="#FFF" cx="1240" cy="873.9" rx="70.9" ry="119.3"/><path fill="#393738" d="M572.6 801.6l4.8-6.4h4.8c1.6 0 3.2 0 3.2 1.6v1.6l-1.6 3.2-1.6 1.6h-4.8l-4.8-1.6m11.2-9.7l-14.5-1.6-14.5 21 9.7 1.6 4.8-8.1h16.1c3.2 0 6.4-1.6 6.4-3.2l1.6-3.2c1.6-1.6 0-3.2-1.6-4.8.1-.1-3.1-.1-8-1.7m21 17.7l9.7-8.1-1.6 9.7-8.1-1.6m19.3-11.2l-12.9-1.6-24.2 19.3 9.7 1.6 4.8-4.8 9.7 1.6-1.6 4.8 9.7 1.6 4.8-22.5m40.3 6.4l-9.7-1.6-11.3 6.4-1.6-9.7-9.7-1.6 3.2 14.5-6.4 9.7 9.7 1.6 6.4-9.7 19.4-9.6m222.5 21l4.8-6.4h3.2c1.6 0 3.2 1.6 4.8 1.6v3.2l-1.6 1.6c-1.6 1.6-4.8 1.6-8.1 0h-3.1m6.5-9.7l3.2-4.8h3.2c1.6 0 3.2 0 3.2 1.6v1.6l-1.6 1.6c-1.6 1.6-3.2 1.6-6.4 0h-1.6m9.6-8.1l-12.9-1.6-14.5 21 17.7 3.2h8.1c1.6 0 4.8 0 6.4-1.6 1.6 0 3.2-1.6 4.8-3.2v-3.2c-1.6-1.6-1.6-1.6-4.8-1.6h3.2c3.2 0 4.8-1.6 4.8-3.2v-1.6c0-1.6-1.6-3.2-3.2-3.2-3.1-3.4-6.4-3.4-9.6-5m51.6 8.1l-25.8-3.2-14.5 21 25.8 3.2 3.2-3.2-17.7-1.6 3.2-6.4 12.9 1.6 1.6-3.2-11.3-1.6 3.2-6.4 17.7 3.2 1.7-3.4m35.5 4.8l-29-3.2-1.6 3.2h9.7l-12.9 19.3 9.7 1.6 11.3-19.3 9.7 1.6 3.1-3.2m-119.3 35.5c-1.6 0-3.2 0-3.2-1.6v-1.6l8.1-11.3 3.2-1.6h4.8l3.2 1.6v1.6l-9.7 11.3-1.6 1.6h-4.8m12.9-19.3h-11.3c-3.2 0-6.4 1.6-6.4 3.2l-8.1 11.3c-1.6 1.6 0 3.2 1.6 4.8s4.8 1.6 9.7 3.2h11.3c3.2 0 6.4-1.6 6.4-3.2l8.1-11.3c1.6-1.6 0-3.2-1.6-4.8-3.3-1.6-6.5-3.2-9.7-3.2m54.8 8l-9.7-1.6-9.7 14.5-3.2-16.1-9.7-1.6-14.5 22.6h9.7l8.1-12.9 4.8 16.1h9.7l14.5-21m33.8 4.8l-25.8-3.2-14.5 21 25.8 4.8 1.6-3.2-16.1-3.2 3.2-6.4 12.9 3.2 1.6-4.8-11.3-1.6 3.2-4.8 16.1 1.6 3.3-3.4m238.6 6.5l4.8-6.4h3.2c1.6 0 3.2 1.6 4.8 1.6v3.2l-1.6 1.6c-1.6 1.6-4.8 1.6-8.1 0h-3.1m6.5-9.7l3.2-4.8h3.2c1.6 0 3.2 0 3.2 1.6v1.6l-1.6 1.6c-1.6 1.6-3.2 1.6-6.4 0h-1.6m9.6-8l-14.5-1.6-14.5 21 17.7 3.2h8.1c1.6 0 4.8 0 6.4-1.6 1.6 0 3.2-1.6 4.8-3.2v-4.8c-1.6-1.6-1.6-1.6-4.8-1.6h3.2c3.2 0 4.8-1.6 4.8-3.2v-1.6c0-1.6-1.6-3.2-3.2-3.2-1.5-1.8-4.7-3.4-8-3.4m51.6 6.4l-25.8-3.2-14.5 21 25.8 4.8 1.6-3.2-16.1-3.2 3.2-4.8 12.9 1.6 1.6-3.2-11.3-1.6 3.2-6.4 16.1 3.2 3.3-5m35.5 6.5l-29-4.8-3.2 3.2 9.7 1.6-11.3 17.7 9.7 1.6 11.3-17.7 9.7 1.6 3.1-3.2m-88.7 17.7l-12.9-1.6-19.3 14.5 1.6-16.1-12.9-1.6-14.5 21 9.7 1.6 9.7-14.5v16.1h6.4l17.7-12.9-9.7 14.5 9.7 1.6 14.5-22.6m11.3 17.7l9.7-8.1-3.2 8.1h-6.5m19.4-12.9l-12.9-1.6-24.2 19.3 9.7 1.6 4.8-4.8 9.7 1.6-1.6 6.4 9.7 1.6 4.8-24.1m49.9 8.1l-9.7-1.6-11.3 4.8-3.2-6.4-9.7-1.6 4.8 11.3-19.3 9.7 9.7 1.6 11.3-6.4 3.2 8.1 9.7 1.6-4.8-12.9 19.3-8.2"/><path fill="none" d="M709.6 148.7l43.5 4.8m27.4 1.7l-27.4-1.7m796.4 74.2l43.5 4.8m27.4 3.3l-27.4-3.3m-681.9-64.4l43.5 4.8m27.4 1.6l-27.4-1.6m414.3 38.7l43.5 3.2m27.4 3.2l-27.4-3.2"/><path fill="#6F3F41" d="M767.6 1146.6l-12.9 140.2-1.6 22.6h-11.3l-19.3-125.8z"/><path fill="#814645" d="M767.6 1146.6L525.8 1124l-35.5 33.8 241.8 24.2z"/><path fill="#994C47" d="M737 1182l-246.7-24.2 9.7 129 241.8 22.6-11.3-127.4z"/><path fill="#6F3F41" d="M712.8 1220.7l-201.5-19.3 3.2 45.1 201.5 19.4z"/><path fill="#814645" d="M514.5 1232v14.5l201.5 19.4-1.6-16.2z"/><path fill="#FFF" d="M822.4 1207.8c0 4.8-3.2 8.1-6.4 11.3-4.8 3.2-9.7 4.8-14.5 3.2-4.8 0-8.1-3.2-11.3-6.4-3.2-3.2-4.8-8.1-3.2-12.9l3.2-38.7c0-4.8 3.2-8.1 6.4-11.3s8.1-4.8 12.9-3.2c4.8 0 8.1 3.2 11.3 6.4 3.2 3.2 4.8 8.1 3.2 12.9v8.1l-11.3-1.6v-8.1c0-1.6 0-3.2-1.6-4.8 0-1.6-1.6-1.6-3.2-1.6s-3.2 0-4.8 1.6c-1.6 1.6-1.6 3.2-1.6 4.8l-3.2 38.7c0 1.6 0 3.2 1.6 4.8 1.6 1.6 3.2 1.6 4.8 1.6s3.2 0 4.8-1.6 1.6-3.2 1.6-4.8l1.6-9.7 11.3 1.6-1.6 9.7zm22.6-53.2l-11.3-1.6-6.4 70.9 29 3.2 1.6-11.3-17.7-1.6 4.8-59.6zm30.6 74.2l-11.3-1.6 19.3-70.9 14.5 1.6 4.8 72.5-11.3-1.6-1.6-16.1h-9.7l-4.7 16.1zm6.5-27.4h8.1l-1.6-27.4-6.5 27.4zm37.3-40.6l-6.7 70.6 11.2 1.1 6.7-70.6-11.2-1.1zm62.6 77.6l8.1-70.9-16.1-1.6-14.5 50-4.8-51.6-14.5-1.6-8.1 70.9 11.3 1.6 4.8-45.1 6.4 46.7h8.1l12.9-43.5-3.2 45.1h9.6zM811.1 1253c3.2 3.2 3.2 8.1 3.2 12.9l-1.6 9.7c0 4.8-3.2 8.1-6.4 11.3s-8.1 4.8-12.9 3.2H787l-3.2 27.4-11.3-1.6 6.4-70.9 21 1.6c4.8-.1 9.6 3.1 11.2 6.4zm-6.4 11.2c0-1.6 0-3.2-1.6-4.8-1.6-1.6-3.2-1.6-4.8-1.6h-6.4l-1.6 22.6h6.4c1.6 0 3.2 0 4.8-1.6 1.6-1.6 1.6-3.2 1.6-4.8l1.6-9.8zm50-6.4c1.6 3.2 3.2 8.1 3.2 12.9l-1.6 9.7c0 4.8-3.2 9.7-6.4 12.9l4.8 32.2-12.9-3.2-3.2-27.4h-8l-1.6 27.4-11.3-1.6 6.4-70.9 17.7 1.6c6.4-.1 9.6 3.2 12.9 6.4zm-8.1 11.3c0-4.8-1.6-6.4-4.8-6.4h-6.4l-1.6 22.6h6.4c1.6 0 3.2 0 4.8-1.6 1.6-1.6 1.6-3.2 1.6-4.8v-9.8zm16 55.7l11.2 1.1 6.7-70.6-11.2-1.1-6.7 70.6zm25.9-58.9l21 1.6-25.8 48.4v11.3l30.6 3.2 1.6-11.3-21-1.6 25.8-48.4v-11.3l-30.6-3.2-1.6 11.3zm35.5 64.4l30.6 3.2v-11.3l-19.3-1.6 1.6-19.3 14.5 1.6 1.6-11.3-14.5-1.6 1.6-19.3 19.3 1.6 1.6-9.7-30.6-3.2-6.4 70.9zm80.6-33.8l-12.9-1.6 1.6-29-9.7-1.6-6.4 70.9 9.7 1.6 3.2-30.6 12.9 1.6-3.2 30.6h11.3l6.4-70.9-11.3-1.6-1.6 30.6zm16.1 43.5l30.6 3.2 1.6-11.3-21-1.6 1.6-19.3 14.5 1.6 1.6-11.3-14.5-1.6 1.6-19.3 19.3 1.6 1.6-11.3-30.6-1.6-6.3 70.9zm74.2-59.6c1.6 3.2 3.2 8.1 3.2 12.9l-1.6 9.7c0 4.8-3.2 9.7-6.4 12.9l4.8 32.2-11.3-1.6-3.2-27.4h-8l-3.2 27.4-11.3-1.6 6.4-70.9h17.7c6.4-.1 9.6 3.1 12.9 6.4zm-8.1 11.2c0-4.8-1.6-6.4-4.8-6.4h-6.4l-3.2 21h6.4c1.6 0 3.2 0 4.8-1.6 1.6-1.6 1.6-3.2 1.6-4.8l1.6-8.2zm53.2-1.6l1.6-11.3-30.6-3.2-6.4 72.5 30.6 3.2V1340l-19.3-1.6 1.6-19.3h14.5l1.6-9.7-14.5-1.6 1.6-19.3 19.3 1.5z"/></svg>