<svg data-name="Слой 1" xmlns="http://www.w3.org/2000/svg" viewBox="0 0 264.84 264.84"><g data-name="Capa 1"><circle cx="132.42" cy="132.42" r="132.4" fill="#6d6d6d"/><path d="M231.92 68.39c-3 .55-6.22-1-9.15-1.67-.67-.16-1.39-.29-2.11-.42 2-2.57 3.82-5.42 5.67-8 1.56-2.23-.36-4.86-2.81-3.17-2.12 1.45-4.24 2.89-6.33 4.39-.89.64-1.76 1.33-2.63 2 .33-.26-2.15 1.46-1 .77l-.49.28a116.91 116.91 0 0 1-2.71-18.42c-.15-2.43-3.31-1.3-3.39.67-.27 6.28.22 12.39-.3 18.53-2.75-6.22-6.26-14.92-11.52-18.78-1.51-1.11-3.57 1.41-2.16 2.65 3.3 2.9 6.48 10.08 8.76 16.13-1-.5-1.86-1-2.65-1.43a74.6 74.6 0 0 0-12.36-5.14c-1.69-.59-3.19 2.1-1.47 3 4 2 8.14 4 11.12 7.53l.6.75c-8.55.12-17.15-.36-25.21 2.93-.9.37-1.37 2.45 0 2.37 7.93-.48 15.84-.3 23.53 1.91h.1a84.06 84.06 0 0 1-12.43 2.83c-1.3.14-1.9 2.57-.3 2.65a74.56 74.56 0 0 0 12.67-.81c-2.28 2.91-4.88 6.79-8 7.65-1.14.32-2 2.48-.3 2.6 4.14.29 7.58-2.89 10.65-5.23 2.36-1.81 5.72-3.35 8.39-5.35.69-.06 1.37-.17 2.05-.29.65 1.36 1.28 2.73 1.81 4.12 1.35 3.44 1 7.28 2.51 10.78 1 2.4 4.35.46 3.75-1.74-1.32-4.83-1.31-9.69-2.95-14.43l-.16-.4c.6.41 1.19.82 1.71 1.23 1.39 1.08 2.93 1.82 4.3 3a18.13 18.13 0 0 0 4.68 3c1.55.64 3.38-1.92 1.94-3a19.54 19.54 0 0 1-3.18-3.31c-1.11-1.31-2.58-2.29-3.68-3.56l-.82-1a23.51 23.51 0 0 1 3.24-.4c3.74-.17 7.73 0 11.06-1.93 1.35-.88 1.78-3.68-.43-3.29zm8.67 91.8a3.2 3.2 0 0 0-2.88-2.35c-4.92-.07-7.17 5.14-7.4 9.34a3.45 3.45 0 0 0 2.82 3.5 3.1 3.1 0 0 0 .51.11c5.18.49 8.4-6.21 6.95-10.6zm6.05-50.41a7.06 7.06 0 0 0-8.29-1.7 11.66 11.66 0 0 0-4.83 4.71c-2.92 4.13-6.64 11.23-3.38 15.87 2.33 3.3 6.61 2.84 9.95 1.63 5.34-1.95 8.05-8.13 8.54-13.39a9 9 0 0 0-1.99-7.12zm-28.04 83.21a3.74 3.74 0 0 0-4.3 1.59 4.53 4.53 0 0 0-2.17 2.85c-.37 1.57.53 3.88 2.48 3.77a6 6 0 0 0 5.37-3.55c.7-1.71.6-3.9-1.38-4.66zm-32.33 36.86c-1.19-3.86-5.35-5-8.82-3.71-4.92 1.9-7.9 8.16-8.43 13.07a5.14 5.14 0 0 0 4.58 5.64 4 4 0 0 0 .69 0c3 .27 6.12-1.7 8.18-3.78 2.77-2.75 5.05-7.24 3.8-11.22zM65.92 65.52c-.38-3.41-2.65-5.55-6.16-5.27s-7.27 4.18-7.57 7.56a10.62 10.62 0 0 0-.21 4.69 4.67 4.67 0 0 0 4 3.73c2.38.38 5-1.45 6.54-3 2.05-1.98 3.75-4.75 3.4-7.71zm-14.5 127.77a16.46 16.46 0 0 0-1.84 1.8 4.36 4.36 0 0 0-.78 1.55 13.54 13.54 0 0 0-1.94 6.52c-.16 2.09 2.15 2.92 3.77 2.21 4.08-1.8 5.69-5.83 6-10 .17-2.82-3.4-3.71-5.21-2.08zm35.92-17.35c-.26-4.89-4.78-9.08-9.82-7.08-3.9 1.55-7.35 6.71-8.55 12a10.58 10.58 0 0 0-.4 4.9c.27 3.37 1.77 6.3 5.13 7.68 7.22 3 12.66-4.9 14.27-10.85a9.85 9.85 0 0 0-.63-6.65zm71.58-145.55a7.54 7.54 0 0 0-3.73.5 1.68 1.68 0 0 0-.89 0 9.67 9.67 0 0 0-5.95 5.33 15.3 15.3 0 0 0-1 1.39c-2.19 3.44-2.11 7.71.79 10.66 1.42 1.45 3.82 1.66 5.7 1.5a7.32 7.32 0 0 0 2.06-.51 12.69 12.69 0 0 0 2.41-1.15c3.77-2.37 5.51-6 5.95-10.28.4-3.71-1.56-6.89-5.34-7.44zm-52.3 4.08a2.48 2.48 0 0 0-.65-.27l.26.21c-1.51-.84-3.25-.23-4.57 1.16l-.07.08a3.77 3.77 0 0 0-.35 4.68c.05.11.1.22.16.33 1.07 2 3.68 1 4.85-.41 2.13-1.19 2.83-4.58.37-5.78zM69.17 45.02c-.43-.09-.47-.11 0 0a2.88 2.88 0 0 0-.71-.14 4.29 4.29 0 0 0-2.39.81 3.88 3.88 0 0 0-2 2.49 2.47 2.47 0 0 0 1.38 3 18.54 18.54 0 0 0 2.43.55c1.81.33 3.57-1.54 3.94-3.14a2.75 2.75 0 0 0-1.8-3.44 2.44 2.44 0 0 0-.85-.13z" opacity=".6" fill="#fff"/></g><path d="M233.47 175.47v9.74c0 3.53-3.2 6.39-7.15 6.39h-85.31c-4 0-7.15-2.86-7.15-6.39v-9.74c0-3.53 3.2-6.39 7.15-6.39h85.31c3.95 0 7.15 2.86 7.15 6.39zm-12.13-49.53l-2.87-6.24a10.84 10.84 0 0 0-9.79-6 6 6 0 0 0-.4-1.2l-2.27-4.93a6.67 6.67 0 0 0 3.17-3.14 5.77 5.77 0 0 0 0-4.89L197.8 74.83a7.41 7.41 0 0 0-8.57-3.72l-2.31-4.93a6.37 6.37 0 0 0-.65-1.1 9 9 0 0 0 2.23-10.42l-2.87-6.24c-2.6-5.64-8.69-9.28-15.51-9.28a18.44 18.44 0 0 0-6.38 1.13l-36.62 13.48c-8.55 3.14-12.65 11.92-9.13 19.56l2.87 6.24a10.86 10.86 0 0 0 9.8 6 6 6 0 0 0 .4 1.19l2.27 4.92a6.73 6.73 0 0 0-3.2 3.16 5.79 5.79 0 0 0-.3 4.11l-1.76.65a6.84 6.84 0 0 0-3.88 3.45 5.76 5.76 0 0 0-.48 3.34l-27 9.92a7.16 7.16 0 0 0-1.92-1.06 7.92 7.92 0 0 0-5.47 0l-69.71 25.62c-3.65 1.35-5.4 5.08-3.89 8.35l5.56 12.08a6.83 6.83 0 0 0 3.86 3.47 8 8 0 0 0 2.75.49 7.91 7.91 0 0 0 2.72-.48l69.72-25.64a6.5 6.5 0 0 0 4.41-5.42l27-9.92a7.12 7.12 0 0 0 3 2.07 7.82 7.82 0 0 0 2.75.49 7.91 7.91 0 0 0 2.72-.48l1.77-.65a7.36 7.36 0 0 0 6.2 3.23 8 8 0 0 0 2-.26l2.26 4.93a6.17 6.17 0 0 0 .66 1.1 8.94 8.94 0 0 0-2.24 10.42l2.87 6.24c2.6 5.64 8.68 9.28 15.51 9.28a18.39 18.39 0 0 0 6.37-1.13l36.61-13.48c8.54-3.14 12.64-11.92 9.12-19.6z" fill="#b900b6"/></svg>