<svg id="Слой_1" xmlns="http://www.w3.org/2000/svg" viewBox="0 0 353.6 327"><style>.st2{fill:#f47e14}</style><g id="Слой_1_1_"><radialGradient id="SVGID_1_" cx="241.055" cy="748.976" r="171.69" gradientTransform="matrix(1.35 0 0 1.35 -154.1 -842.24)" gradientUnits="userSpaceOnUse"><stop offset="0" stop-color="#faed36"/><stop offset=".18" stop-color="#f9eb36"/><stop offset=".28" stop-color="#f7e338"/><stop offset=".35" stop-color="#f2d63b"/><stop offset=".41" stop-color="#ecc33e"/><stop offset=".47" stop-color="#e4aa43"/><stop offset=".52" stop-color="#da8c49"/><stop offset=".54" stop-color="#d57c4c"/><stop offset=".63" stop-color="#d36e46"/><stop offset=".81" stop-color="#cf4936"/><stop offset=".94" stop-color="#cb2828"/></radialGradient><path d="M326.8 152.7c-6.2 2.9-12.6 5.3-18 9.6-4.5 3.5-5.2 8 .1 11 4.8 2.7 11 3 16.2 3.5-1.9.6-3.9 1.1-5.8 1.7-5.3 1.7-10.4 3.7-15.4 6.1-3.8 1.8-8.4 3.9-10.9 7.4-3.5 5.1 4.4 11.5 9.1 14.9-1.8.3-3.7.7-5.5 1.2-5.8 1.4-11.4 4.3-12.1 10.8-1 8.9 3.4 16.4 8.7 23.1.8 1.1 1.7 2.1 2.6 3.2-2.6-.1-5.3-.3-7.8-.5-4.4-.4-9.2-.7-11.6 3.6-3.1 5.5 1.2 14.7 3.5 19.7 1.1 2.4 2.3 4.8 3.6 7.2l-.1-.1c-2-.9-3.9-2.2-5.9-3.2-2.2-1-4.6-1.4-6.8-2.4-2.6-1.2-6.1-2.3-8.7-.8-2 1.2-1.8 3.9-1.8 5.9.1 4.8 2.3 10.1 3.4 14.9.3 1.6.7 3.3 1.1 5-2.8-1.8-5.9-3.5-8.8-5.1-4.5-2.6-9.2-4.8-14.1-6.5-5.5-1.8-9.1 1.6-10.7 6.7-2.1 7.1-.8 15.1 1 22.5-3.8-4.3-8-8.4-11.8-12.7-4.4-4.9-11.1-11.5-18.3-8.9-6.6 2.4-8.3 9.3-9.3 15.6-.3 1.7-.5 3.5-.7 5.2-3.3-6.3-7.8-12-14.2-13.3-5.3-1-10.6 4.2-13 8.3-1 1.7-2.9 10.8-3.7 12.7-.7-2.8-.6-12.8-1.5-15.5-1.6-4.9-3.9-6.5-9.5-7.8-7.4-1.8-16.4 15.5-19.6 23.3.1-1.4 4.9-13.4 5-14.8.2-3.7.8-9.2-2.1-12.1-1.4-1.4-3.4-.3-5.7 2.1 0-1.9-.1-3.8-.5-5.6-1-4.8-4-9-9-5.8-2.3 1.5-4.2 4.1-6.1 6.1-2.2 2.2-10.3 17.5-12.2 20 1.1-3.8 8.3-21.4 6.9-25-.9-2.3-15.3 13.1-16.9 14 .5-2.8 13.4-20.9 12.9-23.6-1.6-9.8-11-6-16.6-2-5.8 4.2-23.7 22.4-28.8 27.8 4.8-8.6 21.9-30.6 24.5-40 .9-3.1 1.8-7 .4-10.1-1.8-4.1-7.3-2.9-10.7-1.8-8.8 2.9-17.3 9.2-24.6 15 2.5-2.6 5-5.3 7.3-8.1 4.4-5.1 8-10.9 10.5-17.2 1.1-2.8 1.6-5.6-.8-7.8-4.5-4.2-14.8-1.7-20.1-.7-5.6 1-11.4 1.5-17.1 2.4 2.4-.9 4.7-1.9 7.1-3 5.2-2.6 10.3-5.6 15.1-8.9 2.8-1.8 6.4-4.4 5.1-8.1-1-3-5.3-4.6-8-5.7-5.4-2.1-11.1-3.8-16.7-5.5-6.3-2-12.7-3.9-19.3-5.5 3.5-.3 7-.7 10.4-1.5 2.2-.5 9.6-2 6.9-5.8-2.4-3.3-8.6-4.4-12.2-5.4-3.1-.9-6.2-1.9-9.3-2.8 9.1-.3 18.2-1.6 27-3.9 4.7-1.3 19.5-5.8 12.7-13-4.8-5.1-12.4-7.9-18.9-10.3-3.5-1.3-6.9-2.7-10.3-4.1 1.5-.1 3.1-.2 4.6-.4 6.2-.6 18.2-1.7 21.4-8.3 1.4-2.9-11.8-8.6-25.2-13.3 5.3.3 10.5 0 15.7-.8 4.1-.7 9.1-1.3 13-3 2.2-.9 6.4-3.2 6.1-6.2-.8-7.4-11.8-10.2-17.5-12.6-2.1-.9-4.1-1.8-6.2-2.7 5 .8 10 1.2 15.1 1.3 5.8 0 11.5-1 17-2.8 2-.6 4.6-1.3 4.6-4 0-3-3.4-5.1-5.4-6.7-4.7-3.8-9.3-7.7-13.9-11.6-1.6-1.3-3.1-2.7-4.7-4.1 4.5 2.5 9.2 4.6 14 6.4 4.9 1.9 10.6 3.2 15.9 2.7 2.7-.3 8.8-.5 9.6-4.2 1.2-5.3-.9-11.2-3.8-16.8 1.9 1.7 4.7 4 6.8 3.2 5.3-2-2-14.6-3.2-17.4-.7-1.8-1.5-3.6-2.2-5.3 4 6.6 8.9 12.5 14.6 17.7 2.9 2.6 9.6 8.4 11.7 1.6 1.9-6-.6-13.9-1.5-19.9-.4-2.4-.7-4.9-1.1-7.4 1.9 2.6 4 5.2 6.1 7.6 2.9 3.2 12 12.4 16 5.6 2.8-4.9 2-11.5 1.9-16.9-.1-3.8-.5-7.6-.9-11.3 1.8 3.3 3.5 6.7 5.1 10.1 2.2 4.5 4.5 8.9 7 13.3.7 1.4 1.7 2.6 3 3.6 1.9 1.8 4.1 2.7 6.5.6 3.9-3.3 5.5-8.9 6.6-14.3.1.3.2.6.3.8.9 2.7 3.7 8.9 7 5.4 2.8-2.9 2.8-8.9 3.4-12.6 1-6 2.5-12.2 3.3-18.4 1 7.6 1.1 15.4 2.6 22.9.6 3 4.8 15 9.7 13.1 2.4-.9 3.7-3.3 4.9-5.5 2.1-3.7 4.2-7.4 6.3-11 .3-.5.6-1.1.9-1.6-.1 2-.1 4 .2 6 .5 4 0 12 6 7.9 3.2-2.2 5.6-6.1 7.8-9.2 2-3 4.1-5.9 6.2-8.9-1.1 4.4-2.2 8.9-2.9 13.4-.7 4.2-1.7 8.6.6 12.4 2 3.3 7 4.2 10.4 4.3 4.7.1 9-2.3 13.1-4.4 5.2-2.9 10.2-6.2 14.9-9.8 4.1-3 8.3-5.9 12.5-8.8-3.9 6.4-7.7 12.8-11 19.4-3 6-5.4 15.1 3.1 17.5 4.4 1.2 9.8.2 14.9-1.4-.9.9-1.4 2.1-1.1 3.4 1.1 4.7 12.8-.5 15.1-1.2 4.2-1.3 8.3-2.7 12.5-4.2-6.7 4.4-13.2 9.1-18.4 15.1-3.8 4.4-9.4 13.8-.3 15.6 10.3 2.1 22.2-.5 32.4-2.2 3-.5 6.1-1.1 9.2-1.7l-.2.1c-7 5.4-14.7 12-18.9 19.9-5.9 11.1 13 11.4 28.1 10-1.8 1.3-3.6 2.5-5.4 3.8-5.2 3.6-10.6 6.9-15.4 11-4.3 3.6-10.1 10.5-2.2 13.6 8.8 3.4 20.6.6 29.4-1 4.5-.8 9-1.9 13.6-2.8-6.5 3.8-12.6 7-18.9 9.8z" fill="url(#SVGID_1_)"/><path d="M129 327l.8-7.6c.6-2.4 1.4-4.8 2.4-7.1 1.1-2.9 2.5-6.9 2.6-7.6v-1c.2-3.4.5-8-1.8-10.3-.2-.2-.4-.3-.6-.3-.5 0-1.5.3-3.5 2.4l-1.9 2v-2.8c0-1.8-.1-3.6-.5-5.4-.3-1.4-1.5-6-4.6-6-1 .1-1.9.4-2.7 1-1.6 1.2-3 2.5-4.2 4-.6.7-1.2 1.3-1.7 1.9-1.2 1.2-4.6 7.2-7.3 11.9-2.1 3.7-3.9 6.9-4.8 8l-3.5 4.7 1.6-5.7c.3-1 .9-2.7 1.7-4.9 1.9-5.1 5.5-15.3 5.3-18.7-2.1 1.2-7.9 6.8-10.8 9.6-1.5 1.6-3.1 3-4.8 4.3l-2 1.2.4-2.3c.2-1.4 2.4-4.8 5.8-10.4 2.8-4.6 7.1-11.5 7.1-12.8-.6-3.5-2.3-5.3-5.2-5.3-2.7 0-6.3 1.5-9.8 4-5.8 4.2-23.7 22.4-28.6 27.7l-6.1 6.6 4.4-7.9c1.7-3 4.8-7.6 8.4-12.8 6.4-9.4 14.3-21 16-27 .9-3.2 1.6-6.7.5-9.4s-4.3-2.9-9.3-1.2c-8.7 2.9-17.1 9.2-24.3 14.8l-1.5-1.6c2.7-2.8 5.1-5.4 7.3-8 4.3-5 7.8-10.7 10.3-16.9 1.2-3.2 1.1-5.1-.5-6.6s-3.9-2.1-7.3-2.1c-3.5.1-6.9.6-10.3 1.3l-1.6.3c-3.3.6-6.7 1-10 1.5-2.4.3-4.8.6-7.1 1l-9.7 1.5 9.2-3.6c2.6-1 4.9-2 7-3 4.5-2.2 8.8-4.7 12.9-7.5l2-1.3c3-1.9 5.6-4 4.7-6.8-.8-2.4-4.6-3.9-7-4.9l-.3-.1c-4.4-1.8-9.2-3.2-13.7-4.6l-2.9-.9c-6.8-2.1-13.1-3.9-19.2-5.3l-6.6-1.6 6.8-.6c3.4-.3 6.9-.7 10.2-1.4h.2c3.8-.8 5.9-1.8 6.3-2.8 0-.1.2-.5-.4-1.3-1.8-2.4-6.4-3.6-9.8-4.5l-1.8-.5c-2.4-.7-4.8-1.4-7.1-2.2L0 179.6l6.2-.3c9-.3 18-1.6 26.7-3.8 7.9-2.1 12.8-4.9 13.5-7.6.3-1.1-.1-2.3-1.4-3.6-4.5-4.8-11.5-7.4-17.8-9.8l-.7-.3c-3.7-1.4-7.3-2.8-10.4-4.1l-4.3-1.8 6-.5c1.1-.1 2.1-.2 3.2-.3h.2c6.1-.6 17.4-1.7 20.3-7.7 0-1.1-5.1-5-24.6-11.7l-6.7-2.4 7.1.2c1.4 0 2.8.1 4.3.1 3.8 0 7.5-.2 11.2-.8l2.1-.4c3.6-.5 7.2-1.3 10.6-2.5 2.8-1.2 5.6-3.1 5.4-5.1-.6-5.5-8.2-8.4-13.8-10.5-1.1-.4-2.1-.8-3-1.2-1.8-.7-3.5-1.5-5.3-2.3l-8.5-3.8 8.1 1.2c4.9.8 9.8 1.2 14.7 1.3h.2c5.6 0 11.2-1 16.6-2.7l.3-.1c2.2-.7 3.5-1.3 3.5-2.9 0-2.1-2.3-3.8-4.1-5.2l-.9-.7c-4.3-3.4-8.6-7-12.7-10.6l-1.2-1.1c-1.6-1.3-3.1-2.7-4.7-4.1l-6.6-6 7.8 4.2c4.5 2.5 9.1 4.6 13.8 6.5 5.7 2.1 10.7 3 15.4 2.6l.6-.1c2.6-.2 7.4-.6 8-3.3.9-4.2-.2-9.3-3.7-16.1l-2.6-5.1 4.3 3.8c1.2 1 4.2 3.6 5.6 3 .5-.2.8-.5 1-1 1.1-2.9-2.3-9.8-3.9-13.1-.4-.8-.7-1.5-.9-2-.7-1.7-1.5-3.5-2.2-5.3l1.9-1c4 6.5 8.8 12.4 14.5 17.5 3.3 3 5.8 4.5 7.5 4.5.7 0 1.8-.3 2.4-2.4 1.4-4.4.2-10.1-.8-15.1-.3-1.5-.6-3-.8-4.3l-1.8-11.9 2.6 3.6c2 2.7 4 5.2 6.1 7.5 1.6 1.8 7.2 7.7 11.2 7.7 1.3 0 2.5-.7 3-1.9 2.3-4 2-9.4 1.8-14.2 0-.7-.1-1.4-.1-2.1-.1-3.9-.5-7.7-.9-11.3l-.6-5.7 2.6 5.1c1.8 3.4 3.5 6.7 5.2 10.1 2.5 5.1 4.7 9.3 7 13.2.6 1.3 1.5 2.3 2.7 3.2 2.1 2 3.5 2.1 5.2.7 3.6-3 5.1-8.4 6.2-13.7l.9-4.1 1.5 4.8c.9 2.8 2.6 5.7 4 5.7.5-.1.9-.3 1.2-.7 1.9-2 2.4-6.1 2.8-9.4.1-.9.2-1.8.3-2.6.4-2.6 1-5.3 1.5-8 .7-3.4 1.4-6.9 1.9-10.4l1.1-7.8 1.1 7.8c.4 3.1.7 6.3.9 9.3.3 4.5.8 9 1.7 13.5.8 3.8 4.4 12.4 7.5 12.4.2 0 .4 0 .7-.1 2-.8 3.2-2.9 4.4-5l6.3-11.1 3.2-5.5-.2 4.4c-.1 2-.1 3.9.2 5.9.1.6.1 1.3.2 2.1.2 2.4.5 6 1.9 6 .8-.1 1.6-.4 2.2-.9 2.6-1.8 4.7-4.9 6.6-7.7l2.8-4.1 4.2-6 3.4-4.8-1.4 5.7c-1 3.9-2.1 8.6-2.8 13.3l-.2 1.3c-.6 3.6-1.2 7.3.6 10.4 1.6 2.6 6 3.6 9.5 3.7h.3c4.3 0 8.3-2.1 12.1-4.2 5.2-2.9 10.2-6.2 14.9-9.8 4.3-3.2 8.8-6.2 12.5-8.8L264 25l-2.7 4.4c-3.7 6.1-7.6 12.6-11 19.3-1.2 2.4-3.8 8.5-2.1 12.4.9 1.8 2.5 3.1 4.5 3.5 3.5 1 7.9.6 14.3-1.4l3.7-1.1-2.5 2.9c-.7.6-1 1.5-.9 2.4.1.3.3 1.1 2.3 1.1 3 0 7.4-1.7 9.8-2.6.7-.3 1.2-.5 1.5-.6 3.8-1.2 7.9-2.6 12.5-4.2L302 58l-7.7 5c-6.3 4.2-13 8.8-18.2 14.9-3 3.4-5.7 8.4-4.7 11.3.5 1.3 1.7 2.2 3.8 2.6 2.7.5 5.5.8 8.2.8 6.7 0 13.6-1.2 20.3-2.4l3.4-.6c3-.5 6.1-1.1 9.2-1.7l4.2-.8L317 90c-7.3 5.7-14.7 12.1-18.7 19.6-1.1 2.1-1.3 3.7-.5 5 1.1 1.8 4.8 4 16.2 4 3.4 0 7.2-.2 11.4-.6l4.1-.4-4.7 3.3c-1.3.9-2.7 1.9-4 2.8s-2.8 1.9-4.3 2.9c-3.9 2.5-7.6 5.2-11.1 8.1-3 2.6-6.1 6.2-5.7 8.8.2 1.2 1.3 2.2 3.2 2.9 3.1 1.1 6.3 1.6 9.5 1.5 5.4 0 11.2-1.1 16.3-2l3-.6c2.8-.5 5.7-1.1 8.5-1.7 1.7-.4 3.4-.7 5.1-1.1l8.3-1.7-12.5 6.1c-4.5 2.2-9.2 4.5-13.8 6.7-1.1.5-2.3 1-3.4 1.5-5 2.2-10.1 4.5-14.4 8-2.2 1.7-3.3 3.6-3.2 5.3.1 1.8 1.8 3.1 3.2 3.9 4 2.3 9.4 2.8 14.1 3.2l7.3.7-5.5 1.5c-1.9.6-3.8 1.1-5.8 1.7-5.2 1.7-10.3 3.7-15.2 6.1l-.9.5c-3.5 1.7-7.5 3.6-9.6 6.6s.8 7.5 8.9 13.4l2 1.5-2.5.5c-1.8.3-3.6.7-5.4 1.2-7.1 1.7-10.8 4.9-11.3 9.9-1 9 4 16.7 8.5 22.4.8 1.1 1.7 2.1 2.6 3.1l1.7 2-5-.3-5.4-.3c-1.2-.1-2.4-.2-3.6-.2-3.6 0-5.7 1-7 3.3-2.7 4.9 1.2 13.7 3.4 18.4l.2.4c1.1 2.4 2.4 4.8 3.6 7.1l1.5 2.9-3-1.4c-1.2-.6-2.3-1.2-3.3-1.7-1-.6-1.8-1-2.7-1.5-1.1-.5-2.2-.9-3.3-1.2-1.1-.3-2.3-.7-3.3-1.2-3.4-1.6-6-1.9-7.7-.8-1.3.7-1.3 2.3-1.2 4.5v.4c.3 3.3.9 6.5 2 9.6.5 1.7 1 3.4 1.4 5.1.4 1.6.7 3.3 1.1 4.9l.6 2.6-2.3-1.5c-2.3-1.5-4.8-2.8-7.1-4.2l-1.6-.9c-4.4-2.6-9-4.8-13.9-6.4-.8-.3-1.6-.4-2.5-.4-4.2 0-6.1 4-6.8 6.4-2.1 7-.7 15 1 22l1 4.3-2.9-3.3c-2-2.3-4.2-4.6-6.3-6.8-1.8-1.9-3.7-3.9-5.5-5.8-3.8-4.2-8.8-9.1-14.2-9.1-1 0-2 .2-3 .5-6.1 2.2-7.6 8.8-8.5 14.7-.3 1.7-.5 3.5-.7 5.2l-.4 3.6-1.7-3.2c-3.9-7.5-8.3-11.7-13.5-12.7-4.9-1-9.8 4.4-11.8 7.8-.9 2.4-1.6 4.8-2.1 7.2-.6 2.4-1.1 4.5-1.5 5.4l-1.2 3.1-.8-3.2c-.4-2.5-.6-5-.7-7.5 0-2.6-.3-5.3-.8-7.9-1.5-4.4-3.3-5.9-8.7-7.1-6-1.4-14.4 13.1-18.4 22.6l-2.8 7zm20.5-32c.4 0 .9.1 1.3.2 6.1 1.4 8.5 3.4 10.2 8.6.5 1.5.7 4.9.9 8.5 0 .5 0 1 .1 1.4.5-2.5 1.3-5 2.2-7.4 2.5-4.3 7.4-9 12.5-9 .5 0 1.1.1 1.6.2 5.1 1 9.5 4.6 13.3 10.9.1-.6.2-1.3.3-2 1.1-7.1 3.1-14 10-16.5 1.2-.4 2.4-.7 3.7-.7 6.2 0 11.7 5.2 15.8 9.8 1.8 1.9 3.6 3.9 5.4 5.8 1.2 1.3 2.4 2.5 3.6 3.8-1.2-6.2-1.9-12.9-.1-19s6.5-9.2 12-7.4c5 1.7 9.8 3.9 14.3 6.6l1.5.9c1.6.9 3.3 1.9 5 2.8-.2-.8-.4-1.6-.5-2.4-.3-1.6-.8-3.2-1.3-4.9-1.1-3.3-1.8-6.7-2.1-10.1v-.4c-.1-2.1-.2-5 2.3-6.4s5.6-1.2 9.7.8c1 .4 2.1.8 3.2 1.1 1.2.3 2.4.8 3.6 1.3 1 .5 1.9 1 2.9 1.5h.1c-.7-1.3-1.4-2.7-2-4.1l-.2-.4c-2.5-5.4-6.5-14.5-3.3-20.3 2.2-4 6.1-4.4 8.9-4.4 1.3 0 2.6.1 3.8.2 1.7.1 3.4.2 5.2.3l-1-1.3c-4.7-6-10-14.1-8.9-23.9.6-5.9 5-9.8 13-11.8 1-.3 2.1-.5 3.1-.7-4.4-3.4-11.2-9.5-7.4-15 2.4-3.5 6.7-5.6 10.4-7.4l.9-.4c5-2.5 10.2-4.5 15.5-6.2l.5-.2c-3.9-.5-7.8-1.2-11.2-3.1s-4.2-4.1-4.3-5.6c-.2-2.4 1.2-5 4-7.1 4.5-3.6 9.8-6 14.9-8.2 1.1-.5 2.3-1 3.4-1.5l10.8-5.1c-1.7.3-3.4.7-5.1 1l-3 .6c-5.2 1-11 2.1-16.7 2.1-3.5.1-7-.5-10.3-1.7-2.7-1-4.2-2.6-4.5-4.6-.7-4.3 4.3-9 6.5-10.8 3.6-2.9 7.4-5.7 11.3-8.2 1.4-.9 2.8-1.9 4.2-2.9l2.1-1.5c-2.7.2-5.3.3-7.6.3-10.1 0-16-1.7-18-5.1-1.2-2-1-4.4.5-7.1 3.6-6.7 9.6-12.4 15.9-17.6l-4.8.9-3.4.6c-6.5 1.1-13.8 2.4-20.7 2.4-2.9 0-5.8-.2-8.7-.8-2.9-.6-4.7-1.9-5.4-4-1.7-5.1 4-12.1 5.2-13.4 3.6-4 7.6-7.6 12-10.7-1.7.6-3.3 1.1-4.9 1.6-.3.1-.8.3-1.4.5-2.7 1-7.2 2.7-10.5 2.7-3.1 0-4.2-1.5-4.5-2.8-.1-.6-.1-1.3 0-1.9-5.5 1.4-9.6 1.6-13 .7-2.6-.6-4.8-2.3-5.9-4.7-2-4.7.5-11 2.1-14.3 2.6-5.2 5.5-10.3 8.4-15.1-2.7 1.9-5.5 3.8-8.3 5.9-4.8 3.6-9.8 6.9-15 9.8-4 2.1-8.5 4.5-13.3 4.5h-.3c-2-.1-8.8-.5-11.4-4.8-2.3-3.8-1.5-8.1-.9-11.9l.2-1.3c.4-2.7 1-5.3 1.5-7.8l-.9 1.3-2.8 4.1c-2 2.9-4.3 6.2-7.2 8.2-1 .8-2.2 1.2-3.4 1.3-3.5 0-3.8-4.6-4.1-8 0-.7-.1-1.4-.2-2s-.2-1.4-.2-2.1c-1.8 3-3.5 6.1-5.2 9.1-1.3 2.3-2.7 4.9-5.5 5.9-.5.2-1 .3-1.5.3-5.5 0-9.2-12-9.7-14.2-.8-4.6-1.4-9.2-1.7-13.8 0-.4-.1-.9-.1-1.3-.2.9-.3 1.8-.5 2.7-.5 2.6-1 5.3-1.5 7.9-.1.8-.2 1.6-.3 2.5-.4 3.6-1 8.1-3.4 10.6-.7.8-1.7 1.3-2.8 1.4-2.3 0-4-2.5-5-4.6-1.2 4.4-2.9 8.6-6.1 11.4-2.5 2.1-5.3 1.9-8-.7-1.3-1-2.4-2.3-3.2-3.8-2.3-3.9-4.5-8.2-7-13.3-.8-1.7-1.7-3.4-2.5-5.1.1 1.9.3 3.8.4 5.8 0 .7 0 1.4.1 2.1.3 5.1.5 10.9-2.1 15.4-.9 1.8-2.8 3-4.9 3-4.8 0-10.6-5.9-12.9-8.4-1.2-1.3-2.4-2.8-3.6-4.3l.5 3.2c.2 1.3.5 2.7.8 4.2 1 5.3 2.2 11.2.7 16.1-1 3.3-3 4-4.5 4-3.1 0-6.6-2.9-8.9-5.1-3-2.8-5.8-5.7-8.4-8.9 2.1 4.5 3.7 9.1 2.6 12-.4 1-1.2 1.8-2.3 2.2-1.5.4-3 .1-4.3-.7 1.7 4 3 8.9 2 13.5-.9 4.2-6.8 4.7-10 5h-.6c-4.9.4-10.3-.5-16.3-2.8-2.1-.8-4.3-1.7-6.5-2.7 4 3.4 8.1 6.8 12.2 10.1.3.2.5.4.8.6 2.1 1.6 4.9 3.8 4.9 6.9 0 3.4-3 4.3-5.1 5l-.3.1c-5.6 1.8-11.4 2.8-17.3 2.8h-.2c-2.4 0-4.8-.1-7.5-.4l2.2.9c6.1 2.3 14.5 5.5 15.2 12.3.4 3.9-4.6 6.4-6.7 7.4-3.6 1.3-7.3 2.2-11.1 2.7l-2.1.4c-3.1.5-6.3.8-9.5.9 12 4.5 18.7 8.1 19.8 10.7.3.6.3 1.3 0 1.9-3.4 7-15.5 8.2-22 8.9h-.2c1.9.8 4 1.6 6 2.3l.7.3c6.5 2.4 13.8 5.2 18.6 10.3 1.8 1.9 2.4 3.8 1.9 5.7-1.3 4.5-8.9 7.4-15.1 9.1-7 1.8-14.1 3-21.3 3.5 1.2.4 2.4.7 3.6 1.1.5.2 1.1.3 1.8.5 3.7 1 8.8 2.3 11 5.4.8.9 1 2.2.6 3.3-.9 2.3-4.5 3.4-7.9 4.1h-.2c-1.4.3-2.9.6-4.5.8 4.3 1.1 8.7 2.4 13.4 3.9l2.9.9c4.6 1.4 9.4 2.9 13.9 4.7l.3.1c2.9 1.1 7.1 2.8 8.3 6.2 1.6 4.8-3.4 8-5.6 9.4l-2.1 1.3c-4.1 2.8-8.4 5.3-12.8 7.5 3-.4 6-.8 9-1.3l1.6-.3c3.5-.8 7.1-1.2 10.7-1.4 4 0 6.8.9 8.8 2.6 3 2.8 2.1 6.3 1.1 9-2.5 6.3-6 12.1-10.5 17.2 4.9-3.5 10.3-6.4 15.9-8.4 1.9-.7 4-1.1 6-1.2 3.7 0 5.4 1.9 6.1 3.5 1.5 3.3.6 7.3-.3 10.9-1.8 6.3-9.5 17.6-16.3 27.6l-2.3 3.4c7.4-7.4 17.2-17 21.2-20 1.8-1.3 6.6-4.5 11-4.5 2.3 0 6.3.9 7.3 7.1.3 1.7-2.2 5.9-7.4 14.3-.9 1.4-1.8 2.9-2.6 4.3 7.3-7.1 10.9-10.2 12.6-10.2.6 0 1.2.4 1.4.9.9 2.3-.8 8.3-3.2 15.4 3.2-5.6 5.6-9.6 6.7-10.8.6-.6 1.1-1.2 1.7-1.8 1.3-1.7 2.9-3.1 4.6-4.4 4.8-3.1 9.2-.3 10.7 6.5.2 1.1.4 2.3.5 3.4 2.2-1.7 4.1-1.8 5.4-.5 3 3 2.7 8.2 2.5 12l-.1 1c0 .4-.1.9-.3 1.3 3.5-5.7 8.1-11.1 12.7-11z" fill="#e7ae5e"/></g><path class="st2" d="M169 175.1l-24-22.9-10.2 10.8 35.1 33.4 53.5-59.6-11.1-9.9z"/><path class="st2" d="M238 93.2c-18-3.2-34.6-13.1-42.9-18.6-5.4-3.6-11.7-5.6-18.2-5.6s-12.8 1.9-18.2 5.6C150.5 80.1 134 90 116 93.2c-10.7 1.9-18.4 11.1-18.4 21.9v44.8c0 14.8 4.1 29.2 12.3 42.9 6.4 10.7 15.2 20.9 26.3 30.3 18.6 15.9 37 24.2 37.8 24.5l3 1.3 3-1.3c.8-.3 19.2-8.6 37.8-24.5 11.1-9.5 19.9-19.7 26.3-30.3 8.2-13.7 12.3-28.1 12.3-42.9v-44.8c0-10.8-7.7-20-18.4-21.9zm3.6 66.7c0 22.1-11.1 42.8-33.1 61.7-12.8 11-25.8 18.1-31.5 21-13.1-6.7-64.6-35.8-64.6-82.7v-44.8c0-3.6 2.6-6.7 6.2-7.3 20.7-3.7 39.3-14.7 48.5-20.9 2.9-2 6.4-3 9.9-3s7 1 9.9 3c9.2 6.2 27.8 17.2 48.5 20.9 3.6.6 6.2 3.7 6.2 7.3v44.8z"/></svg>