<svg xmlns="http://www.w3.org/2000/svg" width="512" height="512"><g fill="#827f8f"><path d="M187.733 341.257c-13.107 0-24.789 7.646-30.438 18.927a41.506 41.506 0 0 0-12.228-1.86c-23.526 0-42.667 19.14-42.667 42.667 0 4.71 3.823 8.533 8.533 8.533s8.533-3.823 8.533-8.533c0-14.114 11.486-25.6 25.6-25.6 4.523 0 8.917 1.254 13.056 3.729a8.512 8.512 0 0 0 8.055.367 8.525 8.525 0 0 0 4.77-6.502c1.186-8.354 8.405-14.66 16.785-14.66 8.815 0 16.068 6.682 16.87 15.531a8.529 8.529 0 0 0 6.434 7.518 8.529 8.529 0 0 0 9.216-3.627c7.919-12.16 21.291-19.422 35.746-19.422 14.456 0 27.827 7.262 35.746 19.422a8.534 8.534 0 0 0 9.216 3.627 8.529 8.529 0 0 0 6.434-7.518c.802-8.849 8.055-15.531 16.87-15.531 8.38 0 15.599 6.306 16.785 14.66a8.524 8.524 0 0 0 4.77 6.502 8.51 8.51 0 0 0 8.055-.367c4.139-2.475 8.533-3.729 13.056-3.729 14.114 0 25.6 11.486 25.6 25.6 0 4.71 3.823 8.533 8.533 8.533s8.533-3.823 8.533-8.533c0-23.526-19.14-42.667-42.667-42.667-4.122 0-8.243.631-12.228 1.86-5.649-11.281-17.331-18.927-30.438-18.927-11.861 0-22.306 5.99-28.399 15.266-10.82-9.737-24.926-15.266-39.868-15.266-14.942 0-29.047 5.53-39.868 15.266-6.089-9.276-16.533-15.266-28.395-15.266zm102.4-204.8c0-18.825-15.309-34.133-34.133-34.133-18.825 0-34.133 15.309-34.133 34.133S237.175 170.59 256 170.59c18.825 0 34.133-15.309 34.133-34.133zM256 153.523c-9.412 0-17.067-7.654-17.067-17.067 0-9.412 7.654-17.067 17.067-17.067 9.412 0 17.067 7.654 17.067 17.067s-7.655 17.067-17.067 17.067zm-8.533 93.867v68.267c0 4.71 3.823 8.533 8.533 8.533s8.533-3.823 8.533-8.533V247.39c0-4.71-3.823-8.533-8.533-8.533s-8.533 3.822-8.533 8.533zM25.6 443.657a8.536 8.536 0 0 0 8.533-8.533v-256c0-12.442 13.158-25.6 25.6-25.6h102.4c4.71 0 8.533-3.823 8.533-8.533s-3.823-8.533-8.533-8.533h-102.4c-21.931 0-42.667 20.736-42.667 42.667v256c.001 4.709 3.824 8.532 8.534 8.532z"/><path d="M503.467 426.59h-8.533V179.123c0-21.931-20.736-42.667-42.667-42.667h-102.4c-4.71 0-8.533 3.823-8.533 8.533s3.823 8.533 8.533 8.533h102.4c12.442 0 25.6 13.158 25.6 25.6v256a8.536 8.536 0 0 0 8.533 8.533h8.533v25.6c0 12.442-13.158 25.6-25.6 25.6H42.667c-9.583 0-19.584-7.799-23.68-17.067h450.347c4.71 0 8.533-3.823 8.533-8.533s-3.823-8.533-8.533-8.533H8.533A8.536 8.536 0 0 0 0 469.255c0 21.931 20.736 42.667 42.667 42.667h426.667c21.931 0 42.667-20.736 42.667-42.667v-34.133c-.001-4.709-3.824-8.532-8.534-8.532z"/><path d="M153.6 298.59a8.536 8.536 0 0 0 8.533 8.533h25.6v8.533c0 4.71 3.823 8.533 8.533 8.533s8.533-3.823 8.533-8.533v-8.533h17.067a8.536 8.536 0 0 0 8.533-8.533 8.536 8.536 0 0 0-8.533-8.533h-51.2v-8.533c0-25.148 8.61-35.686 17.724-46.848 8.064-9.882 16.41-20.104 16.41-38.485v-85.333c0-29.79 14.02-44.595 15.087-45.739L256 21.786l36.591 43.861c.589.614 14.609 15.42 14.609 45.21v85.333c0 18.381 8.346 28.604 16.41 38.485 9.114 11.162 17.724 21.7 17.724 46.848v8.533h-51.2a8.536 8.536 0 0 0-8.533 8.533 8.536 8.536 0 0 0 8.533 8.533H307.2v8.533c0 4.71 3.823 8.533 8.533 8.533s8.533-3.823 8.533-8.533v-8.533h25.6a8.536 8.536 0 0 0 8.533-8.533v-17.067c0-31.232-11.955-45.875-21.564-57.643-7.296-8.934-12.57-15.394-12.57-27.691v-85.333c0-37.239-18.765-56.431-19.046-56.661l-42.667-51.2c-3.243-3.891-9.865-3.891-13.107 0L207.3 53.623c-.802.802-19.567 19.994-19.567 57.233v85.333c0 12.297-5.274 18.756-12.57 27.691-9.609 11.768-21.564 26.411-21.564 57.643v17.067z"/><path d="M170.667 179.123a8.536 8.536 0 0 0-8.533-8.533h-76.8c-11.682 0-34.133 10.812-34.133 25.6v238.933a8.536 8.536 0 0 0 8.533 8.533h392.533a8.536 8.536 0 0 0 8.533-8.533V196.19c0-13.158-12.442-25.6-25.6-25.6h-85.333a8.536 8.536 0 0 0-8.533 8.533 8.536 8.536 0 0 0 8.533 8.533H435.2c3.831 0 8.533 4.702 8.533 8.533v230.4H68.267l-.051-229.965c1.05-3.004 11.631-8.969 17.118-8.969h76.8c4.71.002 8.533-3.821 8.533-8.532z"/></g></svg>