<svg xmlns="http://www.w3.org/2000/svg" width="512" height="512"><path d="M462 346c-5.52 0-10 4.48-10 10s4.48 10 10 10 10-4.48 10-10-4.48-10-10-10z" fill="#827f8f"/><path d="M482 0H30C13.458 0 0 13.458 0 30v452c0 16.542 13.458 30 30 30h452c16.542 0 30-13.458 30-30V30c0-16.542-13.458-30-30-30zM20 30c0-5.514 4.486-10 10-10h216v76c0 5.522 4.478 10 10 10h40c17.959 0 32.7 15.947 29.58 35.113C323.271 155.301 309.634 166 293.86 166H256c-5.522 0-10 4.478-10 10v70h-60v-27.86c0-25.47-17.916-47.593-41.673-51.46C113.68 161.691 86 185.073 86 216v30H30c-3.506 0-6.87.61-10 1.72V30zm226 462H30c-5.514 0-10-4.486-10-10V276c0-5.514 4.486-10 10-10h66c5.522 0 10-4.478 10-10v-40c0-17.906 15.902-32.708 35.113-29.58C155.301 188.73 166 202.366 166 218.14V256c0 5.522 4.478 10 10 10h70v60h-27.86c-25.47 0-47.593 17.916-51.46 41.673C161.681 398.378 185.131 426 216 426h30v66zm246-10c0 5.514-4.486 10-10 10H266v-76c0-5.522-4.478-10-10-10h-40c-17.959 0-32.7-15.947-29.58-35.113C188.73 356.699 202.366 346 218.14 346H256c5.522 0 10-4.478 10-10v-70h60v30c0 30.674 27.418 54.356 58.326 49.32C408.084 341.453 426 319.33 426 293.86V266h66v216zm0-236h-76c-5.522 0-10 4.478-10 10v37.86c0 15.773-10.699 29.41-24.888 31.72C361.878 328.707 346 313.884 346 296v-40c0-5.522-4.478-10-10-10h-70v-60h27.86c25.47 0 47.593-17.916 51.46-41.673C350.319 113.622 326.869 86 296 86h-30V20h216c5.514 0 10 4.486 10 10v216z" fill="#827f8f"/><path d="M462 386c-5.522 0-10 4.478-10 10v60c0 5.522 4.478 10 10 10s10-4.478 10-10v-60c0-5.522-4.478-10-10-10z" fill="#827f8f"/></svg>