<svg xmlns="http://www.w3.org/2000/svg" width="512" height="512"><path d="M481.988 126.004H153.95l-15.61-59.707a9.842 9.842 0 0 0-.346-1.072c-4.435-11.496-15.687-19.219-27.997-19.219H29.999C13.458 46.006 0 59.463 0 76.005s13.458 29.999 29.999 29.999h58.536l73.115 279.702c.095.363.21.721.346 1.071 3.898 10.101 13.059 17.284 23.574 18.88a39.747 39.747 0 0 0-5.576 20.338c0 22.055 17.944 39.999 39.999 39.999 22.055 0 39.999-17.944 39.999-39.999 0-7.283-1.966-14.212-5.381-20.099h122.76a40.111 40.111 0 0 0-5.381 20.099c0 22.055 17.944 39.999 39.999 39.999s39.999-17.944 39.999-39.999a39.735 39.735 0 0 0-5.381-19.999h5.38c16.542 0 29.999-13.458 29.999-29.999s-13.458-29.999-29.999-29.999H211.458l-5.224-20h245.755a29.947 29.947 0 0 0 29.102-22.728 9.06 9.06 0 0 0 .076-.326l9.627-44.926.001-.005 12.839-59.915.029-.137 7.471-34.864c4.599-18.871-9.688-37.093-29.146-37.093zM219.994 445.996c-11.028 0-19.999-8.972-19.999-20s8.972-19.999 19.999-19.999c11.028 0 20 8.972 20 19.999s-8.972 20-20 20zm191.996 0c-11.028 0-20-8.972-20-20s8.972-19.999 20-19.999 19.999 8.972 19.999 19.999-8.972 20-19.999 20zm39.999-79.998c5.514 0 10 4.486 10 10s-4.486 10-10 10H189.995c-3.949 0-7.573-2.388-9.162-5.989L105.932 93.475a10 10 0 0 0-9.675-7.471H29.999c-5.514 0-10-4.486-10-10s4.486-10 10-10h79.998c3.949 0 7.573 2.388 9.162 5.989l74.901 286.532a9.999 9.999 0 0 0 9.675 7.472h248.254zm-185.996-59.999h-64.986L190.55 266h75.443v39.999zm0-59.998h-80.672l-10.457-39.999h91.129v39.999zm0-59.999h-96.358l-10.457-39.999h106.814v39.999zm99.998 119.997h-79.998V266h79.998v39.999zm0-59.998h-79.998v-39.999h79.998v39.999zm0-59.999h-79.998v-39.999h79.998v39.999zm95.66 112.561a9.978 9.978 0 0 1-9.663 7.436H385.99V266h82.639l-6.978 32.563zm11.264-52.562H385.99v-39.999h95.496l-8.571 39.999zm18.773-87.576c-.028.111-.054.222-.078.333l-5.838 27.244H385.99v-39.999h95.998c6.509 0 11.276 6.117 9.7 12.422z" fill="#827f8f"/></svg>