<svg xmlns="http://www.w3.org/2000/svg" viewBox="0 0 469.635 469.635" width="512" height="512"><g fill="#827f8f"><path d="M84.716 207.572l-24.022-.072a1.106 1.106 0 0 1-1.104-1.106V86.756a7.499 7.499 0 0 0-4.146-6.708L28.209 66.43l27.235-13.617a7.5 7.5 0 0 0 4.146-6.708v-30c0-.609.495-1.104 1.104-1.104h331.749c.609 0 1.104.496 1.104 1.104v168.967c0 4.142 3.357 7.5 7.5 7.5s7.5-3.358 7.5-7.5V16.104c0-8.88-7.225-16.104-16.104-16.104H60.694C51.814 0 44.59 7.225 44.59 16.104v25.365L8.084 59.722a7.5 7.5 0 0 0 0 13.416L44.59 91.391v115.003c0 8.881 7.225 16.106 16.082 16.106l23.999.072a7.5 7.5 0 1 0 .045-15z"/><path d="M465.696 245.955c0-21.165-17.219-38.383-38.383-38.383l-93.894.001c16.563-30.455 25.578-68.276 25.578-108.058 0-21.165-17.219-38.383-38.383-38.383s-38.383 17.218-38.383 38.383c0 59.583-48.474 108.057-108.057 108.057h-59.482a7.5 7.5 0 0 0-7.5 7.5v247.063a7.5 7.5 0 0 0 7.5 7.5h59.482a7.5 7.5 0 0 0 7.5-7.5V222.337c64.374-3.89 115.557-57.487 115.557-122.822 0-12.894 10.489-23.383 23.383-23.383s23.383 10.489 23.383 23.383c0 42.128-10.673 81.714-30.052 111.465a7.501 7.501 0 0 0 6.284 11.594l107.083-.002c12.894 0 23.383 10.49 23.383 23.383s-10.489 23.383-23.383 23.383h-37.948c-4.143 0-7.5 3.358-7.5 7.5s3.357 7.5 7.5 7.5h25.299c12.894 0 23.383 10.489 23.383 23.383s-10.489 23.383-23.383 23.383h-25.299c-4.143 0-7.5 3.358-7.5 7.5s3.357 7.5 7.5 7.5h12.649c12.894 0 23.383 10.489 23.383 23.383s-10.489 23.383-23.383 23.383h-12.649c-4.143 0-7.5 3.358-7.5 7.5s3.357 7.5 7.5 7.5c12.894 0 23.383 10.489 23.383 23.383s-10.489 23.383-23.383 23.383H204.176c-4.143 0-7.5 3.358-7.5 7.5s3.357 7.5 7.5 7.5h185.189c21.164 0 38.383-17.218 38.383-38.383 0-10.258-4.045-19.589-10.624-26.482 13.674-5.878 23.273-19.481 23.273-35.284 0-10.258-4.045-19.589-10.624-26.482 13.674-5.878 23.273-19.481 23.273-35.283 0-10.258-4.045-19.589-10.624-26.482 13.675-5.88 23.274-19.483 23.274-35.285zm-299.02 208.68h-44.482V222.572h44.482v232.063z"/><path d="M366.865 432.135V245.073c0-4.142-3.357-7.5-7.5-7.5s-7.5 3.358-7.5 7.5v187.062c0 4.142 3.357 7.5 7.5 7.5s7.5-3.358 7.5-7.5z"/></g></svg>