<svg xmlns="http://www.w3.org/2000/svg" viewBox="0 0 495.724 495.724" width="512" height="512"><g fill="#827f8f"><path d="M192.142 97.698c0 17.236 5.964 33.168 15.525 45.053l-.022 17.303c-.431.683-2.425 1.987-4.946 2.73l-29.785 7.735-.147.04c-18.962 5.313-28.883 23.902-28.883 39.519v8.633c0 9.453 8.273 17.144 18.444 17.144l171.067-.019c10.169 0 18.443-7.691 18.443-17.144v-8.633c0-15.618-9.921-34.207-28.883-39.519l-.147-.04-29.785-7.735c-2.521-.743-4.514-2.047-4.946-2.73l-.02-16.198c.024-.029.05-.055.074-.084 10.214-12.208 15.839-28.025 15.839-44.539V87.149c10.19-33.194 3.008-61.973-.678-70.35-.012-.027-.027-.052-.039-.079a7.352 7.352 0 0 0-.232-.461c-.047-.088-.091-.177-.14-.262-.075-.129-.158-.253-.24-.378-.067-.102-.132-.205-.203-.303-.068-.093-.141-.181-.213-.271-.095-.119-.189-.239-.29-.353-.055-.062-.115-.119-.172-.179a7.948 7.948 0 0 0-.378-.379c-.049-.045-.101-.085-.151-.129a7.58 7.58 0 0 0-.44-.364c-.055-.041-.113-.078-.168-.118a8.218 8.218 0 0 0-.459-.311c-.076-.047-.155-.087-.232-.131-.142-.081-.283-.163-.429-.234-.103-.051-.21-.094-.315-.141-.126-.055-.251-.113-.38-.162-.122-.047-.248-.084-.373-.125-.119-.039-.236-.08-.357-.113-.126-.034-.255-.06-.383-.089-.126-.028-.251-.058-.379-.08-.116-.02-.233-.031-.35-.046-.146-.019-.292-.038-.439-.049-.098-.007-.197-.007-.296-.01-.17-.006-.34-.01-.511-.005-.084.003-.169.011-.253.016a7.35 7.35 0 0 0-.552.051c-.027.003-.053.003-.08.007-7.702 1.1-17.098-1.149-27.046-3.531-17.597-4.213-37.445-8.954-54.834 3.582-16.816 1.446-28.738 15.577-28.738 34.677 0 13.887 6.443 38.688 7.921 44.195v6.674zm95.829-11.821v13.338c0 14.091-5.299 27-13.565 35.933l-.058.061c-7.106 7.651-16.392 12.372-26.399 12.372-21.206 0-39.808-23.309-39.808-49.881v-2.73c0-7.943 3.361-19.558 5.874-26.908 36.21.831 63.533 9.527 73.955 13.384v4.431zm-15.893 74.268c0 7.203 4.674 12.323 10.347 15.444-8.907 7.734-21.333 12.292-34.51 12.292-13.19 0-25.629-4.569-34.539-12.318 5.638-3.125 10.268-8.227 10.268-15.389l.004-3.422c7.393 4.355 15.653 6.829 24.3 6.829 8.488 0 16.681-2.197 24.125-6.354l.005 2.918zm63.761 49.914v8.633c0 .218-.814 1.144-2.444 1.144l-171.067.019c-1.629 0-2.443-.926-2.443-1.144v-8.633c0-9.568 5.885-20.903 17.132-24.093l19.311-5.015c11.89 14.245 31.152 22.911 51.588 22.911 20.433 0 39.691-8.662 51.582-22.903l19.21 4.989c11.247 3.189 17.131 14.524 17.131 24.092zM215.826 28.022c.037 0 .072-.005.108-.005.226-.003.452-.012.678-.034.088-.009.173-.025.26-.036.173-.023.345-.045.516-.079.108-.021.212-.051.318-.076.147-.035.295-.069.44-.113.116-.035.228-.079.342-.119.131-.046.263-.09.393-.144.122-.051.24-.11.359-.166.116-.055.232-.106.346-.167.136-.073.267-.155.398-.235.091-.056.184-.106.274-.167.169-.113.331-.236.49-.361.045-.035.093-.065.138-.102 11.76-9.608 27.022-5.955 43.18-2.085 8.697 2.083 17.628 4.215 26.301 4.248 2.083 7.699 4.132 21.339 1.932 37.586-13.015-4.74-43.539-13.976-83.854-13.976-.023 0-.045.003-.068.003-.168.001-.335.013-.503.025-.103.007-.207.011-.31.022-.132.015-.262.039-.393.06-.135.022-.272.04-.405.069-.079.017-.156.041-.235.061a7.83 7.83 0 0 0-.531.144c-.028.009-.054.021-.081.03a8.123 8.123 0 0 0-.644.242l-.009.004c-.231.1-.457.21-.676.331-.035.019-.068.043-.103.063a8.074 8.074 0 0 0-.541.332c-.11.075-.213.159-.32.239-.095.072-.193.139-.284.214a7.61 7.61 0 0 0-.421.383c-.047.045-.097.085-.143.131a7.73 7.73 0 0 0-.375.412c-.048.055-.099.106-.145.163-.096.117-.184.242-.274.366-.066.09-.135.177-.197.271-.063.095-.12.196-.179.295-.08.132-.161.262-.233.398-.041.077-.076.158-.114.237-.05.102-.102.202-.148.306-.551-3.761-.896-7.218-.896-9.961.004-8.678 4.091-18.809 15.609-18.809zm-36.755 398.313l-.147-.04-29.784-7.735c-2.521-.743-4.515-2.047-4.946-2.73l-.02-16.198.074-.085c10.214-12.208 15.839-28.025 15.839-44.539v-12.065c10.19-33.194 3.008-61.973-.678-70.35-.011-.025-.025-.047-.036-.072a7.88 7.88 0 0 0-.248-.495c-.04-.074-.078-.15-.12-.223a7.233 7.233 0 0 0-.276-.434c-.054-.081-.106-.164-.162-.242a7.784 7.784 0 0 0-.277-.352c-.073-.09-.144-.182-.22-.268-.088-.099-.183-.192-.275-.287-.089-.091-.176-.184-.269-.27-.096-.089-.197-.17-.297-.254-.096-.081-.19-.164-.289-.24-.116-.089-.238-.169-.358-.251-.089-.06-.174-.124-.265-.18-.146-.091-.299-.173-.451-.255-.07-.037-.138-.079-.209-.114a7.925 7.925 0 0 0-.533-.237c-.054-.022-.107-.048-.162-.069a7.797 7.797 0 0 0-.565-.189c-.056-.017-.11-.037-.167-.053a7.817 7.817 0 0 0-.534-.124c-.078-.016-.155-.036-.233-.049a7.68 7.68 0 0 0-.456-.06c-.113-.013-.226-.029-.34-.037-.119-.008-.24-.009-.36-.012-.152-.004-.304-.009-.456-.004-.092.003-.184.012-.276.018-.18.012-.361.026-.541.05-.026.003-.051.003-.077.007-7.702 1.099-17.098-1.149-27.046-3.531-17.597-4.213-37.445-8.955-54.834 3.582-16.816 1.446-28.738 15.577-28.738 34.677 0 13.887 6.443 38.688 7.921 44.195v6.674c0 17.235 5.964 33.167 15.525 45.052l-.021 17.303c-.431.683-2.425 1.987-4.946 2.73l-29.785 7.735-.147.04C9.921 431.667 0 450.256 0 465.873v8.633c0 9.453 8.273 17.144 18.444 17.144l171.067-.019c10.169 0 18.443-7.691 18.443-17.144v-8.633c0-15.617-9.921-34.206-28.883-39.519zM64.257 350.763c0-7.943 3.361-19.558 5.874-26.907 36.21.831 63.533 9.526 73.955 13.384v17.77c0 14.09-5.298 26.998-13.563 35.931l-.065.068c-7.105 7.648-16.388 12.366-26.393 12.366-21.206 0-39.808-23.309-39.808-49.881v-2.731zm15.504 65.205l.004-3.422c7.393 4.355 15.653 6.829 24.301 6.829 8.488 0 16.681-2.197 24.124-6.354l.004 2.919c0 7.203 4.674 12.323 10.347 15.444-8.907 7.734-21.333 12.292-34.51 12.292-13.19 0-25.629-4.569-34.539-12.318 5.638-3.126 10.269-8.228 10.269-15.39zm-7.82-132.151c.037 0 .072-.005.109-.005.226-.003.451-.012.677-.034.088-.009.174-.025.261-.037.172-.022.344-.045.515-.078.108-.021.212-.051.319-.077.147-.035.294-.069.439-.113.116-.035.229-.079.343-.119.131-.046.263-.09.392-.144.123-.051.24-.11.359-.166.116-.055.233-.106.346-.167.136-.073.267-.155.398-.235.091-.056.184-.107.274-.166.169-.113.331-.236.49-.361.045-.035.093-.065.138-.102 11.76-9.608 27.022-5.955 43.18-2.085 8.697 2.083 17.628 4.215 26.301 4.248 2.083 7.699 4.132 21.339 1.932 37.586-13.016-4.74-43.54-13.976-83.854-13.976-.024 0-.047.003-.071.004a7.269 7.269 0 0 0-.491.025c-.107.008-.215.011-.322.023-.127.014-.252.037-.378.058-.141.022-.282.042-.42.071-.072.016-.143.037-.214.055a7.696 7.696 0 0 0-.551.149l-.054.02a7.992 7.992 0 0 0-1.357.588c-.019.01-.037.023-.056.034a7.626 7.626 0 0 0-.587.361c-.099.067-.191.143-.287.215-.105.079-.214.154-.316.238-.141.117-.274.244-.408.371-.051.049-.106.093-.155.143-.129.129-.249.268-.37.407-.049.057-.102.11-.15.168-.095.116-.182.24-.271.363-.067.091-.137.18-.2.274-.063.094-.119.195-.178.292-.08.132-.162.263-.234.4-.041.077-.076.158-.114.237-.05.102-.102.202-.148.306-.551-3.761-.896-7.218-.896-9.961.004-8.679 4.091-18.81 15.609-18.81zm120.013 190.67c0 .218-.814 1.144-2.444 1.144l-171.067.019c-1.629 0-2.443-.926-2.443-1.144v-8.633c0-9.569 5.885-20.904 17.134-24.093l19.309-5.015c11.89 14.245 31.152 22.911 51.588 22.911 20.433 0 39.691-8.662 51.582-22.903l19.209 4.989c11.247 3.19 17.132 14.525 17.132 24.093v8.632zm274.886-48.151l-.147-.04-29.785-7.735c-2.521-.743-4.514-2.047-4.946-2.73l-.02-16.198.074-.085c10.214-12.208 15.839-28.025 15.839-44.539v-12.065c10.19-33.194 3.008-61.973-.678-70.35-.011-.026-.026-.049-.037-.075a7.478 7.478 0 0 0-.242-.482c-.043-.08-.083-.161-.128-.239a7.927 7.927 0 0 0-.261-.411c-.059-.089-.116-.18-.179-.267-.08-.11-.167-.215-.252-.321-.081-.101-.161-.204-.247-.3-.076-.085-.157-.165-.236-.246-.102-.105-.203-.212-.31-.311-.079-.073-.162-.139-.243-.208-.114-.097-.226-.195-.344-.285-.095-.072-.195-.137-.294-.206-.11-.076-.217-.154-.33-.224-.125-.078-.255-.146-.384-.217-.092-.05-.182-.104-.275-.151a8.036 8.036 0 0 0-.474-.211c-.074-.031-.145-.065-.22-.094a7.76 7.76 0 0 0-.521-.174c-.07-.021-.138-.047-.209-.066a7.74 7.74 0 0 0-.506-.117c-.086-.018-.172-.04-.258-.055-.146-.025-.295-.041-.443-.059-.117-.014-.233-.03-.351-.039-.118-.008-.238-.009-.357-.012-.152-.004-.304-.009-.457-.004-.093.003-.186.012-.279.018a8.117 8.117 0 0 0-.537.05c-.026.004-.052.004-.079.007-7.702 1.099-17.098-1.149-27.046-3.531-17.597-4.213-37.445-8.955-54.835 3.582-16.816 1.446-28.739 15.577-28.739 34.677 0 13.887 6.443 38.688 7.921 44.195v6.674c0 17.236 5.964 33.168 15.525 45.053l-.022 17.303c-.431.683-2.424 1.987-4.945 2.729l-29.785 7.736-.147.04c-18.962 5.313-28.883 23.902-28.883 39.519v8.633c0 9.453 8.273 17.144 18.444 17.144l171.067-.019c10.169 0 18.443-7.691 18.443-17.144v-8.633c.002-15.616-9.92-34.205-28.882-39.517zm-114.813-75.573c0-7.943 3.361-19.558 5.874-26.907 36.21.831 63.533 9.526 73.955 13.384v17.77c0 14.091-5.299 27-13.565 35.933l-.058.061c-7.106 7.651-16.392 12.372-26.399 12.372-21.206 0-39.808-23.309-39.808-49.881v-2.732zm15.503 65.205l.004-3.422c7.393 4.355 15.653 6.829 24.3 6.829 8.488 0 16.681-2.197 24.125-6.354l.004 2.919c0 7.203 4.674 12.323 10.347 15.444-8.907 7.734-21.333 12.292-34.51 12.292-13.19 0-25.629-4.569-34.539-12.318 5.639-3.126 10.269-8.228 10.269-15.39zm-7.82-132.151c.037 0 .072-.005.109-.005.226-.003.452-.012.677-.034.088-.009.174-.025.262-.037.172-.022.344-.045.515-.078.108-.021.212-.051.319-.077.147-.035.294-.069.439-.113.116-.035.229-.079.343-.119.131-.046.263-.09.393-.144.122-.051.24-.11.359-.166.116-.055.232-.106.346-.167.136-.073.267-.155.398-.235.091-.056.184-.107.274-.166.169-.113.331-.236.49-.361.045-.035.093-.065.138-.102 11.76-9.608 27.022-5.955 43.18-2.085 8.697 2.083 17.628 4.215 26.301 4.248 2.083 7.699 4.132 21.339 1.932 37.586-13.015-4.74-43.54-13.976-83.854-13.976-.024 0-.047.003-.071.004a7.996 7.996 0 0 0-.49.025c-.108.007-.216.011-.323.023-.126.014-.25.037-.374.057-.142.022-.285.042-.424.072-.07.015-.138.036-.208.053a8.042 8.042 0 0 0-.558.151l-.044.016a7.906 7.906 0 0 0-1.366.592c-.015.008-.029.019-.044.027a7.937 7.937 0 0 0-.599.368c-.097.066-.189.141-.283.212-.107.08-.217.156-.319.241a8.056 8.056 0 0 0-.411.374c-.05.047-.103.091-.152.14-.13.13-.252.271-.373.411-.048.055-.1.107-.146.164-.097.118-.185.244-.275.368-.065.089-.134.176-.195.268-.064.096-.121.198-.181.298-.079.13-.159.26-.231.395-.041.078-.077.16-.115.24-.049.101-.102.201-.147.305-.551-3.762-.896-7.219-.896-9.962-.001-8.68 4.086-18.811 15.604-18.811zm120.014 190.67c0 .218-.814 1.144-2.444 1.144l-171.067.019c-1.629 0-2.443-.926-2.443-1.144v-8.633c0-9.568 5.885-20.903 17.132-24.093l19.311-5.015c11.89 14.245 31.152 22.911 51.588 22.911 20.433 0 39.691-8.662 51.582-22.903l19.21 4.989c11.248 3.19 17.132 14.524 17.132 24.093v8.632z"/><path d="M323.643 113.544c42.674 26.47 68.151 72.212 68.151 122.362a8 8 0 0 0 16 0c0-27.704-7.2-55.004-20.821-78.947-13.205-23.212-32.188-42.926-54.896-57.011a8 8 0 0 0-11.015 2.582 7.997 7.997 0 0 0 2.581 11.014zM96.037 243.906a8 8 0 0 0 8-8c0-50.153 25.48-95.898 68.159-122.366a8 8 0 0 0-8.432-13.598c-22.71 14.084-41.695 33.799-54.902 57.012-13.624 23.945-20.824 51.246-20.824 78.952a7.999 7.999 0 0 0 7.999 8zm223.084 126.426a8 8 0 0 0-10.627-3.882c-19.033 8.848-39.415 13.334-60.578 13.334-21.168 0-41.554-4.488-60.59-13.34a7.998 7.998 0 0 0-10.627 3.881 8 8 0 0 0 3.881 10.627c21.165 9.842 43.82 14.832 67.336 14.832 23.511 0 46.162-4.988 67.323-14.826a8 8 0 0 0 3.882-10.626z"/></g></svg>