<svg xmlns="http://www.w3.org/2000/svg" viewBox="0 0 511.999 511.999" width="512" height="512"><path d="M344.214 276.755l-43.582-19.37a8.539 8.539 0 0 1-5.067-7.797V237.62c14.64-11.665 24.05-29.628 24.05-49.758v-16.847c4.823-2.665 8.016-7.815 8.016-13.583v-1.635c0-35.076-28.537-63.613-63.613-63.613h-16.032c-35.076 0-63.613 28.537-63.613 63.613v14.835c0 5.07 2.182 9.663 5.985 12.602.645.498 1.324.936 2.031 1.315v3.312c0 20.13 9.409 38.093 24.048 49.757v11.969a8.54 8.54 0 0 1-5.067 7.797l-43.582 19.37c-14.273 6.343-23.496 20.535-23.496 36.154v99.404a7.5 7.5 0 0 0 15 0v-99.403c0-.869.062-1.728.152-2.58l20.082 20.082a16.443 16.443 0 0 1 4.847 11.702v70.2a7.5 7.5 0 0 0 15 0v-70.2c0-8.427-3.281-16.349-9.24-22.308l-23.941-23.942a24.5 24.5 0 0 1 7.689-5.402l42.847-19.043 31.775 31.775v109.119a7.5 7.5 0 0 0 15 0V303.194l31.775-31.775 42.846 19.042a24.486 24.486 0 0 1 7.689 5.403l-23.941 23.941c-5.959 5.959-9.24 13.881-9.24 22.308v70.2a7.5 7.5 0 0 0 15 0v-70.2a16.44 16.44 0 0 1 4.847-11.702l20.081-20.081c.09.852.152 1.709.152 2.578v99.404a7.5 7.5 0 0 0 15 0v-99.403c-.003-15.619-9.225-29.811-23.498-36.154zM256 289.481l-27.881-27.882a23.491 23.491 0 0 0 3.317-12.011v-3.052c7.563 3.178 15.862 4.939 24.565 4.939s17.001-1.76 24.563-4.938v3.051c0 4.318 1.197 8.444 3.318 12.012L256 289.481zm.001-53.007c-26.805.001-48.613-21.807-48.613-48.612v-3.373c4.68-1.855 9.248-4.807 13.621-8.842a7.5 7.5 0 0 0-10.174-11.023c-3.751 3.463-7.499 5.7-11.137 6.65a1.21 1.21 0 0 1-.199.037c-.054-.105-.127-.325-.127-.678v-14.835c0-26.805 21.808-48.613 48.613-48.613h16.032c26.806 0 48.613 21.808 48.613 48.613v1.635c0 .243-.146.454-.338.492-44.911 8.87-67.437-7.847-75.037-15.447a7.5 7.5 0 0 0-10.606 0 7.5 7.5 0 0 0 0 10.606c23.29 23.29 57.275 23.71 77.965 21.224v13.553c0 26.805-21.808 48.613-48.613 48.613zm-120.759-.513v-16.035c0-19.566-10.168-36.79-25.489-46.702a31.665 31.665 0 0 0 1.44-9.411c0-17.396-14.152-31.548-31.548-31.548s-31.548 14.153-31.548 31.548c0 3.237.49 6.385 1.438 9.413-15.32 9.911-25.487 27.135-25.487 46.7v16.032c0 18.947 9.533 35.701 24.048 45.743v16.493a8.486 8.486 0 0 1-4.716 7.632l-25.941 12.97C6.682 324.176 0 334.988 0 347.015v65.299a7.5 7.5 0 0 0 15 0v-62.055l12.218 12.218a16.443 16.443 0 0 1 4.847 11.702v38.135a7.5 7.5 0 0 0 15 0v-38.135c0-8.427-3.282-16.349-9.24-22.308L20.82 334.866c-.082-.082-.17-.153-.254-.23a16.724 16.724 0 0 1 3.582-2.422l25.941-12.97a23.887 23.887 0 0 0 3.719-2.322l18.337 18.338v77.055a7.5 7.5 0 0 0 15 0v-77.056l18.338-18.338a23.784 23.784 0 0 0 3.719 2.322l7.153 3.577a7.502 7.502 0 0 0 6.709-13.415l-7.153-3.577a8.485 8.485 0 0 1-4.717-7.631v-16.493c14.515-10.042 24.048-26.797 24.048-45.743zm-55.597-88.696c9.125 0 16.548 7.424 16.548 16.548 0 1.005-.09 1.99-.262 2.955a55.41 55.41 0 0 0-16.286-2.439c-5.657 0-11.117.854-16.263 2.432a16.66 16.66 0 0 1-.285-2.948c0-9.125 7.423-16.548 16.548-16.548zm0 32.065c22.385 0 40.597 18.212 40.597 40.597v2.718c-31.225 9.56-49.834-14.193-50.629-15.234a7.502 7.502 0 0 0-11.303-.803c-7.159 7.159-14.171 10.612-19.235 12.279.555-21.906 18.534-39.557 40.57-39.557zm0 142.215l-17.331-17.331c.506-1.934.783-3.95.783-6.019v-9.155c5.229 1.634 10.788 2.515 16.548 2.515s11.319-.881 16.548-2.515v9.155c0 2.069.277 4.086.783 6.019l-17.331 17.331zm0-44.99c-22.385 0-40.597-18.212-40.597-40.597v-1.554c5.981-1.374 14.849-4.567 24.1-12.007 3.273 3.088 7.951 6.876 13.908 10.125 7.046 3.843 16.777 7.398 28.663 7.398 4.517 0 9.35-.525 14.459-1.731-1.163 21.352-18.897 38.366-40.533 38.366zm414.916 26.21l-41.973-20.987a8.486 8.486 0 0 1-4.716-7.631v-10.629c9.825-8.723 16.032-21.435 16.032-35.575v-8.537c.173 0 .343.005.516.005a7.5 7.5 0 0 0 7.5-7.5v-16.032c0-26.236-21.345-47.581-47.581-47.581h-16.032c-26.236 0-47.581 21.345-47.581 47.581v16.032a7.5 7.5 0 0 0 7.5 7.5c.062 0 .242-.002.516-.013v8.545c0 14.141 6.208 26.853 16.033 35.576v10.629a8.483 8.483 0 0 1-4.717 7.631 7.499 7.499 0 0 0-3.354 10.062 7.5 7.5 0 0 0 10.062 3.355 23.887 23.887 0 0 0 3.719-2.322l18.338 18.338v101.103a7.5 7.5 0 0 0 15 0V311.21l18.337-18.338a23.784 23.784 0 0 0 3.719 2.322l40.615 20.308-12.319 12.319c-5.958 5.959-9.24 13.881-9.24 22.308v62.184a7.5 7.5 0 0 0 15 0v-62.184a16.44 16.44 0 0 1 4.847-11.702l11.669-11.669c.354 1.357.548 2.772.548 4.224v81.331a7.5 7.5 0 0 0 15 0v-81.331c.001-12.026-6.681-22.838-17.438-28.217zm-118.836-99.897v-6.99h.001c0-17.965 14.616-32.581 32.581-32.581h16.032c17.965 0 32.581 14.616 32.581 32.581v8.331c-32.603-1.759-52.278-14.446-52.469-14.571a7.495 7.495 0 0 0-9.464.937c-7.176 7.176-14.207 10.63-19.262 12.293zm40.598 94.629l-17.331-17.331c.506-1.934.783-3.95.783-6.019v-1.597a47.347 47.347 0 0 0 16.548 2.973 47.347 47.347 0 0 0 16.548-2.973v1.597c0 2.069.276 4.085.783 6.019l-17.331 17.331zm0-36.973c-17.965 0-32.581-14.615-32.581-32.581v-12.091c5.253-2.099 11.373-5.436 17.601-10.742 7.876 4.098 24.354 11.181 47.561 13.521v9.312c0 17.965-14.616 32.581-32.581 32.581z" fill="#827f8f"/></svg>