<svg xmlns="http://www.w3.org/2000/svg" viewBox="0 0 480 480" width="512" height="512"><path d="M72.004 120H40a7.998 7.998 0 0 0-8 7.996V160a7.998 7.998 0 0 0 7.996 8H72a7.998 7.998 0 0 0 8-7.996V128a7.998 7.998 0 0 0-7.996-8zM64 152H48v-16h16v16zm104.004-32H136a7.998 7.998 0 0 0-8 7.996V160a7.998 7.998 0 0 0 7.996 8H168a7.998 7.998 0 0 0 8-7.996V128a7.998 7.998 0 0 0-7.996-8zM160 152h-16v-16h16v16zm104.004-32H232a7.998 7.998 0 0 0-8 7.996V160a7.998 7.998 0 0 0 7.996 8H264a7.998 7.998 0 0 0 8-7.996V128a7.998 7.998 0 0 0-7.996-8zM256 152h-16v-16h16v16zM72.004 208H40a7.998 7.998 0 0 0-8 7.996V248a7.998 7.998 0 0 0 7.996 8H72a7.998 7.998 0 0 0 8-7.996V216a7.998 7.998 0 0 0-7.996-8zM64 240H48v-16h16v16zm104.004-32H136a7.998 7.998 0 0 0-8 7.996V248a7.998 7.998 0 0 0 7.996 8H168a7.998 7.998 0 0 0 8-7.996V216a7.998 7.998 0 0 0-7.996-8zM160 240h-16v-16h16v16zm104.004-32H232a7.998 7.998 0 0 0-8 7.996V248a7.998 7.998 0 0 0 7.996 8H264a7.998 7.998 0 0 0 8-7.996V216a7.998 7.998 0 0 0-7.996-8zM256 240h-16v-16h16v16zM72.004 296H40a7.998 7.998 0 0 0-8 7.996V336a7.998 7.998 0 0 0 7.996 8H72a7.998 7.998 0 0 0 8-7.996V304a7.998 7.998 0 0 0-7.996-8zM64 328H48v-16h16v16zm104.004-32H136a7.998 7.998 0 0 0-8 7.996V336a7.998 7.998 0 0 0 7.996 8H168a7.998 7.998 0 0 0 8-7.996V304a7.998 7.998 0 0 0-7.996-8zM160 328h-16v-16h16v16zm104.004-32H232a7.998 7.998 0 0 0-8 7.996V336a7.998 7.998 0 0 0 7.996 8H264a7.998 7.998 0 0 0 8-7.996V304a7.998 7.998 0 0 0-7.996-8zM256 328h-16v-16h16v16zM72.004 384H40a7.998 7.998 0 0 0-8 7.996V424a7.998 7.998 0 0 0 7.996 8H72a7.998 7.998 0 0 0 8-7.996V392a7.998 7.998 0 0 0-7.996-8zM64 416H48v-16h16v16zm200.004-32H232a7.998 7.998 0 0 0-8 7.996V424a7.998 7.998 0 0 0 7.996 8H264a7.998 7.998 0 0 0 8-7.996V392a7.998 7.998 0 0 0-7.996-8zM256 416h-16v-16h16v16z" fill="#827f8f"/><path d="M472.004 200H392v-40.047a54.232 54.232 0 0 0 23.602 6.898c.84.047 1.68.062 2.512.062a49.893 49.893 0 0 0 35.542-14.984 7.996 7.996 0 0 0 .003-11.309l-.003-.003-27.48-27.48 19.48-19.481-11.312-11.312-19.481 19.48-27.48-27.48c-3.174-3-8.138-3-11.312 0-19.92 20.148-19.952 52.564-.07 72.75V200h-72V96a7.998 7.998 0 0 0-7.996-8h-8.004V64a7.998 7.998 0 0 0-7.996-8h-24.004V8a7.998 7.998 0 0 0-7.996-8H56a7.998 7.998 0 0 0-8 7.996V56H24a7.998 7.998 0 0 0-8 7.996V88H8a7.998 7.998 0 0 0-8 7.996V472a7.998 7.998 0 0 0 7.996 8H472a7.998 7.998 0 0 0 8-7.996V208a7.998 7.998 0 0 0-7.996-8zM64 16h176v40H64V16zM32 72h240v16H32V72zm112 392h-32v-57.539c.007-7.982 6.475-14.452 14.457-14.461H144v72zm48 0h-32v-72h17.543c7.982.009 14.45 6.479 14.457 14.461V464zm96 0h-80v-57.539c-.018-16.814-13.643-30.441-30.457-30.461h-51.086c-16.814.02-30.439 13.647-30.457 30.461V464H16V104h272v360zm94.336-372.078l53.754 53.758a32.806 32.806 0 0 1-19.691 5.195 41.06 41.06 0 0 1-26.742-12.531c-13.305-11.691-16.382-31.205-7.321-46.422zM408 464h-48v-43.305c.009-7.009 5.69-12.689 12.699-12.695h22.602c7.009.006 12.691 5.686 12.699 12.695V464zm56 0h-40v-43.305c-.02-15.841-12.858-28.677-28.699-28.695h-22.602c-15.841.018-28.679 12.854-28.699 28.695V464h-40V216h160v248z" fill="#827f8f"/><path d="M408.004 232H360a7.998 7.998 0 0 0-8 7.996V288a7.998 7.998 0 0 0 7.996 8H408a7.998 7.998 0 0 0 8-7.996V240a7.998 7.998 0 0 0-7.996-8zM400 280h-32v-32h32v32zm8.004 32H360a7.998 7.998 0 0 0-8 7.996V368a7.998 7.998 0 0 0 7.996 8H408a7.998 7.998 0 0 0 8-7.996V320a7.998 7.998 0 0 0-7.996-8zM400 360h-32v-32h32v32z" fill="#827f8f"/></svg>