<svg xmlns="http://www.w3.org/2000/svg" height="512" viewBox="-56 0 512 512" width="512"><path d="M271.992 88a8.056 8.056 0 0 1-4.472-1.367l-24-16.2a8.015 8.015 0 0 1-2.16-11.113c2.472-3.656 7.44-4.617 11.113-2.16l24 16.2a8.015 8.015 0 0 1 2.16 11.113 7.981 7.981 0 0 1-6.64 3.527zm0 0" fill="#827f8f"/><path d="M204 79.8c-28.895 0-53.496-8.066-54.52-8.41-4.183-1.398-6.457-5.917-5.074-10.109 1.395-4.183 5.914-6.465 10.114-5.082.234.082 23.265 7.594 49.488 7.594 25.426 0 40.32-7.106 40.472-7.176 3.954-1.914 8.75-.304 10.696 3.656a7.993 7.993 0 0 1-3.59 10.688c-.746.36-18.098 8.84-47.586 8.84zm0 0" fill="#827f8f"/><path d="M128.008 88a7.993 7.993 0 0 1-6.64-3.52c-2.473-3.664-1.505-8.632 2.16-11.113l24-16.199a8.013 8.013 0 0 1 11.113 2.16c2.472 3.664 1.504 8.633-2.16 11.113l-24 16.2A8.11 8.11 0 0 1 128.007 88zm72.23 176c-4.422 0-8.039-3.574-8.039-8s3.535-8 7.953-8h.086c4.418 0 8 3.574 8 8s-3.582 8-8 8zm0 40c-4.422 0-8.039-3.574-8.039-8s3.535-8 7.953-8h.086c4.418 0 8 3.574 8 8s-3.582 8-8 8zm0 40c-4.422 0-8.039-3.574-8.039-8s3.535-8 7.953-8h.086c4.418 0 8 3.574 8 8s-3.582 8-8 8zm0 40c-4.422 0-8.039-3.574-8.039-8s3.535-8 7.953-8h.086c4.418 0 8 3.574 8 8s-3.582 8-8 8zm0 0" fill="#827f8f"/><path d="M272 88a7.99 7.99 0 0 1-8-8c0-35.29-28.71-64-64-64s-64 28.71-64 64c0 4.426-3.574 8-8 8s-8-3.574-8-8c0-44.113 35.887-80 80-80s80 35.887 80 80c0 4.426-3.574 8-8 8zm-72 112c-44.113 0-80-35.887-80-80 0-4.426 3.574-8 8-8s8 3.574 8 8c0 35.29 28.71 64 64 64s64-28.71 64-64c0-4.426 3.574-8 8-8s8 3.574 8 8c0 44.113-35.887 80-80 80zm0 0" fill="#827f8f"/><path d="M128 128a7.99 7.99 0 0 1-8-8V80c0-4.426 3.574-8 8-8s8 3.574 8 8v40c0 4.426-3.574 8-8 8zm144 0a7.99 7.99 0 0 1-8-8V80c0-4.426 3.574-8 8-8s8 3.574 8 8v40c0 4.426-3.574 8-8 8zm55.992 352c-4.426 0-8-3.574-8-8s3.574-8 8-8c13.23 0 24.008-10.777 24.008-24.008 0-13.23-10.777-24.008-24.008-24.008-4.426 0-8-3.578-8-8 0-4.425 3.574-8 8-8 22.063 0 40.008 17.946 40.008 40.008S350.055 480 327.992 480zM200 480c-22.055 0-40-17.945-40-40s17.945-40 40-40c4.426 0 8 3.574 8 8s-3.574 8-8 8c-13.23 0-24 10.77-24 24s10.77 24 24 24c4.426 0 8 3.574 8 8s-3.574 8-8 8zm-120 0c-22.055 0-40-17.945-40-40s17.945-40 40-40c4.426 0 8 3.574 8 8s-3.574 8-8 8c-13.23 0-24 10.77-24 24s10.77 24 24 24c4.426 0 8 3.574 8 8s-3.574 8-8 8zM32 360c-4.426 0-8-3.574-8-8s3.574-8 8-8c26.473 0 48-21.527 48-48 0-4.426 3.574-8 8-8s8 3.574 8 8c0 35.29-28.71 64-64 64zm0 0" fill="#827f8f"/><path d="M88 288a7.99 7.99 0 0 1-8-8c0-44.113 35.887-79.992 80-79.992 4.426 0 8 3.578 8 8 0 4.426-3.574 8-8 8-35.29 0-64 28.703-64 63.992 0 4.426-3.574 8-8 8zM32 400c-4.426 0-8-3.574-8-8s3.574-8 8-8c48.52 0 88-39.48 88-88 0-4.426 3.574-8 8-8s8 3.574 8 8c0 57.344-46.656 104-104 104zm0 0" fill="#827f8f"/><path d="M28 400c-15.441 0-28-12.559-28-28s12.559-28 28-28c4.426 0 8 3.574 8 8s-3.574 8-8 8c-6.617 0-12 5.383-12 12s5.383 12 12 12c4.426 0 8 3.574 8 8s-3.574 8-8 8zm60-96a7.99 7.99 0 0 1-8-8v-16c0-4.426 3.574-8 8-8s8 3.574 8 8v16c0 4.426-3.574 8-8 8zm80-87.992h-8a7.99 7.99 0 0 1-8-8c0-4.422 3.574-8 8-8h8c4.426 0 8 3.578 8 8 0 4.426-3.574 8-8 8zM128 408a7.99 7.99 0 0 1-8-8V296c0-4.426 3.574-8 8-8s8 3.574 8 8v104c0 4.426-3.574 8-8 8zm0 0" fill="#827f8f"/><path d="M32 400h-4c-4.426 0-8-3.574-8-8s3.574-8 8-8h4c4.426 0 8 3.574 8 8s-3.574 8-8 8zm0-40h-4c-4.426 0-8-3.574-8-8s3.574-8 8-8h4c4.426 0 8 3.574 8 8s-3.574 8-8 8zm336 0c-35.29 0-64-28.71-64-64 0-4.426 3.574-8 8-8s8 3.574 8 8c0 26.473 21.527 48 48 48 4.426 0 8 3.574 8 8s-3.574 8-8 8zm0 0" fill="#827f8f"/><path d="M312 288a7.99 7.99 0 0 1-8-8c0-35.29-28.71-63.992-64-63.992a7.99 7.99 0 0 1-8-8c0-4.422 3.574-8 8-8 44.113 0 80 35.879 80 79.992 0 4.426-3.574 8-8 8zm56 112c-57.344 0-104-46.656-104-104 0-4.426 3.574-8 8-8s8 3.574 8 8c0 48.52 39.48 88 88 88 4.426 0 8 3.574 8 8s-3.574 8-8 8zm0 0" fill="#827f8f"/><path d="M372 400c-4.426 0-8-3.574-8-8s3.574-8 8-8c6.617 0 12-5.383 12-12s-5.383-12-12-12c-4.426 0-8-3.574-8-8s3.574-8 8-8c15.441 0 28 12.559 28 28s-12.559 28-28 28zm-60-96a7.99 7.99 0 0 1-8-8v-16c0-4.426 3.574-8 8-8s8 3.574 8 8v16c0 4.426-3.574 8-8 8zm-72-87.992h-8a7.99 7.99 0 0 1-8-8c0-4.422 3.574-8 8-8h8c4.426 0 8 3.578 8 8 0 4.426-3.574 8-8 8zM272 408a7.99 7.99 0 0 1-8-8V296c0-4.426 3.574-8 8-8s8 3.574 8 8v104c0 4.426-3.574 8-8 8zm0 0" fill="#827f8f"/><path d="M372 400h-4c-4.426 0-8-3.574-8-8s3.574-8 8-8h4c4.426 0 8 3.574 8 8s-3.574 8-8 8zm0-40h-4c-4.426 0-8-3.574-8-8s3.574-8 8-8h4c4.426 0 8 3.574 8 8s-3.574 8-8 8zM216 232a7.984 7.984 0 0 1-5.656-2.344 7.99 7.99 0 0 1 0-11.312l16-16c3.129-3.13 8.183-3.13 11.312 0s3.13 8.183 0 11.312l-16 16A7.984 7.984 0 0 1 216 232zm0 0" fill="#827f8f"/><path d="M215.992 232a8.017 8.017 0 0 1-3.566-.84l-16-8a8 8 0 0 1-3.578-10.734 8.01 8.01 0 0 1 10.738-3.578l16 8c3.95 1.976 5.55 6.785 3.574 10.738a8.013 8.013 0 0 1-7.168 4.414zm0 0" fill="#827f8f"/><path d="M184.008 232a8.003 8.003 0 0 1-3.594-15.16l16-8a8.015 8.015 0 0 1 10.738 3.574 8.004 8.004 0 0 1-3.578 10.738l-16 8a7.934 7.934 0 0 1-3.566.848zm0 0" fill="#827f8f"/><path d="M184 232a7.984 7.984 0 0 1-5.656-2.344l-16-16c-3.13-3.129-3.13-8.183 0-11.312s8.183-3.13 11.312 0l16 16a7.99 7.99 0 0 1 0 11.312A7.984 7.984 0 0 1 184 232zm0 0" fill="#827f8f"/><path d="M168 216a7.99 7.99 0 0 1-8-8v-23.496c0-4.426 3.574-8 8-8s8 3.574 8 8V208c0 4.426-3.574 8-8 8zm64 0a7.99 7.99 0 0 1-8-8v-23.496c0-4.426 3.574-8 8-8s8 3.574 8 8V208c0 4.426-3.574 8-8 8zM80 416c-4.414 0-8-3.574-8-8 0-4.414 3.574-8 8-8l247.992-.016a8 8 0 0 1 0 16zm247.992 64H80c-4.426 0-8-3.574-8-8s3.574-8 8-8h247.992c4.422 0 8 3.574 8 8s-3.578 8-8 8zM320 512H80c-4.426 0-8-3.574-8-8s3.574-8 8-8h240c4.426 0 8 3.574 8 8s-3.574 8-8 8zm0 0" fill="#827f8f"/></svg>