<svg xmlns="http://www.w3.org/2000/svg" height="512" width="512"><path d="M408 208h-96c-4.426 0-8-3.586-8-8v-96C304 46.656 350.656 0 408 0s104 46.656 104 104-46.656 104-104 104zm-88-16h88c48.52 0 88-39.48 88-88s-39.48-88-88-88-88 39.48-88 88zm0 0" fill="#827f8f"/><path d="M448 152h-80c-8.824 0-16-7.176-16-16V88c0-8.824 7.176-16 16-16h80c8.824 0 16 7.176 16 16v48c0 8.824-7.176 16-16 16zm0-16v8zm-80-48v48h79.977L448 88zm0 0" fill="#827f8f"/><path d="M392 88c-4.426 0-8-3.586-8-8V56c0-4.414 3.574-8 8-8s8 3.586 8 8v24c0 4.414-3.574 8-8 8zm0 0" fill="#827f8f"/><path d="M424 64h-32c-4.426 0-8-3.586-8-8s3.574-8 8-8h32c4.426 0 8 3.586 8 8s-3.574 8-8 8zm0 0" fill="#827f8f"/><path d="M424 88c-4.426 0-8-3.586-8-8V56c0-4.414 3.574-8 8-8s8 3.586 8 8v24c0 4.414-3.574 8-8 8zM224 64H112c-4.426 0-8-3.586-8-8s3.574-8 8-8h112c4.426 0 8 3.586 8 8s-3.574 8-8 8zm0 0" fill="#827f8f"/><path d="M224 120c-4.426 0-8-3.586-8-8V56c0-4.414 3.574-8 8-8s8 3.586 8 8v56c0 4.414-3.574 8-8 8zm-112 0c-4.426 0-8-3.586-8-8V56c0-4.414 3.574-8 8-8s8 3.586 8 8v56c0 4.414-3.574 8-8 8zm0 0" fill="#827f8f"/><path d="M272 120H64c-4.426 0-8-3.586-8-8s3.574-8 8-8h208c4.426 0 8 3.586 8 8s-3.574 8-8 8zm0 0" fill="#827f8f"/><path d="M272 512a7.99 7.99 0 0 1-8-8V112c0-4.414 3.574-8 8-8s8 3.586 8 8v392c0 4.426-3.574 8-8 8zm-208 0a7.99 7.99 0 0 1-8-8V112c0-4.414 3.574-8 8-8s8 3.586 8 8v392c0 4.426-3.574 8-8 8zM168 64c-4.426 0-8-3.586-8-8V8c0-4.414 3.574-8 8-8s8 3.586 8 8v48c0 4.414-3.574 8-8 8zm0 0" fill="#827f8f"/><path d="M328 512H8c-4.426 0-8-3.574-8-8s3.574-8 8-8h320c4.426 0 8 3.574 8 8s-3.574 8-8 8zm0 0" fill="#827f8f"/><path d="M24 512a7.99 7.99 0 0 1-8-8v-32c0-4.426 3.574-8 8-8s8 3.574 8 8v32c0 4.426-3.574 8-8 8zm0 0" fill="#827f8f"/><path d="M24 480c-13.23 0-24-10.77-24-24s10.77-24 24-24 24 10.77 24 24-10.77 24-24 24zm0-32c-4.414 0-8 3.586-8 8s3.586 8 8 8 8-3.586 8-8-3.586-8-8-8zm288 64a7.99 7.99 0 0 1-8-8v-32c0-4.426 3.574-8 8-8s8 3.574 8 8v32c0 4.426-3.574 8-8 8zm0 0" fill="#827f8f"/><path d="M312 480c-13.23 0-24-10.77-24-24s10.77-24 24-24 24 10.77 24 24-10.77 24-24 24zm0-32c-4.414 0-8 3.586-8 8s3.586 8 8 8 8-3.586 8-8-3.586-8-8-8zm-192 24a7.99 7.99 0 0 1-8-8V144c0-4.414 3.574-8 8-8s8 3.586 8 8v320c0 4.426-3.574 8-8 8zm48.008-24c-4.422 0-8-3.574-8-8V144a8 8 0 0 1 8-8c4.426 0 8 3.586 8 8v296c0 4.426-3.574 8-8 8zm48.008 24c-4.422 0-8-3.574-8-8V144a8 8 0 0 1 8-8c4.425 0 8 3.586 8 8v320c0 4.426-3.575 8-8 8zM168 512a7.99 7.99 0 0 1-8-8v-24c0-4.426 3.574-8 8-8s8 3.574 8 8v24c0 4.426-3.574 8-8 8zm.008-392a8 8 0 0 1-8-8V88a8 8 0 0 1 8-8c4.426 0 8 3.586 8 8v24c0 4.414-3.574 8-8 8zm0 0" fill="#827f8f"/></svg>