<svg xmlns="http://www.w3.org/2000/svg" height="512" viewBox="0 -40 512.007 512" width="512"><path d="M256.238 288.004c-4.422 0-8.039-3.574-8.039-8 0-4.422 3.535-8 7.953-8h.086c4.418 0 8 3.578 8 8 0 4.426-3.582 8-8 8zm0 40c-4.422 0-8.039-3.574-8.039-8 0-4.422 3.535-8 7.953-8h.086c4.418 0 8 3.578 8 8 0 4.426-3.582 8-8 8zm0 40c-4.422 0-8.039-3.574-8.039-8 0-4.422 3.535-8 7.953-8h.086c4.418 0 8 3.578 8 8 0 4.426-3.582 8-8 8zm0 40c-4.422 0-8.039-3.574-8.039-8 0-4.422 3.535-8 7.953-8h.086c4.418 0 8 3.578 8 8 0 4.426-3.582 8-8 8zm192-64c-4.422 0-8.039-3.574-8.039-8 0-4.422 3.535-8 7.953-8h.086c4.418 0 8 3.578 8 8 0 4.426-3.582 8-8 8zM256 216.004c-44.113 0-80-35.887-80-80 0-4.422 3.574-8 8-8s8 3.578 8 8c0 35.289 28.71 64 64 64s64-28.711 64-64c0-4.422 3.574-8 8-8s8 3.578 8 8c0 44.113-35.887 80-80 80zm0 0" fill="#827f8f"/><path d="M184 144.004a7.99 7.99 0 0 1-8-8v-56c0-4.422 3.574-8 8-8s8 3.578 8 8v56c0 4.426-3.574 8-8 8zm144 0a7.99 7.99 0 0 1-8-8V79.996c0-4.422 3.574-8 8-8s8 3.578 8 8v56.008c0 4.426-3.574 8-8 8zm-248 240a7.99 7.99 0 0 1-8-8c0-4.422 3.574-8 8-8 30.871 0 56-25.125 56-56 0-4.422 3.574-8 8-8s8 3.578 8 8c0 39.707-32.297 72-72 72zm0 0" fill="#827f8f"/><path d="M144 304.004a7.99 7.99 0 0 1-8-8c0-44.11 35.887-79.988 80-79.988 4.426 0 8 3.574 8 8 0 4.421-3.574 8-8 8-35.29 0-64 28.703-64 63.988 0 4.426-3.574 8-8 8zm-64 120a7.99 7.99 0 0 1-8-8c0-4.422 3.574-8 8-8 52.938 0 96-43.063 96-96 0-4.422 3.574-8 8-8s8 3.578 8 8c0 61.762-50.238 112-112 112zm0 0" fill="#827f8f"/><path d="M76 424.004c-15.441 0-28-12.559-28-28 0-15.438 12.559-28 28-28 4.426 0 8 3.578 8 8 0 4.426-3.574 8-8 8-6.617 0-12 5.387-12 12 0 6.617 5.383 12 12 12 4.426 0 8 3.578 8 8 0 4.426-3.574 8-8 8zm68-104a7.99 7.99 0 0 1-8-8v-16c0-4.422 3.574-8 8-8s8 3.578 8 8v16c0 4.426-3.574 8-8 8zm40 112a7.99 7.99 0 0 1-8-8v-112c0-4.422 3.574-8 8-8s8 3.578 8 8v112c0 4.426-3.574 8-8 8zm0 0" fill="#827f8f"/><path d="M80 424.004h-4a7.99 7.99 0 0 1-8-8c0-4.422 3.574-8 8-8h4c4.426 0 8 3.578 8 8 0 4.426-3.574 8-8 8zm0-40h-4a7.99 7.99 0 0 1-8-8c0-4.422 3.574-8 8-8h4c4.426 0 8 3.578 8 8 0 4.426-3.574 8-8 8zm352 0c-39.703 0-72-32.293-72-72 0-4.422 3.574-8 8-8s8 3.578 8 8c0 30.875 25.129 56 56 56 4.426 0 8 3.578 8 8 0 4.426-3.574 8-8 8zm0 0" fill="#827f8f"/><path d="M368 304.004a7.99 7.99 0 0 1-8-8c0-35.285-28.71-63.988-64-63.988-4.426 0-8-3.579-8-8 0-4.426 3.574-8 8-8 44.113 0 80 35.879 80 79.988 0 4.426-3.574 8-8 8zm64 120c-61.762 0-112-50.238-112-112 0-4.422 3.574-8 8-8s8 3.578 8 8c0 52.937 43.063 96 96 96 4.426 0 8 3.578 8 8 0 4.426-3.574 8-8 8zm0 0" fill="#827f8f"/><path d="M436 424.004a7.99 7.99 0 0 1-8-8c0-4.422 3.574-8 8-8 6.617 0 12-5.383 12-12 0-6.613-5.383-12-12-12a7.99 7.99 0 0 1-8-8c0-4.422 3.574-8 8-8 15.441 0 28 12.562 28 28 0 15.441-12.559 28-28 28zm-68-104a7.99 7.99 0 0 1-8-8v-16c0-4.422 3.574-8 8-8s8 3.578 8 8v16c0 4.426-3.574 8-8 8zm-40 112a7.99 7.99 0 0 1-8-8v-112c0-4.422 3.574-8 8-8s8 3.578 8 8v112c0 4.426-3.574 8-8 8zm0 0" fill="#827f8f"/><path d="M436 424.004h-4a7.99 7.99 0 0 1-8-8c0-4.422 3.574-8 8-8h4c4.426 0 8 3.578 8 8 0 4.426-3.574 8-8 8zm0-40h-4a7.99 7.99 0 0 1-8-8c0-4.422 3.574-8 8-8h4c4.426 0 8 3.578 8 8 0 4.426-3.574 8-8 8zm-108 48a7.99 7.99 0 0 1-8-8v-112c0-4.422 3.574-8 8-8s8 3.578 8 8v112c0 4.426-3.574 8-8 8zm-56-184a7.967 7.967 0 0 1-5.656-2.344 7.985 7.985 0 0 1 0-11.308l16-16a7.99 7.99 0 0 1 11.312 0 7.985 7.985 0 0 1 0 11.308l-16 16a7.967 7.967 0 0 1-5.656 2.344zm0 0" fill="#827f8f"/><path d="M271.992 248.004a7.977 7.977 0 0 1-3.566-.84l-16-8c-3.953-1.973-5.555-6.781-3.578-10.734 1.984-3.953 6.793-5.535 10.738-3.575l16 8c3.95 1.973 5.55 6.782 3.574 10.735a8.006 8.006 0 0 1-7.168 4.414zm0 0" fill="#827f8f"/><path d="M240.008 248.004a8 8 0 0 1-7.168-4.422c-1.977-3.953-.375-8.762 3.574-10.734l16-8c3.945-1.961 8.754-.38 10.738 3.574 1.977 3.953.375 8.762-3.578 10.734l-16 8a7.883 7.883 0 0 1-3.566.848zm0 0" fill="#827f8f"/><path d="M240 248.004a7.967 7.967 0 0 1-5.656-2.344l-16-16a7.985 7.985 0 0 1 0-11.308 7.99 7.99 0 0 1 11.312 0l16 16a7.985 7.985 0 0 1 0 11.308 7.967 7.967 0 0 1-5.656 2.344zm0 0" fill="#827f8f"/><path d="M224 232.004a7.99 7.99 0 0 1-8-8v-23.492c0-4.426 3.574-8 8-8s8 3.574 8 8v23.492c0 4.426-3.574 8-8 8zm64 0a7.99 7.99 0 0 1-8-8v-23.492c0-4.426 3.574-8 8-8s8 3.574 8 8v23.492c0 4.426-3.574 8-8 8zm88 0a7.99 7.99 0 0 1-8-8c0-4.422 3.574-8 8-8 26.473 0 48-21.527 48-48 0-4.422 3.574-8 8-8s8 3.578 8 8c0 35.289-28.71 64-64 64zm0 0" fill="#827f8f"/><path d="M376 272.004a7.99 7.99 0 0 1-8-8c0-4.422 3.574-8 8-8 48.52 0 88-39.477 88-88 0-4.422 3.574-8 8-8s8 3.578 8 8c0 57.348-46.656 104-104 104zm0 0" fill="#827f8f"/><path d="M472 172.004a7.99 7.99 0 0 1-8-8c0-6.613-5.383-12-12-12s-12 5.387-12 12c0 4.426-3.574 8-8 8s-8-3.574-8-8c0-15.438 12.559-28 28-28s28 12.562 28 28c0 4.426-3.574 8-8 8zm0 0" fill="#827f8f"/><path d="M472 176.004a7.99 7.99 0 0 1-8-8v-4c0-4.422 3.574-8 8-8s8 3.578 8 8v4c0 4.426-3.574 8-8 8zm-40 0a7.99 7.99 0 0 1-8-8v-4c0-4.422 3.574-8 8-8s8 3.578 8 8v4c0 4.426-3.574 8-8 8zm-56 56.012h-88c-4.426 0-8-3.578-8-8 0-4.426 3.574-8 8-8h88c4.426 0 8 3.574 8 8 0 4.422-3.574 8-8 8zm0 39.988h-15.48c-4.422 0-8-3.574-8-8 0-4.422 3.578-8 8-8H376c4.426 0 8 3.578 8 8 0 4.426-3.574 8-8 8zm-240-40c-35.29 0-64-28.711-64-64 0-4.422 3.574-8 8-8s8 3.578 8 8c0 26.473 21.527 48 48 48 4.426 0 8 3.578 8 8 0 4.426-3.574 8-8 8zm0 0" fill="#827f8f"/><path d="M136 272.004c-57.344 0-104-46.652-104-104 0-4.422 3.574-8 8-8s8 3.578 8 8c0 48.523 39.48 88 88 88 4.426 0 8 3.578 8 8 0 4.426-3.574 8-8 8zm0 0" fill="#827f8f"/><path d="M80 172.004a7.99 7.99 0 0 1-8-8c0-6.613-5.383-12-12-12s-12 5.387-12 12c0 4.426-3.574 8-8 8s-8-3.574-8-8c0-15.438 12.559-28 28-28s28 12.562 28 28c0 4.426-3.574 8-8 8zm0 0" fill="#827f8f"/><path d="M40 176.004a7.99 7.99 0 0 1-8-8v-4c0-4.422 3.574-8 8-8s8 3.578 8 8v4c0 4.426-3.574 8-8 8zm40 0a7.99 7.99 0 0 1-8-8v-4c0-4.422 3.574-8 8-8s8 3.578 8 8v4c0 4.426-3.574 8-8 8zm144 56.012h-88c-4.426 0-8-3.578-8-8 0-4.426 3.574-8 8-8h88c4.426 0 8 3.574 8 8 0 4.422-3.574 8-8 8zm-72.52 39.988H136a7.99 7.99 0 0 1-8-8c0-4.422 3.574-8 8-8h15.48c4.422 0 8 3.578 8 8 0 4.426-3.585 8-8 8zm-71.48 88H32a7.99 7.99 0 0 1-8-8v-64c0-4.422 3.574-8 8-8h48c4.426 0 8 3.578 8 8v64c0 4.426-3.574 8-8 8zm-40-16h32v-48H40zm432 16h-48a7.99 7.99 0 0 1-8-8v-72c0-4.422 3.574-8 8-8h48c4.426 0 8 3.578 8 8v72c0 4.426-3.574 8-8 8zm-40-16h32v-56h-32zm0 0" fill="#827f8f"/><path d="M104 344.004H80a7.99 7.99 0 0 1-8-8v-31.988c0-4.426 3.574-8 8-8h24c4.426 0 8 3.574 8 8v31.988c0 4.426-3.574 8-8 8zm-16-16h8v-15.988h-8zm16-200H8a7.99 7.99 0 0 1-8-8v-112c0-4.422 3.574-8 8-8h96c4.426 0 8 3.578 8 8v112c0 4.426-3.574 8-8 8zm-88-16h80v-96H16zm0 0" fill="#827f8f"/><path d="M40.008 40.004a7.984 7.984 0 0 1-6.664-3.559l-16-23.992c-2.457-3.672-1.465-8.64 2.215-11.094 3.664-2.457 8.648-1.464 11.097 2.215l16 23.992c2.457 3.672 1.465 8.641-2.215 11.094a8.008 8.008 0 0 1-4.433 1.344zm0 0" fill="#827f8f"/><path d="M72 40.004H40a7.99 7.99 0 0 1-8-8c0-4.422 3.574-8 8-8h32c4.426 0 8 3.578 8 8 0 4.426-3.574 8-8 8zm0 0" fill="#827f8f"/><path d="M71.992 40.004a8.027 8.027 0 0 1-4.433-1.344 7.99 7.99 0 0 1-2.215-11.094l16-24A7.997 7.997 0 0 1 92.44 1.352a7.99 7.99 0 0 1 2.215 11.093l-16 24a7.984 7.984 0 0 1-6.664 3.559zm.008 32H40a7.99 7.99 0 0 1-8-8c0-4.422 3.574-8 8-8h32c4.426 0 8 3.578 8 8 0 4.426-3.574 8-8 8zm0 24H40a7.99 7.99 0 0 1-8-8c0-4.422 3.574-8 8-8h32c4.426 0 8 3.578 8 8 0 4.426-3.574 8-8 8zm432 16H392a7.99 7.99 0 0 1-8-8v-72c0-4.422 3.574-8 8-8h112c4.426 0 8 3.578 8 8v72c0 4.426-3.574 8-8 8zm-104-16h96v-56h-96zm0 0" fill="#827f8f"/><path d="M448 88.004a7.936 7.936 0 0 1-5.2-1.926l-56-48c-3.359-2.871-3.753-7.922-.863-11.273a7.98 7.98 0 0 1 11.27-.864l56 48a7.973 7.973 0 0 1 .863 11.274 7.957 7.957 0 0 1-6.07 2.789zm0 0" fill="#827f8f"/><path d="M448 88.004a7.939 7.939 0 0 1-6.07-2.797 7.98 7.98 0 0 1 .863-11.273l56-48c3.367-2.872 8.406-2.489 11.277.87a7.98 7.98 0 0 1-.863 11.274l-56 48A7.97 7.97 0 0 1 448 88.004zm0 0" fill="#827f8f"/><path d="M504 112.004a7.936 7.936 0 0 1-5.2-1.926l-41.968-35.976a7.973 7.973 0 0 1-.863-11.274c2.87-3.367 7.926-3.742 11.27-.863l41.968 35.976a7.973 7.973 0 0 1 .863 11.274 7.957 7.957 0 0 1-6.07 2.789zm-112 0a7.939 7.939 0 0 1-6.07-2.797 7.98 7.98 0 0 1 .863-11.273l42-36c3.352-2.864 8.406-2.504 11.27.863a7.98 7.98 0 0 1-.864 11.273l-42 36a7.903 7.903 0 0 1-5.199 1.934zm-64-24.008a7.99 7.99 0 0 1-8-8c0-13.223-10.77-23.992-24-23.992a7.99 7.99 0 0 1-8-8c0-4.422 3.574-8 8-8 22.055 0 40 17.937 40 39.992 0 4.426-3.574 8-8 8zm0 0" fill="#827f8f"/><path d="M296 56.004a7.99 7.99 0 0 1-8-8v-32c0-4.422 3.574-8 8-8s8 3.578 8 8v32c0 4.426-3.574 8-8 8zm-112 32a7.99 7.99 0 0 1-8-8c0-39.703 32.297-72 72-72 4.426 0 8 3.578 8 8 0 4.426-3.574 8-8 8-30.871 0-56 25.129-56 56 0 4.426-3.574 8-8 8zm143.992 24.203a8.03 8.03 0 0 1-4.472-1.371l-24-16.2a8.01 8.01 0 0 1-2.16-11.109 8.027 8.027 0 0 1 11.113-2.16l24 16.2a8.015 8.015 0 0 1 2.16 11.113 7.991 7.991 0 0 1-6.64 3.527zm0 0" fill="#827f8f"/><path d="M260 104.004c-28.895 0-53.496-8.063-54.52-8.406a8.019 8.019 0 0 1-5.074-10.114c1.395-4.183 5.922-6.468 10.114-5.078.234.086 23.265 7.598 49.48 7.598 25.426 0 40.32-7.102 40.473-7.176 3.941-1.918 8.75-.293 10.695 3.656 1.945 3.954.344 8.723-3.594 10.688-.734.355-18.086 8.832-47.574 8.832zm0 0" fill="#827f8f"/><path d="M184.008 112.207a8.003 8.003 0 0 1-6.64-3.52c-2.473-3.664-1.505-8.632 2.16-11.113l24-16.199c3.679-2.465 8.64-1.504 11.113 2.16 2.472 3.664 1.504 8.63-2.16 11.11l-24 16.203a8.047 8.047 0 0 1-4.473 1.359zM296 24.004h-48a7.99 7.99 0 0 1-8-8c0-4.422 3.574-8 8-8h48c4.426 0 8 3.578 8 8 0 4.426-3.574 8-8 8zm0 0" fill="#827f8f"/></svg>