<svg xmlns="http://www.w3.org/2000/svg" height="512" viewBox="0 0 496 496" width="512"><path d="M235.969 305.055l-112-64a7.994 7.994 0 0 0-7.938 0l-112 64A7.994 7.994 0 0 0 0 312v112a7.994 7.994 0 0 0 4.031 6.945l112 64c1.235.703 2.602 1.055 3.969 1.055s2.734-.352 3.969-1.055l112-64A7.994 7.994 0 0 0 240 424V312a7.994 7.994 0 0 0-4.031-6.945zM120 257.215L215.871 312 120 366.785 24.129 312zm-104 68.57l96 54.856v93.574l-96-54.856zm112 148.43V380.64l96-54.856v93.574zm363.969-169.16l-112-64a7.994 7.994 0 0 0-7.938 0l-112 64A7.994 7.994 0 0 0 256 312v112a7.994 7.994 0 0 0 4.031 6.945l112 64c1.235.703 2.602 1.055 3.969 1.055s2.734-.352 3.969-1.055l112-64A7.994 7.994 0 0 0 496 424V312a7.994 7.994 0 0 0-4.031-6.945zM376 257.215L471.871 312 376 366.785 280.129 312zm-104 68.57l96 54.856v93.574l-96-54.856zm112 148.43V380.64l96-54.856v93.574zM271.625 259.71l72.8-41.597C348.634 221.727 354.032 224 360 224c13.23 0 24-10.77 24-24 0-10.414-6.71-19.215-16-22.527V110.52c9.29-3.313 16-12.114 16-22.528 0-13.23-10.77-24-24-24-5.969 0-11.367 2.274-15.566 5.887l-72.86-41.633c.242-1.375.426-2.789.426-4.246 0-13.23-10.77-24-24-24s-24 10.77-24 24c0 1.457.184 2.871.434 4.258l-72.86 41.629C147.367 66.273 141.97 64 136 64c-13.23 0-24 10.77-24 24 0 10.414 6.71 19.215 16 22.527v66.953c-9.29 3.313-16 12.114-16 22.528 0 13.23 10.77 24 24 24 5.969 0 11.367-2.274 15.566-5.887l72.809 41.598C226.175 271.176 236.039 280 248 280s21.824-8.824 23.625-20.29zM256 233.474V174.52c9.29-3.313 16-12.114 16-22.528 0-1.457-.184-2.87-.434-4.258l72.86-41.629a23.916 23.916 0 0 0 7.566 4.415v66.953c-9.289 3.312-16 12.113-16 22.527 0 1.457.184 2.871.434 4.258l-68.196 38.965c-2.84-4.504-7.132-7.934-12.23-9.75zm-28.238 9.75l-68.196-38.965c.25-1.387.434-2.801.434-4.258 0-10.414-6.71-19.215-16-22.527V110.52a23.77 23.77 0 0 0 7.566-4.415l72.86 41.63c-.242 1.394-.426 2.808-.426 4.265 0 10.414 6.71 19.215 16 22.527v58.953c-5.098 1.81-9.39 5.239-12.238 9.743zM336.434 92.258l-72.86 41.629C259.367 130.273 253.97 128 248 128s-11.367 2.273-15.566 5.887l-72.86-41.63c.242-1.386.426-2.8.426-4.257s-.184-2.871-.434-4.258l72.86-41.629C236.633 45.727 242.03 48 248 48s11.367-2.273 15.566-5.887l72.86 41.63c-.242 1.386-.426 2.8-.426 4.257s.184 2.871.434 4.258zM248 160c-4.406 0-8-3.594-8-8s3.594-8 8-8 8 3.594 8 8-3.594 8-8 8zm112 48c-4.406 0-8-3.594-8-8s3.594-8 8-8 8 3.594 8 8-3.594 8-8 8zm0-128c4.406 0 8 3.594 8 8s-3.594 8-8 8-8-3.594-8-8 3.594-8 8-8zM248 16c4.406 0 8 3.594 8 8s-3.594 8-8 8-8-3.594-8-8 3.594-8 8-8zM136 80c4.406 0 8 3.594 8 8s-3.594 8-8 8-8-3.594-8-8 3.594-8 8-8zm0 128c-4.406 0-8-3.594-8-8s3.594-8 8-8 8 3.594 8 8-3.594 8-8 8zm112 56c-4.406 0-8-3.594-8-8s3.594-8 8-8 8 3.594 8 8-3.594 8-8 8zm0 0" fill="#827f8f"/></svg>