<svg xmlns="http://www.w3.org/2000/svg" viewBox="0 0 512.001 512.001" width="512" height="512"><path d="M454.034 149.112c6.533-8.008 10.459-18.223 10.459-29.34v-9.123c0-25.637-20.856-46.493-46.493-46.493s-46.493 20.856-46.493 46.493v9.123c0 11.121 3.929 21.34 10.467 29.349a79.26 79.26 0 0 0-22.458 10.186v-7.252c0-30.174-24.548-54.723-54.722-54.723h-6.457c7.745-9.428 12.402-21.485 12.402-34.61v-8.111C310.738 24.5 286.24 0 256.127 0s-54.611 24.5-54.611 54.612v8.111c0 13.125 4.657 25.182 12.402 34.61h-6.457c-30.174 0-54.722 24.549-54.722 54.723v7.425a79.252 79.252 0 0 0-22.712-10.359c6.537-8.01 10.467-18.228 10.467-29.349v-9.123c0-25.637-20.856-46.493-46.493-46.493S47.508 85.013 47.508 110.65v9.123c0 11.117 3.926 21.331 10.459 29.34C24.591 158.318 0 188.926 0 225.188v81.846c0 17.391 14.148 31.539 31.539 31.539h8.389V502c0 5.522 4.477 10 10 10h43.938c.021 0 .041-.003.062-.003s.041.003.062.003h43.938c5.523 0 10-4.478 10-10V338.573h8.534c17.333 0 31.442-14.056 31.534-31.369a54.225 54.225 0 0 0 10.131 2.777V502c0 5.522 4.477 10 10 10h96c5.523 0 10-4.478 10-10v-96.948c0-5.522-4.477-10-10-10s-10 4.478-10 10V492h-28V323.306c0-5.522-4.477-10-10-10s-10 4.478-10 10V492h-28V279.556h76v48.163c0 5.522 4.477 10 10 10s10-4.478 10-10v-17.737a54.261 54.261 0 0 0 9.88-2.678c.146 17.266 14.232 31.269 31.532 31.269h8.534V502c0 5.522 4.477 10 10 10h43.938c.021 0 .041-.003.062-.003s.041.003.062.003h43.938c5.523 0 10-4.478 10-10V338.573h8.389c17.391 0 31.539-14.148 31.539-31.539v-81.846c-.001-36.262-24.592-66.87-57.967-76.076zM67.507 110.649c0-14.608 11.885-26.493 26.493-26.493s26.493 11.885 26.493 26.493v9.123c0 14.608-11.885 26.493-26.493 26.493s-26.493-11.885-26.493-26.493v-9.123zM127.928 492H103.99V338c0-5.522-4.477-10-10-10s-10 4.478-10 10v10.5c-.074.49-.125.989-.125 1.5v142H59.928V298.994h68V492zm40.071-184.967c.001 6.363-5.175 11.54-11.538 11.54h-8.534v-53.226c0-5.522-4.477-10-10-10s-10 4.478-10 10v13.646h-68v-45.477c0-5.522-4.477-10-10-10s-10 4.478-10 10v85.056h-8.389c-6.362 0-11.539-5.177-11.539-11.539v-81.846c0-32.49 26.433-58.923 58.923-58.923h30.154c16.585 0 32.494 7.049 43.647 19.34l.014.014v70.453c0 14.679 5.821 28.016 15.262 37.854v13.108zM256.127 20c19.085 0 34.611 15.526 34.611 34.611v8.111c0 19.084-15.526 34.61-34.611 34.61-19.085 0-34.611-15.526-34.611-34.61v-8.111c0-19.085 15.526-34.611 34.611-34.611zm83.388 236.073c0 15.913-10.763 29.35-25.389 33.438V152.056c.001-5.523-4.476-10-9.999-10s-10 4.478-10 10v107.5h-76v-107.5c0-5.522-4.477-10-10-10s-10 4.478-10 10V289.51c-14.626-4.088-25.389-17.525-25.389-33.438V152.056c0-19.146 15.576-34.723 34.722-34.723h38.333v27.327c0 5.522 4.477 10 10 10s10-4.478 10-10v-27.327h39c19.146 0 34.722 15.576 34.722 34.723v104.017zm51.992-145.424c0-14.608 11.885-26.493 26.493-26.493 14.608 0 26.493 11.885 26.493 26.493v9.123c0 14.608-11.885 26.493-26.493 26.493-14.608 0-26.493-11.885-26.493-26.493v-9.123zM452.072 492h-23.937V350c0-.511-.051-1.009-.125-1.5V338c0-5.522-4.477-10-10-10s-10 4.478-10 10v154h-23.938V298.994h68V492zm28.389-173.427h-8.389v-85.056c0-5.522-4.477-10-10-10s-10 4.478-10 10v45.477h-68v-13.646c0-5.522-4.477-10-10-10s-10 4.478-10 10v53.226h-8.534c-6.362 0-11.539-5.177-11.539-11.539v-12.842c9.592-9.862 15.516-23.309 15.516-38.12v-70.718c11.142-12.132 26.938-19.089 43.407-19.089h30.154c32.49 0 58.923 26.433 58.923 58.923v81.845H492c0 6.362-5.176 11.539-11.539 11.539z" fill="#acabb7"/><path d="M311.2 358.65c-1.86-1.87-4.44-2.93-7.07-2.93s-5.21 1.061-7.07 2.93c-1.87 1.86-2.93 4.44-2.93 7.07s1.06 5.21 2.93 7.07c1.86 1.859 4.44 2.93 7.07 2.93s5.2-1.07 7.07-2.93c1.86-1.86 2.93-4.44 2.93-7.07s-1.07-5.21-2.93-7.07zm-48.34-183.69a10.058 10.058 0 0 0-7.07-2.93c-2.63 0-5.21 1.069-7.07 2.93a10.072 10.072 0 0 0-2.93 7.07c0 2.63 1.07 5.21 2.93 7.069a10.077 10.077 0 0 0 7.07 2.931c2.64 0 5.21-1.07 7.07-2.931a10.029 10.029 0 0 0 2.93-7.069 10.03 10.03 0 0 0-2.93-7.07z" fill="#acabb7"/></svg>