<svg id="Layer_1" xmlns="http://www.w3.org/2000/svg" xmlns:xlink="http://www.w3.org/1999/xlink" viewBox="0 0 81.1 87.3"><style>.st0,.st11,.st18,.st23,.st28,.st43,.st48,.st58,.st63,.st69,.st82,.st83{clip-path:url(#SVGID_2_);fill:#4c596d}</style><g id="layer1" transform="translate(-3987.602 -6644.883) scale(15.62304)"><g id="rect3050"><defs><path id="SVGID_1_" d="M256.4 425.9h3c.4 0 .7.3.7.7v3c0 .4-.3.7-.7.7h-3c-.4 0-.7-.3-.7-.7v-3c-.1-.4.3-.7.7-.7z"/></defs><clipPath id="SVGID_2_"><use xlink:href="#SVGID_1_" overflow="visible"/></clipPath><path class="st0" d="M255.6 429.9l.5.5h-.5z"/><path class="st0" d="M255.6 429.8l.6.6h-.1l-.5-.5z"/><path clip-path="url(#SVGID_2_)" fill="#4c596d" d="M255.6 429.7l.7.7h-.1l-.6-.6z"/><path clip-path="url(#SVGID_2_)" fill="#4c596d" d="M255.6 429.7l.8.7h-.1l-.7-.7z"/><path clip-path="url(#SVGID_2_)" fill="#4c596d" d="M255.6 429.6l.9.8h-.1l-.8-.7zM255.6 429.5l1 .9h-.1l-.9-.8z"/><path clip-path="url(#SVGID_2_)" fill="#4c596d" d="M255.6 429.4l1.1 1h-.1l-1-.9z"/><path clip-path="url(#SVGID_2_)" fill="#4c596d" d="M255.6 429.3l1.1 1.1-1.1-1zM255.6 429.2l1.2 1.2h-.1l-1.1-1.1z"/><path clip-path="url(#SVGID_2_)" fill="#4c596d" d="M255.6 429.1l1.3 1.3h-.1l-1.2-1.2z"/><path clip-path="url(#SVGID_2_)" fill="#4c596d" d="M255.6 429.1l1.4 1.3h-.1l-1.3-1.3zM255.6 429l1.5 1.4h-.1l-1.4-1.3z"/><path class="st11" d="M255.6 428.9l1.6 1.5h-.1l-1.5-1.4z"/><path class="st11" d="M255.6 428.8l1.6 1.6-1.6-1.5z"/><path clip-path="url(#SVGID_2_)" fill="#4c596d" d="M255.6 428.7l1.7 1.7h-.1l-1.6-1.6z"/><path clip-path="url(#SVGID_2_)" fill="#4c596d" d="M255.6 428.6l1.8 1.8h-.1l-1.7-1.7z"/><path clip-path="url(#SVGID_2_)" fill="#4c596d" d="M255.6 428.6l1.9 1.8h-.1l-1.8-1.8zM255.6 428.5l2 1.9h-.1l-1.9-1.8z"/><path clip-path="url(#SVGID_2_)" fill="#4c596d" d="M255.6 428.4l2.1 2h-.1l-2-1.9z"/><path clip-path="url(#SVGID_2_)" fill="#4c596d" d="M255.6 428.3l2.2 2.1h-.1l-2.1-2z"/><path class="st18" d="M255.6 428.2l2.2 2.2-2.2-2.1z"/><path class="st18" d="M255.6 428.1l2.3 2.3h-.1l-2.2-2.2z"/><path clip-path="url(#SVGID_2_)" fill="#4c596d" d="M255.6 428.1l2.4 2.3h-.1l-2.3-2.3zM255.6 428l2.5 2.4h-.1l-2.4-2.3z"/><path clip-path="url(#SVGID_2_)" fill="#4c596d" d="M255.6 427.9l2.6 2.5h-.1l-2.5-2.4z"/><path clip-path="url(#SVGID_2_)" fill="#4c596d" d="M255.6 427.8l2.7 2.6h-.1l-2.6-2.5z"/><path class="st23" d="M255.6 427.7l2.8 2.7h-.1l-2.7-2.6z"/><path class="st23" d="M255.6 427.6l2.8 2.8-2.8-2.7z"/><path clip-path="url(#SVGID_2_)" fill="#4c596d" d="M255.6 427.6l2.9 2.8h-.1l-2.8-2.8zM255.6 427.5l3 2.9h-.1l-2.9-2.8z"/><path clip-path="url(#SVGID_2_)" fill="#4c596d" d="M255.6 427.4l3.1 3h-.1l-3-2.9z"/><path clip-path="url(#SVGID_2_)" fill="#4c596d" d="M255.6 427.3l3.2 3.1h-.1l-3.1-3z"/><path class="st28" d="M255.6 427.2l3.3 3.2h-.1l-3.2-3.1z"/><path class="st28" d="M255.6 427.1l3.4 3.3h-.1l-3.3-3.2z"/><path clip-path="url(#SVGID_2_)" fill="#4c596d" d="M255.6 427.1l3.4 3.3-3.4-3.3zM255.6 427l3.5 3.4h-.1l-3.4-3.3z"/><path clip-path="url(#SVGID_2_)" fill="#4c596d" d="M255.6 426.9l3.6 3.5h-.1l-3.5-3.4z"/><path clip-path="url(#SVGID_2_)" fill="#4c596d" d="M255.6 426.8l3.7 3.6h-.1l-3.6-3.5zM255.6 426.7l3.8 3.7h-.1l-3.7-3.6z"/><path clip-path="url(#SVGID_2_)" fill="#4c596d" d="M255.6 426.6l3.9 3.8h-.1l-3.8-3.7zM255.6 426.6l3.9 3.8-3.9-3.8zM255.6 426.5l4 3.9h-.1l-3.9-3.8z"/><path clip-path="url(#SVGID_2_)" fill="#4c596d" d="M255.6 426.4l4.1 4h-.1l-4-3.9z"/><path clip-path="url(#SVGID_2_)" fill="#4c596d" d="M255.6 426.3l4.2 4.1h-.1l-4.1-4zM255.6 426.2l4.3 4.2h-.1l-4.2-4.1z"/><path clip-path="url(#SVGID_2_)" fill="#4c596d" d="M255.6 426.1l4.4 4.3h-.1l-4.3-4.2z"/><path clip-path="url(#SVGID_2_)" fill="#4c596d" d="M255.6 426.1l4.5 4.3h-.1l-4.4-4.3zM255.6 426l4.5 4.4-4.5-4.3z"/><path class="st43" d="M255.7 425.9l4.4 4.4v.1l-4.5-4.4v-.1z"/><path class="st43" d="M255.8 425.9l4.3 4.3v.1l-4.4-4.4z"/><path clip-path="url(#SVGID_2_)" fill="#4c596d" d="M255.8 425.9l4.3 4.2v.1l-4.3-4.3z"/><path clip-path="url(#SVGID_2_)" fill="#4c596d" d="M255.9 425.9l4.2 4.1v.1l-4.3-4.2zM256 425.9l4.1 4v.1l-4.2-4.1z"/><path clip-path="url(#SVGID_2_)" fill="#4c596d" d="M256.1 425.9l4 4-4.1-4z"/><path class="st48" d="M256.2 425.9l3.9 3.9v.1l-4-4zM256.3 425.9l3.8 3.8v.1l-3.9-3.9z"/><path clip-path="url(#SVGID_2_)" fill="#4c596d" d="M256.3 425.9l3.8 3.7v.1l-3.8-3.8z"/><path clip-path="url(#SVGID_2_)" fill="#4c596d" d="M256.4 425.9l3.7 3.6v.1l-3.8-3.7zM256.5 425.9l3.6 3.5v.1l-3.7-3.6z"/><path clip-path="url(#SVGID_2_)" fill="#4c596d" d="M256.6 425.9l3.5 3.5-3.6-3.5z"/><path clip-path="url(#SVGID_2_)" fill="#4c596d" d="M256.7 425.9l3.4 3.4v.1l-3.5-3.5zM256.8 425.9l3.3 3.3v.1l-3.4-3.4z"/><path clip-path="url(#SVGID_2_)" fill="#4c596d" d="M256.9 425.9l3.2 3.2v.1l-3.3-3.3z"/><path clip-path="url(#SVGID_2_)" fill="#4c596d" d="M256.9 425.9l3.2 3.1v.1l-3.2-3.2zM257 425.9l3.1 3v.1l-3.2-3.1z"/><path class="st58" d="M257.1 425.9l3 3-3.1-3z"/><path class="st58" d="M257.2 425.9l2.9 2.9v.1l-3-3z"/><path clip-path="url(#SVGID_2_)" fill="#4c596d" d="M257.3 425.9l2.8 2.8v.1l-2.9-2.9z"/><path clip-path="url(#SVGID_2_)" fill="#4c596d" d="M257.4 425.9l2.7 2.7v.1l-2.8-2.8zM257.5 425.9l2.6 2.6v.1l-2.7-2.7zM257.5 425.9l2.6 2.5v.1l-2.6-2.6z"/><path class="st63" d="M257.6 425.9l2.5 2.4v.1l-2.6-2.5z"/><path class="st63" d="M257.7 425.9l2.4 2.4-2.5-2.4z"/><path clip-path="url(#SVGID_2_)" fill="#4c596d" d="M257.8 425.9l2.3 2.3v.1l-2.4-2.4z"/><path clip-path="url(#SVGID_2_)" fill="#4c596d" d="M257.9 425.9l2.2 2.2v.1l-2.3-2.3zM258 425.9l2.1 2.1v.1l-2.2-2.2zM258.1 425.9l2 2v.1l-2.1-2.1zM258.1 425.9l2 1.9v.1l-2-2z"/><path class="st69" d="M258.2 425.9l1.9 1.9-2-1.9z"/><path class="st69" d="M258.3 425.9l1.8 1.8v.1l-1.9-1.9z"/><path clip-path="url(#SVGID_2_)" fill="#4c596d" d="M258.4 425.9l1.7 1.7v.1l-1.8-1.8zM258.5 425.9l1.6 1.6v.1l-1.7-1.7zM258.6 425.9l1.5 1.5v.1l-1.6-1.6zM258.6 425.9l1.5 1.4v.1l-1.5-1.5z"/><path clip-path="url(#SVGID_2_)" fill="#4c596d" d="M258.7 425.9l1.4 1.4-1.5-1.4z"/><path clip-path="url(#SVGID_2_)" fill="#4c596d" d="M258.8 425.9l1.3 1.3v.1l-1.4-1.4z"/><path clip-path="url(#SVGID_2_)" fill="#4c596d" d="M258.9 425.9l1.2 1.2v.1l-1.3-1.3zM259 425.9l1.1 1.1v.1l-1.2-1.2zM259.1 425.9l1 1v.1l-1.1-1.1z"/><path clip-path="url(#SVGID_2_)" fill="#4c596d" d="M259.2 425.9l.9.9v.1l-1-1zM259.2 425.9l.9.9-.9-.9zM259.3 425.9l.8.8v.1l-.9-.9z"/><path class="st82" d="M259.4 425.9l.7.7v.1l-.8-.8zM259.5 425.9l.6.6v.1l-.7-.7z"/><path class="st83" d="M259.6 425.9l.5.5v.1l-.6-.6zM260.1 426.4l-.5-.5h.5z"/></g></g><path d="M24.1 67.7V22.4H42c5.5 0 9.7.9 12.7 2.8s4.4 4.5 4.4 7.8c0 2.4-.9 4.6-2.7 6.4-1.8 1.8-4.1 3.1-6.9 3.8v.1c3.5.4 6.3 1.6 8.4 3.6 2.1 2 3.1 4.4 3.1 7.2 0 4.1-1.6 7.4-4.8 9.9s-7.6 3.6-13.2 3.6H24.1zm11.1-37.8v10.7h4.9c2.3 0 4.1-.5 5.4-1.5 1.3-1 2-2.4 2-4.2 0-3.3-2.7-5-8.1-5h-4.2zm0 18.3v11.9h6c2.6 0 4.6-.5 6-1.6 1.5-1.1 2.2-2.6 2.2-4.5 0-1.8-.7-3.2-2.1-4.3-1.4-1-3.4-1.5-6-1.5h-6.1z" fill="#fff"/></svg>