<svg id="Layer_1" xmlns="http://www.w3.org/2000/svg" viewBox="0 0 81.1 87.3"><style>.st0{fill:#4c596d}</style><path class="st0" d="M13.5 28.4c-7.8 11.2-3.3 26.9 5.9 35.9 2.5 2.5 5.2 4.5 8.3 6.3 2.8 1.6 6.1 3 9.3 3.5 5.3.9 10.8.9 15.9-.7 6.6-1.9 12.2-6.2 15.9-12 .7-1.2 1.4-2.3 1.9-3.6-7.7 10-22.6 11.2-33.6 6.8-12.2-4.9-22-17-21.9-30.4 0-3.9.9-7.7 2.7-11.2"/><path class="st0" d="M30.7 21.7C27 27 26.9 34.2 29.5 40.1c2.7 6.2 8 11.1 14.3 13.6 1.6.6 3.1 1 4.9 1.2 1.4.2 2.9.2 4.4.2 2.4-.1 4.8-.4 7.1-1.2 3.4-1.2 6.5-3.2 8.8-6 1.4-1.7 2.7-3.7 3.4-5.8-3.4 4.9-9.2 7.5-15.1 7.6-6.8.1-13.4-2.7-18.2-7.4C32.3 35.9 29 25.4 34 17.1"/><path class="st0" d="M45.2 16.6c-3.9 5.7-1.7 13.2 3.3 17.5 4.2 3.6 10.6 5.1 15.8 2.8 1.8-.8 3.3-2 4.4-3.6.7-.9 1.1-1.8 1.7-2.8-3.6 5.2-10.9 4.9-16 2.3-5.3-2.7-9.5-8.8-8.7-14.9.2-1.3.6-2.6 1.2-3.7"/></svg>