<svg xmlns="http://www.w3.org/2000/svg" viewBox="0 0 133.8 100.1"><path fill="#4c596d" d="M62.7 58.4c1.8.3 2.6 1.3 2.2 3.1-1.1 4.3-2.4 8.5-3.2 12.9-.2 1.1-.3 2.1-.1 3.3.6-.1.7-.6.9-1 3.6-6.8 6.5-13.9 9.6-20.9 1.2-2.7 2.1-5.3 2.7-8.1.2-.7.6-1.1 1.3-1.3 1.8-.5 3.8-.8 5.7-.5 1.6.3 2.1 1 1.5 2.6-1.2 3.1-1.6 6.3-1 9.6.2 1.3.7 2.5 1.3 3.7.3.6.6.7 1 .1 2.9-5.3 6.4-10.3 7.9-16.3.7-3.2.9-3.3 4.5-3.6.9 0 1.7-.1 2.6 0 1.7.2 2.2 1 1.6 2.6-1.1 3.1-1.6 6.2-1 9.5.4 2.1 1.5 3.9 2.4 5.7.3.6.7.5 1.2.3 3.1-1.4 6.3-2.2 9.7-2.4 7.4-.3 13.9 1.5 18.2 8.1 2.1 3.3 2.8 6.9.8 10.6-1.1 2-2.8 3.4-4.9 4.2-.5.2-1.1.4-1.4-.2-.3-.6.3-.8.6-1.1 5.1-3.8 5.1-9.4 0-13.3-2.9-2.2-6.1-3.2-9.7-3.5-3.9-.4-7.8-.3-11.6 1.1-.8.3-1 .6-.7 1.4 2.2 6.1-.5 9.7-5.2 12.8-1.5 1-3.1 1.6-4.8 2.1-3.5 1-5.6-.9-4.9-4.5.6-3.3 2.4-6 4.6-8.5.6-.6 1.2-1.3 1.8-1.8.5-.4 1.1-.7 1.2-1.2 0-.4-1.8-1.9-3.7-9.9-.6 1.1-1.2 2.2-1.9 3.4-1.6 2.9-5.5 9.1-5.6 9.5s0 .8.2 1.2c.5 1.2.8 2.5.9 3.8.5 4.9-1.8 8.2-6 10.4-2.6 1.3-5.3 2.2-8.2 2.1-1.2 0-2.3-.3-2.9-1.4-.5-1.1-.1-2.1.6-3 2.2-2.7 4.5-5.4 6.7-8.2 1.3-1.6 1.8-2.3 1.8-3.1 0-.7-2.3-3.5-3.8-10.7-.8 1.9-1.6 3.8-2.4 5.6-2.7 6.2-5.8 12.2-9.1 18.1-.7 1.3-1.6 2.5-2.8 3.4-2.4 2.1-5 1.3-5.9-1.8-.5-1.8-.7-3.7-.4-5.6 0 0 .1-.9 0-1-1.3 2.8-2.4 5.5-3.9 8.1-1.2 2-2.7 3.5-5.3 3.2-1.3-.1-2.3-.6-3.1-1.6-2.1-2.7-3-5.8-3.4-9.2-.4-3.5.3-7 1.1-10.4.1-.4.3-.7.2-1.3-2.1 1.2-4.2 2.5-6.3 3.7-.6.4-.4.8-.3 1.3 2.4 7.4 1.5 14.4-3 20.8-3.3 4.7-7.9 7.6-13.6 8.7-.3.1-.7.2-1 .3h-4.7c-.1-.1-.2-.1-.4-.2-4.6-1.1-6.9-3.9-7-8.6-.2-5.1 2.1-9 5.7-12.3 4.4-4 9.4-7 14.6-9.7 1.4-.7 1.4-.8.1-1.8l-7.5-5.4c-3.8-2.6-7.5-5.4-10.7-8.7-3.1-3.1-5.4-6.8-6.6-11.1-2.1-9.7 6.1-16.6 11.6-21.6 4.7-4.4 10.1-8 15.7-11C35 5.8 43 2.3 51.8.7c1.3-.2 11.9-2.1 21.5 1.5 3.7 1.5 7.1 3.6 9 7.3 2.2 4.1 2.1 8.4.8 12.7-2.6 8.3-8 14.3-15.4 18.5-5.7 3.2-12 4.8-18.5 5.3-4.1.3-8.2.2-12-1.4-2.2-.9-4.1-2.3-5.5-4.2-.5-.6-.8-1.3-1-2.1-.1-.5-.2-1 .3-1.3.5-.3.8.1 1.1.4 3.5 3.6 7.9 4.4 12.6 4 8.2-.6 15.7-3.3 22.2-8.4 3.5-2.7 6.3-5.9 8.3-9.9.8-1.7 1.3-3.5 1.4-5.4.3-3.4-1.5-6.2-4.9-7.7-4.1-1.8-8.4-2.1-12.8-1.7-14.9 1.4-27.5 8.1-39.1 17-3 2.3-5.5 5.1-7.5 8.4-3.2 6.4-2.5 12.7 2.7 18.1 3 3.2 6.6 5.7 10.1 8.4 1.9 1.5 3.9 3.1 5.6 4.9.5.6 1 .6 1.7.2 3.8-2.1 7.7-4.2 11.5-6.3.6-.3.9-.7 1.3-1.2 2.2-2.6 4.6-4.9 7.7-6.3.7-.3 1.4-.6 2.1-.7 3.2-.8 5.5.8 5.8 4.1v1.2s0 2.2-.2 3.4c.6-1.4 2.1-1.1 2.1-1.1zM30.3 75.9c.1-1-.1-2.3-.4-3.6-.1-.5-.3-.8-.9-.4-4.6 2.8-9.2 5.6-12.8 9.7-2 2.3-3.3 4.9-3 8.1.1 1.6 1.1 2.6 2.7 2.8.7.1 1.3 0 1.9-.1 7-1.6 12.5-8.7 12.5-16.5zm16.1-1.8c0 1 0 1.9.2 2.9s.1 2.4 1.3 2.6c1.1.2 1.5-1.2 1.9-2 1.9-3.7 3.2-7.6 4.7-11.4 1-2.6 1.9-5.3 2.4-8.1.1-.6.3-1.3-.2-1.7-.6-.5-1.2-.2-1.8.1-.8.3-1.4.8-2 1.4-4.2 4.5-6.2 10-6.5 16.2zm53.4-5.5v-1.2c-.1-.7-.3-1-1-.4-2.2 2.1-3.5 4.6-4.3 7.5-.1.2-.2.5.1.7.3.2.6 0 .8-.1 2.8-1.1 4.4-3.5 4.4-6.5zM75.5 79.8c2.7-.4 6.9-4.8 6.1-7.1-1.9 2.4-3.8 4.7-6.1 7.1z"/></svg>