<svg width="554" height="384" viewBox="0 0 554 384" fill="none" xmlns="http://www.w3.org/2000/svg">
<mask id="mask0" mask-type="alpha" maskUnits="userSpaceOnUse" x="127" y="93" width="270" height="227">
<path d="M170.245 235.664L281 314C283.564 315.748 287 318.5 294 318.5C304.5 319 313 312 313 303.773C313 303.728 313 303.683 312.999 303.638C315.705 305.004 318.763 305.773 322 305.773C332.799 305.773 341.6 297.214 341.987 286.509C344.169 287.326 346.532 287.773 349 287.773C359.468 287.773 369.131 278.744 370 268.5C372 269.5 374.5 270 377 270C386.5 270 396 261 396 250.773C396 246.546 394.957 242.981 393.004 239.773C391.935 238.016 390.593 236.366 389 234.773C389 234.773 360.5 207.773 348.5 196.773C331.224 180.936 319 180.773 299.5 169.273C281.066 158.402 277.5 149.776 277.5 149.776C243.5 166.276 212 165.276 201.5 157.776C197.662 155.034 195.5 147.276 204.5 141.276L254 110.776C260.5 106.776 264.5 104.776 275 102.776L278 102.273L255.5 96.7732C247.5 94.7732 239 94.2732 230.5 96.2732L186.509 107.387C184.199 107.97 181.788 108.031 179.452 107.564L153 102.273L129 226.273L164.228 233.136C166.386 233.556 168.434 234.417 170.245 235.664Z" fill="white"/>
<path d="M312.999 303.638C313 303.683 313 303.728 313 303.773C313 312 304.5 319 294 318.5C287 318.5 283.564 315.748 281 314L170.245 235.664C168.434 234.417 166.386 233.556 164.228 233.136L129 226.273L153 102.273L179.452 107.564C181.788 108.031 184.199 107.97 186.509 107.387L230.5 96.2732C239 94.2732 247.5 94.7732 255.5 96.7732L278 102.273L275 102.776C264.5 104.776 260.5 106.776 254 110.776L204.5 141.276C195.5 147.276 197.662 155.034 201.5 157.776C212 165.276 243.5 166.276 277.5 149.776C277.5 149.776 281.066 158.402 299.5 169.273C319 180.773 331.224 180.936 348.5 196.773C360.5 207.773 389 234.773 389 234.773C390.593 236.366 391.935 238.016 393.004 239.773C394.957 242.981 396 246.546 396 250.773C396 261 386.5 270 377 270C374.5 270 372 269.5 370 268.5M312.999 303.638C315.705 305.004 318.763 305.773 322 305.773C332.799 305.773 341.6 297.214 341.987 286.509M312.999 303.638L283.5 278M341.987 286.509C344.169 287.326 346.532 287.773 349 287.773C359.468 287.773 369.131 278.744 370 268.5M341.987 286.509L305 254M370 268.5L330.572 232.513" stroke="black" stroke-width="2"/>
</mask>
<g mask="url(#mask0)">
<path d="M170.245 235.664L281 314C283.564 315.748 287 318.5 294 318.5C304.5 319 313 312 313 303.773C313 303.728 313 303.683 312.999 303.638C315.705 305.004 318.763 305.773 322 305.773C332.799 305.773 341.6 297.214 341.987 286.509C344.169 287.326 346.532 287.773 349 287.773C359.468 287.773 369.131 278.744 370 268.5C372 269.5 374.5 270 377 270C386.5 270 396 261 396 250.773C396 246.546 394.957 242.981 393.004 239.773C391.935 238.016 390.593 236.366 389 234.773C389 234.773 360.5 207.773 348.5 196.773C331.224 180.936 319 180.773 299.5 169.273C281.066 158.402 277.5 149.776 277.5 149.776C243.5 166.276 212 165.276 201.5 157.776C197.662 155.034 195.5 147.276 204.5 141.276L254 110.776C260.5 106.776 264.5 104.776 275 102.776L278 102.273L255.5 96.7732C247.5 94.7732 239 94.2732 230.5 96.2732L186.509 107.387C184.199 107.97 181.788 108.031 179.452 107.564L153 102.273L129 226.273L164.228 233.136C166.386 233.556 168.434 234.417 170.245 235.664Z" fill="#163942"/>
<g filter="url(#filter0_f)">
<path d="M312.999 303.638C313 303.683 313 303.728 313 303.773C313 312 304.5 319 294 318.5C287 318.5 283.564 315.748 281 314L170.245 235.664C168.434 234.417 166.386 233.556 164.228 233.136L129 226.273L153 102.273L179.452 107.564C181.788 108.031 184.199 107.97 186.509 107.387L230.5 96.2732C239 94.2732 247.5 94.7732 255.5 96.7732L278 102.273L275 102.776C264.5 104.776 260.5 106.776 254 110.776L204.5 141.276C195.5 147.276 197.662 155.034 201.5 157.776C212 165.276 243.5 166.276 277.5 149.776C277.5 149.776 281.066 158.402 299.5 169.273C319 180.773 331.224 180.936 348.5 196.773C360.5 207.773 389 234.773 389 234.773C390.593 236.366 391.935 238.016 393.004 239.773C394.957 242.981 396 246.546 396 250.773C396 261 386.5 270 377 270C374.5 270 372 269.5 370 268.5M312.999 303.638C315.705 305.004 318.763 305.773 322 305.773C332.799 305.773 341.6 297.214 341.987 286.509M312.999 303.638L284 278M341.987 286.509C344.169 287.326 346.532 287.773 349 287.773C359.468 287.773 369.131 278.744 370 268.5M341.987 286.509L305 254M370 268.5L330.572 232.513" stroke="#00DEFF" stroke-opacity="0.4" stroke-width="2" stroke-miterlimit="4.7764"/>
</g>
<path d="M312.999 303.638C313 303.683 313 303.728 313 303.773C313 312 304.5 319 294 318.5C287 318.5 283.564 315.748 281 314L170.245 235.664C168.434 234.417 166.386 233.556 164.228 233.136L129 226.273L153 102.273L179.452 107.564C181.788 108.031 184.199 107.97 186.509 107.387L230.5 96.2732C239 94.2732 247.5 94.7732 255.5 96.7732L278 102.273L275 102.776C264.5 104.776 260.5 106.776 254 110.776L204.5 141.276C195.5 147.276 197.662 155.034 201.5 157.776C212 165.276 243.5 166.276 277.5 149.776C277.5 149.776 281.066 158.402 299.5 169.273C319 180.773 331.224 180.936 348.5 196.773C360.5 207.773 389 234.773 389 234.773C390.593 236.366 391.935 238.016 393.004 239.773C394.957 242.981 396 246.546 396 250.773C396 261 386.5 270 377 270C374.5 270 372 269.5 370 268.5M312.999 303.638C315.705 305.004 318.763 305.773 322 305.773C332.799 305.773 341.6 297.214 341.987 286.509M312.999 303.638L284 278M341.987 286.509C344.169 287.326 346.532 287.773 349 287.773C359.468 287.773 369.131 278.744 370 268.5M341.987 286.509L305 254M370 268.5L330.572 232.513" stroke="#009BB2" stroke-width="2" stroke-linecap="round"/>
</g>
<path d="M81.5 63L141.5 92.5L112.5 230H41L81.5 148V63Z" fill="url(#paint0_linear)"/>
<g filter="url(#filter1_f)">
<path d="M81.5 63L141.5 92.5L112.5 230H41L81.5 148V63Z" stroke="#00DEFF" stroke-opacity="0.4" stroke-width="2" stroke-miterlimit="4.7764"/>
</g>
<path d="M81.5 63L141.5 92.5L112.5 230H41L81.5 148V63Z" stroke="#009BB2" stroke-width="2"/>
<mask id="mask1" mask-type="alpha" maskUnits="userSpaceOnUse" x="197" y="94" width="234" height="147">
<path d="M375.36 106.769L402 102.773L429 228.773L392.926 239.645C391.87 237.936 390.554 236.327 389 234.773C389 234.773 360.5 207.773 348.5 196.773C331.224 180.936 319 180.773 299.5 169.273C281.066 158.402 277.5 149.773 277.5 149.773C243.5 166.273 212 165.273 201.5 157.773C197.662 155.032 195.5 147.273 204.5 141.273L254 110.773C260.5 106.773 264.5 104.773 275 102.773L316 95.7732C322.5 94.7732 327.5 95.2732 334 96.7732L368.725 106.368C370.885 106.965 373.145 107.102 375.36 106.769Z" fill="#C4C4C4"/>
<path d="M392.5 239.773L429 228.773L402 102.773L375.36 106.769C373.145 107.102 370.885 106.965 368.725 106.368L334 96.7732C327.5 95.2732 322.5 94.7732 316 95.7732L275 102.773C264.5 104.773 260.5 106.773 254 110.773L204.5 141.273C195.5 147.273 197.662 155.032 201.5 157.773C212 165.273 243.5 166.273 277.5 149.773C277.5 149.773 281.066 158.402 299.5 169.273C319 180.773 331.224 180.936 348.5 196.773C360.5 207.773 389 234.773 389 234.773C390.593 236.366 391.935 238.016 393.004 239.773" stroke="#009BB2" stroke-width="2"/>
</mask>
<g mask="url(#mask1)">
<path d="M375.36 106.769L402 102.773L429 228.773L392.926 239.645C391.87 237.936 390.554 236.327 389 234.773C389 234.773 360.5 207.773 348.5 196.773C331.224 180.936 319 180.773 299.5 169.273C281.066 158.402 277.5 149.773 277.5 149.773C243.5 166.273 212 165.273 201.5 157.773C197.662 155.032 195.5 147.273 204.5 141.273L254 110.773C260.5 106.773 264.5 104.773 275 102.773L316 95.7732C322.5 94.7732 327.5 95.2732 334 96.7732L368.725 106.368C370.885 106.965 373.145 107.102 375.36 106.769Z" fill="#163942"/>
<path d="M375.36 106.769L402 102.773L429 228.773L392.926 239.645C391.87 237.936 390.554 236.327 389 234.773C389 234.773 360.5 207.773 348.5 196.773C331.224 180.936 319 180.773 299.5 169.273C281.066 158.402 277.5 149.773 277.5 149.773C243.5 166.273 212 165.273 201.5 157.773C197.662 155.032 195.5 147.273 204.5 141.273L254 110.773C260.5 106.773 264.5 104.773 275 102.773L316 95.7732C322.5 94.7732 327.5 95.2732 334 96.7732L368.725 106.368C370.885 106.965 373.145 107.102 375.36 106.769Z" fill="url(#paint1_linear)"/>
<g filter="url(#filter2_f)">
<path d="M392.5 239.773L429 228.773L402 102.773L375.36 106.769C373.145 107.102 370.885 106.965 368.725 106.368L334 96.7732C327.5 95.2732 322.5 94.7732 316 95.7732L275 102.773C264.5 104.773 260.5 106.773 254 110.773L204.5 141.273C195.5 147.273 197.662 155.032 201.5 157.773C212 165.273 243.5 166.273 277.5 149.773C277.5 149.773 281.066 158.402 299.5 169.273C319 180.773 331.224 180.936 348.5 196.773C360.5 207.773 389 234.773 389 234.773C390.593 236.366 391.935 238.016 393.004 239.773" stroke="#00DEFF" stroke-opacity="0.4" stroke-width="2" stroke-miterlimit="4.7764"/>
</g>
<path d="M392.5 239.773L429 228.773L402 102.773L375.36 106.769C373.145 107.102 370.885 106.965 368.725 106.368L334 96.7732C327.5 95.2732 322.5 94.7732 316 95.7732L275 102.773C264.5 104.773 260.5 106.773 254 110.773L204.5 141.273C195.5 147.273 197.662 155.032 201.5 157.773C212 165.273 243.5 166.273 277.5 149.773C277.5 149.773 281.066 158.402 299.5 169.273C319 180.773 331.224 180.936 348.5 196.773C360.5 207.773 389 234.773 389 234.773C390.593 236.366 391.935 238.016 393.004 239.773" stroke="#009BB2" stroke-width="2"/>
</g>
<mask id="mask2" mask-type="alpha" maskUnits="userSpaceOnUse" x="160" y="214" width="136" height="109">
<path fill-rule="evenodd" clip-rule="evenodd" d="M228.674 233.819C220.611 228.003 209.361 229.825 203.545 237.888L198.865 244.376C204.681 236.313 202.859 225.063 194.797 219.247C186.734 213.432 175.484 215.253 169.668 223.316L164.988 229.804C159.173 237.867 160.994 249.117 169.057 254.933C177.119 260.748 188.37 258.927 194.185 250.864C188.37 258.927 190.191 270.177 198.254 275.993C206.317 281.808 217.567 279.987 223.383 271.924C217.567 279.987 219.389 291.237 227.451 297.053C235.507 302.863 246.745 301.05 252.565 293.005C246.767 301.066 248.593 312.302 256.648 318.113C264.711 323.928 275.961 322.107 281.777 314.044L291.137 301.068C296.953 293.005 295.131 281.755 287.068 275.939C279.013 270.128 267.775 271.942 261.955 279.987C267.752 271.926 265.927 260.69 257.871 254.879C249.809 249.063 238.558 250.885 232.743 258.948C238.558 250.885 236.737 239.635 228.674 233.819Z" fill="#163942"/>
<path d="M198.865 244.376L203.545 237.888C209.361 229.825 220.611 228.003 228.674 233.819C236.737 239.635 238.558 250.885 232.743 258.948C238.558 250.885 249.809 249.063 257.871 254.879C265.927 260.69 267.752 271.926 261.955 279.987M198.865 244.376C204.681 236.313 202.859 225.063 194.797 219.247C186.734 213.432 175.484 215.253 169.668 223.316L164.988 229.804C159.173 237.867 160.994 249.117 169.057 254.933C177.119 260.748 188.37 258.927 194.185 250.864M198.865 244.376L194.185 250.864M194.185 250.864C188.37 258.927 190.191 270.177 198.254 275.993C206.317 281.808 217.567 279.987 223.383 271.924C217.567 279.987 219.389 291.237 227.451 297.053C235.507 302.863 246.745 301.05 252.565 293.005M252.565 293.005C246.767 301.066 248.593 312.302 256.648 318.113C264.711 323.928 275.961 322.107 281.777 314.044L291.137 301.068C296.953 293.005 295.131 281.755 287.068 275.939C279.013 270.128 267.775 271.942 261.955 279.987M252.565 293.005C252.57 292.998 252.575 292.991 252.58 292.984M261.955 279.987C261.95 279.994 261.945 280.001 261.94 280.008" stroke="black" stroke-width="2"/>
</mask>
<g mask="url(#mask2)">
<rect x="180.198" y="208.717" width="36" height="44" rx="18" transform="rotate(35.803 180.198 208.717)" fill="#163942"/>
<rect x="214.075" y="223.289" width="36" height="52" rx="18" transform="rotate(35.803 214.075 223.289)" fill="#163942"/>
<rect x="243.273" y="244.349" width="36" height="52" rx="18" transform="rotate(35.803 243.273 244.349)" fill="#163942"/>
<rect x="272.47" y="265.409" width="36" height="52" rx="18" transform="rotate(35.803 272.47 265.409)" fill="#163942"/>
<path fill-rule="evenodd" clip-rule="evenodd" d="M228.674 233.819C220.611 228.003 209.361 229.825 203.545 237.888L198.865 244.376C204.681 236.313 202.859 225.063 194.797 219.247C186.734 213.432 175.484 215.253 169.668 223.316L164.988 229.804C159.172 237.867 160.994 249.117 169.057 254.933C177.119 260.748 188.37 258.927 194.185 250.864C188.37 258.927 190.191 270.177 198.254 275.993C206.316 281.808 217.567 279.987 223.382 271.924C217.567 279.987 219.389 291.237 227.451 297.053C235.507 302.863 246.745 301.05 252.565 293.005C246.767 301.066 248.593 312.302 256.648 318.113C264.711 323.928 275.961 322.107 281.777 314.044L291.137 301.068C296.952 293.005 295.131 281.755 287.068 275.939C279.013 270.128 267.774 271.942 261.955 279.987C267.752 271.926 265.927 260.69 257.871 254.879C249.809 249.063 238.558 250.885 232.743 258.948C238.558 250.885 236.736 239.635 228.674 233.819Z" fill="url(#paint2_linear)"/>
<g filter="url(#filter3_f)">
<path d="M194.185 250.864L198.865 244.376C204.681 236.313 202.859 225.063 194.797 219.247C186.734 213.432 175.484 215.253 169.668 223.316L164.988 229.804C159.173 237.867 160.994 249.117 169.057 254.933C177.119 260.748 188.37 258.927 194.185 250.864ZM194.185 250.864L203.545 237.888C209.361 229.825 220.611 228.003 228.674 233.819C236.737 239.635 238.558 250.885 232.743 258.948M194.185 250.864C188.37 258.927 190.191 270.177 198.254 275.993C206.317 281.808 217.567 279.987 223.383 271.924M223.383 271.924L232.743 258.948M223.383 271.924C217.567 279.987 219.389 291.237 227.451 297.053C235.514 302.868 246.764 301.047 252.58 292.984M232.743 258.948C238.558 250.885 249.809 249.063 257.871 254.879C265.934 260.695 267.755 271.945 261.94 280.008M252.58 292.984L261.94 280.008M252.58 292.984C246.764 301.047 248.586 312.297 256.648 318.113C264.711 323.928 275.961 322.107 281.777 314.044L291.137 301.068C296.953 293.005 295.131 281.755 287.068 275.939C279.006 270.123 267.755 271.945 261.94 280.008" stroke="#00DEFF" stroke-opacity="0.4" stroke-width="2" stroke-miterlimit="4.7764"/>
</g>
<rect x="180.198" y="208.717" width="36" height="44" rx="18" transform="rotate(35.803 180.198 208.717)" stroke="#009BB2" stroke-width="2"/>
<rect x="214.075" y="223.289" width="36" height="52" rx="18" transform="rotate(35.803 214.075 223.289)" stroke="#009BB2" stroke-width="2"/>
<rect x="243.273" y="244.349" width="36" height="52" rx="18" transform="rotate(35.803 243.273 244.349)" stroke="#009BB2" stroke-width="2"/>
<rect x="272.47" y="265.409" width="36" height="52" rx="18" transform="rotate(35.803 272.47 265.409)" stroke="#009BB2" stroke-width="2"/>
</g>
<g filter="url(#filter4_f)">
<path d="M474 64.5L414 94L443 231.5H514.5L474 149.5V64.5Z" stroke="#00DEFF" stroke-opacity="0.4" stroke-width="2" stroke-miterlimit="4.7764"/>
</g>
<path d="M474 64.5L414 94L443 231.5H514.5L474 149.5V64.5Z" stroke="#009BB2" stroke-width="2"/>
<g filter="url(#filter5_f)">
<path d="M116 283L6 313M170 323L135 374" stroke="#00DEFF" stroke-opacity="0.4" stroke-width="2" stroke-miterlimit="4.7764"/>
</g>
<g filter="url(#filter6_f)">
<path d="M438 283L548 313M384 323L419 374" stroke="#00DEFF" stroke-opacity="0.4" stroke-width="2" stroke-miterlimit="4.7764"/>
</g>
<g filter="url(#filter7_f)">
<path d="M193 66L149 13M279 50V5M361 66L411 13" stroke="#00DEFF" stroke-opacity="0.4" stroke-width="2" stroke-miterlimit="4.7764"/>
</g>
<path d="M116 283L6 313M170 323L135 374" stroke="#009BB2" stroke-width="2" stroke-linecap="round"/>
<path d="M438 283L548 313M384 323L419 374" stroke="#009BB2" stroke-width="2" stroke-linecap="round"/>
<path d="M193 66L149 13M279 50V5M361 66L411 13" stroke="#009BB2" stroke-width="2" stroke-linecap="round"/>
<defs>
<filter id="filter0_f" x="122.828" y="89" width="279.172" height="235.525" filterUnits="userSpaceOnUse" color-interpolation-filters="sRGB">
<feFlood flood-opacity="0" result="BackgroundImageFix"/>
<feBlend mode="normal" in="SourceGraphic" in2="BackgroundImageFix" result="shape"/>
<feGaussianBlur stdDeviation="2.5" result="effect1_foregroundBlur"/>
</filter>
<filter id="filter1_f" x="34.3907" y="56.394" width="113.248" height="179.606" filterUnits="userSpaceOnUse" color-interpolation-filters="sRGB">
<feFlood flood-opacity="0" result="BackgroundImageFix"/>
<feBlend mode="normal" in="SourceGraphic" in2="BackgroundImageFix" result="shape"/>
<feGaussianBlur stdDeviation="2.5" result="effect1_foregroundBlur"/>
</filter>
<filter id="filter2_f" x="192.181" y="89.253" width="242.99" height="156.478" filterUnits="userSpaceOnUse" color-interpolation-filters="sRGB">
<feFlood flood-opacity="0" result="BackgroundImageFix"/>
<feBlend mode="normal" in="SourceGraphic" in2="BackgroundImageFix" result="shape"/>
<feGaussianBlur stdDeviation="2.5" result="effect1_foregroundBlur"/>
</filter>
<filter id="filter3_f" x="155.585" y="209.844" width="144.954" height="117.671" filterUnits="userSpaceOnUse" color-interpolation-filters="sRGB">
<feFlood flood-opacity="0" result="BackgroundImageFix"/>
<feBlend mode="normal" in="SourceGraphic" in2="BackgroundImageFix" result="shape"/>
<feGaussianBlur stdDeviation="2.5" result="effect1_foregroundBlur"/>
</filter>
<filter id="filter4_f" x="407.861" y="57.894" width="113.248" height="179.606" filterUnits="userSpaceOnUse" color-interpolation-filters="sRGB">
<feFlood flood-opacity="0" result="BackgroundImageFix"/>
<feBlend mode="normal" in="SourceGraphic" in2="BackgroundImageFix" result="shape"/>
<feGaussianBlur stdDeviation="2.5" result="effect1_foregroundBlur"/>
</filter>
<filter id="filter5_f" x="0.736877" y="277.035" width="175.088" height="102.531" filterUnits="userSpaceOnUse" color-interpolation-filters="sRGB">
<feFlood flood-opacity="0" result="BackgroundImageFix"/>
<feBlend mode="normal" in="SourceGraphic" in2="BackgroundImageFix" result="shape"/>
<feGaussianBlur stdDeviation="2.5" result="effect1_foregroundBlur"/>
</filter>
<filter id="filter6_f" x="378.176" y="277.035" width="175.088" height="102.531" filterUnits="userSpaceOnUse" color-interpolation-filters="sRGB">
<feFlood flood-opacity="0" result="BackgroundImageFix"/>
<feBlend mode="normal" in="SourceGraphic" in2="BackgroundImageFix" result="shape"/>
<feGaussianBlur stdDeviation="2.5" result="effect1_foregroundBlur"/>
</filter>
<filter id="filter7_f" x="143.231" y="0" width="273.497" height="71.6862" filterUnits="userSpaceOnUse" color-interpolation-filters="sRGB">
<feFlood flood-opacity="0" result="BackgroundImageFix"/>
<feBlend mode="normal" in="SourceGraphic" in2="BackgroundImageFix" result="shape"/>
<feGaussianBlur stdDeviation="2.5" result="effect1_foregroundBlur"/>
</filter>
<linearGradient id="paint0_linear" x1="96.5" y1="72.5" x2="130.644" y2="228.594" gradientUnits="userSpaceOnUse">
<stop stop-color="#00CCFF" stop-opacity="0.1"/>
<stop offset="1" stop-color="#00CCFF" stop-opacity="0.04"/>
</linearGradient>
<linearGradient id="paint1_linear" x1="398.859" y1="92.959" x2="343.557" y2="261.266" gradientUnits="userSpaceOnUse">
<stop stop-color="#00CCFF" stop-opacity="0.14"/>
<stop offset="1" stop-color="#00CCFF" stop-opacity="0"/>
</linearGradient>
<linearGradient id="paint2_linear" x1="277.178" y1="214.167" x2="228.735" y2="330.311" gradientUnits="userSpaceOnUse">
<stop stop-color="#00CCFF" stop-opacity="0.14"/>
<stop offset="1" stop-color="#00CCFF" stop-opacity="0"/>
</linearGradient>
</defs>
</svg>
