<svg width="196" height="196" viewBox="0 0 196 196" fill="none" xmlns="http://www.w3.org/2000/svg">
<circle cx="98" cy="98" r="98" fill="#FFEEB8"/>
<path d="M153 148C162.941 148 171 139.941 171 130C171 120.059 162.941 112 153 112C143.059 112 135 120.059 135 130C135 139.941 143.059 148 153 148Z" fill="#5DCBB6"/>
<path fill-rule="evenodd" clip-rule="evenodd" d="M160.889 137.665C158.89 139.722 156.094 141 153 141C149.906 141 147.11 139.722 145.111 137.666C145.746 133.883 149.036 131 153 131C156.964 131 160.254 133.882 160.889 137.665Z" fill="#469FA6"/>
<circle cx="153" cy="125" r="4" fill="#469FA6"/>
<path d="M43 148C52.9411 148 61 139.941 61 130C61 120.059 52.9411 112 43 112C33.0589 112 25 120.059 25 130C25 139.941 33.0589 148 43 148Z" fill="#5DCBB6"/>
<path fill-rule="evenodd" clip-rule="evenodd" d="M50.8892 137.665C48.8905 139.722 46.0945 141 43 141C39.9056 141 37.1096 139.722 35.1108 137.666C35.746 133.883 39.0364 131 43.0001 131C46.9636 131 50.254 133.882 50.8892 137.665Z" fill="#469FA6"/>
<circle cx="43" cy="125" r="4" fill="#469FA6"/>
<path d="M98 52C107.941 52 116 43.9411 116 34C116 24.0589 107.941 16 98 16C88.0589 16 80 24.0589 80 34C80 43.9411 88.0589 52 98 52Z" fill="#5DCBB6"/>
<path fill-rule="evenodd" clip-rule="evenodd" d="M105.889 41.6655C103.89 43.7222 101.094 45 98 45C94.9056 45 92.1096 43.7223 90.1108 41.6656C90.746 37.8825 94.0364 35 98.0001 35C101.964 35 105.254 37.8825 105.889 41.6655Z" fill="#469FA6"/>
<circle cx="98" cy="29" r="4" fill="#469FA6"/>
<path d="M162 81.9001C157.2 62.9001 144.1 46.8 126.2 38.3L124.5 41.9001C141.1 49.7001 153.3 64.6 157.9 82.1L154.5 82.3001L161.7 103.6L166.1 81.6L162 81.9001Z" fill="#5DCBB6"/>
<path d="M56.2 56.9L71 40L49.7 47.2L52 50.6C38 64.3 30.6 83.7 32.2 103.4L36.2 103.1C34.7 84.9 41.4 66.8 54.3 54L56.2 56.9Z" fill="#5DCBB6"/>
<path d="M81.8 157.9L83.3 154.9L61.3 150.5L78.2 165.3L80 161.6C85.9 163.3 91.9 164.1 98 164.1C111.3 164.1 124.5 160.1 135.7 152.4L133.4 149.1C118.3 159.4 99.3 162.6 81.8 157.9Z" fill="#5DCBB6"/>
<path d="M98 126C113.464 126 126 113.464 126 98C126 82.536 113.464 70 98 70C82.536 70 70 82.536 70 98C70 113.464 82.536 126 98 126Z" fill="#469FA6"/>
<path d="M89.0056 109.607C88.4469 109.271 88.1117 108.822 88.1117 108.262C88.1117 107.701 88.2235 107.14 88.6704 106.579L89.8994 104.897C90.3464 104.336 90.7933 104 91.352 103.888C91.9106 103.888 92.4693 104 93.0279 104.336C93.6983 104.673 94.4804 105.122 95.3743 105.458C96.2682 105.794 97.162 106.019 98.1676 106.019C98.5028 106.019 98.838 106.019 99.2849 105.907C99.6201 105.794 99.9553 105.682 100.291 105.57C100.626 105.346 100.849 105.122 100.961 104.897C101.184 104.561 101.184 104.224 101.184 103.888C101.184 103.327 100.849 102.879 100.179 102.542C99.5084 102.093 98.7263 101.757 97.7207 101.308C96.7151 100.86 95.7095 100.411 94.5922 99.9626C93.4749 99.514 92.3575 98.8411 91.4637 98.1682C90.4581 97.4953 89.676 96.5981 89.0056 95.5888C88.3352 94.5794 88 93.4579 88 92C88 90.8785 88.2235 89.8692 88.5587 88.972C88.8939 88.0748 89.4525 87.1776 90.1229 86.5047C90.7933 85.8318 91.5754 85.1589 92.581 84.7103C93.4749 84.2617 94.5922 83.9252 95.7095 83.7009V82.1308C95.7095 80.6729 96.3799 80 97.8324 80H98.0559C99.3966 80 100.067 80.5607 100.067 81.7944V83.5888C101.408 83.7009 102.525 83.9252 103.419 84.3738C104.425 84.7103 105.207 85.1589 105.765 85.4953C106.324 85.8318 106.659 86.2804 106.771 86.729C106.883 87.2897 106.771 87.8505 106.436 88.4112L105.43 90.2056C105.095 90.8785 104.648 91.215 104.201 91.3271C103.754 91.4393 103.084 91.3271 102.413 90.9907C101.855 90.6542 101.184 90.4299 100.402 90.0935C99.6201 89.8692 98.838 89.757 97.9441 89.757C97.2737 89.757 96.4916 89.9813 95.8212 90.3178C95.1508 90.6542 94.8156 91.215 94.8156 92C94.8156 92.5608 95.1508 93.0093 95.8212 93.4579C96.4916 93.9065 97.2737 94.243 98.2793 94.6916C99.2849 95.028 100.291 95.4766 101.408 95.9252C102.525 96.3738 103.642 96.9346 104.536 97.6075C105.542 98.2804 106.324 99.1776 106.994 100.075C107.665 101.084 108 102.318 108 103.776C108 104.785 107.777 105.794 107.441 106.804C107.106 107.701 106.547 108.598 105.877 109.383C105.207 110.168 104.313 110.841 103.419 111.29C102.413 111.85 101.296 112.187 99.9553 112.411V113.869C99.9553 115.327 99.2849 116 97.9441 116H97.7207C96.3799 116 95.5978 115.439 95.5978 114.206V112.411C94.0335 112.187 92.8045 111.85 91.6872 111.29C90.5698 110.617 89.676 110.056 89.0056 109.607Z" fill="#5DCBB6"/>
</svg>
