<svg width="96" height="96" viewBox="0 0 96 96" fill="none" xmlns="http://www.w3.org/2000/svg">
<path fill-rule="evenodd" clip-rule="evenodd" d="M48 96C74.5097 96 96 74.5097 96 48C96 21.4903 74.5097 0 48 0C21.4903 0 0 21.4903 0 48C0 74.5097 21.4903 96 48 96Z" fill="#FFEEB8"/>
<path fill-rule="evenodd" clip-rule="evenodd" d="M73 62H23V32C23 30.896 23.896 30 25 30H71C72.104 30 73 30.896 73 32V62Z" fill="#5DCBB6"/>
<path d="M42 53C40.9 53 40 53.9 40 55C40 56.1 40.9 57 42 57C43.1 57 44 56.1 44 55C44 53.9 43.1 53 42 53ZM37 37C36.4477 37 36 37.4477 36 38C36 38.5523 36.4477 39 37 39H38L41.6 46.6L40.2 49C40.1 49.3 40 49.7 40 50C40 51.1 40.9 52 42 52H54C54.5523 52 55 51.5523 55 51C55 50.4477 54.5523 50 54 50H42.4C42.3 50 42.2 49.9 42.2 49.8V49.7L43.1 48H52.5C53.3 48 53.9 47.6 54.2 47L57.8 40.5C57.8 40.5 58 40.2 58 40C58 39.4 57.6 39 57 39H40.2L39.3 37H37ZM53 53C51.9 53 51 53.9 51 55C51 56.1 51.9 57 53 57C54.1 57 55 56.1 55 55C55 53.9 54.1 53 53 53Z" fill="#469FA6"/>
<path fill-rule="evenodd" clip-rule="evenodd" d="M75 66H21C20.447 66 20 65.553 20 65V63C20 62.447 20.447 62 21 62H75C75.553 62 76 62.447 76 63V65C76 65.553 75.553 66 75 66Z" fill="#469FA6"/>
</svg>
