<svg width="196" height="196" viewBox="0 0 196 196" fill="none" xmlns="http://www.w3.org/2000/svg">
<circle cx="98" cy="98" r="98" fill="#FFEEB8"/>
<path d="M36 98.2999C36 83.3999 41.2 69.3 50.8 58.1L52.9 60.7999L66.2 42.7L45.6 51.7L48.2 54.9C37.8 67 32 82.2 32 98.2999C32 121.9 44.7 143.9 65.3 155.6L67.3 152.1C48 141.1 36 120.5 36 98.2999Z" fill="#5DCBB6"/>
<path d="M164 98.3C164 74.7 151.3 52.7 130.8 41L128.8 44.5C148 55.5 160 76.1 160 98.3C160 113.2 154.8 127.3 145.2 138.5L143.1 135.8L129.8 153.9L150.4 144.9L147.8 141.7C158.2 129.6 164 114.4 164 98.3Z" fill="#5DCBB6"/>
<circle cx="98" cy="98" r="40" fill="#469FA6"/>
<mask id="mask0" mask-type="alpha" maskUnits="userSpaceOnUse" x="58" y="58" width="80" height="80">
<circle cx="98" cy="98" r="40" fill="#469FA6"/>
</mask>
<g mask="url(#mask0)">
<path d="M140.5 83L137 83.5L134 82.5L130 82L128.5 80L125 78H123L127 82L125 83L124 82.5L125 81.5L123 80L120.5 78.8043L117.5 81L117 83L114 84.5L111 84L111.5 80V78H115V74.5L114 73L116.5 72.5L119.409 71.3518L121 69.5L120.5 68L118.5 67L118 65H115L116 67L117 70.5L115 71.3518V70V68.5L114 68L113.5 69.5L112 69L112.5 67H114L115 65H118L116 60C118.037 61.0071 127.746 67.7511 132 71.3518C136.457 75.1239 138.861 81.273 140.5 83Z" fill="#5DCBB6"/>
<path d="M80 69L81.5 71L81 73.5L78.5 72L80 71H77L76.5 73L77 73.5L74.5 75V74L72.5 75.5L71.5 77.5L70 78L69.5 79L68.4999 81V83L67.5 84L66.5 85L66 87.5L65 88L64.9999 89.5L65.9999 91.5L68.4999 94.5L65.4999 93L64.4999 91.5L62.9999 90.5L64.9999 89.5L65 88L65.5 85.5L64 85H62.5L61 85.5L59.9999 88L60.5 90.5L61 91H61.9999L62.9999 91.5L61.9999 93L60.9999 94L61.4999 95.5V97L62.9999 99V100L61 97.5L59.9999 95.5L59.5 93L59 91L58.5 89.5L54 85C58.1313 75.155 66.0285 66.9878 75.9325 63L75.5 58L85.5 56L84.75 58.25L83 61V63L80.5 65.5L81 67L80 69Z" fill="#5DCBB6"/>
<path d="M94.5 59L96 60.5V63H99L100 64L99 65L98 64L99 63H96L93 64L92 66.5L90 65L89.5 60.5L84 60L91 59H94.5Z" fill="#5DCBB6"/>
<path d="M81 114.5V116.5L79.5 118L79 121L78.0324 122.586L77 124L75.0706 125.57L73.4677 128L72.5529 130V133.106V140.003L68.4148 138.623L65.6559 131.726L67 127.5L67.5 124L67 122L65.6559 119.5L65.0001 117L63.5 115L62 112L60.5 107V105L61 103.5L62 102L63 100H65.5L66.5001 101.5H68.5001L70.5001 102.759L71.0001 103.759V105L73.4677 105.5L73.9677 106.5L74.4677 108L76.5 110L78.5 112.5L81 114.5Z" fill="#5DCBB6"/>
<path d="M142.5 85.5C145.983 91.7132 149.843 98.0874 149.5 105.5C149.261 110.669 144.62 125.001 140 131.5C136.92 135.832 134 137.5 131.5 136.5V135L132 134L131.5 132L126 129.5L127.5 126.5L128 123.5L129 121.5L130 120L130.5 117.5L130 116L129 115L128.5 113V111H127L126 110H124H121L119 110.5H117L114.5 111L113.188 110L112 109L110.5 106.5L108 105L107.5 102L106 100L107 98L108 94.5L109.5 92L111 91V89L114.5 85.5H119.5L122.5 85L126 86.5L127.5 87.5L129.5 86.5L132 87H136.5L137.5 85.5H142.5Z" fill="#5DCBB6"/>
</g>
<path fill-rule="evenodd" clip-rule="evenodd" d="M84 20C82.8954 20 82 20.8954 82 22V40C82 41.1046 82.8954 42 84 42H90V48L96 42H112C113.105 42 114 41.1046 114 40V22C114 20.8954 113.105 20 112 20H84Z" fill="#5DCBB6"/>
<path fill-rule="evenodd" clip-rule="evenodd" d="M100.185 28.5681L98.0509 24.0352C98.0369 24.0044 98.0033 23.9904 97.9697 24.0072C97.9585 24.0128 97.9473 24.024 97.9417 24.0352L95.7996 28.5681L91.0506 29.2624C91.0198 29.268 90.9974 29.2988 91.0002 29.3324C91.003 29.3464 91.0086 29.3604 91.0198 29.3716L94.4612 32.9022L93.6435 37.925C93.6379 37.9586 93.6603 37.9922 93.6967 37.9978C93.7079 38.0006 93.7219 37.9978 93.7331 37.9922L97.9977 35.618L102.276 37.9922C102.307 38.009 102.343 37.9978 102.357 37.967C102.366 37.953 102.366 37.939 102.366 37.925L101.531 32.9022L104.981 29.3716C105.006 29.3464 105.006 29.3044 104.981 29.2792C104.973 29.2708 104.961 29.2652 104.947 29.2624L100.185 28.5681Z" fill="#469FA6"/>
<path fill-rule="evenodd" clip-rule="evenodd" d="M98 178C105.732 178 112 171.732 112 164C112 156.268 105.732 150 98 150C90.268 150 84 156.268 84 164C84 171.732 90.268 178 98 178ZM93.08 169.842C93.1067 170.134 93.26 170.382 93.54 170.586C93.8867 170.849 94.3267 171.126 94.86 171.418C95.4067 171.695 96.06 171.892 96.82 172.009V173.015C96.82 173.672 97.1667 174 97.86 174H97.98C98.66 174 99 173.599 99 172.796V172.009C99.64 171.907 100.207 171.71 100.7 171.418C101.193 171.112 101.607 170.747 101.94 170.324C102.287 169.901 102.547 169.427 102.72 168.902C102.907 168.376 103 167.822 103 167.239C103 166.436 102.84 165.758 102.52 165.204C102.2 164.649 101.8 164.182 101.32 163.803C100.84 163.424 100.313 163.103 99.74 162.84C99.18 162.578 98.66 162.344 98.18 162.14C97.7 161.921 97.3 161.702 96.98 161.484C96.66 161.25 96.5 160.98 96.5 160.674C96.5 160.236 96.66 159.923 96.98 159.733C97.3133 159.543 97.66 159.449 98.02 159.449C98.4467 159.449 98.8467 159.522 99.22 159.667C99.6067 159.799 99.94 159.952 100.22 160.127C100.553 160.331 100.84 160.404 101.08 160.346C101.333 160.287 101.547 160.076 101.72 159.711L102.2 158.683C102.347 158.347 102.4 158.041 102.36 157.764C102.32 157.472 102.153 157.231 101.86 157.042C101.553 156.837 101.16 156.633 100.68 156.429C100.213 156.21 99.6533 156.064 99 155.991V154.985C99 154.328 98.66 154 97.98 154H97.86C97.1667 154 96.82 154.401 96.82 155.204V156.057C96.26 156.174 95.7467 156.371 95.28 156.648C94.8133 156.91 94.4067 157.246 94.06 157.654C93.7267 158.048 93.4667 158.508 93.28 159.033C93.0933 159.543 93 160.105 93 160.718C93 161.505 93.16 162.177 93.48 162.731C93.8 163.271 94.2 163.737 94.68 164.131C95.16 164.525 95.68 164.861 96.24 165.138C96.8133 165.4 97.34 165.648 97.82 165.882C98.3 166.115 98.7 166.341 99.02 166.56C99.34 166.779 99.5 167.034 99.5 167.326C99.5 167.559 99.4533 167.756 99.36 167.917C99.28 168.077 99.1667 168.209 99.02 168.311C98.8733 168.398 98.7067 168.464 98.52 168.508C98.3467 168.551 98.1733 168.573 98 168.573C97.52 168.573 97.06 168.478 96.62 168.289C96.18 168.099 95.8 167.895 95.48 167.676C95.1733 167.472 94.8933 167.384 94.64 167.414C94.3867 167.443 94.1533 167.625 93.94 167.961L93.34 168.923C93.14 169.23 93.0533 169.536 93.08 169.842Z" fill="#5DCBB6"/>
<path d="M93.54 170.586C93.26 170.382 93.1067 170.134 93.08 169.842C93.0533 169.536 93.14 169.23 93.34 168.923L93.94 167.961C94.1533 167.625 94.3867 167.443 94.64 167.414C94.8933 167.384 95.1733 167.472 95.48 167.676C95.8 167.895 96.18 168.099 96.62 168.289C97.06 168.478 97.52 168.573 98 168.573C98.1733 168.573 98.3467 168.551 98.52 168.508C98.7067 168.464 98.8733 168.398 99.02 168.311C99.1667 168.209 99.28 168.077 99.36 167.917C99.4533 167.756 99.5 167.559 99.5 167.326C99.5 167.034 99.34 166.779 99.02 166.56C98.7 166.341 98.3 166.115 97.82 165.882C97.34 165.648 96.8133 165.4 96.24 165.138C95.68 164.861 95.16 164.525 94.68 164.131C94.2 163.737 93.8 163.271 93.48 162.731C93.16 162.177 93 161.505 93 160.718C93 160.105 93.0933 159.543 93.28 159.033C93.4667 158.508 93.7267 158.048 94.06 157.654C94.4067 157.246 94.8133 156.91 95.28 156.648C95.7467 156.371 96.26 156.174 96.82 156.057V155.204C96.82 154.401 97.1667 154 97.86 154H97.98C98.66 154 99 154.328 99 154.985V155.991C99.6533 156.064 100.213 156.21 100.68 156.429C101.16 156.633 101.553 156.837 101.86 157.042C102.153 157.231 102.32 157.472 102.36 157.764C102.4 158.041 102.347 158.347 102.2 158.683L101.72 159.711C101.547 160.076 101.333 160.287 101.08 160.346C100.84 160.404 100.553 160.331 100.22 160.127C99.94 159.952 99.6067 159.799 99.22 159.667C98.8467 159.522 98.4467 159.449 98.02 159.449C97.66 159.449 97.3133 159.543 96.98 159.733C96.66 159.923 96.5 160.236 96.5 160.674C96.5 160.98 96.66 161.25 96.98 161.484C97.3 161.702 97.7 161.921 98.18 162.14C98.66 162.344 99.18 162.578 99.74 162.84C100.313 163.103 100.84 163.424 101.32 163.803C101.8 164.182 102.2 164.649 102.52 165.204C102.84 165.758 103 166.436 103 167.239C103 167.822 102.907 168.376 102.72 168.902C102.547 169.427 102.287 169.901 101.94 170.324C101.607 170.747 101.193 171.112 100.7 171.418C100.207 171.71 99.64 171.907 99 172.009V172.796C99 173.599 98.66 174 97.98 174H97.86C97.1667 174 96.82 173.672 96.82 173.015V172.009C96.06 171.892 95.4067 171.695 94.86 171.418C94.3267 171.126 93.8867 170.849 93.54 170.586Z" fill="#469FA6"/>
</svg>
