<svg width="96" height="96" viewBox="0 0 96 96" fill="none" xmlns="http://www.w3.org/2000/svg">
<path fill-rule="evenodd" clip-rule="evenodd" d="M48 96C74.5097 96 96 74.5097 96 48C96 21.4903 74.5097 0 48 0C21.4903 0 0 21.4903 0 48C0 74.5097 21.4903 96 48 96Z" fill="#FFEEB8"/>
<path fill-rule="evenodd" clip-rule="evenodd" d="M75 28C76.1046 28 77 28.8954 77 30V48C77 49.1046 76.1046 50 75 50H69V56L63 50H47C45.8954 50 45 49.1046 45 48V30C45 28.8954 45.8954 28 47 28H75Z" fill="#469FA6"/>
<path fill-rule="evenodd" clip-rule="evenodd" d="M21 39C19.8954 39 19 39.8954 19 41V65C19 66.1046 19.8954 67 21 67H28V76L37 67H59C60.1046 67 61 66.1046 61 65V41C61 39.8954 60.1046 39 59 39H21Z" fill="#5DCBB6"/>
<path fill-rule="evenodd" clip-rule="evenodd" d="M26.9362 51.9577L26.0218 50.0151C26.0158 50.0019 26.0014 49.9959 25.987 50.0031C25.9822 50.0055 25.9774 50.0103 25.975 50.0151L25.057 51.9577L23.0217 52.2553C23.0085 52.2577 22.9989 52.2709 23.0001 52.2853C23.0013 52.2913 23.0037 52.2973 23.0085 52.3021L24.4834 53.8152L24.1329 55.9679C24.1305 55.9823 24.1401 55.9967 24.1557 55.9991C24.1605 56.0003 24.1665 55.9991 24.1713 55.9967L25.999 54.9791L27.8327 55.9967C27.8459 56.0039 27.8615 55.9991 27.8675 55.9859C27.8711 55.9799 27.8711 55.9739 27.8711 55.9679L27.5135 53.8152L28.9919 52.3021C29.0027 52.2913 29.0027 52.2733 28.9919 52.2625C28.9883 52.2589 28.9835 52.2565 28.9775 52.2553L26.9362 51.9577Z" fill="#469FA6"/>
<path fill-rule="evenodd" clip-rule="evenodd" d="M33.9362 51.9577L33.0218 50.0151C33.0158 50.0019 33.0014 49.9959 32.987 50.0031C32.9822 50.0055 32.9774 50.0103 32.975 50.0151L32.057 51.9577L30.0217 52.2553C30.0085 52.2577 29.9989 52.2709 30.0001 52.2853C30.0013 52.2913 30.0037 52.2973 30.0085 52.3021L31.4834 53.8152L31.1329 55.9679C31.1305 55.9823 31.1401 55.9967 31.1557 55.9991C31.1605 56.0003 31.1665 55.9991 31.1713 55.9967L32.999 54.9791L34.8327 55.9967C34.8459 56.0039 34.8615 55.9991 34.8675 55.9859C34.8711 55.9799 34.8711 55.9739 34.8711 55.9679L34.5135 53.8152L35.9919 52.3021C36.0027 52.2913 36.0027 52.2733 35.9919 52.2625C35.9883 52.2589 35.9835 52.2565 35.9775 52.2553L33.9362 51.9577Z" fill="#469FA6"/>
<path fill-rule="evenodd" clip-rule="evenodd" d="M40.9362 51.9577L40.0218 50.0151C40.0158 50.0019 40.0014 49.9959 39.987 50.0031C39.9822 50.0055 39.9774 50.0103 39.975 50.0151L39.057 51.9577L37.0217 52.2553C37.0085 52.2577 36.9989 52.2709 37.0001 52.2853C37.0013 52.2913 37.0037 52.2973 37.0085 52.3021L38.4834 53.8152L38.1329 55.9679C38.1305 55.9823 38.1401 55.9967 38.1557 55.9991C38.1605 56.0003 38.1665 55.9991 38.1713 55.9967L39.999 54.9791L41.8327 55.9967C41.8459 56.0039 41.8615 55.9991 41.8675 55.9859C41.8711 55.9799 41.8711 55.9739 41.8711 55.9679L41.5135 53.8152L42.9919 52.3021C43.0027 52.2913 43.0027 52.2733 42.9919 52.2625C42.9883 52.2589 42.9835 52.2565 42.9775 52.2553L40.9362 51.9577Z" fill="#469FA6"/>
<path fill-rule="evenodd" clip-rule="evenodd" d="M47.9362 51.9577L47.0218 50.0151C47.0158 50.0019 47.0014 49.9959 46.987 50.0031C46.9822 50.0055 46.9774 50.0103 46.975 50.0151L46.057 51.9577L44.0217 52.2553C44.0085 52.2577 43.9989 52.2709 44.0001 52.2853C44.0013 52.2913 44.0037 52.2973 44.0085 52.3021L45.4834 53.8152L45.1329 55.9679C45.1305 55.9823 45.1401 55.9967 45.1557 55.9991C45.1605 56.0003 45.1665 55.9991 45.1713 55.9967L46.999 54.9791L48.8327 55.9967C48.8459 56.0039 48.8615 55.9991 48.8675 55.9859C48.8711 55.9799 48.8711 55.9739 48.8711 55.9679L48.5135 53.8152L49.9919 52.3021C50.0027 52.2913 50.0027 52.2733 49.9919 52.2625C49.9883 52.2589 49.9835 52.2565 49.9775 52.2553L47.9362 51.9577Z" fill="#469FA6"/>
<path fill-rule="evenodd" clip-rule="evenodd" d="M54.9362 51.9577L54.0218 50.0151C54.0158 50.0019 54.0014 49.9959 53.987 50.0031C53.9822 50.0055 53.9774 50.0103 53.975 50.0151L53.057 51.9577L51.0217 52.2553C51.0085 52.2577 50.9989 52.2709 51.0001 52.2853C51.0013 52.2913 51.0037 52.2973 51.0085 52.3021L52.4834 53.8152L52.1329 55.9679C52.1305 55.9823 52.1401 55.9967 52.1557 55.9991C52.1605 56.0003 52.1665 55.9991 52.1713 55.9967L53.999 54.9791L55.8327 55.9967C55.8459 56.0039 55.8615 55.9991 55.8675 55.9859C55.8711 55.9799 55.8711 55.9739 55.8711 55.9679L55.5135 53.8152L56.9919 52.3021C57.0027 52.2913 57.0027 52.2733 56.9919 52.2625C56.9883 52.2589 56.9835 52.2565 56.9775 52.2553L54.9362 51.9577Z" fill="#469FA6"/>
</svg>
