<svg xmlns="http://www.w3.org/2000/svg" xmlns:xlink="http://www.w3.org/1999/xlink" width="48" height="48" viewBox="0 0 48 48"><defs><path id="h9hxa" d="M1400 2547h-40a4 4 0 0 1-4-4v-40a4 4 0 0 1 4-4h40a4 4 0 0 1 4 4v40a4 4 0 0 1-4 4"/><path id="h9hxb" d="M1363 2518a1 1 0 0 1 1-1h32a1 1 0 0 1 1 1v10a1 1 0 0 1-1 1h-32a1 1 0 0 1-1-1z"/><path id="h9hxc" d="M1363 2511a1 1 0 0 1 1-1h16a1 1 0 0 1 1 1v2a1 1 0 0 1-1 1h-16a1 1 0 0 1-1-1z"/><path id="h9hxd" d="M1363 2533a1 1 0 0 1 1-1h24a1 1 0 0 1 1 1v2a1 1 0 0 1-1 1h-24a1 1 0 0 1-1-1z"/><path id="h9hxe" d="M1380.78 2522.132l-.762-1.62a.02.02 0 0 0-.029-.01.024.024 0 0 0-.01.01l-.765 1.62-1.696.248c-.01.002-.019.013-.018.025.001.005.003.01.007.014l1.23 1.26-.293 1.795a.023.023 0 0 0 .02.026.02.02 0 0 0 .012-.002l1.523-.848 1.528.848c.011.006.024.002.03-.01.002-.004.002-.01.002-.014l-.298-1.794 1.232-1.261a.024.024 0 0 0 0-.033.023.023 0 0 0-.012-.006z"/><path id="h9hxf" d="M1386.78 2522.132l-.762-1.62a.02.02 0 0 0-.029-.01.024.024 0 0 0-.01.01l-.765 1.62-1.696.248c-.01.002-.019.013-.018.025.001.005.003.01.007.014l1.23 1.26-.293 1.795a.023.023 0 0 0 .02.026.02.02 0 0 0 .012-.002l1.523-.848 1.528.848c.011.006.024.002.03-.01.002-.004.002-.01.002-.014l-.298-1.794 1.232-1.261a.024.024 0 0 0 0-.033.027.027 0 0 0-.012-.006z"/><path id="h9hxg" d="M1392.78 2522.132l-.762-1.62a.02.02 0 0 0-.029-.01.024.024 0 0 0-.01.01l-.765 1.62-1.696.248a.022.022 0 0 0-.018.025c.001.005.003.01.007.014l1.23 1.26-.293 1.795a.023.023 0 0 0 .02.026.02.02 0 0 0 .012-.002l1.523-.848 1.528.848c.011.006.024.002.03-.01.002-.004.002-.01.002-.014l-.298-1.794 1.232-1.261a.024.024 0 0 0 0-.033.027.027 0 0 0-.012-.006z"/><path id="h9hxh" d="M1374.78 2522.132l-.762-1.62a.02.02 0 0 0-.029-.01.024.024 0 0 0-.01.01l-.765 1.62-1.696.248c-.01.002-.019.013-.018.025.001.005.003.01.007.014l1.23 1.26-.293 1.795a.023.023 0 0 0 .02.026.02.02 0 0 0 .012-.002l1.523-.848 1.528.848c.011.006.024.002.03-.01.002-.004.002-.01.002-.014l-.298-1.794 1.232-1.261a.024.024 0 0 0 0-.033.023.023 0 0 0-.012-.006z"/><path id="h9hxi" d="M1368.78 2522.132l-.762-1.62a.02.02 0 0 0-.029-.01.024.024 0 0 0-.01.01l-.765 1.62-1.696.248c-.01.002-.019.013-.018.025.001.005.003.01.007.014l1.23 1.26-.293 1.795a.023.023 0 0 0 .02.026.02.02 0 0 0 .012-.002l1.523-.848 1.528.848c.011.006.024.002.03-.01.002-.004.002-.01.002-.014l-.298-1.794 1.232-1.261a.024.024 0 0 0 0-.033.023.023 0 0 0-.012-.006z"/></defs><g><g transform="translate(-1356 -2499)"><g><use fill="#ffeeb8" xlink:href="#h9hxa"/></g><g><use fill="#5dcbb6" xlink:href="#h9hxb"/></g><g opacity=".5"><use fill="#5dcbb6" xlink:href="#h9hxc"/></g><g opacity=".5"><use fill="#5dcbb6" xlink:href="#h9hxd"/></g><g><use fill="#469fa6" xlink:href="#h9hxe"/></g><g><use fill="#469fa6" xlink:href="#h9hxf"/></g><g><use fill="#469fa6" xlink:href="#h9hxg"/></g><g><use fill="#469fa6" xlink:href="#h9hxh"/></g><g><use fill="#469fa6" xlink:href="#h9hxi"/></g></g></g></svg>