<svg xmlns="http://www.w3.org/2000/svg" xmlns:xlink="http://www.w3.org/1999/xlink" width="48" height="48" viewBox="0 0 48 48"><defs><path id="w3fra" d="M560 2547h-40a4 4 0 0 1-4-4v-40a4 4 0 0 1 4-4h40a4 4 0 0 1 4 4v40a4 4 0 0 1-4 4"/><path id="w3frb" d="M552 2536h-24a1 1 0 0 1-1-1v-24a1 1 0 0 1 1-1h24a1 1 0 0 1 1 1v24a1 1 0 0 1-1 1"/><path id="w3frc" d="M536 2531l-4-4-1 5z"/><path id="w3frd" d="M546.707 2513.703l2.586 2.586a.999.999 0 0 1 0 1.414L538 2528.996l-4-4 11.293-11.293a.999.999 0 0 1 1.414 0"/></defs><g><g transform="translate(-516 -2499)"><g><use fill="#ffeeb8" xlink:href="#w3fra"/></g><g><use fill="#5dcbb6" xlink:href="#w3frb"/></g><g><use fill="#469fa6" xlink:href="#w3frc"/></g><g><use fill="#469fa6" xlink:href="#w3frd"/></g></g></g></svg>