<svg xmlns="http://www.w3.org/2000/svg" xmlns:xlink="http://www.w3.org/1999/xlink" width="48" height="48" viewBox="0 0 48 48"><defs><path id="ft4ea" d="M560 2712h-40a4 4 0 0 1-4-4v-40a4 4 0 0 1 4-4h40a4 4 0 0 1 4 4v40a4 4 0 0 1-4 4"/><path id="ft4eb" d="M522 2683a4 4 0 0 1 4-4h28a4 4 0 0 1 4 4v10a4 4 0 0 1-4 4h-28a4 4 0 0 1-4-4z"/><path id="ft4ec" d="M548.659 2686.832l-.195-2.832h2.426l-.22 2.832 2.572-1.094.76 2.31-2.72.646 1.79 2.16-1.912 1.441-1.497-2.409-1.47 2.409-1.912-1.44 1.79-2.136-2.721-.646.76-2.335z"/><path id="ft4ed" d="M538.979 2686.832l-.195-2.832h2.426l-.22 2.832 2.572-1.094.76 2.31-2.72.646 1.79 2.16-1.912 1.441-1.497-2.409-1.47 2.409-1.912-1.44 1.79-2.136-2.721-.646.76-2.335z"/><path id="ft4ee" d="M529.309 2686.832l-.195-2.832h2.426l-.22 2.832 2.572-1.094.76 2.31-2.72.646 1.79 2.16-1.912 1.441-1.497-2.409-1.47 2.409-1.912-1.44 1.79-2.136-2.721-.646.76-2.335z"/></defs><g><g transform="translate(-516 -2664)"><g><use fill="#ffeeb8" xlink:href="#ft4ea"/></g><g><use fill="#5dcbb6" xlink:href="#ft4eb"/></g><g><use fill="#469fa6" xlink:href="#ft4ec"/></g><g><use fill="#469fa6" xlink:href="#ft4ed"/></g><g><use fill="#469fa6" xlink:href="#ft4ee"/></g></g></g></svg>