<svg xmlns="http://www.w3.org/2000/svg" xmlns:xlink="http://www.w3.org/1999/xlink" width="224" height="224" viewBox="0 0 224 224"><defs><path id="8u5ba" d="M448 625a8 8 0 0 1 8-8h208a8 8 0 0 1 8 8v208a8 8 0 0 1-8 8H456a8 8 0 0 1-8-8z"/><path id="8u5bb" d="M484 771a2 2 0 0 1 2-2h148a2 2 0 0 1 2 2v14a2 2 0 0 1-2 2H486a2 2 0 0 1-2-2z"/><path id="8u5bc" d="M484 733a2 2 0 0 1 2-2h148a2 2 0 0 1 2 2v14a2 2 0 0 1-2 2H486a2 2 0 0 1-2-2z"/><path id="8u5bd" d="M484 673a2 2 0 0 1 2-2h148a2 2 0 0 1 2 2v36a2 2 0 0 1-2 2H486a2 2 0 0 1-2-2z"/><path id="8u5be" d="M571 688.345l-7.599-1.109-3.405-7.236-3.42 7.236-7.576 1.109 5.496 5.638L553.19 702l6.806-3.793 6.83 3.793-1.33-8.017z"/><path id="8u5bf" d="M597 688.345l-7.599-1.109-3.405-7.236-3.42 7.236-7.576 1.109 5.496 5.638L579.19 702l6.806-3.793 6.83 3.793-1.33-8.017z"/><path id="8u5bg" d="M519 688.345l-7.599-1.109-3.405-7.236-3.42 7.236-7.576 1.109 5.496 5.638L501.19 702l6.806-3.793 6.83 3.793-1.33-8.017z"/><path id="8u5bh" d="M623 688.345l-7.599-1.109-3.405-7.236-3.42 7.236-7.576 1.109 5.496 5.638L605.19 702l6.806-3.793 6.83 3.793-1.33-8.017z"/><path id="8u5bi" d="M545 688.345l-7.599-1.109-3.405-7.236-3.42 7.236-7.576 1.109 5.496 5.638L527.19 702l6.806-3.793 6.83 3.793-1.33-8.017z"/></defs><g><g transform="translate(-448 -617)"><g><use fill="#ffeeb8" xlink:href="#8u5ba"/></g><g opacity=".5"><use fill="#5dcbb6" xlink:href="#8u5bb"/></g><g><use fill="#5dcbb6" xlink:href="#8u5bc"/></g><g><g><use fill="#5dcbb6" xlink:href="#8u5bd"/></g><g><use fill="#469fa6" xlink:href="#8u5be"/></g><g><use fill="#469fa6" xlink:href="#8u5bf"/></g><g><use fill="#469fa6" xlink:href="#8u5bg"/></g><g><use fill="#469fa6" xlink:href="#8u5bh"/></g><g><use fill="#469fa6" xlink:href="#8u5bi"/></g></g></g></g></svg>