<svg xmlns="http://www.w3.org/2000/svg" xmlns:xlink="http://www.w3.org/1999/xlink" width="226" height="226" viewBox="0 0 226 226"><defs><path id="2qvwa" d="M1247 1436v-226h226v226zm113-1c61.856 0 112-50.144 112-112s-50.144-112-112-112-112 50.144-112 112 50.144 112 112 112z"/><path id="2qvwb" d="M1248 1323c0-61.856 50.144-112 112-112s112 50.144 112 112-50.144 112-112 112-112-50.144-112-112z"/><path id="2qvwc" d="M1289 1323c0-39.212 31.788-71 71-71s71 31.788 71 71-31.788 71-71 71-71-31.788-71-71z"/><path id="2qvwd" d="M1332 1323c0-15.464 12.536-28 28-28s28 12.536 28 28-12.536 28-28 28-28-12.536-28-28z"/><path id="2qvwi" d="M1397.67 1349.67a6 6 0 0 0-6 6v-4a6 6 0 0 0-12 0v-4a6 6 0 0 0-12 0v-20a6 6 0 0 0-12 0v50l-13.888-6.944a10.001 10.001 0 0 0-4.472-1.056 5.64 5.64 0 0 0-5.64 5.64v.024a5.64 5.64 0 0 0 1.652 4l25.864 25.864a28.96 28.96 0 0 0 20.484 8.472c13.255 0 24-10.745 24-24v-34a6 6 0 0 0-6-6z"/><path id="2qvwj" d="M1336.64 1371a3.656 3.656 0 0 0-2.575 6.24l25.864 25.864A26.8 26.8 0 0 0 1379 1411c12.144-.016 21.985-9.856 22-22v-34a4 4 0 1 0-8 0v10a2 2 0 0 1-4 0v-14a4 4 0 1 0-8 0v14a2 2 0 0 1-4 0v-18a4 4 0 1 0-8 0v18a2 2 0 0 1-4 0v-38a4 4 0 1 0-8 0v50a2 2 0 0 1-2.895 1.788l-13.904-6.944a8.035 8.035 0 0 0-3.56-.844zm42.36 44a30.76 30.76 0 0 1-21.895-9.068l-25.864-25.864a7.656 7.656 0 0 1 5.4-13.068c1.861.001 3.697.434 5.364 1.264l10.996 5.5V1327a8 8 0 0 1 16 0v13.076a8 8 0 0 1 11.551 4.28 8 8 0 0 1 12 4A8 8 0 0 1 1405 1355v34c-.017 14.352-11.648 25.982-26 26z"/><clipPath id="2qvwe"><use fill="#fff" xlink:href="#2qvwa"/></clipPath><clipPath id="2qvwf"><use fill="#fff" xlink:href="#2qvwb"/></clipPath><clipPath id="2qvwg"><use fill="#fff" xlink:href="#2qvwc"/></clipPath><clipPath id="2qvwh"><use fill="#fff" xlink:href="#2qvwd"/></clipPath></defs><g><g transform="translate(-1247 -1210)"><g><g><use fill="#fff" fill-opacity="0" stroke="#ebe3ca" stroke-miterlimit="50" stroke-width="2" clip-path="url(&quot;#2qvwe&quot;)" xlink:href="#2qvwb"/></g><g><use fill="#fff2c7" xlink:href="#2qvwb"/><use fill="#fff" fill-opacity="0" stroke="#fae7aa" stroke-miterlimit="50" stroke-width="44" clip-path="url(&quot;#2qvwf&quot;)" xlink:href="#2qvwb"/></g><g><use fill="#fff" fill-opacity="0" stroke="#fae7aa" stroke-miterlimit="50" stroke-width="44" clip-path="url(&quot;#2qvwg&quot;)" xlink:href="#2qvwc"/></g><g><use fill="#fae7aa" xlink:href="#2qvwd"/><use fill="#fff" fill-opacity="0" stroke="#fae7aa" stroke-miterlimit="50" stroke-width="44" clip-path="url(&quot;#2qvwh&quot;)" xlink:href="#2qvwd"/></g></g><g><g><use fill="#5dcbb6" xlink:href="#2qvwi"/></g><g><use fill="#469fa6" xlink:href="#2qvwj"/></g></g></g></g></svg>