<svg xmlns="http://www.w3.org/2000/svg" xmlns:xlink="http://www.w3.org/1999/xlink" width="96" height="96" viewBox="0 0 96 96"><defs><path id="yn94a" d="M912 1798c0-26.51 21.49-48 48-48s48 21.49 48 48-21.49 48-48 48-48-21.49-48-48z"/><path id="yn94b" d="M976 1798c0 8.837-7.164 16-16 16s-16-7.163-16-16 7.164-16 16-16 16 7.163 16 16"/><path id="yn94c" d="M968.791 1796.363h-8.581v3.478h4.939c-.46 2.209-2.386 3.477-4.939 3.477-3.014 0-5.442-2.373-5.442-5.318 0-2.946 2.428-5.319 5.442-5.319 1.297 0 2.47.451 3.391 1.187l2.679-2.618c-1.633-1.391-3.726-2.25-6.07-2.25-5.107 0-9.21 4.009-9.21 9s4.103 9 9.21 9c4.604 0 8.79-3.273 8.79-9a7.28 7.28 0 0 0-.209-1.637"/><path id="yn94d" d="M931.03 1777.409l5.969-2.41 2.41-5.969 5.742 14.121z"/><path id="yn94e" d="M980.592 1769.03l2.41 5.969 5.969 2.41-14.121 5.742z"/><path id="yn94f" d="M988.971 1818.591l-5.969 2.41-2.41 5.97-5.742-14.121z"/><path id="yn94g" d="M939.409 1826.971l-2.41-5.97-5.969-2.41 14.121-5.741z"/><path id="yn94h" d="M924.61 1794.656l3.965-5.071-.898-6.375 12.033 9.358z"/><path id="yn94i" d="M995.39 1801.35l-3.965 5.071.898 6.375-12.033-9.358z"/><path id="yn94j" d="M927.677 1812.796l.898-6.375-3.965-5.071 15.1 2.088z"/><path id="yn94k" d="M992.323 1783.21l-.897 6.374 3.964 5.072-15.1-2.088z"/></defs><g><g transform="translate(-912 -1750)"><g><use fill="#277a80" xlink:href="#yn94a"/></g><g><use fill="#ffe4a1" xlink:href="#yn94b"/></g><g><use fill="#5dcbb6" xlink:href="#yn94c"/></g><g><use fill="#ffe4a1" xlink:href="#yn94d"/></g><g><use fill="#ffe4a1" xlink:href="#yn94e"/></g><g><use fill="#ffe4a1" xlink:href="#yn94f"/></g><g><use fill="#ffe4a1" xlink:href="#yn94g"/></g><g><use fill="#ffe4a1" xlink:href="#yn94h"/></g><g><use fill="#ffe4a1" xlink:href="#yn94i"/></g><g><use fill="#ffe4a1" xlink:href="#yn94j"/></g><g><use fill="#ffe4a1" xlink:href="#yn94k"/></g></g></g></svg>