<svg xmlns="http://www.w3.org/2000/svg" xmlns:xlink="http://www.w3.org/1999/xlink" width="390" height="156" viewBox="0 0 390 156"><defs><path id="m89ta" d="M997.28 2641.863l2.434-5.866c.79-1.91-.116-4.1-2.027-4.891l-.95-.394a5.582 5.582 0 0 1-3.406-5.54 33.04 33.04 0 0 0-.01-4.315 5.582 5.582 0 0 1 3.403-5.581l.964-.4a3.746 3.746 0 0 0 2.026-4.892l-2.44-5.872a3.746 3.746 0 0 0-4.893-2.027l-1.032.429a5.591 5.591 0 0 1-6.338-1.51 32.924 32.924 0 0 0-3.011-3.007 5.584 5.584 0 0 1-1.528-6.339l.431-1.04a3.742 3.742 0 0 0-2.024-4.889h-.003l-5.865-2.435a3.746 3.746 0 0 0-4.893 2.027l-.472 1.142a5.586 5.586 0 0 1-5.527 3.405 33.249 33.249 0 0 0-4.17.017 5.595 5.595 0 0 1-5.587-3.404l-.48-1.17a3.744 3.744 0 0 0-4.892-2.025l-5.874 2.441a3.742 3.742 0 0 0-2.028 4.888l.002.002.51 1.231a5.592 5.592 0 0 1-1.524 6.34 32.557 32.557 0 0 0-2.902 2.906 5.59 5.59 0 0 1-6.333 1.515l-1.23-.51a3.742 3.742 0 0 0-4.889 2.025v.002l-2.436 5.865a3.744 3.744 0 0 0 2.026 4.891v.001l1.23.508a5.589 5.589 0 0 1 3.407 5.548 32.968 32.968 0 0 0 0 4.105 5.593 5.593 0 0 1-3.406 5.56l-1.23.508a3.745 3.745 0 0 0-2.027 4.892l2.44 5.873a3.747 3.747 0 0 0 4.894 2.026l1.16-.48a5.591 5.591 0 0 1 6.357 1.542 33.133 33.133 0 0 0 2.934 2.956 5.581 5.581 0 0 1 1.499 6.316l-.472 1.143a3.741 3.741 0 0 0 2.024 4.889h.001l5.867 2.435c1.91.791 4.1-.116 4.892-2.026l.43-1.04a5.584 5.584 0 0 1 5.565-3.402c1.415.095 2.836.1 4.252.013a5.589 5.589 0 0 1 5.557 3.405l.429 1.034a3.746 3.746 0 0 0 4.892 2.026l5.873-2.44a3.745 3.745 0 0 0 2.027-4.892l-.4-.964a5.585 5.585 0 0 1 1.542-6.352 33.164 33.164 0 0 0 3.059-3.045 5.581 5.581 0 0 1 6.325-1.509l.953.393a3.742 3.742 0 0 0 4.887-2.028l.006-.014zm-40.607 2.44c-11.755-1.946-19.707-13.051-17.76-24.804.539-3.259 1.819-6.35 3.742-9.035a21.352 21.352 0 0 1 20.97-8.684c11.754 1.945 19.705 13.049 17.76 24.801a21.568 21.568 0 0 1-3.742 9.034 21.353 21.353 0 0 1-20.979 8.688z"/><path id="m89tb" d="M960 2613c5.514 0 10 4.486 10 10s-4.486 10-10 10-10-4.486-10-10 4.486-10 10-10m0-6c-8.836 0-16 7.163-16 16 0 8.836 7.163 16 16 16 8.836 0 16-7.163 16-16 0-8.836-7.163-16-16-16"/><path id="m89tc" d="M1060 2623c13.2 0 24-10.8 24-24v-11"/><path id="m89td" d="M1084 2658v-11c0-13.2-10.8-24-24-24h-25"/><path id="m89te" d="M1039.701 2613l-4.247 9.998 4.247 9.998-23.701-9.998z"/><path id="m89tf" d="M860 2623c-13.2 0-24-10.8-24-24v-11"/><path id="m89tg" d="M836 2658v-11c0-13.2 10.8-24 24-24h25"/><path id="m89th" d="M880.3 2632.996l4.248-9.998L880.3 2613l23.701 9.998z"/><path id="m89ti" d="M765 2546a2 2 0 0 1 2-2h139a2 2 0 0 1 2 2v30a2 2 0 0 1-2 2H767a2 2 0 0 1-2-2z"/><path id="m89tj" d="M839.12 2557.526l-3.047-6.476a.082.082 0 0 0-.116-.04.096.096 0 0 0-.04.04l-3.06 6.476-6.785.992c-.044.008-.076.052-.072.1.004.02.012.04.028.056l4.917 5.043-1.169 7.176a.09.09 0 0 0 .076.104.08.08 0 0 0 .052-.008l6.093-3.392 6.112 3.392c.044.024.096.008.116-.036.012-.02.012-.04.012-.06l-1.192-7.176 4.928-5.043a.094.094 0 0 0 0-.132.091.091 0 0 0-.048-.024z"/><path id="m89tk" d="M865.12 2557.526l-3.047-6.476a.082.082 0 0 0-.116-.04.096.096 0 0 0-.04.04l-3.06 6.476-6.785.992c-.044.008-.076.052-.072.1.004.02.012.04.028.056l4.917 5.043-1.169 7.176a.09.09 0 0 0 .076.104.08.08 0 0 0 .052-.008l6.093-3.392 6.112 3.392c.044.024.096.008.116-.036.012-.02.012-.04.012-.06l-1.192-7.176 4.928-5.043a.094.094 0 0 0 0-.132.091.091 0 0 0-.048-.024z"/><path id="m89tl" d="M788.12 2557.526l-3.047-6.476a.082.082 0 0 0-.116-.04.096.096 0 0 0-.04.04l-3.06 6.476-6.785.992c-.044.008-.076.052-.072.1.004.02.012.04.028.056l4.917 5.043-1.169 7.176a.09.09 0 0 0 .076.104.08.08 0 0 0 .052-.008l6.093-3.392 6.112 3.392c.044.024.096.008.116-.036.012-.02.012-.04.012-.06l-1.192-7.176 4.928-5.043a.094.094 0 0 0 0-.132.091.091 0 0 0-.048-.024z"/><path id="m89tm" d="M891.12 2557.526l-3.047-6.476a.082.082 0 0 0-.116-.04.096.096 0 0 0-.04.04l-3.06 6.476-6.785.992c-.044.008-.076.052-.072.1.004.02.012.04.028.056l4.917 5.043-1.169 7.176a.09.09 0 0 0 .076.104.08.08 0 0 0 .052-.008l6.093-3.392 6.112 3.392c.044.024.096.008.116-.036.012-.02.012-.04.012-.06l-1.192-7.176 4.928-5.043a.094.094 0 0 0 0-.132.091.091 0 0 0-.048-.024z"/><path id="m89tn" d="M814.12 2557.526l-3.047-6.476a.082.082 0 0 0-.116-.04.096.096 0 0 0-.04.04l-3.06 6.476-6.785.992c-.044.008-.076.052-.072.1.004.02.012.04.028.056l4.917 5.043-1.169 7.176a.09.09 0 0 0 .076.104.08.08 0 0 0 .052-.008l6.093-3.392 6.112 3.392c.044.024.096.008.116-.036.012-.02.012-.04.012-.06l-1.192-7.176 4.928-5.043a.094.094 0 0 0 0-.132.091.091 0 0 0-.048-.024z"/><path id="m89to" d="M765 2668a2 2 0 0 1 2-2h139a2 2 0 0 1 2 2v30a2 2 0 0 1-2 2H767a2 2 0 0 1-2-2z"/><path id="m89tp" d="M839.12 2679.526l-3.047-6.476a.082.082 0 0 0-.116-.04.096.096 0 0 0-.04.04l-3.06 6.476-6.785.992c-.044.008-.076.052-.072.1.004.02.012.04.028.056l4.917 5.043-1.169 7.176a.09.09 0 0 0 .076.104.08.08 0 0 0 .052-.008l6.093-3.392 6.112 3.392c.044.024.096.008.116-.036.012-.02.012-.04.012-.06l-1.192-7.176 4.928-5.043a.094.094 0 0 0 0-.132.091.091 0 0 0-.048-.024z"/><path id="m89tq" d="M865.12 2679.526l-3.047-6.476a.082.082 0 0 0-.116-.04.096.096 0 0 0-.04.04l-3.06 6.476-6.785.992c-.044.008-.076.052-.072.1.004.02.012.04.028.056l4.917 5.043-1.169 7.176a.09.09 0 0 0 .076.104.08.08 0 0 0 .052-.008l6.093-3.392 6.112 3.392c.044.024.096.008.116-.036.012-.02.012-.04.012-.06l-1.192-7.176 4.928-5.043a.094.094 0 0 0 0-.132.091.091 0 0 0-.048-.024z"/><path id="m89tr" d="M788.12 2679.526l-3.047-6.476a.082.082 0 0 0-.116-.04.096.096 0 0 0-.04.04l-3.06 6.476-6.785.992c-.044.008-.076.052-.072.1.004.02.012.04.028.056l4.917 5.043-1.169 7.176a.09.09 0 0 0 .076.104.08.08 0 0 0 .052-.008l6.093-3.392 6.112 3.392c.044.024.096.008.116-.036.012-.02.012-.04.012-.06l-1.192-7.176 4.928-5.043a.094.094 0 0 0 0-.132.091.091 0 0 0-.048-.024z"/><path id="m89ts" d="M891.12 2679.526l-3.047-6.476a.082.082 0 0 0-.116-.04.096.096 0 0 0-.04.04l-3.06 6.476-6.785.992c-.044.008-.076.052-.072.1.004.02.012.04.028.056l4.917 5.043-1.169 7.176a.09.09 0 0 0 .076.104.08.08 0 0 0 .052-.008l6.093-3.392 6.112 3.392c.044.024.096.008.116-.036.012-.02.012-.04.012-.06l-1.192-7.176 4.928-5.043a.094.094 0 0 0 0-.132.091.091 0 0 0-.048-.024z"/><path id="m89tt" d="M814.12 2679.526l-3.047-6.476a.082.082 0 0 0-.116-.04.096.096 0 0 0-.04.04l-3.06 6.476-6.785.992c-.044.008-.076.052-.072.1.004.02.012.04.028.056l4.917 5.043-1.169 7.176a.09.09 0 0 0 .076.104.08.08 0 0 0 .052-.008l6.093-3.392 6.112 3.392c.044.024.096.008.116-.036.012-.02.012-.04.012-.06l-1.192-7.176 4.928-5.043a.094.094 0 0 0 0-.132.091.091 0 0 0-.048-.024z"/><path id="m89tu" d="M1012 2546a2 2 0 0 1 2-2h139a2 2 0 0 1 2 2v30a2 2 0 0 1-2 2h-139a2 2 0 0 1-2-2z"/><path id="m89tv" d="M1086.12 2557.526l-3.047-6.476a.082.082 0 0 0-.116-.04.096.096 0 0 0-.04.04l-3.06 6.476-6.785.992c-.044.008-.076.052-.072.1.004.02.012.04.028.056l4.917 5.043-1.169 7.176a.09.09 0 0 0 .076.104.08.08 0 0 0 .052-.008l6.093-3.392 6.112 3.392c.044.024.096.008.116-.036.012-.02.012-.04.012-.06l-1.192-7.176 4.928-5.043a.094.094 0 0 0 0-.132.091.091 0 0 0-.048-.024z"/><path id="m89tw" d="M1112.12 2557.526l-3.047-6.476a.082.082 0 0 0-.116-.04.096.096 0 0 0-.04.04l-3.06 6.476-6.785.992c-.044.008-.076.052-.072.1.004.02.012.04.028.056l4.917 5.043-1.169 7.176a.09.09 0 0 0 .076.104.08.08 0 0 0 .052-.008l6.093-3.392 6.112 3.392c.044.024.096.008.116-.036.012-.02.012-.04.012-.06l-1.192-7.176 4.928-5.043a.094.094 0 0 0 0-.132.091.091 0 0 0-.048-.024z"/><path id="m89tx" d="M1035.12 2557.526l-3.047-6.476a.082.082 0 0 0-.116-.04.096.096 0 0 0-.04.04l-3.06 6.476-6.785.992c-.044.008-.076.052-.072.1.004.02.012.04.028.056l4.917 5.043-1.169 7.176a.09.09 0 0 0 .076.104.08.08 0 0 0 .052-.008l6.093-3.392 6.112 3.392c.044.024.096.008.116-.036.012-.02.012-.04.012-.06l-1.192-7.176 4.928-5.043a.094.094 0 0 0 0-.132.091.091 0 0 0-.048-.024z"/><path id="m89ty" d="M1138.12 2557.526l-3.047-6.476a.082.082 0 0 0-.116-.04.096.096 0 0 0-.04.04l-3.06 6.476-6.785.992c-.044.008-.076.052-.072.1.004.02.012.04.028.056l4.917 5.043-1.169 7.176a.09.09 0 0 0 .076.104.08.08 0 0 0 .052-.008l6.093-3.392 6.112 3.392c.044.024.096.008.116-.036.012-.02.012-.04.012-.06l-1.192-7.176 4.928-5.043a.094.094 0 0 0 0-.132.091.091 0 0 0-.048-.024z"/><path id="m89tz" d="M1061.12 2557.526l-3.047-6.476a.082.082 0 0 0-.116-.04.096.096 0 0 0-.04.04l-3.06 6.476-6.785.992c-.044.008-.076.052-.072.1.004.02.012.04.028.056l4.917 5.043-1.169 7.176a.09.09 0 0 0 .076.104.08.08 0 0 0 .052-.008l6.093-3.392 6.112 3.392c.044.024.096.008.116-.036.012-.02.012-.04.012-.06l-1.192-7.176 4.928-5.043a.094.094 0 0 0 0-.132.091.091 0 0 0-.048-.024z"/><path id="m89tA" d="M1012 2668a2 2 0 0 1 2-2h139a2 2 0 0 1 2 2v30a2 2 0 0 1-2 2h-139a2 2 0 0 1-2-2z"/><path id="m89tB" d="M1086.12 2679.526l-3.047-6.476a.082.082 0 0 0-.116-.04.096.096 0 0 0-.04.04l-3.06 6.476-6.785.992c-.044.008-.076.052-.072.1.004.02.012.04.028.056l4.917 5.043-1.169 7.176a.09.09 0 0 0 .076.104.08.08 0 0 0 .052-.008l6.093-3.392 6.112 3.392c.044.024.096.008.116-.036.012-.02.012-.04.012-.06l-1.192-7.176 4.928-5.043a.094.094 0 0 0 0-.132.091.091 0 0 0-.048-.024z"/><path id="m89tC" d="M1112.12 2679.526l-3.047-6.476a.082.082 0 0 0-.116-.04.096.096 0 0 0-.04.04l-3.06 6.476-6.785.992c-.044.008-.076.052-.072.1.004.02.012.04.028.056l4.917 5.043-1.169 7.176a.09.09 0 0 0 .076.104.08.08 0 0 0 .052-.008l6.093-3.392 6.112 3.392c.044.024.096.008.116-.036.012-.02.012-.04.012-.06l-1.192-7.176 4.928-5.043a.094.094 0 0 0 0-.132.091.091 0 0 0-.048-.024z"/><path id="m89tD" d="M1035.12 2679.526l-3.047-6.476a.082.082 0 0 0-.116-.04.096.096 0 0 0-.04.04l-3.06 6.476-6.785.992c-.044.008-.076.052-.072.1.004.02.012.04.028.056l4.917 5.043-1.169 7.176a.09.09 0 0 0 .076.104.08.08 0 0 0 .052-.008l6.093-3.392 6.112 3.392c.044.024.096.008.116-.036.012-.02.012-.04.012-.06l-1.192-7.176 4.928-5.043a.094.094 0 0 0 0-.132.091.091 0 0 0-.048-.024z"/><path id="m89tE" d="M1138.12 2679.526l-3.047-6.476a.082.082 0 0 0-.116-.04.096.096 0 0 0-.04.04l-3.06 6.476-6.785.992c-.044.008-.076.052-.072.1.004.02.012.04.028.056l4.917 5.043-1.169 7.176a.09.09 0 0 0 .076.104.08.08 0 0 0 .052-.008l6.093-3.392 6.112 3.392c.044.024.096.008.116-.036.012-.02.012-.04.012-.06l-1.192-7.176 4.928-5.043a.094.094 0 0 0 0-.132.091.091 0 0 0-.048-.024z"/><path id="m89tF" d="M1061.12 2679.526l-3.047-6.476a.082.082 0 0 0-.116-.04.096.096 0 0 0-.04.04l-3.06 6.476-6.785.992c-.044.008-.076.052-.072.1.004.02.012.04.028.056l4.917 5.043-1.169 7.176a.09.09 0 0 0 .076.104.08.08 0 0 0 .052-.008l6.093-3.392 6.112 3.392c.044.024.096.008.116-.036.012-.02.012-.04.012-.06l-1.192-7.176 4.928-5.043a.094.094 0 0 0 0-.132.091.091 0 0 0-.048-.024z"/></defs><g><g transform="translate(-765 -2544)"><g><g><use fill="#ffeeb8" xlink:href="#m89ta"/></g><g><use fill="#5dcbb6" xlink:href="#m89tb"/></g></g><g><g><use fill="#fff" fill-opacity="0" stroke="#ffeeb8" stroke-miterlimit="50" stroke-width="6" xlink:href="#m89tc"/></g><g><use fill="#fff" fill-opacity="0" stroke="#ffeeb8" stroke-miterlimit="50" stroke-width="6" xlink:href="#m89td"/></g><g><use fill="#ffeeb8" xlink:href="#m89te"/></g><g><use fill="#fff" fill-opacity="0" stroke="#ffeeb8" stroke-miterlimit="50" stroke-width="6" xlink:href="#m89tf"/></g><g><use fill="#fff" fill-opacity="0" stroke="#ffeeb8" stroke-miterlimit="50" stroke-width="6" xlink:href="#m89tg"/></g><g><use fill="#ffeeb8" xlink:href="#m89th"/></g></g><g><g opacity=".8"><use fill="#5dcbb6" xlink:href="#m89ti"/></g><g opacity=".8"><use fill="#469fa6" xlink:href="#m89tj"/></g><g opacity=".8"><use fill="#469fa6" xlink:href="#m89tk"/></g><g opacity=".8"><use fill="#469fa6" xlink:href="#m89tl"/></g><g opacity=".4"><use fill="#469fa6" xlink:href="#m89tm"/></g><g opacity=".8"><use fill="#469fa6" xlink:href="#m89tn"/></g></g><g><g opacity=".8"><use fill="#5dcbb6" xlink:href="#m89to"/></g><g opacity=".8"><use fill="#469fa6" xlink:href="#m89tp"/></g><g opacity=".8"><use fill="#469fa6" xlink:href="#m89tq"/></g><g opacity=".8"><use fill="#469fa6" xlink:href="#m89tr"/></g><g opacity=".8"><use fill="#469fa6" xlink:href="#m89ts"/></g><g opacity=".8"><use fill="#469fa6" xlink:href="#m89tt"/></g></g><g><g opacity=".8"><use fill="#5dcbb6" xlink:href="#m89tu"/></g><g opacity=".8"><use fill="#469fa6" xlink:href="#m89tv"/></g><g opacity=".8"><use fill="#469fa6" xlink:href="#m89tw"/></g><g opacity=".8"><use fill="#469fa6" xlink:href="#m89tx"/></g><g opacity=".8"><use fill="#469fa6" xlink:href="#m89ty"/></g><g opacity=".8"><use fill="#469fa6" xlink:href="#m89tz"/></g></g><g><g opacity=".8"><use fill="#5dcbb6" xlink:href="#m89tA"/></g><g opacity=".8"><use fill="#469fa6" xlink:href="#m89tB"/></g><g opacity=".8"><use fill="#469fa6" xlink:href="#m89tC"/></g><g opacity=".8"><use fill="#469fa6" xlink:href="#m89tD"/></g><g opacity=".4"><use fill="#469fa6" xlink:href="#m89tE"/></g><g opacity=".8"><use fill="#469fa6" xlink:href="#m89tF"/></g></g></g></g></svg>