<svg xmlns="http://www.w3.org/2000/svg" xmlns:xlink="http://www.w3.org/1999/xlink" width="48" height="48" viewBox="0 0 48 48"><defs><path id="ah2xa" d="M1400 2712h-40a4 4 0 0 1-4-4v-40a4 4 0 0 1 4-4h40a4 4 0 0 1 4 4v40a4 4 0 0 1-4 4"/><path id="ah2xb" d="M1364.615 2686.401l6.125 14a1 1 0 0 0 .916.599h16.691a.999.999 0 0 0 .916-.599l6.125-14a1 1 0 0 0-.916-1.401h-28.941a1 1 0 0 0-.916 1.401"/><path id="ah2xc" d="M1370 2685.998l10.063-9.938 9.937 9.938"/><path id="ah2xd" d="M1380 2690v7"/><path id="ah2xe" d="M1372.6 2690l2.801 7"/><path id="ah2xf" d="M1387.8 2690l-2.8 7"/></defs><g><g transform="translate(-1356 -2664)"><g><use fill="#ffeeb8" xlink:href="#ah2xa"/></g><g><use fill="#5dcbb6" xlink:href="#ah2xb"/></g><g><use fill="#fff" fill-opacity="0" stroke="#5dcbb6" stroke-linejoin="round" stroke-miterlimit="50" stroke-width="3" xlink:href="#ah2xc"/></g><g><use fill="#fff" fill-opacity="0" stroke="#469fa6" stroke-linecap="round" stroke-miterlimit="50" stroke-width="2" xlink:href="#ah2xd"/></g><g><use fill="#fff" fill-opacity="0" stroke="#469fa6" stroke-linecap="round" stroke-miterlimit="50" stroke-width="2" xlink:href="#ah2xe"/></g><g><use fill="#fff" fill-opacity="0" stroke="#469fa6" stroke-linecap="round" stroke-miterlimit="50" stroke-width="2" xlink:href="#ah2xf"/></g></g></g></svg>