<svg xmlns="http://www.w3.org/2000/svg" xmlns:xlink="http://www.w3.org/1999/xlink" width="1920" height="470" viewBox="0 0 1920 470"><defs><path id="a8l1a" d="M626 237c0-368.926 299.074-668 668-668s668 299.074 668 668-299.074 668-668 668-668-299.074-668-668z"/><path id="a8l1b" d="M0 470V0h1920v470z"/><path id="a8l1e" d="M0 470h1920V0H0z"/><path id="a8l1f" d="M1294-432V904"/><path id="a8l1g" d="M626 236h1336"/><path id="a8l1h" d="M960-342.5l668 1157.01"/><path id="a8l1i" d="M715.5 570L1872.51-98"/><path id="a8l1j" d="M715.5-98l1157.01 668"/><path id="a8l1k" d="M960 814.5l668-1157.01"/><path id="a8l1l" d="M737 237c0-307.623 249.377-557 557-557s557 249.377 557 557-249.377 557-557 557-557-249.377-557-557z"/><path id="a8l1m" d="M848 237c0-246.319 199.681-446 446-446s446 199.681 446 446-199.681 446-446 446-446-199.681-446-446z"/><path id="a8l1n" d="M959 237c0-185.015 149.985-335 335-335s335 149.985 335 335-149.985 335-335 335-335-149.985-335-335z"/><path id="a8l1o" d="M1066 236c0-125.92 102.08-228 228-228s228 102.08 228 228-102.08 228-228 228-228-102.08-228-228z"/><path id="a8l1p" d="M1178 236c0-64.065 51.935-116 116-116s116 51.935 116 116-51.935 116-116 116-116-51.935-116-116z"/><path id="a8l1s" d="M1294 237l33-956a956 956 0 0 0-33 0z"/><path id="a8l1c" d="M1502.309-399.57L1294 238l634.49 207.321c114.945-350.562-75.62-729.945-426.181-844.891z"/><path id="a8l1u" d="M1294 236l634.93 207.307"/><path id="a8l1w" d="M1286.95 239l633.052 203.846"/><path id="a8l1x" d="M1299 236a5 5 0 1 0-10 0 5 5 0 0 0 10 0z"/><path id="a8l1y" d="M1787.681 329.789l-4.572-9.714a.123.123 0 0 0-.174-.06.145.145 0 0 0-.06.06l-4.59 9.714-10.176 1.488c-.066.012-.114.078-.108.15a.16.16 0 0 0 .042.084l7.374 7.565-1.752 10.763a.135.135 0 0 0 .114.156.12.12 0 0 0 .078-.012l9.138-5.087 9.168 5.087c.066.036.144.012.174-.054.018-.03.018-.06.018-.09l-1.788-10.763 7.393-7.565a.141.141 0 0 0 0-.198.137.137 0 0 0-.072-.036z"/><path id="a8l1z" d="M1579.745 204.831l-3.658-7.77a.099.099 0 0 0-.139-.049.116.116 0 0 0-.048.048l-3.672 7.771-8.141 1.19c-.053.01-.091.063-.087.12a.128.128 0 0 0 .034.067l5.9 6.053-1.402 8.61a.108.108 0 0 0 .091.125c.02.005.043 0 .062-.01l7.311-4.07 7.335 4.07c.052.03.115.01.139-.043a.13.13 0 0 0 .014-.072l-1.43-8.61 5.914-6.053a.113.113 0 0 0 0-.158.11.11 0 0 0-.058-.029z"/><mask id="a8l1r"><use fill="#fff" xlink:href="#a8l1a"/></mask><filter id="a8l1q" width="140%" height="140%" x="-10%" y="-10%" filterUnits="objectBoundingBox"><feGaussianBlur in="SourceGraphic" result="FeGaussianBlur5489Out" stdDeviation="4 4"/></filter><filter id="a8l1v" width="144%" height="148%" x="-12%" y="-14%" filterUnits="objectBoundingBox"><feGaussianBlur in="SourceGraphic" result="FeGaussianBlur5505Out" stdDeviation="5 5"/></filter><radialGradient id="a8l1A" cx="620.5" cy="219.99" r="1337.17" gradientUnits="userSpaceOnUse"><stop offset="0" stop-color="#fff" stop-opacity="0"/><stop offset="1" stop-opacity=".33"/></radialGradient><clipPath id="a8l1d"><use xlink:href="#a8l1b"/></clipPath><clipPath id="a8l1t"><use xlink:href="#a8l1c"/></clipPath></defs><g><g><g><g/><g clip-path="url(#a8l1d)"><use fill="#163942" xlink:href="#a8l1e"/></g><g clip-path="url(#a8l1d)"><g><use fill="#fff" fill-opacity="0" stroke="#1b4851" stroke-miterlimit="50" stroke-width="2" xlink:href="#a8l1f"/></g><g><use fill="#fff" fill-opacity="0" stroke="#1b4851" stroke-miterlimit="50" stroke-width="2" xlink:href="#a8l1g"/></g><g><use fill="#fff" fill-opacity="0" stroke="#1b4851" stroke-miterlimit="50" stroke-width="2" xlink:href="#a8l1h"/></g><g><use fill="#fff" fill-opacity="0" stroke="#1b4851" stroke-miterlimit="50" stroke-width="2" xlink:href="#a8l1i"/></g><g><use fill="#fff" fill-opacity="0" stroke="#1b4851" stroke-miterlimit="50" stroke-width="2" xlink:href="#a8l1j"/></g><g><use fill="#fff" fill-opacity="0" stroke="#1b4851" stroke-miterlimit="50" stroke-width="2" xlink:href="#a8l1k"/></g></g><g clip-path="url(#a8l1d)"><g><use fill="#fff" fill-opacity="0" stroke="#1b4851" stroke-miterlimit="50" stroke-width="2" xlink:href="#a8l1a"/></g><g><use fill="#fff" fill-opacity="0" stroke="#1b4851" stroke-miterlimit="50" stroke-width="2" xlink:href="#a8l1l"/></g><g><use fill="#fff" fill-opacity="0" stroke="#1b4851" stroke-miterlimit="50" stroke-width="2" xlink:href="#a8l1m"/></g><g><use fill="#fff" fill-opacity="0" stroke="#1b4851" stroke-miterlimit="50" stroke-width="2" xlink:href="#a8l1n"/></g><g><use fill="#fff" fill-opacity="0" stroke="#1b4851" stroke-miterlimit="50" stroke-width="2" xlink:href="#a8l1o"/></g><g><use fill="#fff" fill-opacity="0" stroke="#1b4851" stroke-miterlimit="50" stroke-width="2" xlink:href="#a8l1p"/></g></g><g clip-path="url(#a8l1d)"><g filter="url(#a8l1q)" transform="rotate(18 1294 237)"><g mask="url(&quot;#a8l1r&quot;)"><g transform="rotate(90 1294 237)"><use fill="rgba(0,161,201,0)" xlink:href="#a8l1s"/><use fill="rgba(0,161,201,0.001)" transform="rotate(1 1294 237)" xlink:href="#a8l1s"/><use fill="rgba(0,161,201,0.001)" transform="rotate(2 1294 237)" xlink:href="#a8l1s"/><use fill="rgba(0,161,201,0.002)" transform="rotate(3 1294 237)" xlink:href="#a8l1s"/><use fill="rgba(0,161,201,0.002)" transform="rotate(4 1294 237)" xlink:href="#a8l1s"/><use fill="rgba(0,161,201,0.003)" transform="rotate(5 1294 237)" xlink:href="#a8l1s"/><use fill="rgba(0,161,201,0.003)" transform="rotate(6 1294 237)" xlink:href="#a8l1s"/><use fill="rgba(0,161,201,0.004)" transform="rotate(7 1294 237)" xlink:href="#a8l1s"/><use fill="rgba(0,161,201,0.004)" transform="rotate(8 1294 237)" xlink:href="#a8l1s"/><use fill="rgba(0,161,201,0.005)" transform="rotate(9 1294 237)" xlink:href="#a8l1s"/><use fill="rgba(0,161,201,0.005)" transform="rotate(10 1294 237)" xlink:href="#a8l1s"/><use fill="rgba(0,161,201,0.006)" transform="rotate(11 1294 237)" xlink:href="#a8l1s"/><use fill="rgba(0,161,201,0.007)" transform="rotate(12 1294 237)" xlink:href="#a8l1s"/><use fill="rgba(0,161,201,0.007)" transform="rotate(13 1294 237)" xlink:href="#a8l1s"/><use fill="rgba(0,161,201,0.008)" transform="rotate(14 1294 237)" xlink:href="#a8l1s"/><use fill="rgba(0,161,201,0.008)" transform="rotate(15 1294 237)" xlink:href="#a8l1s"/><use fill="rgba(0,161,201,0.009)" transform="rotate(16 1294 237)" xlink:href="#a8l1s"/><use fill="rgba(0,161,201,0.009)" transform="rotate(17 1294 237)" xlink:href="#a8l1s"/><use fill="rgba(0,161,201,0.01)" transform="rotate(18 1294 237)" xlink:href="#a8l1s"/><use fill="rgba(0,161,201,0.01)" transform="rotate(19 1294 237)" xlink:href="#a8l1s"/><use fill="rgba(0,161,201,0.011)" transform="rotate(20 1294 237)" xlink:href="#a8l1s"/><use fill="rgba(0,161,201,0.012)" transform="rotate(21 1294 237)" xlink:href="#a8l1s"/><use fill="rgba(0,161,201,0.012)" transform="rotate(22 1294 237)" xlink:href="#a8l1s"/><use fill="rgba(0,161,201,0.013)" transform="rotate(23 1294 237)" xlink:href="#a8l1s"/><use fill="rgba(0,161,201,0.013)" transform="rotate(24 1294 237)" xlink:href="#a8l1s"/><use fill="rgba(0,161,201,0.014)" transform="rotate(25 1294 237)" xlink:href="#a8l1s"/><use fill="rgba(0,161,201,0.014)" transform="rotate(26 1294 237)" xlink:href="#a8l1s"/><use fill="rgba(0,161,201,0.015)" transform="rotate(27 1294 237)" xlink:href="#a8l1s"/><use fill="rgba(0,161,201,0.015)" transform="rotate(28 1294 237)" xlink:href="#a8l1s"/><use fill="rgba(0,161,201,0.016)" transform="rotate(29 1294 237)" xlink:href="#a8l1s"/><use fill="rgba(0,161,201,0.016)" transform="rotate(30 1294 237)" xlink:href="#a8l1s"/><use fill="rgba(0,161,201,0.017)" transform="rotate(31 1294 237)" xlink:href="#a8l1s"/><use fill="rgba(0,161,201,0.018)" transform="rotate(32 1294 237)" xlink:href="#a8l1s"/><use fill="rgba(0,161,201,0.018)" transform="rotate(33 1294 237)" xlink:href="#a8l1s"/><use fill="rgba(0,161,201,0.019)" transform="rotate(34 1294 237)" xlink:href="#a8l1s"/><use fill="rgba(0,161,201,0.019)" transform="rotate(35 1294 237)" xlink:href="#a8l1s"/><use fill="rgba(0,161,201,0.02)" transform="rotate(36 1294 237)" xlink:href="#a8l1s"/><use fill="rgba(0,161,201,0.02)" transform="rotate(37 1294 237)" xlink:href="#a8l1s"/><use fill="rgba(0,161,201,0.021)" transform="rotate(38 1294 237)" xlink:href="#a8l1s"/><use fill="rgba(0,161,201,0.021)" transform="rotate(39 1294 237)" xlink:href="#a8l1s"/><use fill="rgba(0,161,201,0.022)" transform="rotate(40 1294 237)" xlink:href="#a8l1s"/><use fill="rgba(0,161,201,0.023)" transform="rotate(41 1294 237)" xlink:href="#a8l1s"/><use fill="rgba(0,161,201,0.023)" transform="rotate(42 1294 237)" xlink:href="#a8l1s"/><use fill="rgba(0,161,201,0.024)" transform="rotate(43 1294 237)" xlink:href="#a8l1s"/><use fill="rgba(0,161,201,0.024)" transform="rotate(44 1294 237)" xlink:href="#a8l1s"/><use fill="rgba(0,161,201,0.025)" transform="rotate(45 1294 237)" xlink:href="#a8l1s"/><use fill="rgba(0,161,201,0.025)" transform="rotate(46 1294 237)" xlink:href="#a8l1s"/><use fill="rgba(0,161,201,0.026)" transform="rotate(47 1294 237)" xlink:href="#a8l1s"/><use fill="rgba(0,161,201,0.026)" transform="rotate(48 1294 237)" xlink:href="#a8l1s"/><use fill="rgba(0,161,201,0.027)" transform="rotate(49 1294 237)" xlink:href="#a8l1s"/><use fill="rgba(0,161,201,0.027)" transform="rotate(50 1294 237)" xlink:href="#a8l1s"/><use fill="rgba(0,161,201,0.028)" transform="rotate(51 1294 237)" xlink:href="#a8l1s"/><use fill="rgba(0,161,201,0.029)" transform="rotate(52 1294 237)" xlink:href="#a8l1s"/><use fill="rgba(0,161,201,0.029)" transform="rotate(53 1294 237)" xlink:href="#a8l1s"/><use fill="rgba(0,161,201,0.03)" transform="rotate(54 1294 237)" xlink:href="#a8l1s"/><use fill="rgba(0,161,201,0.03)" transform="rotate(55 1294 237)" xlink:href="#a8l1s"/><use fill="rgba(0,161,201,0.031)" transform="rotate(56 1294 237)" xlink:href="#a8l1s"/><use fill="rgba(0,161,201,0.031)" transform="rotate(57 1294 237)" xlink:href="#a8l1s"/><use fill="rgba(0,161,201,0.032)" transform="rotate(58 1294 237)" xlink:href="#a8l1s"/><use fill="rgba(0,161,201,0.032)" transform="rotate(59 1294 237)" xlink:href="#a8l1s"/><use fill="rgba(0,161,201,0.033)" transform="rotate(60 1294 237)" xlink:href="#a8l1s"/><use fill="rgba(0,161,201,0.033)" transform="rotate(61 1294 237)" xlink:href="#a8l1s"/><use fill="rgba(0,161,201,0.034)" transform="rotate(62 1294 237)" xlink:href="#a8l1s"/><use fill="rgba(0,161,201,0.035)" transform="rotate(63 1294 237)" xlink:href="#a8l1s"/><use fill="rgba(0,161,201,0.035)" transform="rotate(64 1294 237)" xlink:href="#a8l1s"/><use fill="rgba(0,161,201,0.036)" transform="rotate(65 1294 237)" xlink:href="#a8l1s"/><use fill="rgba(0,161,201,0.036)" transform="rotate(66 1294 237)" xlink:href="#a8l1s"/><use fill="rgba(0,161,201,0.037)" transform="rotate(67 1294 237)" xlink:href="#a8l1s"/><use fill="rgba(0,161,201,0.037)" transform="rotate(68 1294 237)" xlink:href="#a8l1s"/><use fill="rgba(0,161,201,0.038)" transform="rotate(69 1294 237)" xlink:href="#a8l1s"/><use fill="rgba(0,161,201,0.038)" transform="rotate(70 1294 237)" xlink:href="#a8l1s"/><use fill="rgba(0,161,201,0.039)" transform="rotate(71 1294 237)" xlink:href="#a8l1s"/><use fill="rgba(0,161,201,0.04)" transform="rotate(72 1294 237)" xlink:href="#a8l1s"/><use fill="rgba(0,161,201,0.04)" transform="rotate(73 1294 237)" xlink:href="#a8l1s"/><use fill="rgba(0,161,201,0.041)" transform="rotate(74 1294 237)" xlink:href="#a8l1s"/><use fill="rgba(0,161,201,0.041)" transform="rotate(75 1294 237)" xlink:href="#a8l1s"/><use fill="rgba(0,161,201,0.042)" transform="rotate(76 1294 237)" xlink:href="#a8l1s"/><use fill="rgba(0,161,201,0.042)" transform="rotate(77 1294 237)" xlink:href="#a8l1s"/><use fill="rgba(0,161,201,0.043)" transform="rotate(78 1294 237)" xlink:href="#a8l1s"/><use fill="rgba(0,161,201,0.043)" transform="rotate(79 1294 237)" xlink:href="#a8l1s"/><use fill="rgba(0,161,201,0.044)" transform="rotate(80 1294 237)" xlink:href="#a8l1s"/><use fill="rgba(0,161,201,0.044)" transform="rotate(81 1294 237)" xlink:href="#a8l1s"/><use fill="rgba(0,161,201,0.045)" transform="rotate(82 1294 237)" xlink:href="#a8l1s"/><use fill="rgba(0,161,201,0.046)" transform="rotate(83 1294 237)" xlink:href="#a8l1s"/><use fill="rgba(0,161,201,0.046)" transform="rotate(84 1294 237)" xlink:href="#a8l1s"/><use fill="rgba(0,161,201,0.047)" transform="rotate(85 1294 237)" xlink:href="#a8l1s"/><use fill="rgba(0,161,201,0.047)" transform="rotate(86 1294 237)" xlink:href="#a8l1s"/><use fill="rgba(0,161,201,0.048)" transform="rotate(87 1294 237)" xlink:href="#a8l1s"/><use fill="rgba(0,161,201,0.048)" transform="rotate(88 1294 237)" xlink:href="#a8l1s"/><use fill="rgba(0,161,201,0.049)" transform="rotate(89 1294 237)" xlink:href="#a8l1s"/><use fill="rgba(0,161,201,0.049)" transform="rotate(90 1294 237)" xlink:href="#a8l1s"/><use fill="rgba(0,161,201,0.05)" transform="rotate(91 1294 237)" xlink:href="#a8l1s"/><use fill="rgba(0,161,201,0.051)" transform="rotate(92 1294 237)" xlink:href="#a8l1s"/><use fill="rgba(0,161,201,0.051)" transform="rotate(93 1294 237)" xlink:href="#a8l1s"/><use fill="rgba(0,161,201,0.052)" transform="rotate(94 1294 237)" xlink:href="#a8l1s"/><use fill="rgba(0,161,201,0.052)" transform="rotate(95 1294 237)" xlink:href="#a8l1s"/><use fill="rgba(0,161,201,0.053)" transform="rotate(96 1294 237)" xlink:href="#a8l1s"/><use fill="rgba(0,161,201,0.053)" transform="rotate(97 1294 237)" xlink:href="#a8l1s"/><use fill="rgba(0,161,201,0.054)" transform="rotate(98 1294 237)" xlink:href="#a8l1s"/><use fill="rgba(0,161,201,0.054)" transform="rotate(99 1294 237)" xlink:href="#a8l1s"/><use fill="rgba(0,161,201,0.055)" transform="rotate(100 1294 237)" xlink:href="#a8l1s"/><use fill="rgba(0,161,201,0.055)" transform="rotate(101 1294 237)" xlink:href="#a8l1s"/><use fill="rgba(0,161,201,0.056)" transform="rotate(102 1294 237)" xlink:href="#a8l1s"/><use fill="rgba(0,161,201,0.057)" transform="rotate(103 1294 237)" xlink:href="#a8l1s"/><use fill="rgba(0,161,201,0.057)" transform="rotate(104 1294 237)" xlink:href="#a8l1s"/><use fill="rgba(0,161,201,0.058)" transform="rotate(105 1294 237)" xlink:href="#a8l1s"/><use fill="rgba(0,161,201,0.058)" transform="rotate(106 1294 237)" xlink:href="#a8l1s"/><use fill="rgba(0,161,201,0.059)" transform="rotate(107 1294 237)" xlink:href="#a8l1s"/><use fill="rgba(0,161,201,0.059)" transform="rotate(108 1294 237)" xlink:href="#a8l1s"/><use fill="rgba(0,161,201,0.06)" transform="rotate(109 1294 237)" xlink:href="#a8l1s"/><use fill="rgba(0,161,201,0.06)" transform="rotate(110 1294 237)" xlink:href="#a8l1s"/><use fill="rgba(0,161,201,0.061)" transform="rotate(111 1294 237)" xlink:href="#a8l1s"/><use fill="rgba(0,161,201,0.061)" transform="rotate(112 1294 237)" xlink:href="#a8l1s"/><use fill="rgba(0,161,201,0.062)" transform="rotate(113 1294 237)" xlink:href="#a8l1s"/><use fill="rgba(0,161,201,0.063)" transform="rotate(114 1294 237)" xlink:href="#a8l1s"/><use fill="rgba(0,161,201,0.063)" transform="rotate(115 1294 237)" xlink:href="#a8l1s"/><use fill="rgba(0,161,201,0.064)" transform="rotate(116 1294 237)" xlink:href="#a8l1s"/><use fill="rgba(0,161,201,0.064)" transform="rotate(117 1294 237)" xlink:href="#a8l1s"/><use fill="rgba(0,161,201,0.065)" transform="rotate(118 1294 237)" xlink:href="#a8l1s"/><use fill="rgba(0,161,201,0.065)" transform="rotate(119 1294 237)" xlink:href="#a8l1s"/><use fill="rgba(0,161,201,0.066)" transform="rotate(120 1294 237)" xlink:href="#a8l1s"/><use fill="rgba(0,161,201,0.066)" transform="rotate(121 1294 237)" xlink:href="#a8l1s"/><use fill="rgba(0,161,201,0.067)" transform="rotate(122 1294 237)" xlink:href="#a8l1s"/><use fill="rgba(0,161,201,0.068)" transform="rotate(123 1294 237)" xlink:href="#a8l1s"/><use fill="rgba(0,161,201,0.068)" transform="rotate(124 1294 237)" xlink:href="#a8l1s"/><use fill="rgba(0,161,201,0.069)" transform="rotate(125 1294 237)" xlink:href="#a8l1s"/><use fill="rgba(0,161,201,0.069)" transform="rotate(126 1294 237)" xlink:href="#a8l1s"/><use fill="rgba(0,161,201,0.07)" transform="rotate(127 1294 237)" xlink:href="#a8l1s"/><use fill="rgba(0,161,201,0.07)" transform="rotate(128 1294 237)" xlink:href="#a8l1s"/><use fill="rgba(0,161,201,0.071)" transform="rotate(129 1294 237)" xlink:href="#a8l1s"/><use fill="rgba(0,161,201,0.071)" transform="rotate(130 1294 237)" xlink:href="#a8l1s"/><use fill="rgba(0,161,201,0.072)" transform="rotate(131 1294 237)" xlink:href="#a8l1s"/><use fill="rgba(0,161,201,0.072)" transform="rotate(132 1294 237)" xlink:href="#a8l1s"/><use fill="rgba(0,161,201,0.073)" transform="rotate(133 1294 237)" xlink:href="#a8l1s"/><use fill="rgba(0,161,201,0.074)" transform="rotate(134 1294 237)" xlink:href="#a8l1s"/><use fill="rgba(0,161,201,0.074)" transform="rotate(135 1294 237)" xlink:href="#a8l1s"/><use fill="rgba(0,161,201,0.075)" transform="rotate(136 1294 237)" xlink:href="#a8l1s"/><use fill="rgba(0,161,201,0.075)" transform="rotate(137 1294 237)" xlink:href="#a8l1s"/><use fill="rgba(0,161,201,0.076)" transform="rotate(138 1294 237)" xlink:href="#a8l1s"/><use fill="rgba(0,161,201,0.076)" transform="rotate(139 1294 237)" xlink:href="#a8l1s"/><use fill="rgba(0,161,201,0.077)" transform="rotate(140 1294 237)" xlink:href="#a8l1s"/><use fill="rgba(0,161,201,0.077)" transform="rotate(141 1294 237)" xlink:href="#a8l1s"/><use fill="rgba(0,161,201,0.078)" transform="rotate(142 1294 237)" xlink:href="#a8l1s"/><use fill="rgba(0,161,201,0.079)" transform="rotate(143 1294 237)" xlink:href="#a8l1s"/><use fill="rgba(0,161,201,0.079)" transform="rotate(144 1294 237)" xlink:href="#a8l1s"/><use fill="rgba(0,161,201,0.08)" transform="rotate(145 1294 237)" xlink:href="#a8l1s"/><use fill="rgba(0,161,201,0.08)" transform="rotate(146 1294 237)" xlink:href="#a8l1s"/><use fill="rgba(0,161,201,0.081)" transform="rotate(147 1294 237)" xlink:href="#a8l1s"/><use fill="rgba(0,161,201,0.081)" transform="rotate(148 1294 237)" xlink:href="#a8l1s"/><use fill="rgba(0,161,201,0.082)" transform="rotate(149 1294 237)" xlink:href="#a8l1s"/><use fill="rgba(0,161,201,0.082)" transform="rotate(150 1294 237)" xlink:href="#a8l1s"/><use fill="rgba(0,161,201,0.083)" transform="rotate(151 1294 237)" xlink:href="#a8l1s"/><use fill="rgba(0,161,201,0.083)" transform="rotate(152 1294 237)" xlink:href="#a8l1s"/><use fill="rgba(0,161,201,0.084)" transform="rotate(153 1294 237)" xlink:href="#a8l1s"/><use fill="rgba(0,161,201,0.085)" transform="rotate(154 1294 237)" xlink:href="#a8l1s"/><use fill="rgba(0,161,201,0.085)" transform="rotate(155 1294 237)" xlink:href="#a8l1s"/><use fill="rgba(0,161,201,0.086)" transform="rotate(156 1294 237)" xlink:href="#a8l1s"/><use fill="rgba(0,161,201,0.086)" transform="rotate(157 1294 237)" xlink:href="#a8l1s"/><use fill="rgba(0,161,201,0.087)" transform="rotate(158 1294 237)" xlink:href="#a8l1s"/><use fill="rgba(0,161,201,0.087)" transform="rotate(159 1294 237)" xlink:href="#a8l1s"/><use fill="rgba(0,161,201,0.088)" transform="rotate(160 1294 237)" xlink:href="#a8l1s"/><use fill="rgba(0,161,201,0.088)" transform="rotate(161 1294 237)" xlink:href="#a8l1s"/><use fill="rgba(0,161,201,0.089)" transform="rotate(162 1294 237)" xlink:href="#a8l1s"/><use fill="rgba(0,161,201,0.089)" transform="rotate(163 1294 237)" xlink:href="#a8l1s"/><use fill="rgba(0,161,201,0.09)" transform="rotate(164 1294 237)" xlink:href="#a8l1s"/><use fill="rgba(0,161,201,0.091)" transform="rotate(165 1294 237)" xlink:href="#a8l1s"/><use fill="rgba(0,161,201,0.091)" transform="rotate(166 1294 237)" xlink:href="#a8l1s"/><use fill="rgba(0,161,201,0.092)" transform="rotate(167 1294 237)" xlink:href="#a8l1s"/><use fill="rgba(0,161,201,0.092)" transform="rotate(168 1294 237)" xlink:href="#a8l1s"/><use fill="rgba(0,161,201,0.093)" transform="rotate(169 1294 237)" xlink:href="#a8l1s"/><use fill="rgba(0,161,201,0.093)" transform="rotate(170 1294 237)" xlink:href="#a8l1s"/><use fill="rgba(0,161,201,0.094)" transform="rotate(171 1294 237)" xlink:href="#a8l1s"/><use fill="rgba(0,161,201,0.094)" transform="rotate(172 1294 237)" xlink:href="#a8l1s"/><use fill="rgba(0,161,201,0.095)" transform="rotate(173 1294 237)" xlink:href="#a8l1s"/><use fill="rgba(0,161,201,0.096)" transform="rotate(174 1294 237)" xlink:href="#a8l1s"/><use fill="rgba(0,161,201,0.096)" transform="rotate(175 1294 237)" xlink:href="#a8l1s"/><use fill="rgba(0,161,201,0.097)" transform="rotate(176 1294 237)" xlink:href="#a8l1s"/><use fill="rgba(0,161,201,0.097)" transform="rotate(177 1294 237)" xlink:href="#a8l1s"/><use fill="rgba(0,161,201,0.098)" transform="rotate(178 1294 237)" xlink:href="#a8l1s"/><use fill="rgba(0,161,201,0.098)" transform="rotate(179 1294 237)" xlink:href="#a8l1s"/><use fill="rgba(0,161,201,0.099)" transform="rotate(180 1294 237)" xlink:href="#a8l1s"/><use fill="rgba(0,161,201,0.099)" transform="rotate(181 1294 237)" xlink:href="#a8l1s"/><use fill="rgba(0,161,201,0.1)" transform="rotate(182 1294 237)" xlink:href="#a8l1s"/><use fill="rgba(0,161,201,0.1)" transform="rotate(183 1294 237)" xlink:href="#a8l1s"/><use fill="rgba(0,161,201,0.101)" transform="rotate(184 1294 237)" xlink:href="#a8l1s"/><use fill="rgba(0,161,201,0.102)" transform="rotate(185 1294 237)" xlink:href="#a8l1s"/><use fill="rgba(0,161,201,0.102)" transform="rotate(186 1294 237)" xlink:href="#a8l1s"/><use fill="rgba(0,161,201,0.103)" transform="rotate(187 1294 237)" xlink:href="#a8l1s"/><use fill="rgba(0,161,201,0.103)" transform="rotate(188 1294 237)" xlink:href="#a8l1s"/><use fill="rgba(0,161,201,0.104)" transform="rotate(189 1294 237)" xlink:href="#a8l1s"/><use fill="rgba(0,161,201,0.104)" transform="rotate(190 1294 237)" xlink:href="#a8l1s"/><use fill="rgba(0,161,201,0.105)" transform="rotate(191 1294 237)" xlink:href="#a8l1s"/><use fill="rgba(0,161,201,0.105)" transform="rotate(192 1294 237)" xlink:href="#a8l1s"/><use fill="rgba(0,161,201,0.106)" transform="rotate(193 1294 237)" xlink:href="#a8l1s"/><use fill="rgba(0,161,201,0.107)" transform="rotate(194 1294 237)" xlink:href="#a8l1s"/><use fill="rgba(0,161,201,0.107)" transform="rotate(195 1294 237)" xlink:href="#a8l1s"/><use fill="rgba(0,161,201,0.108)" transform="rotate(196 1294 237)" xlink:href="#a8l1s"/><use fill="rgba(0,161,201,0.108)" transform="rotate(197 1294 237)" xlink:href="#a8l1s"/><use fill="rgba(0,161,201,0.109)" transform="rotate(198 1294 237)" xlink:href="#a8l1s"/><use fill="rgba(0,161,201,0.109)" transform="rotate(199 1294 237)" xlink:href="#a8l1s"/><use fill="rgba(0,161,201,0.11)" transform="rotate(200 1294 237)" xlink:href="#a8l1s"/><use fill="rgba(0,161,201,0.11)" transform="rotate(201 1294 237)" xlink:href="#a8l1s"/><use fill="rgba(0,161,201,0.111)" transform="rotate(202 1294 237)" xlink:href="#a8l1s"/><use fill="rgba(0,161,201,0.111)" transform="rotate(203 1294 237)" xlink:href="#a8l1s"/><use fill="rgba(0,161,201,0.112)" transform="rotate(204 1294 237)" xlink:href="#a8l1s"/><use fill="rgba(0,161,201,0.113)" transform="rotate(205 1294 237)" xlink:href="#a8l1s"/><use fill="rgba(0,161,201,0.113)" transform="rotate(206 1294 237)" xlink:href="#a8l1s"/><use fill="rgba(0,161,201,0.114)" transform="rotate(207 1294 237)" xlink:href="#a8l1s"/><use fill="rgba(0,161,201,0.114)" transform="rotate(208 1294 237)" xlink:href="#a8l1s"/><use fill="rgba(0,161,201,0.115)" transform="rotate(209 1294 237)" xlink:href="#a8l1s"/><use fill="rgba(0,161,201,0.115)" transform="rotate(210 1294 237)" xlink:href="#a8l1s"/><use fill="rgba(0,161,201,0.116)" transform="rotate(211 1294 237)" xlink:href="#a8l1s"/><use fill="rgba(0,161,201,0.116)" transform="rotate(212 1294 237)" xlink:href="#a8l1s"/><use fill="rgba(0,161,201,0.117)" transform="rotate(213 1294 237)" xlink:href="#a8l1s"/><use fill="rgba(0,161,201,0.117)" transform="rotate(214 1294 237)" xlink:href="#a8l1s"/><use fill="rgba(0,161,201,0.118)" transform="rotate(215 1294 237)" xlink:href="#a8l1s"/><use fill="rgba(0,161,201,0.119)" transform="rotate(216 1294 237)" xlink:href="#a8l1s"/><use fill="rgba(0,161,201,0.119)" transform="rotate(217 1294 237)" xlink:href="#a8l1s"/><use fill="rgba(0,161,201,0.12)" transform="rotate(218 1294 237)" xlink:href="#a8l1s"/><use fill="rgba(0,161,201,0.12)" transform="rotate(219 1294 237)" xlink:href="#a8l1s"/><use fill="rgba(0,161,201,0.121)" transform="rotate(220 1294 237)" xlink:href="#a8l1s"/><use fill="rgba(0,161,201,0.121)" transform="rotate(221 1294 237)" xlink:href="#a8l1s"/><use fill="rgba(0,161,201,0.122)" transform="rotate(222 1294 237)" xlink:href="#a8l1s"/><use fill="rgba(0,161,201,0.122)" transform="rotate(223 1294 237)" xlink:href="#a8l1s"/><use fill="rgba(0,161,201,0.123)" transform="rotate(224 1294 237)" xlink:href="#a8l1s"/><use fill="rgba(0,161,201,0.124)" transform="rotate(225 1294 237)" xlink:href="#a8l1s"/><use fill="rgba(0,161,201,0.124)" transform="rotate(226 1294 237)" xlink:href="#a8l1s"/><use fill="rgba(0,161,201,0.125)" transform="rotate(227 1294 237)" xlink:href="#a8l1s"/><use fill="rgba(0,161,201,0.125)" transform="rotate(228 1294 237)" xlink:href="#a8l1s"/><use fill="rgba(0,161,201,0.126)" transform="rotate(229 1294 237)" xlink:href="#a8l1s"/><use fill="rgba(0,161,201,0.126)" transform="rotate(230 1294 237)" xlink:href="#a8l1s"/><use fill="rgba(0,161,201,0.127)" transform="rotate(231 1294 237)" xlink:href="#a8l1s"/><use fill="rgba(0,161,201,0.127)" transform="rotate(232 1294 237)" xlink:href="#a8l1s"/><use fill="rgba(0,161,201,0.128)" transform="rotate(233 1294 237)" xlink:href="#a8l1s"/><use fill="rgba(0,161,201,0.128)" transform="rotate(234 1294 237)" xlink:href="#a8l1s"/><use fill="rgba(0,161,201,0.129)" transform="rotate(235 1294 237)" xlink:href="#a8l1s"/><use fill="rgba(0,161,201,0.13)" transform="rotate(236 1294 237)" xlink:href="#a8l1s"/><use fill="rgba(0,161,201,0.13)" transform="rotate(237 1294 237)" xlink:href="#a8l1s"/><use fill="rgba(0,161,201,0.131)" transform="rotate(238 1294 237)" xlink:href="#a8l1s"/><use fill="rgba(0,161,201,0.131)" transform="rotate(239 1294 237)" xlink:href="#a8l1s"/><use fill="rgba(0,161,201,0.132)" transform="rotate(240 1294 237)" xlink:href="#a8l1s"/><use fill="rgba(0,161,201,0.132)" transform="rotate(241 1294 237)" xlink:href="#a8l1s"/><use fill="rgba(0,161,201,0.133)" transform="rotate(242 1294 237)" xlink:href="#a8l1s"/><use fill="rgba(0,161,201,0.133)" transform="rotate(243 1294 237)" xlink:href="#a8l1s"/><use fill="rgba(0,161,201,0.134)" transform="rotate(244 1294 237)" xlink:href="#a8l1s"/><use fill="rgba(0,161,201,0.135)" transform="rotate(245 1294 237)" xlink:href="#a8l1s"/><use fill="rgba(0,161,201,0.135)" transform="rotate(246 1294 237)" xlink:href="#a8l1s"/><use fill="rgba(0,161,201,0.136)" transform="rotate(247 1294 237)" xlink:href="#a8l1s"/><use fill="rgba(0,161,201,0.136)" transform="rotate(248 1294 237)" xlink:href="#a8l1s"/><use fill="rgba(0,161,201,0.137)" transform="rotate(249 1294 237)" xlink:href="#a8l1s"/><use fill="rgba(0,161,201,0.137)" transform="rotate(250 1294 237)" xlink:href="#a8l1s"/><use fill="rgba(0,161,201,0.138)" transform="rotate(251 1294 237)" xlink:href="#a8l1s"/><use fill="rgba(0,161,201,0.138)" transform="rotate(252 1294 237)" xlink:href="#a8l1s"/><use fill="rgba(0,161,201,0.139)" transform="rotate(253 1294 237)" xlink:href="#a8l1s"/><use fill="rgba(0,161,201,0.139)" transform="rotate(254 1294 237)" xlink:href="#a8l1s"/><use fill="rgba(0,161,201,0.14)" transform="rotate(255 1294 237)" xlink:href="#a8l1s"/><use fill="rgba(0,161,201,0.142)" transform="rotate(256 1294 237)" xlink:href="#a8l1s"/><use fill="rgba(0,161,201,0.144)" transform="rotate(257 1294 237)" xlink:href="#a8l1s"/><use fill="rgba(0,161,201,0.146)" transform="rotate(258 1294 237)" xlink:href="#a8l1s"/><use fill="rgba(0,161,201,0.147)" transform="rotate(259 1294 237)" xlink:href="#a8l1s"/><use fill="rgba(0,161,201,0.149)" transform="rotate(260 1294 237)" xlink:href="#a8l1s"/><use fill="rgba(0,161,201,0.151)" transform="rotate(261 1294 237)" xlink:href="#a8l1s"/><use fill="rgba(0,161,201,0.153)" transform="rotate(262 1294 237)" xlink:href="#a8l1s"/><use fill="rgba(0,161,201,0.155)" transform="rotate(263 1294 237)" xlink:href="#a8l1s"/><use fill="rgba(0,161,201,0.157)" transform="rotate(264 1294 237)" xlink:href="#a8l1s"/><use fill="rgba(0,161,201,0.159)" transform="rotate(265 1294 237)" xlink:href="#a8l1s"/><use fill="rgba(0,161,201,0.16)" transform="rotate(266 1294 237)" xlink:href="#a8l1s"/><use fill="rgba(0,161,201,0.162)" transform="rotate(267 1294 237)" xlink:href="#a8l1s"/><use fill="rgba(0,161,201,0.164)" transform="rotate(268 1294 237)" xlink:href="#a8l1s"/><use fill="rgba(0,161,201,0.166)" transform="rotate(269 1294 237)" xlink:href="#a8l1s"/><use fill="rgba(0,161,201,0.168)" transform="rotate(270 1294 237)" xlink:href="#a8l1s"/><use fill="rgba(0,161,201,0.17)" transform="rotate(271 1294 237)" xlink:href="#a8l1s"/><use fill="rgba(0,161,201,0.171)" transform="rotate(272 1294 237)" xlink:href="#a8l1s"/><use fill="rgba(0,161,201,0.173)" transform="rotate(273 1294 237)" xlink:href="#a8l1s"/><use fill="rgba(0,161,201,0.175)" transform="rotate(274 1294 237)" xlink:href="#a8l1s"/><use fill="rgba(0,161,201,0.177)" transform="rotate(275 1294 237)" xlink:href="#a8l1s"/><use fill="rgba(0,161,201,0.179)" transform="rotate(276 1294 237)" xlink:href="#a8l1s"/><use fill="rgba(0,161,201,0.181)" transform="rotate(277 1294 237)" xlink:href="#a8l1s"/><use fill="rgba(0,161,201,0.183)" transform="rotate(278 1294 237)" xlink:href="#a8l1s"/><use fill="rgba(0,161,201,0.184)" transform="rotate(279 1294 237)" xlink:href="#a8l1s"/><use fill="rgba(0,161,201,0.186)" transform="rotate(280 1294 237)" xlink:href="#a8l1s"/><use fill="rgba(0,161,201,0.188)" transform="rotate(281 1294 237)" xlink:href="#a8l1s"/><use fill="rgba(0,161,201,0.19)" transform="rotate(282 1294 237)" xlink:href="#a8l1s"/><use fill="rgba(0,161,201,0.192)" transform="rotate(283 1294 237)" xlink:href="#a8l1s"/><use fill="rgba(0,161,201,0.194)" transform="rotate(284 1294 237)" xlink:href="#a8l1s"/><use fill="rgba(0,161,201,0.196)" transform="rotate(285 1294 237)" xlink:href="#a8l1s"/><use fill="rgba(0,161,201,0.197)" transform="rotate(286 1294 237)" xlink:href="#a8l1s"/><use fill="rgba(0,161,201,0.199)" transform="rotate(287 1294 237)" xlink:href="#a8l1s"/><use fill="rgba(0,161,201,0.201)" transform="rotate(288 1294 237)" xlink:href="#a8l1s"/><use fill="rgba(0,161,201,0.203)" transform="rotate(289 1294 237)" xlink:href="#a8l1s"/><use fill="rgba(0,161,201,0.205)" transform="rotate(290 1294 237)" xlink:href="#a8l1s"/><use fill="rgba(0,161,201,0.207)" transform="rotate(291 1294 237)" xlink:href="#a8l1s"/><use fill="rgba(0,161,201,0.209)" transform="rotate(292 1294 237)" xlink:href="#a8l1s"/><use fill="rgba(0,161,201,0.21)" transform="rotate(293 1294 237)" xlink:href="#a8l1s"/><use fill="rgba(0,161,201,0.212)" transform="rotate(294 1294 237)" xlink:href="#a8l1s"/><use fill="rgba(0,161,201,0.214)" transform="rotate(295 1294 237)" xlink:href="#a8l1s"/><use fill="rgba(0,161,201,0.216)" transform="rotate(296 1294 237)" xlink:href="#a8l1s"/><use fill="rgba(0,161,201,0.218)" transform="rotate(297 1294 237)" xlink:href="#a8l1s"/><use fill="rgba(0,161,201,0.22)" transform="rotate(298 1294 237)" xlink:href="#a8l1s"/><use fill="rgba(0,161,201,0.221)" transform="rotate(299 1294 237)" xlink:href="#a8l1s"/><use fill="rgba(0,161,201,0.223)" transform="rotate(300 1294 237)" xlink:href="#a8l1s"/><use fill="rgba(0,161,201,0.225)" transform="rotate(301 1294 237)" xlink:href="#a8l1s"/><use fill="rgba(0,161,201,0.227)" transform="rotate(302 1294 237)" xlink:href="#a8l1s"/><use fill="rgba(0,161,201,0.229)" transform="rotate(303 1294 237)" xlink:href="#a8l1s"/><use fill="rgba(0,161,201,0.231)" transform="rotate(304 1294 237)" xlink:href="#a8l1s"/><use fill="rgba(0,161,201,0.233)" transform="rotate(305 1294 237)" xlink:href="#a8l1s"/><use fill="rgba(0,161,201,0.234)" transform="rotate(306 1294 237)" xlink:href="#a8l1s"/><use fill="rgba(0,161,201,0.236)" transform="rotate(307 1294 237)" xlink:href="#a8l1s"/><use fill="rgba(0,161,201,0.238)" transform="rotate(308 1294 237)" xlink:href="#a8l1s"/><use fill="rgba(0,161,201,0.24)" transform="rotate(309 1294 237)" xlink:href="#a8l1s"/><use fill="rgba(0,162,202,0.242)" transform="rotate(310 1294 237)" xlink:href="#a8l1s"/><use fill="rgba(0,163,203,0.245)" transform="rotate(311 1294 237)" xlink:href="#a8l1s"/><use fill="rgba(0,164,204,0.247)" transform="rotate(312 1294 237)" xlink:href="#a8l1s"/><use fill="rgba(0,165,205,0.25)" transform="rotate(313 1294 237)" xlink:href="#a8l1s"/><use fill="rgba(0,165,207,0.252)" transform="rotate(314 1294 237)" xlink:href="#a8l1s"/><use fill="rgba(0,166,208,0.254)" transform="rotate(315 1294 237)" xlink:href="#a8l1s"/><use fill="rgba(0,167,209,0.257)" transform="rotate(316 1294 237)" xlink:href="#a8l1s"/><use fill="rgba(0,168,210,0.259)" transform="rotate(317 1294 237)" xlink:href="#a8l1s"/><use fill="rgba(0,169,211,0.262)" transform="rotate(318 1294 237)" xlink:href="#a8l1s"/><use fill="rgba(0,170,212,0.264)" transform="rotate(319 1294 237)" xlink:href="#a8l1s"/><use fill="rgba(0,171,213,0.266)" transform="rotate(320 1294 237)" xlink:href="#a8l1s"/><use fill="rgba(0,172,214,0.269)" transform="rotate(321 1294 237)" xlink:href="#a8l1s"/><use fill="rgba(0,172,216,0.271)" transform="rotate(322 1294 237)" xlink:href="#a8l1s"/><use fill="rgba(0,173,217,0.274)" transform="rotate(323 1294 237)" xlink:href="#a8l1s"/><use fill="rgba(0,174,218,0.276)" transform="rotate(324 1294 237)" xlink:href="#a8l1s"/><use fill="rgba(0,175,219,0.278)" transform="rotate(325 1294 237)" xlink:href="#a8l1s"/><use fill="rgba(0,176,220,0.281)" transform="rotate(326 1294 237)" xlink:href="#a8l1s"/><use fill="rgba(0,177,221,0.283)" transform="rotate(327 1294 237)" xlink:href="#a8l1s"/><use fill="rgba(0,178,222,0.286)" transform="rotate(328 1294 237)" xlink:href="#a8l1s"/><use fill="rgba(0,179,223,0.288)" transform="rotate(329 1294 237)" xlink:href="#a8l1s"/><use fill="rgba(0,179,225,0.29)" transform="rotate(330 1294 237)" xlink:href="#a8l1s"/><use fill="rgba(0,180,226,0.293)" transform="rotate(331 1294 237)" xlink:href="#a8l1s"/><use fill="rgba(0,181,227,0.295)" transform="rotate(332 1294 237)" xlink:href="#a8l1s"/><use fill="rgba(0,182,228,0.298)" transform="rotate(333 1294 237)" xlink:href="#a8l1s"/><use fill="rgba(0,183,229,0.3)" transform="rotate(334 1294 237)" xlink:href="#a8l1s"/><use fill="rgba(0,184,230,0.304)" transform="rotate(335 1294 237)" xlink:href="#a8l1s"/><use fill="rgba(0,185,231,0.308)" transform="rotate(336 1294 237)" xlink:href="#a8l1s"/><use fill="rgba(0,186,232,0.312)" transform="rotate(337 1294 237)" xlink:href="#a8l1s"/><use fill="rgba(0,186,233,0.316)" transform="rotate(338 1294 237)" xlink:href="#a8l1s"/><use fill="rgba(0,187,234,0.32)" transform="rotate(339 1294 237)" xlink:href="#a8l1s"/><use fill="rgba(0,188,235,0.324)" transform="rotate(340 1294 237)" xlink:href="#a8l1s"/><use fill="rgba(0,189,236,0.328)" transform="rotate(341 1294 237)" xlink:href="#a8l1s"/><use fill="rgba(0,190,237,0.332)" transform="rotate(342 1294 237)" xlink:href="#a8l1s"/><use fill="rgba(0,191,238,0.336)" transform="rotate(343 1294 237)" xlink:href="#a8l1s"/><use fill="rgba(0,191,239,0.34)" transform="rotate(344 1294 237)" xlink:href="#a8l1s"/><use fill="rgba(0,192,240,0.344)" transform="rotate(345 1294 237)" xlink:href="#a8l1s"/><use fill="rgba(0,193,241,0.348)" transform="rotate(346 1294 237)" xlink:href="#a8l1s"/><use fill="rgba(0,194,243,0.352)" transform="rotate(347 1294 237)" xlink:href="#a8l1s"/><use fill="rgba(0,195,244,0.356)" transform="rotate(348 1294 237)" xlink:href="#a8l1s"/><use fill="rgba(0,196,245,0.36)" transform="rotate(349 1294 237)" xlink:href="#a8l1s"/><use fill="rgba(0,196,246,0.364)" transform="rotate(350 1294 237)" xlink:href="#a8l1s"/><use fill="rgba(0,197,247,0.368)" transform="rotate(351 1294 237)" xlink:href="#a8l1s"/><use fill="rgba(0,198,248,0.372)" transform="rotate(352 1294 237)" xlink:href="#a8l1s"/><use fill="rgba(0,199,249,0.376)" transform="rotate(353 1294 237)" xlink:href="#a8l1s"/><use fill="rgba(0,200,250,0.38)" transform="rotate(354 1294 237)" xlink:href="#a8l1s"/><use fill="rgba(0,201,251,0.384)" transform="rotate(355 1294 237)" xlink:href="#a8l1s"/><use fill="rgba(0,201,252,0.388)" transform="rotate(356 1294 237)" xlink:href="#a8l1s"/><use fill="rgba(0,202,253,0.392)" transform="rotate(357 1294 237)" xlink:href="#a8l1s"/><use fill="rgba(0,203,254,0.396)" transform="rotate(358 1294 237)" xlink:href="#a8l1s"/></g></g></g><g/><g clip-path="url(#a8l1t)"><use fill="#fff" fill-opacity="0" stroke="#009bb2" stroke-miterlimit="50" stroke-width="4" xlink:href="#a8l1u"/></g><g clip-path="url(#a8l1t)" filter="url(#a8l1v)"><use fill="#fff" fill-opacity="0" stroke="#00deff" stroke-miterlimit="50" stroke-width="4" xlink:href="#a8l1w"/></g></g><g clip-path="url(#a8l1d)"><use fill="#009bb2" xlink:href="#a8l1x"/></g><g clip-path="url(#a8l1d)"><g><use fill="#0c92a5" xlink:href="#a8l1y"/></g><g><use fill="#008396" xlink:href="#a8l1z"/></g></g><g clip-path="url(#a8l1d)" opacity=".79"><use fill="url(#a8l1A)" xlink:href="#a8l1b"/></g></g></g></g></svg>