<svg width="1920" height="470" viewBox="0 0 1920 470" fill="none" xmlns="http://www.w3.org/2000/svg">
<mask id="mask0" mask-type="alpha" maskUnits="userSpaceOnUse" x="0" y="0" width="1920" height="470">
<rect width="1920" height="470" fill="white"/>
</mask>
<g mask="url(#mask0)">
<path fill-rule="evenodd" clip-rule="evenodd" d="M0 470H1920V0H0V470Z" fill="#163942"/>
<path d="M1294 -432V904" stroke="#1B4851" stroke-width="2"/>
<path d="M626 236H1962" stroke="#1B4851" stroke-width="2"/>
<path d="M960 -342.505L1628 814.505" stroke="#1B4851" stroke-width="2"/>
<path d="M715.495 570L1872.51 -98" stroke="#1B4851" stroke-width="2"/>
<path d="M715.495 -98L1872.51 570" stroke="#1B4851" stroke-width="2"/>
<path d="M960 814.505L1628 -342.505" stroke="#1B4851" stroke-width="2"/>
<path fill-rule="evenodd" clip-rule="evenodd" d="M1294 905C1662.93 905 1962 605.926 1962 237C1962 -131.926 1662.93 -431 1294 -431C925.074 -431 626 -131.926 626 237C626 605.926 925.074 905 1294 905Z" stroke="#1B4851" stroke-width="2"/>
<path fill-rule="evenodd" clip-rule="evenodd" d="M1294 794C1601.62 794 1851 544.623 1851 237C1851 -70.6226 1601.62 -320 1294 -320C986.377 -320 737 -70.6226 737 237C737 544.623 986.377 794 1294 794Z" stroke="#1B4851" stroke-width="2"/>
<path fill-rule="evenodd" clip-rule="evenodd" d="M1294 683C1540.32 683 1740 483.319 1740 237C1740 -9.319 1540.32 -209 1294 -209C1047.68 -209 848 -9.319 848 237C848 483.319 1047.68 683 1294 683Z" stroke="#1B4851" stroke-width="2"/>
<path fill-rule="evenodd" clip-rule="evenodd" d="M1294 572C1479.02 572 1629 422.015 1629 237C1629 51.9846 1479.02 -98 1294 -98C1108.98 -98 959 51.9846 959 237C959 422.015 1108.98 572 1294 572Z" stroke="#1B4851" stroke-width="2"/>
<path fill-rule="evenodd" clip-rule="evenodd" d="M1294 464C1419.92 464 1522 361.921 1522 236C1522 110.079 1419.92 8 1294 8C1168.08 8 1066 110.079 1066 236C1066 361.921 1168.08 464 1294 464Z" stroke="#1B4851" stroke-width="2"/>
<path fill-rule="evenodd" clip-rule="evenodd" d="M1294 352C1358.07 352 1410 300.065 1410 236C1410 171.935 1358.07 120 1294 120C1229.93 120 1178 171.935 1178 236C1178 300.065 1229.93 352 1294 352Z" stroke="#1B4851" stroke-width="2"/>
<g filter="url(#filter0_f)">
<path fill-rule="evenodd" clip-rule="evenodd" d="M1087.58 872.306C1438.45 986.31 1815.3 794.293 1929.31 443.423C2043.31 92.5537 1851.29 -284.301 1500.42 -398.306C1149.55 -512.31 772.699 -320.293 658.694 30.5766C544.69 381.446 736.707 758.301 1087.58 872.306Z" fill="url(#paint0_angular)"/>
</g>
<mask id="mask1" mask-type="alpha" maskUnits="userSpaceOnUse" x="1294" y="-400" width="668" height="846">
<path fill-rule="evenodd" clip-rule="evenodd" d="M1502.31 -399.57L1294 238L1928.49 445.321C2043.44 94.7588 1852.87 -284.624 1502.31 -399.57Z" fill="white"/>
</mask>
<g mask="url(#mask1)">
<path d="M1294 236L1928.93 443.307" stroke="#009BB2" stroke-width="4"/>
<g filter="url(#filter1_f)">
<path d="M1286.95 239L1920 442.846" stroke="#00DEFF" stroke-width="4"/>
</g>
</g>
<path fill-rule="evenodd" clip-rule="evenodd" d="M1294 241C1291.24 241 1289 238.761 1289 236C1289 233.239 1291.24 231 1294 231C1296.76 231 1299 233.239 1299 236C1299 238.761 1296.76 241 1294 241Z" fill="#009BB2"/>
<path fill-rule="evenodd" clip-rule="evenodd" d="M1787.68 329.789L1783.11 320.075C1783.08 320.009 1783.01 319.979 1782.94 320.015C1782.91 320.027 1782.89 320.051 1782.87 320.075L1778.28 329.789L1768.11 331.277C1768.04 331.289 1767.99 331.355 1768 331.427C1768.01 331.457 1768.02 331.487 1768.04 331.511L1775.42 339.076L1773.66 349.839C1773.65 349.911 1773.7 349.983 1773.78 349.995C1773.8 350.001 1773.83 349.995 1773.86 349.983L1783 344.896L1792.16 349.983C1792.23 350.019 1792.31 349.995 1792.34 349.929C1792.36 349.899 1792.36 349.869 1792.36 349.839L1790.57 339.076L1797.96 331.511C1798.01 331.457 1798.01 331.367 1797.96 331.313C1797.94 331.295 1797.92 331.283 1797.89 331.277L1787.68 329.789Z" fill="#0C92A5"/>
<path fill-rule="evenodd" clip-rule="evenodd" d="M1579.74 204.831L1576.09 197.06C1576.06 197.008 1576.01 196.984 1575.95 197.012C1575.93 197.022 1575.91 197.041 1575.9 197.06L1572.23 204.831L1564.09 206.021C1564.03 206.031 1564 206.084 1564 206.141C1564.01 206.165 1564.01 206.189 1564.03 206.208L1569.93 212.261L1568.53 220.871C1568.52 220.929 1568.56 220.987 1568.62 220.996C1568.64 221.001 1568.67 220.996 1568.69 220.987L1576 216.917L1583.33 220.987C1583.38 221.015 1583.45 220.996 1583.47 220.943C1583.48 220.919 1583.48 220.895 1583.48 220.871L1582.05 212.261L1587.97 206.208C1588.01 206.165 1588.01 206.093 1587.97 206.05C1587.95 206.036 1587.93 206.026 1587.91 206.021L1579.74 204.831Z" fill="#008396"/>
<g style="mix-blend-mode:multiply" opacity="0.792899">
<rect width="1920" height="470" fill="url(#paint1_radial)"/>
</g>
</g>
<defs>
<filter id="filter0_f" x="614.946" y="-442.054" width="1358.11" height="1358.11" filterUnits="userSpaceOnUse" color-interpolation-filters="sRGB">
<feFlood flood-opacity="0" result="BackgroundImageFix"/>
<feBlend mode="normal" in="SourceGraphic" in2="BackgroundImageFix" result="shape"/>
<feGaussianBlur stdDeviation="5.43656" result="effect1_foregroundBlur"/>
</filter>
<filter id="filter1_f" x="1272.74" y="223.505" width="661.461" height="234.836" filterUnits="userSpaceOnUse" color-interpolation-filters="sRGB">
<feFlood flood-opacity="0" result="BackgroundImageFix"/>
<feBlend mode="normal" in="SourceGraphic" in2="BackgroundImageFix" result="shape"/>
<feGaussianBlur stdDeviation="6.7957" result="effect1_foregroundBlur"/>
</filter>
<radialGradient id="paint0_angular" cx="0" cy="0" r="1" gradientUnits="userSpaceOnUse" gradientTransform="translate(1294 237) rotate(18) scale(668)">
<stop stop-color="#00A1C9" stop-opacity="0.01"/>
<stop offset="0.712473" stop-color="#00A1C9" stop-opacity="0.14"/>
<stop offset="0.864343" stop-color="#00A1C9" stop-opacity="0.24"/>
<stop offset="0.9312" stop-color="#00B7E5" stop-opacity="0.3"/>
<stop offset="1" stop-color="#00CCFF" stop-opacity="0.4"/>
</radialGradient>
<radialGradient id="paint1_radial" cx="0" cy="0" r="1" gradientUnits="userSpaceOnUse" gradientTransform="translate(620.5 219.992) scale(1337.17 327.329)">
<stop stop-color="white" stop-opacity="0.01"/>
<stop offset="1" stop-opacity="0.33"/>
</radialGradient>
</defs>
</svg>
