<svg width="128" height="128" viewBox="0 0 128 128" fill="none" xmlns="http://www.w3.org/2000/svg">
<rect width="128" height="128" rx="64" fill="#FFEEB8"/>
<path fill-rule="evenodd" clip-rule="evenodd" d="M50 74C50 71.484 47.891 69.969 45.729 69.969C43.063 69.969 41.104 71.604 39.927 72.546C38.071 74.029 35.795 74.934 33.282 74.997C27.44 75.143 22.367 70.506 22.02 64.673C21.64 58.293 26.702 53 33 53C35.625 53 38.002 53.915 39.927 55.454C41.104 56.396 43.063 58.031 45.729 58.031C47.891 58.031 50 56.516 50 54V36C50 34.3431 48.6569 33 47 33H8.008C2.912 42.186 0 52.751 0 64C0 75.249 2.912 85.814 8.008 95H47C48.6569 95 50 93.6569 50 92V74Z" fill="#5DCBB6"/>
<path fill-rule="evenodd" clip-rule="evenodd" d="M95 33C93.3432 33 92 34.3431 92 36V54C92 56.516 89.891 58.031 87.729 58.031C85.063 58.031 83.104 56.396 81.927 55.454C80.071 53.971 77.795 53.066 75.282 53.003C69.44 52.857 64.368 57.494 64.02 63.327C63.64 69.707 68.702 75 75 75C77.625 75 80.002 74.085 81.927 72.546C83.104 71.604 85.063 69.969 87.729 69.969C89.891 69.969 92 71.484 92 74V92C92 93.6569 93.3432 95 95 95H119.992C125.088 85.814 128 75.249 128 64C128 52.751 125.088 42.186 119.992 33H95Z" fill="#469FA6"/>
</svg>
