<svg width="96" height="96" viewBox="0 0 96 96" fill="none" xmlns="http://www.w3.org/2000/svg">
<path fill-rule="evenodd" clip-rule="evenodd" d="M48 96C74.5097 96 96 74.5097 96 48C96 21.4903 74.5097 0 48 0C21.4903 0 0 21.4903 0 48C0 74.5097 21.4903 96 48 96Z" fill="#277A80"/>
<rect x="31" y="19" width="34" height="58" rx="1" fill="#1D5C60"/>
<path fill-rule="evenodd" clip-rule="evenodd" d="M46 23V64L60.9723 73L61 23H46Z" fill="#469FA6"/>
<path fill-rule="evenodd" clip-rule="evenodd" d="M51 48C52.1046 48 53 47.1046 53 46C53 44.8954 52.1046 44 51 44C49.8954 44 49 44.8954 49 46C49 47.1046 49.8954 48 51 48Z" fill="#1D5C60"/>
</svg>
