<svg width="48" height="48" viewBox="0 0 48 48" fill="none" xmlns="http://www.w3.org/2000/svg">
<path fill-rule="evenodd" clip-rule="evenodd" d="M44 48H4C1.791 48 0 46.209 0 44V4C0 1.791 1.791 0 4 0H44C46.209 0 48 1.791 48 4V44C48 46.209 46.209 48 44 48Z" fill="#FFEEB8"/>
<path fill-rule="evenodd" clip-rule="evenodd" d="M12 32H36V16H12V32Z" fill="#5DCBB6"/>
<path fill-rule="evenodd" clip-rule="evenodd" d="M12 16L24 25L36 16H12Z" fill="#469FA6"/>
<path fill-rule="evenodd" clip-rule="evenodd" d="M34.2945 29.1734L34.0739 26H36.8134L36.5639 29.1734L39.4694 27.9475L40.3261 30.5371L37.2546 31.2588L39.2755 33.6803L37.1176 35.295L35.4298 32.5956L33.7687 35.295L31.6118 33.6803L33.6316 31.2879L30.5601 30.564L31.4168 27.9475L34.2945 29.1734Z" fill="#469FA6"/>
</svg>
