<svg width="128" height="128" viewBox="0 0 128 128" fill="none" xmlns="http://www.w3.org/2000/svg">
<rect width="128" height="128" rx="64" fill="#FFEEB8"/>
<path fill-rule="evenodd" clip-rule="evenodd" d="M58 90.7154C58 92.5064 56.445 93.8684 54.663 93.6994C36.898 92.0194 23 77.0614 23 58.8574C23 40.6524 36.898 25.6944 54.663 24.0144C56.445 23.8454 58 25.2074 58 26.9984V90.7154Z" fill="#5DCBB6"/>
<mask id="mask0" mask-type="alpha" maskUnits="userSpaceOnUse" x="23" y="24" width="35" height="70">
<path fill-rule="evenodd" clip-rule="evenodd" d="M58 90.7154C58 92.5064 56.445 93.8684 54.663 93.6994C36.898 92.0194 23 77.0614 23 58.8574C23 40.6524 36.898 25.6944 54.663 24.0144C56.445 23.8454 58 25.2074 58 26.9984V90.7154Z" fill="white"/>
</mask>
<g mask="url(#mask0)">
<path d="M39 48.8571C40.133 46.8401 42.066 45.8571 44 45.8571C46.072 45.8571 47.81 46.8471 49 48.8571" stroke="#469FA6" stroke-width="6" stroke-linecap="round"/>
<path d="M58 79.857C50.5864 79.857 44.0703 76.0151 40.3333 70.2141" stroke="#469FA6" stroke-width="6" stroke-linecap="round"/>
</g>
<path fill-rule="evenodd" clip-rule="evenodd" d="M70 100.715C70 102.506 71.555 103.868 73.337 103.699C91.102 102.019 105 87.0614 105 68.8574C105 50.6524 91.102 35.6944 73.337 34.0144C71.555 33.8454 70 35.2074 70 36.9984V100.715Z" fill="#469FA6"/>
<mask id="mask1" mask-type="alpha" maskUnits="userSpaceOnUse" x="70" y="34" width="35" height="70">
<path fill-rule="evenodd" clip-rule="evenodd" d="M70 100.715C70 102.506 71.555 103.868 73.337 103.699C91.102 102.019 105 87.0614 105 68.8574C105 50.6524 91.102 35.6944 73.337 34.0144C71.555 33.8454 70 35.2074 70 36.9984V100.715Z" fill="white"/>
</mask>
<g mask="url(#mask1)">
<path d="M70 77.441C76.1287 77.441 81.644 80.0666 85.483 84.254" stroke="#5DCBB6" stroke-width="6" stroke-linecap="round"/>
<path d="M89 55.8571C87.867 57.8741 85.934 58.8571 84 58.8571C81.928 58.8571 80.19 57.8671 79 55.8571" stroke="#5DCBB6" stroke-width="6" stroke-linecap="round"/>
</g>
</svg>
