<svg data-name="Layer 1" xmlns="http://www.w3.org/2000/svg" viewBox="0 0 188 188"><defs><linearGradient id="a" x1="-1073.87" y1="-1943.47" x2="8570.46" y2="17028.05" gradientUnits="userSpaceOnUse"><stop offset="0" stop-color="#34a8ff"/><stop offset=".25" stop-color="#c1a4f5"/><stop offset=".54" stop-color="#847edf"/><stop offset=".73" stop-color="#7da6fa"/><stop offset="1" stop-color="#3049c0"/><stop offset="1" stop-color="#f8a9fd"/></linearGradient><linearGradient id="b" x1="-1435.38" y1="-122.15" x2="-1435.38" y2="-125.85" gradientTransform="matrix(28.15 0 0 -33.86 40504.18 -4102.08)" gradientUnits="userSpaceOnUse"><stop offset="0" stop-color="#96f" stop-opacity=".99"/><stop offset=".5" stop-color="#466eff" stop-opacity=".99"/><stop offset="1" stop-color="#53d4fe"/></linearGradient></defs><path d="M92.63 34.29H58a7 7 0 0 0-7 7v111.3a7 7 0 0 0 7 7h34.63a62.68 62.68 0 0 0 62.52-62.41v-.45a62.68 62.68 0 0 0-62.52-62.45zm0 27.82a34.83 34.83 0 0 1 34.63 34.58v.45a34.83 34.83 0 0 1-34.63 34.58H78.91V62.13h13.72z" fill="url(#a)"/><path data-name="path-9" d="M92.63 34.29H58a7 7 0 0 0-7 7v111.3a7 7 0 0 0 7 7h34.63a62.68 62.68 0 0 0 62.52-62.41v-.45a62.68 62.68 0 0 0-62.52-62.45zm0 27.82a34.83 34.83 0 0 1 34.63 34.58v.45a34.83 34.83 0 0 1-34.63 34.58H78.91V62.13h13.72z" fill="url(#b)"/></svg>