<svg data-name="Layer 1" xmlns="http://www.w3.org/2000/svg" viewBox="0 0 188 188"><defs><linearGradient id="a" x1="-1073.87" y1="-1714.28" x2="8570.46" y2="17257.23" gradientUnits="userSpaceOnUse"><stop offset="0" stop-color="#34a8ff"/><stop offset=".25" stop-color="#c1a4f5"/><stop offset=".54" stop-color="#847edf"/><stop offset=".73" stop-color="#7da6fa"/><stop offset="1" stop-color="#3049c0"/><stop offset="1" stop-color="#f8a9fd"/></linearGradient><linearGradient id="b" x1="94" y1="169" x2="94" y2="23" gradientUnits="userSpaceOnUse"><stop offset="0" stop-color="#96f" stop-opacity=".99"/><stop offset=".5" stop-color="#466eff" stop-opacity=".99"/><stop offset="1" stop-color="#53d4fe"/></linearGradient></defs><path d="M158.4 23H29.6a4.59 4.59 0 0 0-4.6 4.58v18.33a4.59 4.59 0 0 0 4.6 4.58h50.6v111.63a6.89 6.89 0 0 0 6.89 6.88h13.82a6.89 6.89 0 0 0 6.91-6.87V50.5h50.6a4.59 4.59 0 0 0 4.6-4.58V27.58A4.59 4.59 0 0 0 158.4 23z" fill="url(#a)"/><path d="M158.4 23H29.6a4.59 4.59 0 0 0-4.6 4.58v18.33a4.59 4.59 0 0 0 4.6 4.58h50.6v111.63a6.89 6.89 0 0 0 6.89 6.88h13.82a6.89 6.89 0 0 0 6.91-6.87V50.5h50.6a4.59 4.59 0 0 0 4.6-4.58V27.58A4.59 4.59 0 0 0 158.4 23z" fill="url(#b)"/></svg>