<svg data-name="Layer 1" xmlns="http://www.w3.org/2000/svg" viewBox="0 0 188 188"><defs><linearGradient id="a" x1="-1073.87" y1="-2188.16" x2="8570.46" y2="16783.35" gradientUnits="userSpaceOnUse"><stop offset="0" stop-color="#34a8ff"/><stop offset=".25" stop-color="#c1a4f5"/><stop offset=".54" stop-color="#847edf"/><stop offset=".73" stop-color="#7da6fa"/><stop offset="1" stop-color="#3049c0"/><stop offset="1" stop-color="#f8a9fd"/></linearGradient><linearGradient id="b" x1="-1447.29" y1="-372.79" x2="-1447.29" y2="-376.49" gradientTransform="matrix(34.99 0 0 -34.94 50741.6 -12991.56)" gradientUnits="userSpaceOnUse"><stop offset="0" stop-color="#96f" stop-opacity=".99"/><stop offset=".5" stop-color="#466eff" stop-opacity=".99"/><stop offset="1" stop-color="#53d4fe"/></linearGradient></defs><path d="M94 32.3a64.62 64.62 0 1 0 64.73 64.62A64.67 64.67 0 0 0 94 32.3m-.44 28.64a36.78 36.78 0 1 1-36.84 36.78 36.81 36.81 0 0 1 36.84-36.78" fill="url(#a)"/><path data-name="path-10" d="M94 32.3a64.62 64.62 0 1 0 64.73 64.62A64.67 64.67 0 0 0 94 32.3m-.44 28.64a36.78 36.78 0 1 1-36.84 36.78 36.81 36.81 0 0 1 36.84-36.78" fill="url(#b)"/></svg>